M48
; DRILL file {KiCad 6.0.11-2627ca5db0~126~ubuntu20.04.1} date jue 14 mar 2024 23:26:53
; FORMAT={-:-/ absolute / metric / decimal}
; #@! TF.CreationDate,2024-03-14T23:26:53-05:00
; #@! TF.GenerationSoftware,Kicad,Pcbnew,6.0.11-2627ca5db0~126~ubuntu20.04.1
; #@! TF.FileFunction,NonPlated,1,2,NPTH
FMAT,2
METRIC
; #@! TA.AperFunction,NonPlated,NPTH,ComponentDrill
T1C3.200
%
G90
G05
T1
X92.3Y-61.743
X92.3Y-74.383
X92.3Y-87.023
X92.3Y-99.663
X92.3Y-112.303
X92.3Y-124.943
X92.3Y-137.583
X101.3Y-61.743
X101.3Y-74.383
X101.3Y-87.023
X101.3Y-99.663
X101.3Y-112.303
X101.3Y-124.943
X101.3Y-137.583
X113.3Y-61.743
X113.3Y-74.383
X113.3Y-87.023
X113.3Y-99.663
X113.3Y-112.303
X113.3Y-124.943
X113.3Y-137.583
X122.3Y-61.743
X122.3Y-74.383
X122.3Y-87.023
X122.3Y-99.663
X122.3Y-112.303
X122.3Y-124.943
X122.3Y-137.583
X141.8Y-61.743
X141.8Y-74.383
X141.8Y-87.023
X141.8Y-99.663
X141.8Y-112.303
X141.8Y-124.943
X141.8Y-137.583
X150.8Y-61.743
X150.8Y-74.383
X150.8Y-87.023
X150.8Y-99.663
X150.8Y-112.303
X150.8Y-124.943
X150.8Y-137.583
X162.8Y-61.743
X162.8Y-74.383
X162.8Y-87.023
X162.8Y-99.663
X162.8Y-112.303
X162.8Y-124.943
X162.8Y-137.583
X171.8Y-61.743
X171.8Y-74.383
X171.8Y-87.023
X171.8Y-99.663
X171.8Y-112.303
X171.8Y-124.943
X171.8Y-137.583
T0
M30
