%TF.GenerationSoftware,KiCad,Pcbnew,6.0.11-2627ca5db0~126~ubuntu20.04.1*%
%TF.CreationDate,2024-03-14T23:27:02-05:00*%
%TF.ProjectId,,58585858-5858-4585-9858-585858585858,rev?*%
%TF.SameCoordinates,Original*%
%TF.FileFunction,Soldermask,Top*%
%TF.FilePolarity,Negative*%
%FSLAX46Y46*%
G04 Gerber Fmt 4.6, Leading zero omitted, Abs format (unit mm)*
G04 Created by KiCad (PCBNEW 6.0.11-2627ca5db0~126~ubuntu20.04.1) date 2024-03-14 23:27:02*
%MOMM*%
%LPD*%
G01*
G04 APERTURE LIST*
G04 Aperture macros list*
%AMRoundRect*
0 Rectangle with rounded corners*
0 $1 Rounding radius*
0 $2 $3 $4 $5 $6 $7 $8 $9 X,Y pos of 4 corners*
0 Add a 4 corners polygon primitive as box body*
4,1,4,$2,$3,$4,$5,$6,$7,$8,$9,$2,$3,0*
0 Add four circle primitives for the rounded corners*
1,1,$1+$1,$2,$3*
1,1,$1+$1,$4,$5*
1,1,$1+$1,$6,$7*
1,1,$1+$1,$8,$9*
0 Add four rect primitives between the rounded corners*
20,1,$1+$1,$2,$3,$4,$5,0*
20,1,$1+$1,$4,$5,$6,$7,0*
20,1,$1+$1,$6,$7,$8,$9,0*
20,1,$1+$1,$8,$9,$2,$3,0*%
G04 Aperture macros list end*
%TA.AperFunction,Profile*%
%ADD10C,0.100000*%
%TD*%
%ADD11C,3.200000*%
%ADD12C,1.000000*%
%ADD13C,1.500000*%
%ADD14RoundRect,2.437500X-2.437500X-2.437500X2.437500X-2.437500X2.437500X2.437500X-2.437500X2.437500X0*%
G04 APERTURE END LIST*
D10*
X152800000Y-131262800D02*
G75*
G03*
X160800000Y-131262800I4000000J0D01*
G01*
X181550000Y-131262800D02*
X181550000Y-143902800D01*
X160800000Y-131262800D02*
X181550000Y-131262800D01*
X132050000Y-131262800D02*
X132050000Y-143902800D01*
X160800000Y-143902800D02*
X181550000Y-143902800D01*
X132050000Y-143902800D02*
X152800000Y-143902800D01*
X160800000Y-143902800D02*
G75*
G03*
X152800000Y-143902800I-4000000J0D01*
G01*
X132050000Y-131262800D02*
X152800000Y-131262800D01*
X103300000Y-131262800D02*
G75*
G03*
X111300000Y-131262800I4000000J0D01*
G01*
X132050000Y-131262800D02*
X132050000Y-143902800D01*
X111300000Y-131262800D02*
X132050000Y-131262800D01*
X82550000Y-131262800D02*
X82550000Y-143902800D01*
X111300000Y-143902800D02*
X132050000Y-143902800D01*
X82550000Y-143902800D02*
X103300000Y-143902800D01*
X111300000Y-143902800D02*
G75*
G03*
X103300000Y-143902800I-4000000J0D01*
G01*
X82550000Y-131262800D02*
X103300000Y-131262800D01*
X152800000Y-118622800D02*
G75*
G03*
X160800000Y-118622800I4000000J0D01*
G01*
X181550000Y-118622800D02*
X181550000Y-131262800D01*
X160800000Y-118622800D02*
X181550000Y-118622800D01*
X132050000Y-118622800D02*
X132050000Y-131262800D01*
X160800000Y-131262800D02*
X181550000Y-131262800D01*
X132050000Y-131262800D02*
X152800000Y-131262800D01*
X160800000Y-131262800D02*
G75*
G03*
X152800000Y-131262800I-4000000J0D01*
G01*
X132050000Y-118622800D02*
X152800000Y-118622800D01*
X103300000Y-118622800D02*
G75*
G03*
X111300000Y-118622800I4000000J0D01*
G01*
X132050000Y-118622800D02*
X132050000Y-131262800D01*
X111300000Y-118622800D02*
X132050000Y-118622800D01*
X82550000Y-118622800D02*
X82550000Y-131262800D01*
X111300000Y-131262800D02*
X132050000Y-131262800D01*
X82550000Y-131262800D02*
X103300000Y-131262800D01*
X111300000Y-131262800D02*
G75*
G03*
X103300000Y-131262800I-4000000J0D01*
G01*
X82550000Y-118622800D02*
X103300000Y-118622800D01*
X152800000Y-105982800D02*
G75*
G03*
X160800000Y-105982800I4000000J0D01*
G01*
X181550000Y-105982800D02*
X181550000Y-118622800D01*
X160800000Y-105982800D02*
X181550000Y-105982800D01*
X132050000Y-105982800D02*
X132050000Y-118622800D01*
X160800000Y-118622800D02*
X181550000Y-118622800D01*
X132050000Y-118622800D02*
X152800000Y-118622800D01*
X160800000Y-118622800D02*
G75*
G03*
X152800000Y-118622800I-4000000J0D01*
G01*
X132050000Y-105982800D02*
X152800000Y-105982800D01*
X103300000Y-105982800D02*
G75*
G03*
X111300000Y-105982800I4000000J0D01*
G01*
X132050000Y-105982800D02*
X132050000Y-118622800D01*
X111300000Y-105982800D02*
X132050000Y-105982800D01*
X82550000Y-105982800D02*
X82550000Y-118622800D01*
X111300000Y-118622800D02*
X132050000Y-118622800D01*
X82550000Y-118622800D02*
X103300000Y-118622800D01*
X111300000Y-118622800D02*
G75*
G03*
X103300000Y-118622800I-4000000J0D01*
G01*
X82550000Y-105982800D02*
X103300000Y-105982800D01*
X152800000Y-93342800D02*
G75*
G03*
X160800000Y-93342800I4000000J0D01*
G01*
X181550000Y-93342800D02*
X181550000Y-105982800D01*
X160800000Y-93342800D02*
X181550000Y-93342800D01*
X132050000Y-93342800D02*
X132050000Y-105982800D01*
X160800000Y-105982800D02*
X181550000Y-105982800D01*
X132050000Y-105982800D02*
X152800000Y-105982800D01*
X160800000Y-105982800D02*
G75*
G03*
X152800000Y-105982800I-4000000J0D01*
G01*
X132050000Y-93342800D02*
X152800000Y-93342800D01*
X103300000Y-93342800D02*
G75*
G03*
X111300000Y-93342800I4000000J0D01*
G01*
X132050000Y-93342800D02*
X132050000Y-105982800D01*
X111300000Y-93342800D02*
X132050000Y-93342800D01*
X82550000Y-93342800D02*
X82550000Y-105982800D01*
X111300000Y-105982800D02*
X132050000Y-105982800D01*
X82550000Y-105982800D02*
X103300000Y-105982800D01*
X111300000Y-105982800D02*
G75*
G03*
X103300000Y-105982800I-4000000J0D01*
G01*
X82550000Y-93342800D02*
X103300000Y-93342800D01*
X152800000Y-80702800D02*
G75*
G03*
X160800000Y-80702800I4000000J0D01*
G01*
X181550000Y-80702800D02*
X181550000Y-93342800D01*
X160800000Y-80702800D02*
X181550000Y-80702800D01*
X132050000Y-80702800D02*
X132050000Y-93342800D01*
X160800000Y-93342800D02*
X181550000Y-93342800D01*
X132050000Y-93342800D02*
X152800000Y-93342800D01*
X160800000Y-93342800D02*
G75*
G03*
X152800000Y-93342800I-4000000J0D01*
G01*
X132050000Y-80702800D02*
X152800000Y-80702800D01*
X103300000Y-80702800D02*
G75*
G03*
X111300000Y-80702800I4000000J0D01*
G01*
X132050000Y-80702800D02*
X132050000Y-93342800D01*
X111300000Y-80702800D02*
X132050000Y-80702800D01*
X82550000Y-80702800D02*
X82550000Y-93342800D01*
X111300000Y-93342800D02*
X132050000Y-93342800D01*
X82550000Y-93342800D02*
X103300000Y-93342800D01*
X111300000Y-93342800D02*
G75*
G03*
X103300000Y-93342800I-4000000J0D01*
G01*
X82550000Y-80702800D02*
X103300000Y-80702800D01*
X152800000Y-68062800D02*
G75*
G03*
X160800000Y-68062800I4000000J0D01*
G01*
X181550000Y-68062800D02*
X181550000Y-80702800D01*
X160800000Y-68062800D02*
X181550000Y-68062800D01*
X132050000Y-68062800D02*
X132050000Y-80702800D01*
X160800000Y-80702800D02*
X181550000Y-80702800D01*
X132050000Y-80702800D02*
X152800000Y-80702800D01*
X160800000Y-80702800D02*
G75*
G03*
X152800000Y-80702800I-4000000J0D01*
G01*
X132050000Y-68062800D02*
X152800000Y-68062800D01*
X103300000Y-68062800D02*
G75*
G03*
X111300000Y-68062800I4000000J0D01*
G01*
X132050000Y-68062800D02*
X132050000Y-80702800D01*
X111300000Y-68062800D02*
X132050000Y-68062800D01*
X82550000Y-68062800D02*
X82550000Y-80702800D01*
X111300000Y-80702800D02*
X132050000Y-80702800D01*
X82550000Y-80702800D02*
X103300000Y-80702800D01*
X111300000Y-80702800D02*
G75*
G03*
X103300000Y-80702800I-4000000J0D01*
G01*
X82550000Y-68062800D02*
X103300000Y-68062800D01*
X152800000Y-55422800D02*
G75*
G03*
X160800000Y-55422800I4000000J0D01*
G01*
X181550000Y-55422800D02*
X181550000Y-68062800D01*
X160800000Y-55422800D02*
X181550000Y-55422800D01*
X132050000Y-55422800D02*
X132050000Y-68062800D01*
X160800000Y-68062800D02*
X181550000Y-68062800D01*
X132050000Y-68062800D02*
X152800000Y-68062800D01*
X160800000Y-68062800D02*
G75*
G03*
X152800000Y-68062800I-4000000J0D01*
G01*
X132050000Y-55422800D02*
X152800000Y-55422800D01*
X103300000Y-55422800D02*
G75*
G03*
X111300000Y-55422800I4000000J0D01*
G01*
X111300000Y-55422800D02*
X132050000Y-55422800D01*
X82550000Y-55422800D02*
X103300000Y-55422800D01*
X82550000Y-68062800D02*
X103300000Y-68062800D01*
X111300000Y-68062800D02*
X132050000Y-68062800D01*
X132050000Y-55422800D02*
X132050000Y-68062800D01*
X111300000Y-68062800D02*
G75*
G03*
X103300000Y-68062800I-4000000J0D01*
G01*
X82550000Y-55422800D02*
X82550000Y-68062800D01*
D11*
%TO.C,REF\u002A\u002A225*%
X150800000Y-137582800D03*
%TD*%
D12*
%TO.C,REF\u002A\u002A218*%
X180450000Y-141502800D03*
%TD*%
%TO.C,REF\u002A\u002A230*%
X180450000Y-136312800D03*
%TD*%
D13*
%TO.C,REF\u002A\u002A232*%
X178575000Y-135042800D03*
%TD*%
%TO.C,REF\u002A\u002A228*%
X178575000Y-137582800D03*
%TD*%
D12*
%TO.C,REF\u002A\u002A229*%
X133150000Y-136312800D03*
%TD*%
D13*
%TO.C,REF\u002A\u002A220*%
X178575000Y-140122800D03*
%TD*%
%TO.C,REF\u002A\u002A219*%
X135025000Y-140122800D03*
%TD*%
D12*
%TO.C,REF\u002A\u002A221*%
X133150000Y-138852800D03*
%TD*%
D11*
%TO.C,REF\u002A\u002A226*%
X162800000Y-137582800D03*
%TD*%
D14*
%TO.C,REF\u002A\u002A224*%
X141800000Y-137582800D03*
%TD*%
D12*
%TO.C,REF\u002A\u002A217*%
X133150000Y-141502800D03*
%TD*%
D13*
%TO.C,REF\u002A\u002A231*%
X135025000Y-135042800D03*
%TD*%
%TO.C,REF\u002A\u002A223*%
X135025000Y-137582800D03*
%TD*%
D14*
%TO.C,REF\u002A\u002A227*%
X171800000Y-137582800D03*
%TD*%
D12*
%TO.C,REF\u002A\u002A234*%
X180450000Y-133662800D03*
%TD*%
%TO.C,REF\u002A\u002A222*%
X180450000Y-138852800D03*
%TD*%
%TO.C,REF\u002A\u002A233*%
X133150000Y-133662800D03*
%TD*%
D11*
%TO.C,REF\u002A\u002A207*%
X101300000Y-137582800D03*
%TD*%
D12*
%TO.C,REF\u002A\u002A200*%
X130950000Y-141502800D03*
%TD*%
%TO.C,REF\u002A\u002A212*%
X130950000Y-136312800D03*
%TD*%
D13*
%TO.C,REF\u002A\u002A214*%
X129075000Y-135042800D03*
%TD*%
%TO.C,REF\u002A\u002A210*%
X129075000Y-137582800D03*
%TD*%
D12*
%TO.C,REF\u002A\u002A211*%
X83650000Y-136312800D03*
%TD*%
D13*
%TO.C,REF\u002A\u002A202*%
X129075000Y-140122800D03*
%TD*%
%TO.C,REF\u002A\u002A201*%
X85525000Y-140122800D03*
%TD*%
D12*
%TO.C,REF\u002A\u002A203*%
X83650000Y-138852800D03*
%TD*%
D11*
%TO.C,REF\u002A\u002A208*%
X113300000Y-137582800D03*
%TD*%
D14*
%TO.C,REF\u002A\u002A206*%
X92300000Y-137582800D03*
%TD*%
D12*
%TO.C,REF\u002A\u002A199*%
X83650000Y-141502800D03*
%TD*%
D13*
%TO.C,REF\u002A\u002A213*%
X85525000Y-135042800D03*
%TD*%
%TO.C,REF\u002A\u002A205*%
X85525000Y-137582800D03*
%TD*%
D14*
%TO.C,REF\u002A\u002A209*%
X122300000Y-137582800D03*
%TD*%
D12*
%TO.C,REF\u002A\u002A216*%
X130950000Y-133662800D03*
%TD*%
%TO.C,REF\u002A\u002A204*%
X130950000Y-138852800D03*
%TD*%
%TO.C,REF\u002A\u002A215*%
X83650000Y-133662800D03*
%TD*%
D11*
%TO.C,REF\u002A\u002A189*%
X150800000Y-124942800D03*
%TD*%
D12*
%TO.C,REF\u002A\u002A182*%
X180450000Y-128862800D03*
%TD*%
%TO.C,REF\u002A\u002A194*%
X180450000Y-123672800D03*
%TD*%
D13*
%TO.C,REF\u002A\u002A196*%
X178575000Y-122402800D03*
%TD*%
%TO.C,REF\u002A\u002A192*%
X178575000Y-124942800D03*
%TD*%
D12*
%TO.C,REF\u002A\u002A193*%
X133150000Y-123672800D03*
%TD*%
D13*
%TO.C,REF\u002A\u002A184*%
X178575000Y-127482800D03*
%TD*%
%TO.C,REF\u002A\u002A183*%
X135025000Y-127482800D03*
%TD*%
D12*
%TO.C,REF\u002A\u002A185*%
X133150000Y-126212800D03*
%TD*%
D11*
%TO.C,REF\u002A\u002A190*%
X162800000Y-124942800D03*
%TD*%
D14*
%TO.C,REF\u002A\u002A188*%
X141800000Y-124942800D03*
%TD*%
D12*
%TO.C,REF\u002A\u002A181*%
X133150000Y-128862800D03*
%TD*%
D13*
%TO.C,REF\u002A\u002A195*%
X135025000Y-122402800D03*
%TD*%
%TO.C,REF\u002A\u002A187*%
X135025000Y-124942800D03*
%TD*%
D14*
%TO.C,REF\u002A\u002A191*%
X171800000Y-124942800D03*
%TD*%
D12*
%TO.C,REF\u002A\u002A198*%
X180450000Y-121022800D03*
%TD*%
%TO.C,REF\u002A\u002A186*%
X180450000Y-126212800D03*
%TD*%
%TO.C,REF\u002A\u002A197*%
X133150000Y-121022800D03*
%TD*%
D11*
%TO.C,REF\u002A\u002A171*%
X101300000Y-124942800D03*
%TD*%
D12*
%TO.C,REF\u002A\u002A164*%
X130950000Y-128862800D03*
%TD*%
%TO.C,REF\u002A\u002A176*%
X130950000Y-123672800D03*
%TD*%
D13*
%TO.C,REF\u002A\u002A178*%
X129075000Y-122402800D03*
%TD*%
%TO.C,REF\u002A\u002A174*%
X129075000Y-124942800D03*
%TD*%
D12*
%TO.C,REF\u002A\u002A175*%
X83650000Y-123672800D03*
%TD*%
D13*
%TO.C,REF\u002A\u002A166*%
X129075000Y-127482800D03*
%TD*%
%TO.C,REF\u002A\u002A165*%
X85525000Y-127482800D03*
%TD*%
D12*
%TO.C,REF\u002A\u002A167*%
X83650000Y-126212800D03*
%TD*%
D11*
%TO.C,REF\u002A\u002A172*%
X113300000Y-124942800D03*
%TD*%
D14*
%TO.C,REF\u002A\u002A170*%
X92300000Y-124942800D03*
%TD*%
D12*
%TO.C,REF\u002A\u002A163*%
X83650000Y-128862800D03*
%TD*%
D13*
%TO.C,REF\u002A\u002A177*%
X85525000Y-122402800D03*
%TD*%
%TO.C,REF\u002A\u002A169*%
X85525000Y-124942800D03*
%TD*%
D14*
%TO.C,REF\u002A\u002A173*%
X122300000Y-124942800D03*
%TD*%
D12*
%TO.C,REF\u002A\u002A180*%
X130950000Y-121022800D03*
%TD*%
%TO.C,REF\u002A\u002A168*%
X130950000Y-126212800D03*
%TD*%
%TO.C,REF\u002A\u002A179*%
X83650000Y-121022800D03*
%TD*%
D11*
%TO.C,REF\u002A\u002A153*%
X150800000Y-112302800D03*
%TD*%
D12*
%TO.C,REF\u002A\u002A146*%
X180450000Y-116222800D03*
%TD*%
%TO.C,REF\u002A\u002A158*%
X180450000Y-111032800D03*
%TD*%
D13*
%TO.C,REF\u002A\u002A160*%
X178575000Y-109762800D03*
%TD*%
%TO.C,REF\u002A\u002A156*%
X178575000Y-112302800D03*
%TD*%
D12*
%TO.C,REF\u002A\u002A157*%
X133150000Y-111032800D03*
%TD*%
D13*
%TO.C,REF\u002A\u002A148*%
X178575000Y-114842800D03*
%TD*%
%TO.C,REF\u002A\u002A147*%
X135025000Y-114842800D03*
%TD*%
D12*
%TO.C,REF\u002A\u002A149*%
X133150000Y-113572800D03*
%TD*%
D11*
%TO.C,REF\u002A\u002A154*%
X162800000Y-112302800D03*
%TD*%
D14*
%TO.C,REF\u002A\u002A152*%
X141800000Y-112302800D03*
%TD*%
D12*
%TO.C,REF\u002A\u002A145*%
X133150000Y-116222800D03*
%TD*%
D13*
%TO.C,REF\u002A\u002A159*%
X135025000Y-109762800D03*
%TD*%
%TO.C,REF\u002A\u002A151*%
X135025000Y-112302800D03*
%TD*%
D14*
%TO.C,REF\u002A\u002A155*%
X171800000Y-112302800D03*
%TD*%
D12*
%TO.C,REF\u002A\u002A162*%
X180450000Y-108382800D03*
%TD*%
%TO.C,REF\u002A\u002A150*%
X180450000Y-113572800D03*
%TD*%
%TO.C,REF\u002A\u002A161*%
X133150000Y-108382800D03*
%TD*%
D11*
%TO.C,REF\u002A\u002A135*%
X101300000Y-112302800D03*
%TD*%
D12*
%TO.C,REF\u002A\u002A128*%
X130950000Y-116222800D03*
%TD*%
%TO.C,REF\u002A\u002A140*%
X130950000Y-111032800D03*
%TD*%
D13*
%TO.C,REF\u002A\u002A142*%
X129075000Y-109762800D03*
%TD*%
%TO.C,REF\u002A\u002A138*%
X129075000Y-112302800D03*
%TD*%
D12*
%TO.C,REF\u002A\u002A139*%
X83650000Y-111032800D03*
%TD*%
D13*
%TO.C,REF\u002A\u002A130*%
X129075000Y-114842800D03*
%TD*%
%TO.C,REF\u002A\u002A129*%
X85525000Y-114842800D03*
%TD*%
D12*
%TO.C,REF\u002A\u002A131*%
X83650000Y-113572800D03*
%TD*%
D11*
%TO.C,REF\u002A\u002A136*%
X113300000Y-112302800D03*
%TD*%
D14*
%TO.C,REF\u002A\u002A134*%
X92300000Y-112302800D03*
%TD*%
D12*
%TO.C,REF\u002A\u002A127*%
X83650000Y-116222800D03*
%TD*%
D13*
%TO.C,REF\u002A\u002A141*%
X85525000Y-109762800D03*
%TD*%
%TO.C,REF\u002A\u002A133*%
X85525000Y-112302800D03*
%TD*%
D14*
%TO.C,REF\u002A\u002A137*%
X122300000Y-112302800D03*
%TD*%
D12*
%TO.C,REF\u002A\u002A144*%
X130950000Y-108382800D03*
%TD*%
%TO.C,REF\u002A\u002A132*%
X130950000Y-113572800D03*
%TD*%
%TO.C,REF\u002A\u002A143*%
X83650000Y-108382800D03*
%TD*%
D11*
%TO.C,REF\u002A\u002A117*%
X150800000Y-99662800D03*
%TD*%
D12*
%TO.C,REF\u002A\u002A110*%
X180450000Y-103582800D03*
%TD*%
%TO.C,REF\u002A\u002A122*%
X180450000Y-98392800D03*
%TD*%
D13*
%TO.C,REF\u002A\u002A124*%
X178575000Y-97122800D03*
%TD*%
%TO.C,REF\u002A\u002A120*%
X178575000Y-99662800D03*
%TD*%
D12*
%TO.C,REF\u002A\u002A121*%
X133150000Y-98392800D03*
%TD*%
D13*
%TO.C,REF\u002A\u002A112*%
X178575000Y-102202800D03*
%TD*%
%TO.C,REF\u002A\u002A111*%
X135025000Y-102202800D03*
%TD*%
D12*
%TO.C,REF\u002A\u002A113*%
X133150000Y-100932800D03*
%TD*%
D11*
%TO.C,REF\u002A\u002A118*%
X162800000Y-99662800D03*
%TD*%
D14*
%TO.C,REF\u002A\u002A116*%
X141800000Y-99662800D03*
%TD*%
D12*
%TO.C,REF\u002A\u002A109*%
X133150000Y-103582800D03*
%TD*%
D13*
%TO.C,REF\u002A\u002A123*%
X135025000Y-97122800D03*
%TD*%
%TO.C,REF\u002A\u002A115*%
X135025000Y-99662800D03*
%TD*%
D14*
%TO.C,REF\u002A\u002A119*%
X171800000Y-99662800D03*
%TD*%
D12*
%TO.C,REF\u002A\u002A126*%
X180450000Y-95742800D03*
%TD*%
%TO.C,REF\u002A\u002A114*%
X180450000Y-100932800D03*
%TD*%
%TO.C,REF\u002A\u002A125*%
X133150000Y-95742800D03*
%TD*%
D11*
%TO.C,REF\u002A\u002A99*%
X101300000Y-99662800D03*
%TD*%
D12*
%TO.C,REF\u002A\u002A92*%
X130950000Y-103582800D03*
%TD*%
%TO.C,REF\u002A\u002A104*%
X130950000Y-98392800D03*
%TD*%
D13*
%TO.C,REF\u002A\u002A106*%
X129075000Y-97122800D03*
%TD*%
%TO.C,REF\u002A\u002A102*%
X129075000Y-99662800D03*
%TD*%
D12*
%TO.C,REF\u002A\u002A103*%
X83650000Y-98392800D03*
%TD*%
D13*
%TO.C,REF\u002A\u002A94*%
X129075000Y-102202800D03*
%TD*%
%TO.C,REF\u002A\u002A93*%
X85525000Y-102202800D03*
%TD*%
D12*
%TO.C,REF\u002A\u002A95*%
X83650000Y-100932800D03*
%TD*%
D11*
%TO.C,REF\u002A\u002A100*%
X113300000Y-99662800D03*
%TD*%
D14*
%TO.C,REF\u002A\u002A98*%
X92300000Y-99662800D03*
%TD*%
D12*
%TO.C,REF\u002A\u002A91*%
X83650000Y-103582800D03*
%TD*%
D13*
%TO.C,REF\u002A\u002A105*%
X85525000Y-97122800D03*
%TD*%
%TO.C,REF\u002A\u002A97*%
X85525000Y-99662800D03*
%TD*%
D14*
%TO.C,REF\u002A\u002A101*%
X122300000Y-99662800D03*
%TD*%
D12*
%TO.C,REF\u002A\u002A108*%
X130950000Y-95742800D03*
%TD*%
%TO.C,REF\u002A\u002A96*%
X130950000Y-100932800D03*
%TD*%
%TO.C,REF\u002A\u002A107*%
X83650000Y-95742800D03*
%TD*%
D11*
%TO.C,REF\u002A\u002A81*%
X150800000Y-87022800D03*
%TD*%
D12*
%TO.C,REF\u002A\u002A74*%
X180450000Y-90942800D03*
%TD*%
%TO.C,REF\u002A\u002A86*%
X180450000Y-85752800D03*
%TD*%
D13*
%TO.C,REF\u002A\u002A88*%
X178575000Y-84482800D03*
%TD*%
%TO.C,REF\u002A\u002A84*%
X178575000Y-87022800D03*
%TD*%
D12*
%TO.C,REF\u002A\u002A85*%
X133150000Y-85752800D03*
%TD*%
D13*
%TO.C,REF\u002A\u002A76*%
X178575000Y-89562800D03*
%TD*%
%TO.C,REF\u002A\u002A75*%
X135025000Y-89562800D03*
%TD*%
D12*
%TO.C,REF\u002A\u002A77*%
X133150000Y-88292800D03*
%TD*%
D11*
%TO.C,REF\u002A\u002A82*%
X162800000Y-87022800D03*
%TD*%
D14*
%TO.C,REF\u002A\u002A80*%
X141800000Y-87022800D03*
%TD*%
D12*
%TO.C,REF\u002A\u002A73*%
X133150000Y-90942800D03*
%TD*%
D13*
%TO.C,REF\u002A\u002A87*%
X135025000Y-84482800D03*
%TD*%
%TO.C,REF\u002A\u002A79*%
X135025000Y-87022800D03*
%TD*%
D14*
%TO.C,REF\u002A\u002A83*%
X171800000Y-87022800D03*
%TD*%
D12*
%TO.C,REF\u002A\u002A90*%
X180450000Y-83102800D03*
%TD*%
%TO.C,REF\u002A\u002A78*%
X180450000Y-88292800D03*
%TD*%
%TO.C,REF\u002A\u002A89*%
X133150000Y-83102800D03*
%TD*%
D11*
%TO.C,REF\u002A\u002A63*%
X101300000Y-87022800D03*
%TD*%
D12*
%TO.C,REF\u002A\u002A56*%
X130950000Y-90942800D03*
%TD*%
%TO.C,REF\u002A\u002A68*%
X130950000Y-85752800D03*
%TD*%
D13*
%TO.C,REF\u002A\u002A70*%
X129075000Y-84482800D03*
%TD*%
%TO.C,REF\u002A\u002A66*%
X129075000Y-87022800D03*
%TD*%
D12*
%TO.C,REF\u002A\u002A67*%
X83650000Y-85752800D03*
%TD*%
D13*
%TO.C,REF\u002A\u002A58*%
X129075000Y-89562800D03*
%TD*%
%TO.C,REF\u002A\u002A57*%
X85525000Y-89562800D03*
%TD*%
D12*
%TO.C,REF\u002A\u002A59*%
X83650000Y-88292800D03*
%TD*%
D11*
%TO.C,REF\u002A\u002A64*%
X113300000Y-87022800D03*
%TD*%
D14*
%TO.C,REF\u002A\u002A62*%
X92300000Y-87022800D03*
%TD*%
D12*
%TO.C,REF\u002A\u002A55*%
X83650000Y-90942800D03*
%TD*%
D13*
%TO.C,REF\u002A\u002A69*%
X85525000Y-84482800D03*
%TD*%
%TO.C,REF\u002A\u002A61*%
X85525000Y-87022800D03*
%TD*%
D14*
%TO.C,REF\u002A\u002A65*%
X122300000Y-87022800D03*
%TD*%
D12*
%TO.C,REF\u002A\u002A72*%
X130950000Y-83102800D03*
%TD*%
%TO.C,REF\u002A\u002A60*%
X130950000Y-88292800D03*
%TD*%
%TO.C,REF\u002A\u002A71*%
X83650000Y-83102800D03*
%TD*%
D11*
%TO.C,REF\u002A\u002A45*%
X150800000Y-74382800D03*
%TD*%
D12*
%TO.C,REF\u002A\u002A38*%
X180450000Y-78302800D03*
%TD*%
%TO.C,REF\u002A\u002A50*%
X180450000Y-73112800D03*
%TD*%
D13*
%TO.C,REF\u002A\u002A52*%
X178575000Y-71842800D03*
%TD*%
%TO.C,REF\u002A\u002A48*%
X178575000Y-74382800D03*
%TD*%
D12*
%TO.C,REF\u002A\u002A49*%
X133150000Y-73112800D03*
%TD*%
D13*
%TO.C,REF\u002A\u002A40*%
X178575000Y-76922800D03*
%TD*%
%TO.C,REF\u002A\u002A39*%
X135025000Y-76922800D03*
%TD*%
D12*
%TO.C,REF\u002A\u002A41*%
X133150000Y-75652800D03*
%TD*%
D11*
%TO.C,REF\u002A\u002A46*%
X162800000Y-74382800D03*
%TD*%
D14*
%TO.C,REF\u002A\u002A44*%
X141800000Y-74382800D03*
%TD*%
D12*
%TO.C,REF\u002A\u002A37*%
X133150000Y-78302800D03*
%TD*%
D13*
%TO.C,REF\u002A\u002A51*%
X135025000Y-71842800D03*
%TD*%
%TO.C,REF\u002A\u002A43*%
X135025000Y-74382800D03*
%TD*%
D14*
%TO.C,REF\u002A\u002A47*%
X171800000Y-74382800D03*
%TD*%
D12*
%TO.C,REF\u002A\u002A54*%
X180450000Y-70462800D03*
%TD*%
%TO.C,REF\u002A\u002A42*%
X180450000Y-75652800D03*
%TD*%
%TO.C,REF\u002A\u002A53*%
X133150000Y-70462800D03*
%TD*%
D11*
%TO.C,REF\u002A\u002A27*%
X101300000Y-74382800D03*
%TD*%
D12*
%TO.C,REF\u002A\u002A20*%
X130950000Y-78302800D03*
%TD*%
%TO.C,REF\u002A\u002A32*%
X130950000Y-73112800D03*
%TD*%
D13*
%TO.C,REF\u002A\u002A34*%
X129075000Y-71842800D03*
%TD*%
%TO.C,REF\u002A\u002A30*%
X129075000Y-74382800D03*
%TD*%
D12*
%TO.C,REF\u002A\u002A31*%
X83650000Y-73112800D03*
%TD*%
D13*
%TO.C,REF\u002A\u002A22*%
X129075000Y-76922800D03*
%TD*%
%TO.C,REF\u002A\u002A21*%
X85525000Y-76922800D03*
%TD*%
D12*
%TO.C,REF\u002A\u002A23*%
X83650000Y-75652800D03*
%TD*%
D11*
%TO.C,REF\u002A\u002A28*%
X113300000Y-74382800D03*
%TD*%
D14*
%TO.C,REF\u002A\u002A26*%
X92300000Y-74382800D03*
%TD*%
D12*
%TO.C,REF\u002A\u002A19*%
X83650000Y-78302800D03*
%TD*%
D13*
%TO.C,REF\u002A\u002A33*%
X85525000Y-71842800D03*
%TD*%
%TO.C,REF\u002A\u002A25*%
X85525000Y-74382800D03*
%TD*%
D14*
%TO.C,REF\u002A\u002A29*%
X122300000Y-74382800D03*
%TD*%
D12*
%TO.C,REF\u002A\u002A36*%
X130950000Y-70462800D03*
%TD*%
%TO.C,REF\u002A\u002A24*%
X130950000Y-75652800D03*
%TD*%
%TO.C,REF\u002A\u002A35*%
X83650000Y-70462800D03*
%TD*%
D11*
%TO.C,REF\u002A\u002A9*%
X150800000Y-61742800D03*
%TD*%
D12*
%TO.C,REF\u002A\u002A2*%
X180450000Y-65662800D03*
%TD*%
%TO.C,REF\u002A\u002A14*%
X180450000Y-60472800D03*
%TD*%
D13*
%TO.C,REF\u002A\u002A16*%
X178575000Y-59202800D03*
%TD*%
%TO.C,REF\u002A\u002A12*%
X178575000Y-61742800D03*
%TD*%
D12*
%TO.C,REF\u002A\u002A13*%
X133150000Y-60472800D03*
%TD*%
D13*
%TO.C,REF\u002A\u002A4*%
X178575000Y-64282800D03*
%TD*%
%TO.C,REF\u002A\u002A3*%
X135025000Y-64282800D03*
%TD*%
D12*
%TO.C,REF\u002A\u002A5*%
X133150000Y-63012800D03*
%TD*%
D11*
%TO.C,REF\u002A\u002A10*%
X162800000Y-61742800D03*
%TD*%
D14*
%TO.C,REF\u002A\u002A8*%
X141800000Y-61742800D03*
%TD*%
D12*
%TO.C,REF\u002A\u002A1*%
X133150000Y-65662800D03*
%TD*%
D13*
%TO.C,REF\u002A\u002A15*%
X135025000Y-59202800D03*
%TD*%
%TO.C,REF\u002A\u002A7*%
X135025000Y-61742800D03*
%TD*%
D14*
%TO.C,REF\u002A\u002A11*%
X171800000Y-61742800D03*
%TD*%
D12*
%TO.C,REF\u002A\u002A18*%
X180450000Y-57822800D03*
%TD*%
%TO.C,REF\u002A\u002A6*%
X180450000Y-63012800D03*
%TD*%
%TO.C,REF\u002A\u002A17*%
X133150000Y-57822800D03*
%TD*%
%TO.C,REF\u002A\u002A*%
X130950000Y-65662800D03*
%TD*%
D13*
%TO.C,REF\u002A\u002A*%
X85525000Y-61742800D03*
%TD*%
D14*
%TO.C,REF\u002A\u002A*%
X122300000Y-61742800D03*
%TD*%
D12*
%TO.C,REF\u002A\u002A*%
X130950000Y-57822800D03*
%TD*%
%TO.C,REF\u002A\u002A*%
X130950000Y-63012800D03*
%TD*%
%TO.C,REF\u002A\u002A*%
X83650000Y-65662800D03*
%TD*%
D13*
%TO.C,REF\u002A\u002A*%
X85525000Y-59202800D03*
%TD*%
D12*
%TO.C,REF\u002A\u002A*%
X83650000Y-57822800D03*
%TD*%
D11*
%TO.C,REF\u002A\u002A*%
X113300000Y-61742800D03*
%TD*%
D13*
%TO.C,REF\u002A\u002A*%
X129075000Y-59202800D03*
%TD*%
D12*
%TO.C,REF\u002A\u002A*%
X83650000Y-63012800D03*
%TD*%
D11*
%TO.C,REF\u002A\u002A*%
X101300000Y-61742800D03*
%TD*%
D13*
%TO.C,REF\u002A\u002A*%
X85525000Y-64282800D03*
%TD*%
D12*
%TO.C,REF\u002A\u002A*%
X130950000Y-60472800D03*
%TD*%
%TO.C,REF\u002A\u002A*%
X83650000Y-60472800D03*
%TD*%
D13*
%TO.C,REF\u002A\u002A*%
X129075000Y-64282800D03*
%TD*%
D14*
%TO.C,REF\u002A\u002A*%
X92300000Y-61742800D03*
%TD*%
D13*
%TO.C,REF\u002A\u002A*%
X129075000Y-61742800D03*
%TD*%
M02*
