M48
; DRILL file {KiCad 6.0.11-2627ca5db0~126~ubuntu20.04.1} date jue 14 mar 2024 23:26:53
; FORMAT={-:-/ absolute / metric / decimal}
; #@! TF.CreationDate,2024-03-14T23:26:53-05:00
; #@! TF.GenerationSoftware,Kicad,Pcbnew,6.0.11-2627ca5db0~126~ubuntu20.04.1
; #@! TF.FileFunction,Plated,1,2,PTH
FMAT,2
METRIC
; #@! TA.AperFunction,Plated,PTH,ComponentDrill
T1C0.850
%
G90
G05
T1
X85.525Y-59.203
X85.525Y-61.743
X85.525Y-64.283
X85.525Y-71.843
X85.525Y-74.383
X85.525Y-76.923
X85.525Y-84.483
X85.525Y-87.023
X85.525Y-89.563
X85.525Y-97.123
X85.525Y-99.663
X85.525Y-102.203
X85.525Y-109.763
X85.525Y-112.303
X85.525Y-114.843
X85.525Y-122.403
X85.525Y-124.943
X85.525Y-127.483
X85.525Y-135.043
X85.525Y-137.583
X85.525Y-140.123
X129.075Y-59.203
X129.075Y-61.743
X129.075Y-64.283
X129.075Y-71.843
X129.075Y-74.383
X129.075Y-76.923
X129.075Y-84.483
X129.075Y-87.023
X129.075Y-89.563
X129.075Y-97.123
X129.075Y-99.663
X129.075Y-102.203
X129.075Y-109.763
X129.075Y-112.303
X129.075Y-114.843
X129.075Y-122.403
X129.075Y-124.943
X129.075Y-127.483
X129.075Y-135.043
X129.075Y-137.583
X129.075Y-140.123
X135.025Y-59.203
X135.025Y-61.743
X135.025Y-64.283
X135.025Y-71.843
X135.025Y-74.383
X135.025Y-76.923
X135.025Y-84.483
X135.025Y-87.023
X135.025Y-89.563
X135.025Y-97.123
X135.025Y-99.663
X135.025Y-102.203
X135.025Y-109.763
X135.025Y-112.303
X135.025Y-114.843
X135.025Y-122.403
X135.025Y-124.943
X135.025Y-127.483
X135.025Y-135.043
X135.025Y-137.583
X135.025Y-140.123
X178.575Y-59.203
X178.575Y-61.743
X178.575Y-64.283
X178.575Y-71.843
X178.575Y-74.383
X178.575Y-76.923
X178.575Y-84.483
X178.575Y-87.023
X178.575Y-89.563
X178.575Y-97.123
X178.575Y-99.663
X178.575Y-102.203
X178.575Y-109.763
X178.575Y-112.303
X178.575Y-114.843
X178.575Y-122.403
X178.575Y-124.943
X178.575Y-127.483
X178.575Y-135.043
X178.575Y-137.583
X178.575Y-140.123
T0
M30
