%TF.GenerationSoftware,KiCad,Pcbnew,6.0.11-2627ca5db0~126~ubuntu20.04.1*%
%TF.CreationDate,2024-03-14T23:27:02-05:00*%
%TF.ProjectId,,58585858-5858-4585-9858-585858585858,rev?*%
%TF.SameCoordinates,Original*%
%TF.FileFunction,Soldermask,Bot*%
%TF.FilePolarity,Negative*%
%FSLAX46Y46*%
G04 Gerber Fmt 4.6, Leading zero omitted, Abs format (unit mm)*
G04 Created by KiCad (PCBNEW 6.0.11-2627ca5db0~126~ubuntu20.04.1) date 2024-03-14 23:27:02*
%MOMM*%
%LPD*%
G01*
G04 APERTURE LIST*
%TA.AperFunction,Profile*%
%ADD10C,0.100000*%
%TD*%
%ADD11C,3.200000*%
%ADD12C,1.500000*%
G04 APERTURE END LIST*
D10*
X152800000Y-131262800D02*
G75*
G03*
X160800000Y-131262800I4000000J0D01*
G01*
X181550000Y-131262800D02*
X181550000Y-143902800D01*
X160800000Y-131262800D02*
X181550000Y-131262800D01*
X132050000Y-131262800D02*
X132050000Y-143902800D01*
X160800000Y-143902800D02*
X181550000Y-143902800D01*
X132050000Y-143902800D02*
X152800000Y-143902800D01*
X160800000Y-143902800D02*
G75*
G03*
X152800000Y-143902800I-4000000J0D01*
G01*
X132050000Y-131262800D02*
X152800000Y-131262800D01*
X103300000Y-131262800D02*
G75*
G03*
X111300000Y-131262800I4000000J0D01*
G01*
X132050000Y-131262800D02*
X132050000Y-143902800D01*
X111300000Y-131262800D02*
X132050000Y-131262800D01*
X82550000Y-131262800D02*
X82550000Y-143902800D01*
X111300000Y-143902800D02*
X132050000Y-143902800D01*
X82550000Y-143902800D02*
X103300000Y-143902800D01*
X111300000Y-143902800D02*
G75*
G03*
X103300000Y-143902800I-4000000J0D01*
G01*
X82550000Y-131262800D02*
X103300000Y-131262800D01*
X152800000Y-118622800D02*
G75*
G03*
X160800000Y-118622800I4000000J0D01*
G01*
X181550000Y-118622800D02*
X181550000Y-131262800D01*
X160800000Y-118622800D02*
X181550000Y-118622800D01*
X132050000Y-118622800D02*
X132050000Y-131262800D01*
X160800000Y-131262800D02*
X181550000Y-131262800D01*
X132050000Y-131262800D02*
X152800000Y-131262800D01*
X160800000Y-131262800D02*
G75*
G03*
X152800000Y-131262800I-4000000J0D01*
G01*
X132050000Y-118622800D02*
X152800000Y-118622800D01*
X103300000Y-118622800D02*
G75*
G03*
X111300000Y-118622800I4000000J0D01*
G01*
X132050000Y-118622800D02*
X132050000Y-131262800D01*
X111300000Y-118622800D02*
X132050000Y-118622800D01*
X82550000Y-118622800D02*
X82550000Y-131262800D01*
X111300000Y-131262800D02*
X132050000Y-131262800D01*
X82550000Y-131262800D02*
X103300000Y-131262800D01*
X111300000Y-131262800D02*
G75*
G03*
X103300000Y-131262800I-4000000J0D01*
G01*
X82550000Y-118622800D02*
X103300000Y-118622800D01*
X152800000Y-105982800D02*
G75*
G03*
X160800000Y-105982800I4000000J0D01*
G01*
X181550000Y-105982800D02*
X181550000Y-118622800D01*
X160800000Y-105982800D02*
X181550000Y-105982800D01*
X132050000Y-105982800D02*
X132050000Y-118622800D01*
X160800000Y-118622800D02*
X181550000Y-118622800D01*
X132050000Y-118622800D02*
X152800000Y-118622800D01*
X160800000Y-118622800D02*
G75*
G03*
X152800000Y-118622800I-4000000J0D01*
G01*
X132050000Y-105982800D02*
X152800000Y-105982800D01*
X103300000Y-105982800D02*
G75*
G03*
X111300000Y-105982800I4000000J0D01*
G01*
X132050000Y-105982800D02*
X132050000Y-118622800D01*
X111300000Y-105982800D02*
X132050000Y-105982800D01*
X82550000Y-105982800D02*
X82550000Y-118622800D01*
X111300000Y-118622800D02*
X132050000Y-118622800D01*
X82550000Y-118622800D02*
X103300000Y-118622800D01*
X111300000Y-118622800D02*
G75*
G03*
X103300000Y-118622800I-4000000J0D01*
G01*
X82550000Y-105982800D02*
X103300000Y-105982800D01*
X152800000Y-93342800D02*
G75*
G03*
X160800000Y-93342800I4000000J0D01*
G01*
X181550000Y-93342800D02*
X181550000Y-105982800D01*
X160800000Y-93342800D02*
X181550000Y-93342800D01*
X132050000Y-93342800D02*
X132050000Y-105982800D01*
X160800000Y-105982800D02*
X181550000Y-105982800D01*
X132050000Y-105982800D02*
X152800000Y-105982800D01*
X160800000Y-105982800D02*
G75*
G03*
X152800000Y-105982800I-4000000J0D01*
G01*
X132050000Y-93342800D02*
X152800000Y-93342800D01*
X103300000Y-93342800D02*
G75*
G03*
X111300000Y-93342800I4000000J0D01*
G01*
X132050000Y-93342800D02*
X132050000Y-105982800D01*
X111300000Y-93342800D02*
X132050000Y-93342800D01*
X82550000Y-93342800D02*
X82550000Y-105982800D01*
X111300000Y-105982800D02*
X132050000Y-105982800D01*
X82550000Y-105982800D02*
X103300000Y-105982800D01*
X111300000Y-105982800D02*
G75*
G03*
X103300000Y-105982800I-4000000J0D01*
G01*
X82550000Y-93342800D02*
X103300000Y-93342800D01*
X152800000Y-80702800D02*
G75*
G03*
X160800000Y-80702800I4000000J0D01*
G01*
X181550000Y-80702800D02*
X181550000Y-93342800D01*
X160800000Y-80702800D02*
X181550000Y-80702800D01*
X132050000Y-80702800D02*
X132050000Y-93342800D01*
X160800000Y-93342800D02*
X181550000Y-93342800D01*
X132050000Y-93342800D02*
X152800000Y-93342800D01*
X160800000Y-93342800D02*
G75*
G03*
X152800000Y-93342800I-4000000J0D01*
G01*
X132050000Y-80702800D02*
X152800000Y-80702800D01*
X103300000Y-80702800D02*
G75*
G03*
X111300000Y-80702800I4000000J0D01*
G01*
X132050000Y-80702800D02*
X132050000Y-93342800D01*
X111300000Y-80702800D02*
X132050000Y-80702800D01*
X82550000Y-80702800D02*
X82550000Y-93342800D01*
X111300000Y-93342800D02*
X132050000Y-93342800D01*
X82550000Y-93342800D02*
X103300000Y-93342800D01*
X111300000Y-93342800D02*
G75*
G03*
X103300000Y-93342800I-4000000J0D01*
G01*
X82550000Y-80702800D02*
X103300000Y-80702800D01*
X152800000Y-68062800D02*
G75*
G03*
X160800000Y-68062800I4000000J0D01*
G01*
X181550000Y-68062800D02*
X181550000Y-80702800D01*
X160800000Y-68062800D02*
X181550000Y-68062800D01*
X132050000Y-68062800D02*
X132050000Y-80702800D01*
X160800000Y-80702800D02*
X181550000Y-80702800D01*
X132050000Y-80702800D02*
X152800000Y-80702800D01*
X160800000Y-80702800D02*
G75*
G03*
X152800000Y-80702800I-4000000J0D01*
G01*
X132050000Y-68062800D02*
X152800000Y-68062800D01*
X103300000Y-68062800D02*
G75*
G03*
X111300000Y-68062800I4000000J0D01*
G01*
X132050000Y-68062800D02*
X132050000Y-80702800D01*
X111300000Y-68062800D02*
X132050000Y-68062800D01*
X82550000Y-68062800D02*
X82550000Y-80702800D01*
X111300000Y-80702800D02*
X132050000Y-80702800D01*
X82550000Y-80702800D02*
X103300000Y-80702800D01*
X111300000Y-80702800D02*
G75*
G03*
X103300000Y-80702800I-4000000J0D01*
G01*
X82550000Y-68062800D02*
X103300000Y-68062800D01*
X152800000Y-55422800D02*
G75*
G03*
X160800000Y-55422800I4000000J0D01*
G01*
X181550000Y-55422800D02*
X181550000Y-68062800D01*
X160800000Y-55422800D02*
X181550000Y-55422800D01*
X132050000Y-55422800D02*
X132050000Y-68062800D01*
X160800000Y-68062800D02*
X181550000Y-68062800D01*
X132050000Y-68062800D02*
X152800000Y-68062800D01*
X160800000Y-68062800D02*
G75*
G03*
X152800000Y-68062800I-4000000J0D01*
G01*
X132050000Y-55422800D02*
X152800000Y-55422800D01*
X103300000Y-55422800D02*
G75*
G03*
X111300000Y-55422800I4000000J0D01*
G01*
X111300000Y-55422800D02*
X132050000Y-55422800D01*
X82550000Y-55422800D02*
X103300000Y-55422800D01*
X82550000Y-68062800D02*
X103300000Y-68062800D01*
X111300000Y-68062800D02*
X132050000Y-68062800D01*
X132050000Y-55422800D02*
X132050000Y-68062800D01*
X111300000Y-68062800D02*
G75*
G03*
X103300000Y-68062800I-4000000J0D01*
G01*
X82550000Y-55422800D02*
X82550000Y-68062800D01*
D11*
%TO.C,REF\u002A\u002A225*%
X150800000Y-137582800D03*
%TD*%
D12*
%TO.C,REF\u002A\u002A232*%
X178575000Y-135042800D03*
%TD*%
%TO.C,REF\u002A\u002A228*%
X178575000Y-137582800D03*
%TD*%
%TO.C,REF\u002A\u002A220*%
X178575000Y-140122800D03*
%TD*%
%TO.C,REF\u002A\u002A219*%
X135025000Y-140122800D03*
%TD*%
D11*
%TO.C,REF\u002A\u002A226*%
X162800000Y-137582800D03*
%TD*%
D12*
%TO.C,REF\u002A\u002A231*%
X135025000Y-135042800D03*
%TD*%
%TO.C,REF\u002A\u002A223*%
X135025000Y-137582800D03*
%TD*%
D11*
%TO.C,REF\u002A\u002A207*%
X101300000Y-137582800D03*
%TD*%
D12*
%TO.C,REF\u002A\u002A214*%
X129075000Y-135042800D03*
%TD*%
%TO.C,REF\u002A\u002A210*%
X129075000Y-137582800D03*
%TD*%
%TO.C,REF\u002A\u002A202*%
X129075000Y-140122800D03*
%TD*%
%TO.C,REF\u002A\u002A201*%
X85525000Y-140122800D03*
%TD*%
D11*
%TO.C,REF\u002A\u002A208*%
X113300000Y-137582800D03*
%TD*%
D12*
%TO.C,REF\u002A\u002A213*%
X85525000Y-135042800D03*
%TD*%
%TO.C,REF\u002A\u002A205*%
X85525000Y-137582800D03*
%TD*%
D11*
%TO.C,REF\u002A\u002A189*%
X150800000Y-124942800D03*
%TD*%
D12*
%TO.C,REF\u002A\u002A196*%
X178575000Y-122402800D03*
%TD*%
%TO.C,REF\u002A\u002A192*%
X178575000Y-124942800D03*
%TD*%
%TO.C,REF\u002A\u002A184*%
X178575000Y-127482800D03*
%TD*%
%TO.C,REF\u002A\u002A183*%
X135025000Y-127482800D03*
%TD*%
D11*
%TO.C,REF\u002A\u002A190*%
X162800000Y-124942800D03*
%TD*%
D12*
%TO.C,REF\u002A\u002A195*%
X135025000Y-122402800D03*
%TD*%
%TO.C,REF\u002A\u002A187*%
X135025000Y-124942800D03*
%TD*%
D11*
%TO.C,REF\u002A\u002A171*%
X101300000Y-124942800D03*
%TD*%
D12*
%TO.C,REF\u002A\u002A178*%
X129075000Y-122402800D03*
%TD*%
%TO.C,REF\u002A\u002A174*%
X129075000Y-124942800D03*
%TD*%
%TO.C,REF\u002A\u002A166*%
X129075000Y-127482800D03*
%TD*%
%TO.C,REF\u002A\u002A165*%
X85525000Y-127482800D03*
%TD*%
D11*
%TO.C,REF\u002A\u002A172*%
X113300000Y-124942800D03*
%TD*%
D12*
%TO.C,REF\u002A\u002A177*%
X85525000Y-122402800D03*
%TD*%
%TO.C,REF\u002A\u002A169*%
X85525000Y-124942800D03*
%TD*%
D11*
%TO.C,REF\u002A\u002A153*%
X150800000Y-112302800D03*
%TD*%
D12*
%TO.C,REF\u002A\u002A160*%
X178575000Y-109762800D03*
%TD*%
%TO.C,REF\u002A\u002A156*%
X178575000Y-112302800D03*
%TD*%
%TO.C,REF\u002A\u002A148*%
X178575000Y-114842800D03*
%TD*%
%TO.C,REF\u002A\u002A147*%
X135025000Y-114842800D03*
%TD*%
D11*
%TO.C,REF\u002A\u002A154*%
X162800000Y-112302800D03*
%TD*%
D12*
%TO.C,REF\u002A\u002A159*%
X135025000Y-109762800D03*
%TD*%
%TO.C,REF\u002A\u002A151*%
X135025000Y-112302800D03*
%TD*%
D11*
%TO.C,REF\u002A\u002A135*%
X101300000Y-112302800D03*
%TD*%
D12*
%TO.C,REF\u002A\u002A142*%
X129075000Y-109762800D03*
%TD*%
%TO.C,REF\u002A\u002A138*%
X129075000Y-112302800D03*
%TD*%
%TO.C,REF\u002A\u002A130*%
X129075000Y-114842800D03*
%TD*%
%TO.C,REF\u002A\u002A129*%
X85525000Y-114842800D03*
%TD*%
D11*
%TO.C,REF\u002A\u002A136*%
X113300000Y-112302800D03*
%TD*%
D12*
%TO.C,REF\u002A\u002A141*%
X85525000Y-109762800D03*
%TD*%
%TO.C,REF\u002A\u002A133*%
X85525000Y-112302800D03*
%TD*%
D11*
%TO.C,REF\u002A\u002A117*%
X150800000Y-99662800D03*
%TD*%
D12*
%TO.C,REF\u002A\u002A124*%
X178575000Y-97122800D03*
%TD*%
%TO.C,REF\u002A\u002A120*%
X178575000Y-99662800D03*
%TD*%
%TO.C,REF\u002A\u002A112*%
X178575000Y-102202800D03*
%TD*%
%TO.C,REF\u002A\u002A111*%
X135025000Y-102202800D03*
%TD*%
D11*
%TO.C,REF\u002A\u002A118*%
X162800000Y-99662800D03*
%TD*%
D12*
%TO.C,REF\u002A\u002A123*%
X135025000Y-97122800D03*
%TD*%
%TO.C,REF\u002A\u002A115*%
X135025000Y-99662800D03*
%TD*%
D11*
%TO.C,REF\u002A\u002A99*%
X101300000Y-99662800D03*
%TD*%
D12*
%TO.C,REF\u002A\u002A106*%
X129075000Y-97122800D03*
%TD*%
%TO.C,REF\u002A\u002A102*%
X129075000Y-99662800D03*
%TD*%
%TO.C,REF\u002A\u002A94*%
X129075000Y-102202800D03*
%TD*%
%TO.C,REF\u002A\u002A93*%
X85525000Y-102202800D03*
%TD*%
D11*
%TO.C,REF\u002A\u002A100*%
X113300000Y-99662800D03*
%TD*%
D12*
%TO.C,REF\u002A\u002A105*%
X85525000Y-97122800D03*
%TD*%
%TO.C,REF\u002A\u002A97*%
X85525000Y-99662800D03*
%TD*%
D11*
%TO.C,REF\u002A\u002A81*%
X150800000Y-87022800D03*
%TD*%
D12*
%TO.C,REF\u002A\u002A88*%
X178575000Y-84482800D03*
%TD*%
%TO.C,REF\u002A\u002A84*%
X178575000Y-87022800D03*
%TD*%
%TO.C,REF\u002A\u002A76*%
X178575000Y-89562800D03*
%TD*%
%TO.C,REF\u002A\u002A75*%
X135025000Y-89562800D03*
%TD*%
D11*
%TO.C,REF\u002A\u002A82*%
X162800000Y-87022800D03*
%TD*%
D12*
%TO.C,REF\u002A\u002A87*%
X135025000Y-84482800D03*
%TD*%
%TO.C,REF\u002A\u002A79*%
X135025000Y-87022800D03*
%TD*%
D11*
%TO.C,REF\u002A\u002A63*%
X101300000Y-87022800D03*
%TD*%
D12*
%TO.C,REF\u002A\u002A70*%
X129075000Y-84482800D03*
%TD*%
%TO.C,REF\u002A\u002A66*%
X129075000Y-87022800D03*
%TD*%
%TO.C,REF\u002A\u002A58*%
X129075000Y-89562800D03*
%TD*%
%TO.C,REF\u002A\u002A57*%
X85525000Y-89562800D03*
%TD*%
D11*
%TO.C,REF\u002A\u002A64*%
X113300000Y-87022800D03*
%TD*%
D12*
%TO.C,REF\u002A\u002A69*%
X85525000Y-84482800D03*
%TD*%
%TO.C,REF\u002A\u002A61*%
X85525000Y-87022800D03*
%TD*%
D11*
%TO.C,REF\u002A\u002A45*%
X150800000Y-74382800D03*
%TD*%
D12*
%TO.C,REF\u002A\u002A52*%
X178575000Y-71842800D03*
%TD*%
%TO.C,REF\u002A\u002A48*%
X178575000Y-74382800D03*
%TD*%
%TO.C,REF\u002A\u002A40*%
X178575000Y-76922800D03*
%TD*%
%TO.C,REF\u002A\u002A39*%
X135025000Y-76922800D03*
%TD*%
D11*
%TO.C,REF\u002A\u002A46*%
X162800000Y-74382800D03*
%TD*%
D12*
%TO.C,REF\u002A\u002A51*%
X135025000Y-71842800D03*
%TD*%
%TO.C,REF\u002A\u002A43*%
X135025000Y-74382800D03*
%TD*%
D11*
%TO.C,REF\u002A\u002A27*%
X101300000Y-74382800D03*
%TD*%
D12*
%TO.C,REF\u002A\u002A34*%
X129075000Y-71842800D03*
%TD*%
%TO.C,REF\u002A\u002A30*%
X129075000Y-74382800D03*
%TD*%
%TO.C,REF\u002A\u002A22*%
X129075000Y-76922800D03*
%TD*%
%TO.C,REF\u002A\u002A21*%
X85525000Y-76922800D03*
%TD*%
D11*
%TO.C,REF\u002A\u002A28*%
X113300000Y-74382800D03*
%TD*%
D12*
%TO.C,REF\u002A\u002A33*%
X85525000Y-71842800D03*
%TD*%
%TO.C,REF\u002A\u002A25*%
X85525000Y-74382800D03*
%TD*%
D11*
%TO.C,REF\u002A\u002A9*%
X150800000Y-61742800D03*
%TD*%
D12*
%TO.C,REF\u002A\u002A16*%
X178575000Y-59202800D03*
%TD*%
%TO.C,REF\u002A\u002A12*%
X178575000Y-61742800D03*
%TD*%
%TO.C,REF\u002A\u002A4*%
X178575000Y-64282800D03*
%TD*%
%TO.C,REF\u002A\u002A3*%
X135025000Y-64282800D03*
%TD*%
D11*
%TO.C,REF\u002A\u002A10*%
X162800000Y-61742800D03*
%TD*%
D12*
%TO.C,REF\u002A\u002A15*%
X135025000Y-59202800D03*
%TD*%
%TO.C,REF\u002A\u002A7*%
X135025000Y-61742800D03*
%TD*%
%TO.C,REF\u002A\u002A*%
X85525000Y-61742800D03*
%TD*%
%TO.C,REF\u002A\u002A*%
X85525000Y-59202800D03*
%TD*%
D11*
%TO.C,REF\u002A\u002A*%
X113300000Y-61742800D03*
%TD*%
D12*
%TO.C,REF\u002A\u002A*%
X129075000Y-59202800D03*
%TD*%
D11*
%TO.C,REF\u002A\u002A*%
X101300000Y-61742800D03*
%TD*%
D12*
%TO.C,REF\u002A\u002A*%
X85525000Y-64282800D03*
%TD*%
%TO.C,REF\u002A\u002A*%
X129075000Y-64282800D03*
%TD*%
%TO.C,REF\u002A\u002A*%
X129075000Y-61742800D03*
%TD*%
M02*
