%TF.GenerationSoftware,KiCad,Pcbnew,6.0.11-2627ca5db0~126~ubuntu20.04.1*%
%TF.CreationDate,2024-03-14T23:27:01-05:00*%
%TF.ProjectId,,58585858-5858-4585-9858-585858585858,rev?*%
%TF.SameCoordinates,Original*%
%TF.FileFunction,Paste,Bot*%
%TF.FilePolarity,Positive*%
%FSLAX46Y46*%
G04 Gerber Fmt 4.6, Leading zero omitted, Abs format (unit mm)*
G04 Created by KiCad (PCBNEW 6.0.11-2627ca5db0~126~ubuntu20.04.1) date 2024-03-14 23:27:01*
%MOMM*%
%LPD*%
G01*
G04 APERTURE LIST*
%TA.AperFunction,Profile*%
%ADD10C,0.100000*%
%TD*%
G04 APERTURE END LIST*
D10*
X152800000Y-131262800D02*
G75*
G03*
X160800000Y-131262800I4000000J0D01*
G01*
X181550000Y-131262800D02*
X181550000Y-143902800D01*
X160800000Y-131262800D02*
X181550000Y-131262800D01*
X132050000Y-131262800D02*
X132050000Y-143902800D01*
X160800000Y-143902800D02*
X181550000Y-143902800D01*
X132050000Y-143902800D02*
X152800000Y-143902800D01*
X160800000Y-143902800D02*
G75*
G03*
X152800000Y-143902800I-4000000J0D01*
G01*
X132050000Y-131262800D02*
X152800000Y-131262800D01*
X103300000Y-131262800D02*
G75*
G03*
X111300000Y-131262800I4000000J0D01*
G01*
X132050000Y-131262800D02*
X132050000Y-143902800D01*
X111300000Y-131262800D02*
X132050000Y-131262800D01*
X82550000Y-131262800D02*
X82550000Y-143902800D01*
X111300000Y-143902800D02*
X132050000Y-143902800D01*
X82550000Y-143902800D02*
X103300000Y-143902800D01*
X111300000Y-143902800D02*
G75*
G03*
X103300000Y-143902800I-4000000J0D01*
G01*
X82550000Y-131262800D02*
X103300000Y-131262800D01*
X152800000Y-118622800D02*
G75*
G03*
X160800000Y-118622800I4000000J0D01*
G01*
X181550000Y-118622800D02*
X181550000Y-131262800D01*
X160800000Y-118622800D02*
X181550000Y-118622800D01*
X132050000Y-118622800D02*
X132050000Y-131262800D01*
X160800000Y-131262800D02*
X181550000Y-131262800D01*
X132050000Y-131262800D02*
X152800000Y-131262800D01*
X160800000Y-131262800D02*
G75*
G03*
X152800000Y-131262800I-4000000J0D01*
G01*
X132050000Y-118622800D02*
X152800000Y-118622800D01*
X103300000Y-118622800D02*
G75*
G03*
X111300000Y-118622800I4000000J0D01*
G01*
X132050000Y-118622800D02*
X132050000Y-131262800D01*
X111300000Y-118622800D02*
X132050000Y-118622800D01*
X82550000Y-118622800D02*
X82550000Y-131262800D01*
X111300000Y-131262800D02*
X132050000Y-131262800D01*
X82550000Y-131262800D02*
X103300000Y-131262800D01*
X111300000Y-131262800D02*
G75*
G03*
X103300000Y-131262800I-4000000J0D01*
G01*
X82550000Y-118622800D02*
X103300000Y-118622800D01*
X152800000Y-105982800D02*
G75*
G03*
X160800000Y-105982800I4000000J0D01*
G01*
X181550000Y-105982800D02*
X181550000Y-118622800D01*
X160800000Y-105982800D02*
X181550000Y-105982800D01*
X132050000Y-105982800D02*
X132050000Y-118622800D01*
X160800000Y-118622800D02*
X181550000Y-118622800D01*
X132050000Y-118622800D02*
X152800000Y-118622800D01*
X160800000Y-118622800D02*
G75*
G03*
X152800000Y-118622800I-4000000J0D01*
G01*
X132050000Y-105982800D02*
X152800000Y-105982800D01*
X103300000Y-105982800D02*
G75*
G03*
X111300000Y-105982800I4000000J0D01*
G01*
X132050000Y-105982800D02*
X132050000Y-118622800D01*
X111300000Y-105982800D02*
X132050000Y-105982800D01*
X82550000Y-105982800D02*
X82550000Y-118622800D01*
X111300000Y-118622800D02*
X132050000Y-118622800D01*
X82550000Y-118622800D02*
X103300000Y-118622800D01*
X111300000Y-118622800D02*
G75*
G03*
X103300000Y-118622800I-4000000J0D01*
G01*
X82550000Y-105982800D02*
X103300000Y-105982800D01*
X152800000Y-93342800D02*
G75*
G03*
X160800000Y-93342800I4000000J0D01*
G01*
X181550000Y-93342800D02*
X181550000Y-105982800D01*
X160800000Y-93342800D02*
X181550000Y-93342800D01*
X132050000Y-93342800D02*
X132050000Y-105982800D01*
X160800000Y-105982800D02*
X181550000Y-105982800D01*
X132050000Y-105982800D02*
X152800000Y-105982800D01*
X160800000Y-105982800D02*
G75*
G03*
X152800000Y-105982800I-4000000J0D01*
G01*
X132050000Y-93342800D02*
X152800000Y-93342800D01*
X103300000Y-93342800D02*
G75*
G03*
X111300000Y-93342800I4000000J0D01*
G01*
X132050000Y-93342800D02*
X132050000Y-105982800D01*
X111300000Y-93342800D02*
X132050000Y-93342800D01*
X82550000Y-93342800D02*
X82550000Y-105982800D01*
X111300000Y-105982800D02*
X132050000Y-105982800D01*
X82550000Y-105982800D02*
X103300000Y-105982800D01*
X111300000Y-105982800D02*
G75*
G03*
X103300000Y-105982800I-4000000J0D01*
G01*
X82550000Y-93342800D02*
X103300000Y-93342800D01*
X152800000Y-80702800D02*
G75*
G03*
X160800000Y-80702800I4000000J0D01*
G01*
X181550000Y-80702800D02*
X181550000Y-93342800D01*
X160800000Y-80702800D02*
X181550000Y-80702800D01*
X132050000Y-80702800D02*
X132050000Y-93342800D01*
X160800000Y-93342800D02*
X181550000Y-93342800D01*
X132050000Y-93342800D02*
X152800000Y-93342800D01*
X160800000Y-93342800D02*
G75*
G03*
X152800000Y-93342800I-4000000J0D01*
G01*
X132050000Y-80702800D02*
X152800000Y-80702800D01*
X103300000Y-80702800D02*
G75*
G03*
X111300000Y-80702800I4000000J0D01*
G01*
X132050000Y-80702800D02*
X132050000Y-93342800D01*
X111300000Y-80702800D02*
X132050000Y-80702800D01*
X82550000Y-80702800D02*
X82550000Y-93342800D01*
X111300000Y-93342800D02*
X132050000Y-93342800D01*
X82550000Y-93342800D02*
X103300000Y-93342800D01*
X111300000Y-93342800D02*
G75*
G03*
X103300000Y-93342800I-4000000J0D01*
G01*
X82550000Y-80702800D02*
X103300000Y-80702800D01*
X152800000Y-68062800D02*
G75*
G03*
X160800000Y-68062800I4000000J0D01*
G01*
X181550000Y-68062800D02*
X181550000Y-80702800D01*
X160800000Y-68062800D02*
X181550000Y-68062800D01*
X132050000Y-68062800D02*
X132050000Y-80702800D01*
X160800000Y-80702800D02*
X181550000Y-80702800D01*
X132050000Y-80702800D02*
X152800000Y-80702800D01*
X160800000Y-80702800D02*
G75*
G03*
X152800000Y-80702800I-4000000J0D01*
G01*
X132050000Y-68062800D02*
X152800000Y-68062800D01*
X103300000Y-68062800D02*
G75*
G03*
X111300000Y-68062800I4000000J0D01*
G01*
X132050000Y-68062800D02*
X132050000Y-80702800D01*
X111300000Y-68062800D02*
X132050000Y-68062800D01*
X82550000Y-68062800D02*
X82550000Y-80702800D01*
X111300000Y-80702800D02*
X132050000Y-80702800D01*
X82550000Y-80702800D02*
X103300000Y-80702800D01*
X111300000Y-80702800D02*
G75*
G03*
X103300000Y-80702800I-4000000J0D01*
G01*
X82550000Y-68062800D02*
X103300000Y-68062800D01*
X152800000Y-55422800D02*
G75*
G03*
X160800000Y-55422800I4000000J0D01*
G01*
X181550000Y-55422800D02*
X181550000Y-68062800D01*
X160800000Y-55422800D02*
X181550000Y-55422800D01*
X132050000Y-55422800D02*
X132050000Y-68062800D01*
X160800000Y-68062800D02*
X181550000Y-68062800D01*
X132050000Y-68062800D02*
X152800000Y-68062800D01*
X160800000Y-68062800D02*
G75*
G03*
X152800000Y-68062800I-4000000J0D01*
G01*
X132050000Y-55422800D02*
X152800000Y-55422800D01*
X103300000Y-55422800D02*
G75*
G03*
X111300000Y-55422800I4000000J0D01*
G01*
X111300000Y-55422800D02*
X132050000Y-55422800D01*
X82550000Y-55422800D02*
X103300000Y-55422800D01*
X82550000Y-68062800D02*
X103300000Y-68062800D01*
X111300000Y-68062800D02*
X132050000Y-68062800D01*
X132050000Y-55422800D02*
X132050000Y-68062800D01*
X111300000Y-68062800D02*
G75*
G03*
X103300000Y-68062800I-4000000J0D01*
G01*
X82550000Y-55422800D02*
X82550000Y-68062800D01*
M02*
