<?xml version="1.0" standalone="no"?>
 <!DOCTYPE svg PUBLIC "-//W3C//DTD SVG 1.1//EN" 
 "http://www.w3.org/Graphics/SVG/1.1/DTD/svg11.dtd"> 
<svg
  xmlns:svg="http://www.w3.org/2000/svg"
  xmlns="http://www.w3.org/2000/svg"
  xmlns:xlink="http://www.w3.org/1999/xlink"
  version="1.1"
  width="29.700220cm" height="21.000720cm" viewBox="0 0 297002200 210007200">
<title>SVG Picture created as suqtagon-base-F_Mask.svg date 2024/03/14 21:59:39 </title>
  <desc>Picture generated by PCBNEW </desc>
<g style="fill:#000000; fill-opacity:1.000000;stroke:#000000; stroke-opacity:1.000000;
stroke-linecap:round; stroke-linejoin:round;"
 transform="translate(0 0) scale(1 1)">
</g>
<g style="fill:#000000; fill-opacity:0.0; 
stroke:#000000; stroke-width:0.000000; stroke-opacity:1; 
stroke-linecap:round; stroke-linejoin:round;">
</g>
<g style="fill:#000000; fill-opacity:0.0; 
stroke:#000000; stroke-width:150000.000000; stroke-opacity:1; 
stroke-linecap:round; stroke-linejoin:round;">
</g>
<g style="fill:#000000; fill-opacity:1.0; 
stroke:#000000; stroke-width:150000.000000; stroke-opacity:1; 
stroke-linecap:round; stroke-linejoin:round;">
<path style="fill:#000000; fill-opacity:1.0; 
stroke:#000000; stroke-width:150000.000000; stroke-opacity:1; 
stroke-linecap:round; stroke-linejoin:round;fill-rule:evenodd;"
d="M 104190800.000000,130860800.000000
99974400.000000,130911600.000000
95017788.000000,119982676.000000
110206988.000000,119881076.000000
Z" /> 
</g>
<g style="fill:#000000; fill-opacity:1.0; 
stroke:#000000; stroke-width:100000.000000; stroke-opacity:1; 
stroke-linecap:round; stroke-linejoin:round;">
</g>
<g style="fill:#000000; fill-opacity:0.0; 
stroke:#000000; stroke-width:100000.000000; stroke-opacity:1; 
stroke-linecap:round; stroke-linejoin:round;">
<path d="M75000000 50000000
L125000000 50000000
" />
<path d="M125000000 136600000
L150000000 93300000
" />
<path d="M75000000 136600000
L125000000 136600000
" />
<path d="M50000000 93300000
L75000000 136600000
" />
<path d="M150000000 93300000
L125000000 50000000
" />
<path d="M75000000 50000000
L50000000 93300000
" />
<g >
</g>
<g style="fill:#000000; fill-opacity:0.0; 
stroke:#000000; stroke-width:1.000000; stroke-opacity:1; 
stroke-linecap:round; stroke-linejoin:round;">
</g>
<g style="fill:#000000; fill-opacity:1.0; 
stroke:#000000; stroke-width:1.000000; stroke-opacity:1; 
stroke-linecap:round; stroke-linejoin:round;">
<path style="fill:#000000; fill-opacity:1.0; 
stroke:#000000; stroke-width:1.000000; stroke-opacity:1; 
stroke-linecap:round; stroke-linejoin:round;fill-rule:evenodd;"
d="M 58790588.000000,105400624.000000
58651935.000000,105470967.000000
58422035.000000,105549903.000000
58182122.000000,105588975.000000
57939056.000000,105587067.000000
57699786.000000,105544231.000000
57471154.000000,105461693.000000
57259699.000000,105341813.000000
57071464.000000,105188018.000000
56911833.000000,105004708.000000
56826927.000000,104874462.000000
53389427.000000,98920538.000000
53319084.000000,98781884.000000
53240148.000000,98551985.000000
53201076.000000,98312071.000000
53202984.000000,98069005.000000
53245820.000000,97829735.000000
53328358.000000,97601103.000000
53448238.000000,97389648.000000
53602032.000000,97201413.000000
53785343.000000,97041782.000000
53915588.000000,96956876.000000
56405412.000000,95519376.000000
56544065.000000,95449033.000000
56773965.000000,95370097.000000
57013878.000000,95331025.000000
57256944.000000,95332933.000000
57496214.000000,95375769.000000
57724846.000000,95458307.000000
57936301.000000,95578187.000000
58124536.000000,95731982.000000
58284167.000000,95915292.000000
58369073.000000,96045538.000000
61806573.000000,101999462.000000
61876916.000000,102138116.000000
61955852.000000,102368015.000000
61994924.000000,102607929.000000
61993016.000000,102850995.000000
61950180.000000,103090265.000000
61867642.000000,103318897.000000
61747762.000000,103530352.000000
61593968.000000,103718587.000000
61410657.000000,103878218.000000
61280412.000000,103963124.000000
Z" /> 
</g>
<g >
</g>
<g style="fill:#000000; fill-opacity:1.0; 
stroke:#000000; stroke-width:1.000000; stroke-opacity:1; 
stroke-linecap:round; stroke-linejoin:round;">
<path style="fill:#000000; fill-opacity:1.0; 
stroke:#000000; stroke-width:1.000000; stroke-opacity:1; 
stroke-linecap:round; stroke-linejoin:round;fill-rule:evenodd;"
d="M 73790588.000000,131380624.000000
73651935.000000,131450967.000000
73422035.000000,131529903.000000
73182122.000000,131568975.000000
72939056.000000,131567067.000000
72699786.000000,131524231.000000
72471154.000000,131441693.000000
72259699.000000,131321813.000000
72071464.000000,131168018.000000
71911833.000000,130984708.000000
71826927.000000,130854462.000000
68389427.000000,124900538.000000
68319084.000000,124761884.000000
68240148.000000,124531985.000000
68201076.000000,124292071.000000
68202984.000000,124049005.000000
68245820.000000,123809735.000000
68328358.000000,123581103.000000
68448238.000000,123369648.000000
68602032.000000,123181413.000000
68785343.000000,123021782.000000
68915588.000000,122936876.000000
71405412.000000,121499376.000000
71544065.000000,121429033.000000
71773965.000000,121350097.000000
72013878.000000,121311025.000000
72256944.000000,121312933.000000
72496214.000000,121355769.000000
72724846.000000,121438307.000000
72936301.000000,121558187.000000
73124536.000000,121711982.000000
73284167.000000,121895292.000000
73369073.000000,122025538.000000
76806573.000000,127979462.000000
76876916.000000,128118116.000000
76955852.000000,128348015.000000
76994924.000000,128587929.000000
76993016.000000,128830995.000000
76950180.000000,129070265.000000
76867642.000000,129298897.000000
76747762.000000,129510352.000000
76593968.000000,129698587.000000
76410657.000000,129858218.000000
76280412.000000,129943124.000000
Z" /> 
</g>
<g >
</g>
<g style="fill:#000000; fill-opacity:1.0; 
stroke:#000000; stroke-width:1.000000; stroke-opacity:1; 
stroke-linecap:round; stroke-linejoin:round;">
<path style="fill:#000000; fill-opacity:1.0; 
stroke:#000000; stroke-width:1.000000; stroke-opacity:1; 
stroke-linecap:round; stroke-linejoin:round;fill-rule:evenodd;"
d="M 110125000.000000,132162500.000000
110133408.000000,132007251.000000
110179997.000000,131768684.000000
110266116.000000,131541377.000000
110389302.000000,131331830.000000
110546034.000000,131146034.000000
110731830.000000,130989302.000000
110941377.000000,130866116.000000
111168684.000000,130779997.000000
111407251.000000,130733408.000000
111562500.000000,130725000.000000
118437500.000000,130725000.000000
118592749.000000,130733408.000000
118831316.000000,130779997.000000
119058623.000000,130866116.000000
119268170.000000,130989302.000000
119453966.000000,131146034.000000
119610698.000000,131331830.000000
119733884.000000,131541377.000000
119820003.000000,131768684.000000
119866592.000000,132007251.000000
119875000.000000,132162500.000000
119875000.000000,135037500.000000
119866592.000000,135192749.000000
119820003.000000,135431316.000000
119733884.000000,135658623.000000
119610698.000000,135868170.000000
119453966.000000,136053966.000000
119268170.000000,136210698.000000
119058623.000000,136333884.000000
118831316.000000,136420003.000000
118592749.000000,136466592.000000
118437500.000000,136475000.000000
111562500.000000,136475000.000000
111407251.000000,136466592.000000
111168684.000000,136420003.000000
110941377.000000,136333884.000000
110731830.000000,136210698.000000
110546034.000000,136053966.000000
110389302.000000,135868170.000000
110266116.000000,135658623.000000
110179997.000000,135431316.000000
110133408.000000,135192749.000000
110125000.000000,135037500.000000
Z" /> 
</g>
<g >
</g>
<g style="fill:#000000; fill-opacity:1.0; 
stroke:#000000; stroke-width:1.000000; stroke-opacity:1; 
stroke-linecap:round; stroke-linejoin:round;">
<path style="fill:#000000; fill-opacity:1.0; 
stroke:#000000; stroke-width:1.000000; stroke-opacity:1; 
stroke-linecap:round; stroke-linejoin:round;fill-rule:evenodd;"
d="M 80125000.000000,132162500.000000
80133408.000000,132007251.000000
80179997.000000,131768684.000000
80266116.000000,131541377.000000
80389302.000000,131331830.000000
80546034.000000,131146034.000000
80731830.000000,130989302.000000
80941377.000000,130866116.000000
81168684.000000,130779997.000000
81407251.000000,130733408.000000
81562500.000000,130725000.000000
88437500.000000,130725000.000000
88592749.000000,130733408.000000
88831316.000000,130779997.000000
89058623.000000,130866116.000000
89268170.000000,130989302.000000
89453966.000000,131146034.000000
89610698.000000,131331830.000000
89733884.000000,131541377.000000
89820003.000000,131768684.000000
89866592.000000,132007251.000000
89875000.000000,132162500.000000
89875000.000000,135037500.000000
89866592.000000,135192749.000000
89820003.000000,135431316.000000
89733884.000000,135658623.000000
89610698.000000,135868170.000000
89453966.000000,136053966.000000
89268170.000000,136210698.000000
89058623.000000,136333884.000000
88831316.000000,136420003.000000
88592749.000000,136466592.000000
88437500.000000,136475000.000000
81562500.000000,136475000.000000
81407251.000000,136466592.000000
81168684.000000,136420003.000000
80941377.000000,136333884.000000
80731830.000000,136210698.000000
80546034.000000,136053966.000000
80389302.000000,135868170.000000
80266116.000000,135658623.000000
80179997.000000,135431316.000000
80133408.000000,135192749.000000
80125000.000000,135037500.000000
Z" /> 
</g>
<g >
</g>
<g style="fill:#000000; fill-opacity:1.0; 
stroke:#000000; stroke-width:1.000000; stroke-opacity:1; 
stroke-linecap:round; stroke-linejoin:round;">
<circle cx="115000000.000000" cy="53000000.000000" r="1600000.000000" /> 
</g>
<g style="fill:#000000; fill-opacity:1.0; 
stroke:#000000; stroke-width:21200.000000; stroke-opacity:1; 
stroke-linecap:round; stroke-linejoin:round;">
</g>
<g >
</g>
<g style="fill:#000000; fill-opacity:1.0; 
stroke:#000000; stroke-width:21200.000000; stroke-opacity:1; 
stroke-linecap:round; stroke-linejoin:round;">
</g>
<g style="fill:#000000; fill-opacity:1.0; 
stroke:#000000; stroke-width:1.000000; stroke-opacity:1; 
stroke-linecap:round; stroke-linejoin:round;">
<circle cx="57598000.000000" cy="86140000.000000" r="1600000.000000" /> 
</g>
<g style="fill:#000000; fill-opacity:1.0; 
stroke:#000000; stroke-width:21200.000000; stroke-opacity:1; 
stroke-linecap:round; stroke-linejoin:round;">
</g>
<g >
</g>
<g style="fill:#000000; fill-opacity:1.0; 
stroke:#000000; stroke-width:21200.000000; stroke-opacity:1; 
stroke-linecap:round; stroke-linejoin:round;">
</g>
<g style="fill:#000000; fill-opacity:1.0; 
stroke:#000000; stroke-width:1.000000; stroke-opacity:1; 
stroke-linecap:round; stroke-linejoin:round;">
<circle cx="127402000.000000" cy="60160000.000000" r="1600000.000000" /> 
</g>
<g style="fill:#000000; fill-opacity:1.0; 
stroke:#000000; stroke-width:21200.000000; stroke-opacity:1; 
stroke-linecap:round; stroke-linejoin:round;">
</g>
<g >
</g>
<g style="fill:#000000; fill-opacity:1.0; 
stroke:#000000; stroke-width:21200.000000; stroke-opacity:1; 
stroke-linecap:round; stroke-linejoin:round;">
</g>
<g style="fill:#000000; fill-opacity:1.0; 
stroke:#000000; stroke-width:1.000000; stroke-opacity:1; 
stroke-linecap:round; stroke-linejoin:round;">
<circle cx="72598000.000000" cy="60160000.000000" r="1600000.000000" /> 
</g>
<g style="fill:#000000; fill-opacity:1.0; 
stroke:#000000; stroke-width:21200.000000; stroke-opacity:1; 
stroke-linecap:round; stroke-linejoin:round;">
</g>
<g >
</g>
<g style="fill:#000000; fill-opacity:1.0; 
stroke:#000000; stroke-width:21200.000000; stroke-opacity:1; 
stroke-linecap:round; stroke-linejoin:round;">
</g>
<g style="fill:#000000; fill-opacity:1.0; 
stroke:#000000; stroke-width:1.000000; stroke-opacity:1; 
stroke-linecap:round; stroke-linejoin:round;">
<circle cx="142402000.000000" cy="86140000.000000" r="1600000.000000" /> 
</g>
<g style="fill:#000000; fill-opacity:1.0; 
stroke:#000000; stroke-width:21200.000000; stroke-opacity:1; 
stroke-linecap:round; stroke-linejoin:round;">
</g>
<g >
</g>
<g style="fill:#000000; fill-opacity:1.0; 
stroke:#000000; stroke-width:21200.000000; stroke-opacity:1; 
stroke-linecap:round; stroke-linejoin:round;">
</g>
<g style="fill:#000000; fill-opacity:1.0; 
stroke:#000000; stroke-width:1.000000; stroke-opacity:1; 
stroke-linecap:round; stroke-linejoin:round;">
<path style="fill:#000000; fill-opacity:1.0; 
stroke:#000000; stroke-width:1.000000; stroke-opacity:1; 
stroke-linecap:round; stroke-linejoin:round;fill-rule:evenodd;"
d="M 101208800.000000,130740600.000000
101208800.000000,131340600.000000
100508800.000000,131340600.000000
100508800.000000,130740600.000000
Z" /> 
<path style="fill:#000000; fill-opacity:1.0; 
stroke:#000000; stroke-width:1.000000; stroke-opacity:1; 
stroke-linecap:round; stroke-linejoin:round;fill-rule:evenodd;"
d="M 102008800.000000,131090600.000000
102008800.000000,131590600.000000
101558800.000000,131590600.000000
101558800.000000,131090600.000000
Z" /> 
<path style="fill:#000000; fill-opacity:1.0; 
stroke:#000000; stroke-width:1.000000; stroke-opacity:1; 
stroke-linecap:round; stroke-linejoin:round;fill-rule:evenodd;"
d="M 102758800.000000,131090600.000000
102758800.000000,131590600.000000
102308800.000000,131590600.000000
102308800.000000,131090600.000000
Z" /> 
<path style="fill:#000000; fill-opacity:1.0; 
stroke:#000000; stroke-width:1.000000; stroke-opacity:1; 
stroke-linecap:round; stroke-linejoin:round;fill-rule:evenodd;"
d="M 103808800.000000,130740600.000000
103808800.000000,131340600.000000
103108800.000000,131340600.000000
103108800.000000,130740600.000000
Z" /> 
</g>
<g >
</g>
<g style="fill:#000000; fill-opacity:1.0; 
stroke:#000000; stroke-width:1.000000; stroke-opacity:1; 
stroke-linecap:round; stroke-linejoin:round;">
<circle cx="85000000.000000" cy="53000000.000000" r="1600000.000000" /> 
</g>
<g style="fill:#000000; fill-opacity:1.0; 
stroke:#000000; stroke-width:21200.000000; stroke-opacity:1; 
stroke-linecap:round; stroke-linejoin:round;">
</g>
<g >
</g>
<g style="fill:#000000; fill-opacity:1.0; 
stroke:#000000; stroke-width:21200.000000; stroke-opacity:1; 
stroke-linecap:round; stroke-linejoin:round;">
</g>
<g style="fill:#000000; fill-opacity:1.0; 
stroke:#000000; stroke-width:1.000000; stroke-opacity:1; 
stroke-linecap:round; stroke-linejoin:round;">
<circle cx="142402000.000000" cy="100460000.000000" r="1600000.000000" /> 
</g>
<g style="fill:#000000; fill-opacity:1.0; 
stroke:#000000; stroke-width:21200.000000; stroke-opacity:1; 
stroke-linecap:round; stroke-linejoin:round;">
</g>
<g >
</g>
<g style="fill:#000000; fill-opacity:1.0; 
stroke:#000000; stroke-width:21200.000000; stroke-opacity:1; 
stroke-linecap:round; stroke-linejoin:round;">
</g>
<g style="fill:#000000; fill-opacity:1.0; 
stroke:#000000; stroke-width:1.000000; stroke-opacity:1; 
stroke-linecap:round; stroke-linejoin:round;">
<circle cx="127402000.000000" cy="126440000.000000" r="1600000.000000" /> 
</g>
<g style="fill:#000000; fill-opacity:1.0; 
stroke:#000000; stroke-width:21200.000000; stroke-opacity:1; 
stroke-linecap:round; stroke-linejoin:round;">
</g>
<g >
</g>
<g >
</g>
<g >
</g>
</g> 
</svg>
