<?xml version="1.0" standalone="no"?>
 <!DOCTYPE svg PUBLIC "-//W3C//DTD SVG 1.1//EN" 
 "http://www.w3.org/Graphics/SVG/1.1/DTD/svg11.dtd"> 
<svg
  xmlns:svg="http://www.w3.org/2000/svg"
  xmlns="http://www.w3.org/2000/svg"
  xmlns:xlink="http://www.w3.org/1999/xlink"
  version="1.1"
  width="29.700220cm" height="21.000720cm" viewBox="0 0 297002200 210007200">
<title>SVG Picture created as suqtagon-base-F_Silkscreen.svg date 2024/04/21 19:27:06 </title>
  <desc>Picture generated by PCBNEW </desc>
<g style="fill:#000000; fill-opacity:1.000000;stroke:#000000; stroke-opacity:1.000000;
stroke-linecap:round; stroke-linejoin:round;"
 transform="translate(0 0) scale(1 1)">
</g>
<g style="fill:#000000; fill-opacity:0.0; 
stroke:#000000; stroke-width:0.000000; stroke-opacity:1; 
stroke-linecap:round; stroke-linejoin:round;">
</g>
<g style="fill:#000000; fill-opacity:0.0; 
stroke:#000000; stroke-width:100000.000000; stroke-opacity:1; 
stroke-linecap:round; stroke-linejoin:round;">
<path d="M75000000 50000000
L125000000 50000000
" />
<path d="M125000000 136600000
L150000000 93300000
" />
<path d="M75000000 136600000
L125000000 136600000
" />
<path d="M50000000 93300000
L75000000 136600000
" />
<path d="M150000000 93300000
L125000000 50000000
" />
<path d="M75000000 50000000
L50000000 93300000
" />
</g>
<g style="fill:#000000; fill-opacity:0.0; 
stroke:#000000; stroke-width:150000.000000; stroke-opacity:1; 
stroke-linecap:round; stroke-linejoin:round;">
<text x="102362000.000000" y="116832000.000000"
textLength="2102381.000000" font-size="1333333.000000" lengthAdjust="spacingAndGlyphs"
text-anchor="middle" opacity="0">D7</text>
<g class="stroked-text"><desc>D7</desc>
<path d="M101623904 116784380
L101623904 115784380
L101862000 115784380
L102004857 115832000
L102100095 115927238
L102147714 116022476
L102195333 116212952
L102195333 116355809
L102147714 116546285
L102100095 116641523
L102004857 116736761
L101862000 116784380
L101623904 116784380
" />
<path d="M102528666 115784380
L103195333 115784380
L102766761 116784380
" />
</g><text x="82169000.000000" y="101546000.000000"
textLength="2147381.000000" font-size="1333333.000000" lengthAdjust="spacingAndGlyphs"
text-anchor="middle" opacity="0">D6</text>
<g class="stroked-text"><desc>D6</desc>
<path d="M81430904 101498380
L81430904 100498380
L81669000 100498380
L81811857 100546000
L81907095 100641238
L81954714 100736476
L82002333 100926952
L82002333 101069809
L81954714 101260285
L81907095 101355523
L81811857 101450761
L81669000 101498380
L81430904 101498380
" />
<path d="M82859476 100498380
L82669000 100498380
L82573761 100546000
L82526142 100593619
L82430904 100736476
L82383285 100926952
L82383285 101307904
L82430904 101403142
L82478523 101450761
L82573761 101498380
L82764238 101498380
L82859476 101450761
L82907095 101403142
L82954714 101307904
L82954714 101069809
L82907095 100974571
L82859476 100926952
L82764238 100879333
L82573761 100879333
L82478523 100926952
L82430904 100974571
L82383285 101069809
" />
</g><text x="120000000.000000" y="88100000.000000"
textLength="4480714.000000" font-size="1333333.000000" lengthAdjust="spacingAndGlyphs"
text-anchor="middle" opacity="0">REF**</text>
<g class="stroked-text"><desc>REF**</desc>
<path d="M118666666 88052380
L118333333 87576190
" />
<path d="M118095238 88052380
L118095238 87052380
L118476190 87052380
L118571428 87100000
L118619047 87147619
L118666666 87242857
L118666666 87385714
L118619047 87480952
L118571428 87528571
L118476190 87576190
L118095238 87576190
" />
<path d="M119095238 87528571
L119428571 87528571
" />
<path d="M119571428 88052380
L119095238 88052380
L119095238 87052380
L119571428 87052380
" />
<path d="M120333333 87528571
L120000000 87528571
" />
<path d="M120000000 88052380
L120000000 87052380
L120476190 87052380
" />
<path d="M121000000 87052380
L121000000 87290476
" />
<path d="M120761904 87195238
L121000000 87290476
L121238095 87195238
" />
<path d="M120857142 87480952
L121000000 87290476
L121142857 87480952
" />
<path d="M121761904 87052380
L121761904 87290476
" />
<path d="M121523809 87195238
L121761904 87290476
L122000000 87195238
" />
<path d="M121619047 87480952
L121761904 87290476
L121904761 87480952
" />
</g><g transform="rotate(-120.000000 77049947.000000 106550000.000000)">
<text x="77049947.000000" y="107050000.000000"
textLength="1909286.000000" font-size="1333333.000000" lengthAdjust="spacingAndGlyphs"
text-anchor="middle" opacity="0">J4</text>
</g>
<g class="stroked-text"><desc>J4</desc>
<path d="M76742361 107112484
L77360951 106755341
L77508478 106725152
L77638576 106760012
L77751244 106859920
L77798863 106942399
" />
<path d="M76578655 106162271
L77156006 105828937
" />
<path d="M76367789 106558943
L77105426 106407997
L76795902 105871886
" />
</g><g transform="rotate(-90.000000 105500000.000000 132000000.000000)">
<text x="105500000.000000" y="132500000.000000"
textLength="2147381.000000" font-size="1333333.000000" lengthAdjust="spacingAndGlyphs"
text-anchor="middle" opacity="0">D3</text>
</g>
<g class="stroked-text"><desc>D3</desc>
<path d="M105952380 132738095
L104952380 132738095
L104952380 132500000
L105000000 132357142
L105095238 132261904
L105190476 132214285
L105380952 132166666
L105523809 132166666
L105714285 132214285
L105809523 132261904
L105904761 132357142
L105952380 132500000
L105952380 132738095
" />
<path d="M104952380 131833333
L104952380 131214285
L105333333 131547619
L105333333 131404761
L105380952 131309523
L105428571 131261904
L105523809 131214285
L105761904 131214285
L105857142 131261904
L105904761 131309523
L105952380 131404761
L105952380 131690476
L105904761 131785714
L105857142 131833333
" />
</g><text x="100000000.000000" y="67300000.000000"
textLength="1909286.000000" font-size="1333333.000000" lengthAdjust="spacingAndGlyphs"
text-anchor="middle" opacity="0">J2</text>
<g class="stroked-text"><desc>J2</desc>
<path d="M99666666 66252380
L99666666 66966666
L99619047 67109523
L99523809 67204761
L99380952 67252380
L99285714 67252380
" />
<path d="M100095238 66347619
L100142857 66300000
L100238095 66252380
L100476190 66252380
L100571428 66300000
L100619047 66347619
L100666666 66442857
L100666666 66538095
L100619047 66680952
L100047619 67252380
L100666666 67252380
" />
</g><g transform="rotate(-90.000000 86720000.000000 85000000.000000)">
<text x="86720000.000000" y="85500000.000000"
textLength="2147381.000000" font-size="1333333.000000" lengthAdjust="spacingAndGlyphs"
text-anchor="middle" opacity="0">C3</text>
</g>
<g class="stroked-text"><desc>C3</desc>
<path d="M87077142 85166666
L87124761 85214285
L87172380 85357142
L87172380 85452380
L87124761 85595238
L87029523 85690476
L86934285 85738095
L86743809 85785714
L86600952 85785714
L86410476 85738095
L86315238 85690476
L86220000 85595238
L86172380 85452380
L86172380 85357142
L86220000 85214285
L86267619 85166666
" />
<path d="M86172380 84833333
L86172380 84214285
L86553333 84547619
L86553333 84404761
L86600952 84309523
L86648571 84261904
L86743809 84214285
L86981904 84214285
L87077142 84261904
L87124761 84309523
L87172380 84404761
L87172380 84690476
L87124761 84785714
L87077142 84833333
" />
</g><g transform="rotate(-90.000000 93421200.000000 124663200.000000)">
<text x="93421200.000000" y="125163200.000000"
textLength="2147381.000000" font-size="1333333.000000" lengthAdjust="spacingAndGlyphs"
text-anchor="middle" opacity="0">R4</text>
</g>
<g class="stroked-text"><desc>R4</desc>
<path d="M93873580 124829866
L93397390 125163200
" />
<path d="M93873580 125401295
L92873580 125401295
L92873580 125020342
L92921200 124925104
L92968819 124877485
L93064057 124829866
L93206914 124829866
L93302152 124877485
L93349771 124925104
L93397390 125020342
L93397390 125401295
" />
<path d="M93206914 123972723
L93873580 123972723
" />
<path d="M92825961 124210819
L93540247 124448914
L93540247 123829866
" />
</g><g transform="rotate(-90.000000 104851200.000000 124663200.000000)">
<text x="104851200.000000" y="125163200.000000"
textLength="2147381.000000" font-size="1333333.000000" lengthAdjust="spacingAndGlyphs"
text-anchor="middle" opacity="0">R2</text>
</g>
<g class="stroked-text"><desc>R2</desc>
<path d="M105303580 124829866
L104827390 125163200
" />
<path d="M105303580 125401295
L104303580 125401295
L104303580 125020342
L104351200 124925104
L104398819 124877485
L104494057 124829866
L104636914 124829866
L104732152 124877485
L104779771 124925104
L104827390 125020342
L104827390 125401295
" />
<path d="M104398819 124448914
L104351200 124401295
L104303580 124306057
L104303580 124067961
L104351200 123972723
L104398819 123925104
L104494057 123877485
L104589295 123877485
L104732152 123925104
L105303580 124496533
L105303580 123877485
" />
</g><g transform="rotate(-120.000000 122950053.000000 80050000.000000)">
<text x="122950053.000000" y="80550000.000000"
textLength="1909286.000000" font-size="1333333.000000" lengthAdjust="spacingAndGlyphs"
text-anchor="middle" opacity="0">J5</text>
</g>
<g class="stroked-text"><desc>J5</desc>
<path d="M122642467 80612484
L123261057 80255341
L123408584 80225152
L123538682 80260012
L123651350 80359920
L123698969 80442399
" />
<path d="M122166277 79787698
L122404372 80200091
L122840574 80003235
L122775526 79985805
L122686667 79927136
L122567620 79720940
L122561240 79614652
L122578670 79549603
L122637339 79460744
L122843535 79341697
L122949823 79335317
L123014872 79352747
L123103731 79411416
L123222778 79617612
L123229158 79723901
L123211728 79788949
" />
</g><g transform="rotate(-90.000000 118500000.000000 132000000.000000)">
<text x="118500000.000000" y="132500000.000000"
textLength="2147381.000000" font-size="1333333.000000" lengthAdjust="spacingAndGlyphs"
text-anchor="middle" opacity="0">D4</text>
</g>
<g class="stroked-text"><desc>D4</desc>
<path d="M118952380 132738095
L117952380 132738095
L117952380 132500000
L118000000 132357142
L118095238 132261904
L118190476 132214285
L118380952 132166666
L118523809 132166666
L118714285 132214285
L118809523 132261904
L118904761 132357142
L118952380 132500000
L118952380 132738095
" />
<path d="M118285714 131309523
L118952380 131309523
" />
<path d="M117904761 131547619
L118619047 131785714
L118619047 131166666
" />
</g><g transform="rotate(-90.000000 94843600.000000 124663200.000000)">
<text x="94843600.000000" y="125163200.000000"
textLength="2147381.000000" font-size="1333333.000000" lengthAdjust="spacingAndGlyphs"
text-anchor="middle" opacity="0">R1</text>
</g>
<g class="stroked-text"><desc>R1</desc>
<path d="M95295980 124829866
L94819790 125163200
" />
<path d="M95295980 125401295
L94295980 125401295
L94295980 125020342
L94343600 124925104
L94391219 124877485
L94486457 124829866
L94629314 124829866
L94724552 124877485
L94772171 124925104
L94819790 125020342
L94819790 125401295
" />
<path d="M95295980 123877485
L95295980 124448914
" />
<path d="M95295980 124163200
L94295980 124163200
L94438838 124258438
L94534076 124353676
L94581695 124448914
" />
</g><g transform="rotate(-90.000000 79165000.000000 117000000.000000)">
<text x="79165000.000000" y="117500000.000000"
textLength="2147381.000000" font-size="1333333.000000" lengthAdjust="spacingAndGlyphs"
text-anchor="middle" opacity="0">C1</text>
</g>
<g class="stroked-text"><desc>C1</desc>
<path d="M79522142 117166666
L79569761 117214285
L79617380 117357142
L79617380 117452380
L79569761 117595238
L79474523 117690476
L79379285 117738095
L79188809 117785714
L79045952 117785714
L78855476 117738095
L78760238 117690476
L78665000 117595238
L78617380 117452380
L78617380 117357142
L78665000 117214285
L78712619 117166666
" />
<path d="M79617380 116214285
L79617380 116785714
" />
<path d="M79617380 116500000
L78617380 116500000
L78760238 116595238
L78855476 116690476
L78903095 116785714
" />
</g><text x="93550000.000000" y="128000000.000000"
textLength="1909286.000000" font-size="1333333.000000" lengthAdjust="spacingAndGlyphs"
text-anchor="middle" opacity="0">J1</text>
<g class="stroked-text"><desc>J1</desc>
<path d="M93216666 126952380
L93216666 127666666
L93169047 127809523
L93073809 127904761
L92930952 127952380
L92835714 127952380
" />
<path d="M94216666 127952380
L93645238 127952380
" />
<path d="M93930952 127952380
L93930952 126952380
L93835714 127095238
L93740476 127190476
L93645238 127238095
" />
</g><g transform="rotate(-90.000000 106222800.000000 124663200.000000)">
<text x="106222800.000000" y="125163200.000000"
textLength="2147381.000000" font-size="1333333.000000" lengthAdjust="spacingAndGlyphs"
text-anchor="middle" opacity="0">R3</text>
</g>
<g class="stroked-text"><desc>R3</desc>
<path d="M106675180 124829866
L106198990 125163200
" />
<path d="M106675180 125401295
L105675180 125401295
L105675180 125020342
L105722800 124925104
L105770419 124877485
L105865657 124829866
L106008514 124829866
L106103752 124877485
L106151371 124925104
L106198990 125020342
L106198990 125401295
" />
<path d="M105675180 124496533
L105675180 123877485
L106056133 124210819
L106056133 124067961
L106103752 123972723
L106151371 123925104
L106246609 123877485
L106484704 123877485
L106579942 123925104
L106627561 123972723
L106675180 124067961
L106675180 124353676
L106627561 124448914
L106579942 124496533
" />
</g><g transform="rotate(-90.000000 110950000.000000 110000000.000000)">
<text x="110950000.000000" y="110500000.000000"
textLength="3242619.000000" font-size="1333333.000000" lengthAdjust="spacingAndGlyphs"
text-anchor="middle" opacity="0">SW2</text>
</g>
<g class="stroked-text"><desc>SW2</desc>
<path d="M111354761 111333333
L111402380 111190476
L111402380 110952380
L111354761 110857142
L111307142 110809523
L111211904 110761904
L111116666 110761904
L111021428 110809523
L110973809 110857142
L110926190 110952380
L110878571 111142857
L110830952 111238095
L110783333 111285714
L110688095 111333333
L110592857 111333333
L110497619 111285714
L110450000 111238095
L110402380 111142857
L110402380 110904761
L110450000 110761904
" />
<path d="M110402380 110428571
L111402380 110190476
L110688095 110000000
L111402380 109809523
L110402380 109571428
" />
<path d="M110497619 109238095
L110450000 109190476
L110402380 109095238
L110402380 108857142
L110450000 108761904
L110497619 108714285
L110592857 108666666
L110688095 108666666
L110830952 108714285
L111402380 109285714
L111402380 108666666
" />
</g><text x="115000000.000000" y="119085000.000000"
textLength="2147381.000000" font-size="1333333.000000" lengthAdjust="spacingAndGlyphs"
text-anchor="middle" opacity="0">R6</text>
<g class="stroked-text"><desc>R6</desc>
<path d="M114833333 119037380
L114500000 118561190
" />
<path d="M114261904 119037380
L114261904 118037380
L114642857 118037380
L114738095 118085000
L114785714 118132619
L114833333 118227857
L114833333 118370714
L114785714 118465952
L114738095 118513571
L114642857 118561190
L114261904 118561190
" />
<path d="M115690476 118037380
L115500000 118037380
L115404761 118085000
L115357142 118132619
L115261904 118275476
L115214285 118465952
L115214285 118846904
L115261904 118942142
L115309523 118989761
L115404761 119037380
L115595238 119037380
L115690476 118989761
L115738095 118942142
L115785714 118846904
L115785714 118608809
L115738095 118513571
L115690476 118465952
L115595238 118418333
L115404761 118418333
L115309523 118465952
L115261904 118513571
L115214285 118608809
" />
</g><text x="110000000.000000" y="77405000.000000"
textLength="2147381.000000" font-size="1333333.000000" lengthAdjust="spacingAndGlyphs"
text-anchor="middle" opacity="0">D1</text>
<g class="stroked-text"><desc>D1</desc>
<path d="M109261904 77357380
L109261904 76357380
L109500000 76357380
L109642857 76405000
L109738095 76500238
L109785714 76595476
L109833333 76785952
L109833333 76928809
L109785714 77119285
L109738095 77214523
L109642857 77309761
L109500000 77357380
L109261904 77357380
" />
<path d="M110785714 77357380
L110214285 77357380
" />
<path d="M110500000 77357380
L110500000 76357380
L110404761 76500238
L110309523 76595476
L110214285 76643095
" />
</g><text x="100000000.000000" y="82850000.000000"
textLength="13528333.000000" font-size="1333333.000000" lengthAdjust="spacingAndGlyphs"
text-anchor="middle" opacity="0">11111111111111</text>
<g class="stroked-text"><desc>11111111111111</desc>
<path d="M94095238 82802380
L93523809 82802380
" />
<path d="M93809523 82802380
L93809523 81802380
L93714285 81945238
L93619047 82040476
L93523809 82088095
" />
<path d="M95047619 82802380
L94476190 82802380
" />
<path d="M94761904 82802380
L94761904 81802380
L94666666 81945238
L94571428 82040476
L94476190 82088095
" />
<path d="M96000000 82802380
L95428571 82802380
" />
<path d="M95714285 82802380
L95714285 81802380
L95619047 81945238
L95523809 82040476
L95428571 82088095
" />
<path d="M96952380 82802380
L96380952 82802380
" />
<path d="M96666666 82802380
L96666666 81802380
L96571428 81945238
L96476190 82040476
L96380952 82088095
" />
<path d="M97904761 82802380
L97333333 82802380
" />
<path d="M97619047 82802380
L97619047 81802380
L97523809 81945238
L97428571 82040476
L97333333 82088095
" />
<path d="M98857142 82802380
L98285714 82802380
" />
<path d="M98571428 82802380
L98571428 81802380
L98476190 81945238
L98380952 82040476
L98285714 82088095
" />
<path d="M99809523 82802380
L99238095 82802380
" />
<path d="M99523809 82802380
L99523809 81802380
L99428571 81945238
L99333333 82040476
L99238095 82088095
" />
<path d="M100761904 82802380
L100190476 82802380
" />
<path d="M100476190 82802380
L100476190 81802380
L100380952 81945238
L100285714 82040476
L100190476 82088095
" />
<path d="M101714285 82802380
L101142857 82802380
" />
<path d="M101428571 82802380
L101428571 81802380
L101333333 81945238
L101238095 82040476
L101142857 82088095
" />
<path d="M102666666 82802380
L102095238 82802380
" />
<path d="M102380952 82802380
L102380952 81802380
L102285714 81945238
L102190476 82040476
L102095238 82088095
" />
<path d="M103619047 82802380
L103047619 82802380
" />
<path d="M103333333 82802380
L103333333 81802380
L103238095 81945238
L103142857 82040476
L103047619 82088095
" />
<path d="M104571428 82802380
L104000000 82802380
" />
<path d="M104285714 82802380
L104285714 81802380
L104190476 81945238
L104095238 82040476
L104000000 82088095
" />
<path d="M105523809 82802380
L104952380 82802380
" />
<path d="M105238095 82802380
L105238095 81802380
L105142857 81945238
L105047619 82040476
L104952380 82088095
" />
<path d="M106476190 82802380
L105904761 82802380
" />
<path d="M106190476 82802380
L106190476 81802380
L106095238 81945238
L105999999 82040476
L105904761 82088095
" />
</g><g transform="rotate(-90.000000 81500000.000000 132000000.000000)">
<text x="81500000.000000" y="132500000.000000"
textLength="2147381.000000" font-size="1333333.000000" lengthAdjust="spacingAndGlyphs"
text-anchor="middle" opacity="0">D5</text>
</g>
<g class="stroked-text"><desc>D5</desc>
<path d="M81952380 132738095
L80952380 132738095
L80952380 132500000
L81000000 132357142
L81095238 132261904
L81190476 132214285
L81380952 132166666
L81523809 132166666
L81714285 132214285
L81809523 132261904
L81904761 132357142
L81952380 132500000
L81952380 132738095
" />
<path d="M80952380 131261904
L80952380 131738095
L81428571 131785714
L81380952 131738095
L81333333 131642857
L81333333 131404761
L81380952 131309523
L81428571 131261904
L81523809 131214285
L81761904 131214285
L81857142 131261904
L81904761 131309523
L81952380 131404761
L81952380 131642857
L81904761 131738095
L81857142 131785714
" />
</g><g transform="rotate(-90.000000 79165000.000000 113000000.000000)">
<text x="79165000.000000" y="113500000.000000"
textLength="2147381.000000" font-size="1333333.000000" lengthAdjust="spacingAndGlyphs"
text-anchor="middle" opacity="0">C2</text>
</g>
<g class="stroked-text"><desc>C2</desc>
<path d="M79522142 113166666
L79569761 113214285
L79617380 113357142
L79617380 113452380
L79569761 113595238
L79474523 113690476
L79379285 113738095
L79188809 113785714
L79045952 113785714
L78855476 113738095
L78760238 113690476
L78665000 113595238
L78617380 113452380
L78617380 113357142
L78665000 113214285
L78712619 113166666
" />
<path d="M78712619 112785714
L78665000 112738095
L78617380 112642857
L78617380 112404761
L78665000 112309523
L78712619 112261904
L78807857 112214285
L78903095 112214285
L79045952 112261904
L79617380 112833333
L79617380 112214285
" />
</g><text x="83000000.000000" y="84100000.000000"
textLength="2147381.000000" font-size="1333333.000000" lengthAdjust="spacingAndGlyphs"
text-anchor="middle" opacity="0">R5</text>
<g class="stroked-text"><desc>R5</desc>
<path d="M82833333 84052380
L82500000 83576190
" />
<path d="M82261904 84052380
L82261904 83052380
L82642857 83052380
L82738095 83100000
L82785714 83147619
L82833333 83242857
L82833333 83385714
L82785714 83480952
L82738095 83528571
L82642857 83576190
L82261904 83576190
" />
<path d="M83738095 83052380
L83261904 83052380
L83214285 83528571
L83261904 83480952
L83357142 83433333
L83595238 83433333
L83690476 83480952
L83738095 83528571
L83785714 83623809
L83785714 83861904
L83738095 83957142
L83690476 84004761
L83595238 84052380
L83357142 84052380
L83261904 84004761
L83214285 83957142
" />
</g><text x="87500000.000000" y="110950000.000000"
textLength="2195000.000000" font-size="1333333.000000" lengthAdjust="spacingAndGlyphs"
text-anchor="middle" opacity="0">U1</text>
<g class="stroked-text"><desc>U1</desc>
<path d="M86738095 109902380
L86738095 110711904
L86785714 110807142
L86833333 110854761
L86928571 110902380
L87119047 110902380
L87214285 110854761
L87261904 110807142
L87309523 110711904
L87309523 109902380
" />
<path d="M88309523 110902380
L87738095 110902380
" />
<path d="M88023809 110902380
L88023809 109902380
L87928571 110045238
L87833333 110140476
L87738095 110188095
" />
</g><g transform="rotate(-90.000000 94400000.000000 132000000.000000)">
<text x="94400000.000000" y="132500000.000000"
textLength="2147381.000000" font-size="1333333.000000" lengthAdjust="spacingAndGlyphs"
text-anchor="middle" opacity="0">D2</text>
</g>
<g class="stroked-text"><desc>D2</desc>
<path d="M94852380 132738095
L93852380 132738095
L93852380 132500000
L93900000 132357142
L93995238 132261904
L94090476 132214285
L94280952 132166666
L94423809 132166666
L94614285 132214285
L94709523 132261904
L94804761 132357142
L94852380 132500000
L94852380 132738095
" />
<path d="M93947619 131785714
L93900000 131738095
L93852380 131642857
L93852380 131404761
L93900000 131309523
L93947619 131261904
L94042857 131214285
L94138095 131214285
L94280952 131261904
L94852380 131833333
L94852380 131214285
" />
</g><g transform="rotate(-60.000000 77049947.000000 80050000.000000)">
<text x="77049947.000000" y="80550000.000000"
textLength="1909286.000000" font-size="1333333.000000" lengthAdjust="spacingAndGlyphs"
text-anchor="middle" opacity="0">J3</text>
</g>
<g class="stroked-text"><desc>J3</desc>
<path d="M76409028 80064865
L77027617 80422008
L77127526 80534676
L77162385 80664774
L77132196 80812301
L77084577 80894780
" />
<path d="M76599504 79734951
L76909028 79198840
L77072276 79677991
L77143704 79554273
L77232563 79495604
L77297611 79478174
L77403899 79484554
L77610096 79603602
L77668765 79692460
L77686195 79757509
L77679815 79863797
L77536958 80111233
L77448100 80169902
L77383051 80187332
" />
</g><g transform="rotate(-60.000000 122950053.000000 106550000.000000)">
<text x="122950053.000000" y="107050000.000000"
textLength="1909286.000000" font-size="1333333.000000" lengthAdjust="spacingAndGlyphs"
text-anchor="middle" opacity="0">J6</text>
</g>
<g class="stroked-text"><desc>J6</desc>
<path d="M122309134 106564865
L122927723 106922008
L123027632 107034676
L123062491 107164774
L123032302 107312301
L122984683 107394780
" />
<path d="M122761515 105781318
L122666277 105946276
L122659897 106052564
L122677327 106117612
L122753426 106271520
L122894573 106407997
L123224488 106598473
L123330776 106604853
L123395825 106587423
L123484683 106528754
L123579921 106363797
L123586301 106257509
L123568871 106192460
L123510202 106103602
L123304005 105984554
L123197717 105978174
L123132669 105995604
L123043810 106054273
L122948572 106219230
L122942192 106325518
L122959622 106390567
L123018291 106479426
" />
</g><g transform="rotate(-90.000000 79451428.000000 77000000.000000)">
<text x="79451428.000000" y="77500000.000000"
textLength="3242619.000000" font-size="1333333.000000" lengthAdjust="spacingAndGlyphs"
text-anchor="middle" opacity="0">SW1</text>
</g>
<g class="stroked-text"><desc>SW1</desc>
<path d="M79856189 78333333
L79903808 78190476
L79903808 77952380
L79856189 77857142
L79808570 77809523
L79713332 77761904
L79618094 77761904
L79522856 77809523
L79475237 77857142
L79427618 77952380
L79379999 78142857
L79332380 78238095
L79284761 78285714
L79189523 78333333
L79094285 78333333
L78999047 78285714
L78951428 78238095
L78903808 78142857
L78903808 77904761
L78951428 77761904
" />
<path d="M78903808 77428571
L79903808 77190476
L79189523 77000000
L79903808 76809523
L78903808 76571428
" />
<path d="M79903808 75666666
L79903808 76238095
" />
<path d="M79903808 75952380
L78903808 75952380
L79046666 76047619
L79141904 76142857
L79189523 76238095
" />
</g><path d="M104912000 112307000
L104912000 114007000
" />
<path d="M104912000 112307000
L99812000 112307000
" />
<path d="M104302000 114617000
L99812000 114617000
" />
<path d="M104912000 114007000
L104302000 114617000
" />
<path d="M99812000 112307000
L99812000 114617000
" />
<path d="M84719000 97021000
L84719000 98721000
" />
<path d="M84719000 97021000
L79619000 97021000
" />
<path d="M84109000 99331000
L79619000 99331000
" />
<path d="M84719000 98721000
L84109000 99331000
" />
<path d="M79619000 97021000
L79619000 99331000
" />
</g>
<g style="fill:#000000; fill-opacity:0.0; 
stroke:#000000; stroke-width:120000.000000; stroke-opacity:1; 
stroke-linecap:round; stroke-linejoin:round;">
<path d="M118150000 88350000
L121850000 88350000
" />
<path d="M118150000 88700000
L118150000 88350000
" />
<path d="M118150000 91650000
L121850000 91650000
" />
<path d="M121450000 91500000
L118550000 91500000
" />
<path d="M118300000 88750000
L118300000 91250000
" />
<path d="M118550000 88500000
L121450000 88500000
" />
<path d="M121700000 91250000
L121700000 88750000
" />
<path d="M121700000.000000 88750000.000000 A250000.000000 250000.000000 0.0 0 0 121450000.000000 88500000.000000" />
<path d="M121450000.000000 91500000.000000 A250000.000000 250000.000000 0.0 0 0 121700000.000000 91250000.000000" />
<path d="M118300000.000002 91250000.000000 A249999.000000 249999.000000 0.0 0 0 118550000.000000 91499999.999998" />
<path d="M118550000.000000 88500000.000002 A249999.000000 249999.000000 0.0 0 0 118300000.000002 88750000.000000" />
<path d="M73762936 114336730
L77443544 112211730
" />
<path d="M68662936 105503270
L72343544 103378270
" />
<path d="M71987903 105962283
L72482903 106819648
" />
<path d="M76893544 111259102
L75507903 112059102
" />
<path d="M72343544 103378270
L73373544 105162283
" />
<path d="M75507903 112059102
L74532903 110370352
" />
<path d="M77443544 112211730
L76893544 111259102
" />
<path d="M73373544 105162283
L71987903 105962283
" />
<path d="M72482903 106819648
L74985717 105374648
" />
<path d="M64846136 109912379
L68036136 115437621
" />
<path d="M106150000 135550000
L110450000 135550000
" />
<path d="M110450000 135550000
L110450000 129850000
" />
<path d="M106150000 135550000
L106150000 129850000
" />
<path d="M94900000 60060000
L94900000 64310000
" />
<path d="M103040000 62710000
L102050000 62710000
" />
<path d="M103040000 64310000
L103040000 62710000
" />
<path d="M102050000 62710000
L102050000 65600000
" />
<path d="M96000000 64310000
L96000000 62710000
" />
<path d="M103190000 54550000
L96810000 54550000
" />
<path d="M94900000 64310000
L96000000 64310000
" />
<path d="M105100000 60060000
L105100000 64310000
" />
<path d="M96000000 62710000
L97950000 62710000
" />
<path d="M105100000 64310000
L103040000 64310000
" />
<path d="M87665000 85261252
L87665000 84738748
" />
<path d="M89135000 85261252
L89135000 84738748
" />
<path d="M97255000 124839464
L97255000 124385336
" />
<path d="M95785000 124839464
L95785000 124385336
" />
<path d="M100204600 124839464
L100204600 124385336
" />
<path d="M101674600 124839464
L101674600 124385336
" />
<path d="M122556456 74388270
L123106456 75340898
" />
<path d="M131337064 81096730
L127656456 83221730
" />
<path d="M126626456 81437717
L128012097 80637717
" />
<path d="M135153864 76687621
L131963864 71162379
" />
<path d="M124492097 74540898
L125467097 76229648
" />
<path d="M128012097 80637717
L127517097 79780352
" />
<path d="M123106456 75340898
L124492097 74540898
" />
<path d="M127517097 79780352
L125014283 81225352
" />
<path d="M127656456 83221730
L126626456 81437717
" />
<path d="M126237064 72263270
L122556456 74388270
" />
<path d="M119350000 135550000
L119350000 129850000
" />
<path d="M123650000 135550000
L123650000 129850000
" />
<path d="M119350000 135550000
L123650000 135550000
" />
<path d="M97969400 124839464
L97969400 124385336
" />
<path d="M99439400 124839464
L99439400 124385336
" />
<path d="M80110000 117261252
L80110000 116738748
" />
<path d="M81580000 117261252
L81580000 116738748
" />
<path d="M95300000 136500000
L104700000 136500000
" />
<path d="M95300000 130700000
L95300000 132700000
" />
<path d="M104700000 130700000
L104700000 132700000
" />
<path d="M95300000 134600000
L95300000 136500000
" />
<path d="M104700000 134600000
L104700000 136500000
" />
<path d="M102389000 124839464
L102389000 124385336
" />
<path d="M103859000 124839464
L103859000 124385336
" />
<path d="M111770000 113230000
L111770000 106770000
" />
<path d="M118230000 113230000
L118200000 113230000
" />
<path d="M118230000 113230000
L118230000 106770000
" />
<path d="M113700000 106770000
L116300000 106770000
" />
<path d="M113700000 113230000
L116300000 113230000
" />
<path d="M111770000 106770000
L111800000 106770000
" />
<path d="M118230000 106770000
L118200000 106770000
" />
<path d="M111800000 113230000
L111770000 113230000
" />
<path d="M115227064 116200000
L114772936 116200000
" />
<path d="M115227064 117670000
L114772936 117670000
" />
</g>
<g style="fill:#000000; fill-opacity:0.0; 
stroke:#000000; stroke-width:150000.000000; stroke-opacity:1; 
stroke-linecap:round; stroke-linejoin:round;">
<path d="M111950000 75725000
L108050000 75725000
" />
<path d="M108050000 74500000
L108050000 75725000
" />
</g>
<g style="fill:#000000; fill-opacity:0.0; 
stroke:#000000; stroke-width:120000.000000; stroke-opacity:1; 
stroke-linecap:round; stroke-linejoin:round;">
<path d="M109000000 83850000
L91000000 83850000
" />
<path d="M109150000 103200000
L108150000 103200000
" />
<path d="M109000000 83850000
L109000000 84350000
" />
<path d="M91000000 83850000
L91000000 84350000
" />
<path d="M109150000 84350000
L109150000 83700000
" />
<path d="M91000000 102200000
L91000000 103050000
" />
<path d="M109000000 102300000
L109000000 103050000
" />
<path d="M90850000 103200000
L91850000 103200000
" />
<path d="M90800000 83700000
L91900000 83700000
" />
<path d="M109000000 103050000
L107650000 103050000
" />
<path d="M91000000 103050000
L92300000 103050000
" />
<path d="M109150000 102300000
L109150000 103200000
" />
<path d="M90850000 103200000
L90850000 102200000
" />
<path d="M109150000 83700000
L108150000 83700000
" />
<path d="M76350000 128450000
L76350000 134150000
" />
<path d="M80650000 128450000
L76350000 128450000
" />
<path d="M80650000 128450000
L80650000 134150000
" />
<path d="M81580000 113261252
L81580000 112738748
" />
<path d="M80110000 113261252
L80110000 112738748
" />
<path d="M82772936 84515000
L83227064 84515000
" />
<path d="M82772936 85985000
L83227064 85985000
" />
<path d="M89410000 118360000
L89410000 117100000
" />
<path d="M83400000 111540000
L89410000 111540000
" />
<path d="M85650000 118360000
L89410000 118360000
" />
<path d="M89410000 111540000
L89410000 112800000
" />
<path d="M89250000 128450000
L89250000 134150000
" />
<path d="M93550000 128450000
L93550000 134150000
" />
<path d="M93550000 128450000
L89250000 128450000
" />
<path d="M68662936 81096730
L72343544 83221730
" />
<path d="M76413544 76172283
L75027903 75372283
" />
<path d="M71507903 81469102
L72482903 79780352
" />
<path d="M77443544 74388270
L76413544 76172283
" />
<path d="M73762936 72263270
L77443544 74388270
" />
<path d="M72343544 83221730
L72893544 82269102
" />
<path d="M75027903 75372283
L74532903 76229648
" />
<path d="M72893544 82269102
L71507903 81469102
" />
<path d="M68036136 71162379
L64846136 76687621
" />
<path d="M74532903 76229648
L77035717 77674648
" />
<path d="M126237064 114336730
L122556456 112211730
" />
<path d="M125467097 110370352
L122964283 108925352
" />
<path d="M127656456 103378270
L127106456 104330898
" />
<path d="M131963864 115437621
L135153864 109912379
" />
<path d="M128492097 105130898
L127517097 106819648
" />
<path d="M127106456 104330898
L128492097 105130898
" />
<path d="M122556456 112211730
L123586456 110427717
" />
<path d="M131337064 105503270
L127656456 103378270
" />
<path d="M123586456 110427717
L124972097 111227717
" />
<path d="M124972097 111227717
L125467097 110370352
" />
<path d="M86731428 80230000
L86701428 80230000
" />
<path d="M82201428 73770000
L84801428 73770000
" />
<path d="M86731428 73770000
L86701428 73770000
" />
<path d="M82201428 80230000
L84801428 80230000
" />
<path d="M80301428 80230000
L80271428 80230000
" />
<path d="M86731428 80230000
L86731428 73770000
" />
<path d="M80271428 80230000
L80271428 73770000
" />
<path d="M80271428 73770000
L80301428 73770000
" />
<g >
</g>
<g >
</g>
<g >
</g>
<g >
</g>
<g >
</g>
<g >
</g>
<g >
</g>
<g >
</g>
<g >
</g>
<g >
</g>
<g >
</g>
<g >
</g>
<g >
</g>
<g >
</g>
<g >
</g>
<g >
</g>
<g >
</g>
<g >
</g>
<g >
</g>
<g >
</g>
<g >
</g>
<g >
</g>
<g >
</g>
<g >
</g>
<g >
</g>
<g >
</g>
<g >
</g>
<g >
</g>
<g >
</g>
<g >
</g>
<g >
</g>
<g >
</g>
<g >
</g>
<g >
</g>
<g >
</g>
<g >
</g>
<g >
</g>
<g >
</g>
<g >
</g>
<g >
</g>
<g >
</g>
<g >
</g>
</g>
<g style="fill:#FFFFFF; fill-opacity:0.0; 
stroke:#FFFFFF; stroke-width:120000.000000; stroke-opacity:1; 
stroke-linecap:round; stroke-linejoin:round;">
</g>
<g style="fill:#FFFFFF; fill-opacity:1.0; 
stroke:#FFFFFF; stroke-width:1.000000; stroke-opacity:1; 
stroke-linecap:round; stroke-linejoin:round;">
<circle cx="74330000.000000" cy="125440000.000000" r="1600000.000000" /> 
</g>
<g style="fill:#FFFFFF; fill-opacity:1.0; 
stroke:#FFFFFF; stroke-width:21200.000000; stroke-opacity:1; 
stroke-linecap:round; stroke-linejoin:round;">
</g>
<g style="fill:#FFFFFF; fill-opacity:1.0; 
stroke:#FFFFFF; stroke-width:1.000000; stroke-opacity:1; 
stroke-linecap:round; stroke-linejoin:round;">
<circle cx="85000000.000000" cy="55000000.000000" r="1600000.000000" /> 
</g>
<g style="fill:#FFFFFF; fill-opacity:1.0; 
stroke:#FFFFFF; stroke-width:21200.000000; stroke-opacity:1; 
stroke-linecap:round; stroke-linejoin:round;">
</g>
<g style="fill:#FFFFFF; fill-opacity:1.0; 
stroke:#FFFFFF; stroke-width:1.000000; stroke-opacity:1; 
stroke-linecap:round; stroke-linejoin:round;">
<circle cx="115000000.000000" cy="55000000.000000" r="1600000.000000" /> 
</g>
<g style="fill:#FFFFFF; fill-opacity:1.0; 
stroke:#FFFFFF; stroke-width:21200.000000; stroke-opacity:1; 
stroke-linecap:round; stroke-linejoin:round;">
</g>
<g style="fill:#FFFFFF; fill-opacity:1.0; 
stroke:#FFFFFF; stroke-width:1.000000; stroke-opacity:1; 
stroke-linecap:round; stroke-linejoin:round;">
<circle cx="140670000.000000" cy="87140000.000000" r="1600000.000000" /> 
</g>
<g style="fill:#FFFFFF; fill-opacity:1.0; 
stroke:#FFFFFF; stroke-width:21200.000000; stroke-opacity:1; 
stroke-linecap:round; stroke-linejoin:round;">
</g>
<g style="fill:#FFFFFF; fill-opacity:1.0; 
stroke:#FFFFFF; stroke-width:1.000000; stroke-opacity:1; 
stroke-linecap:round; stroke-linejoin:round;">
<circle cx="59330000.000000" cy="99460000.000000" r="1600000.000000" /> 
</g>
<g style="fill:#FFFFFF; fill-opacity:1.0; 
stroke:#FFFFFF; stroke-width:21200.000000; stroke-opacity:1; 
stroke-linecap:round; stroke-linejoin:round;">
</g>
<g style="fill:#FFFFFF; fill-opacity:1.0; 
stroke:#FFFFFF; stroke-width:1.000000; stroke-opacity:1; 
stroke-linecap:round; stroke-linejoin:round;">
<circle cx="85000000.000000" cy="131600000.000000" r="1600000.000000" /> 
</g>
<g style="fill:#FFFFFF; fill-opacity:1.0; 
stroke:#FFFFFF; stroke-width:21200.000000; stroke-opacity:1; 
stroke-linecap:round; stroke-linejoin:round;">
</g>
<g style="fill:#FFFFFF; fill-opacity:1.0; 
stroke:#FFFFFF; stroke-width:1.000000; stroke-opacity:1; 
stroke-linecap:round; stroke-linejoin:round;">
<circle cx="115000000.000000" cy="131600000.000000" r="1600000.000000" /> 
</g>
<g style="fill:#FFFFFF; fill-opacity:1.0; 
stroke:#FFFFFF; stroke-width:21200.000000; stroke-opacity:1; 
stroke-linecap:round; stroke-linejoin:round;">
</g>
<g style="fill:#FFFFFF; fill-opacity:1.0; 
stroke:#FFFFFF; stroke-width:1.000000; stroke-opacity:1; 
stroke-linecap:round; stroke-linejoin:round;">
<circle cx="125670000.000000" cy="61160000.000000" r="1600000.000000" /> 
</g>
<g style="fill:#FFFFFF; fill-opacity:1.0; 
stroke:#FFFFFF; stroke-width:21200.000000; stroke-opacity:1; 
stroke-linecap:round; stroke-linejoin:round;">
</g>
<g style="fill:#FFFFFF; fill-opacity:1.0; 
stroke:#FFFFFF; stroke-width:1.000000; stroke-opacity:1; 
stroke-linecap:round; stroke-linejoin:round;">
<circle cx="140670000.000000" cy="99460000.000000" r="1600000.000000" /> 
</g>
<g style="fill:#FFFFFF; fill-opacity:1.0; 
stroke:#FFFFFF; stroke-width:21200.000000; stroke-opacity:1; 
stroke-linecap:round; stroke-linejoin:round;">
</g>
<g style="fill:#FFFFFF; fill-opacity:1.0; 
stroke:#FFFFFF; stroke-width:1.000000; stroke-opacity:1; 
stroke-linecap:round; stroke-linejoin:round;">
<circle cx="59330000.000000" cy="87140000.000000" r="1600000.000000" /> 
</g>
<g style="fill:#FFFFFF; fill-opacity:1.0; 
stroke:#FFFFFF; stroke-width:21200.000000; stroke-opacity:1; 
stroke-linecap:round; stroke-linejoin:round;">
</g>
<g style="fill:#FFFFFF; fill-opacity:1.0; 
stroke:#FFFFFF; stroke-width:1.000000; stroke-opacity:1; 
stroke-linecap:round; stroke-linejoin:round;">
<circle cx="102890000.000000" cy="130000000.000000" r="324999.500000" /> 
</g>
<g style="fill:#FFFFFF; fill-opacity:1.0; 
stroke:#FFFFFF; stroke-width:21200.000000; stroke-opacity:1; 
stroke-linecap:round; stroke-linejoin:round;">
</g>
<g style="fill:#FFFFFF; fill-opacity:1.0; 
stroke:#FFFFFF; stroke-width:1.000000; stroke-opacity:1; 
stroke-linecap:round; stroke-linejoin:round;">
<circle cx="97110000.000000" cy="130000000.000000" r="324999.500000" /> 
</g>
<g style="fill:#FFFFFF; fill-opacity:1.0; 
stroke:#FFFFFF; stroke-width:21200.000000; stroke-opacity:1; 
stroke-linecap:round; stroke-linejoin:round;">
</g>
<g style="fill:#FFFFFF; fill-opacity:1.0; 
stroke:#FFFFFF; stroke-width:600000.000000; stroke-opacity:1; 
stroke-linecap:round; stroke-linejoin:round;">
</g>
<g style="fill:#FFFFFF; fill-opacity:0.0; 
stroke:#FFFFFF; stroke-width:600000.000000; stroke-opacity:1; 
stroke-linecap:round; stroke-linejoin:round;">
<path d="M95680000 133350000
L95680000 133950000
" />
<path d="M95680000 128920000
L95680000 130020000
" />
<path d="M104320000 133350000
L104320000 133950000
" />
<path d="M104320000 128920000
L104320000 130020000
" />
</g>
<g style="fill:#FFFFFF; fill-opacity:1.0; 
stroke:#FFFFFF; stroke-width:1.000000; stroke-opacity:1; 
stroke-linecap:round; stroke-linejoin:round;">
<circle cx="74330000.000000" cy="61160000.000000" r="1600000.000000" /> 
</g>
<g style="fill:#FFFFFF; fill-opacity:1.0; 
stroke:#FFFFFF; stroke-width:21200.000000; stroke-opacity:1; 
stroke-linecap:round; stroke-linejoin:round;">
</g>
<g style="fill:#FFFFFF; fill-opacity:1.0; 
stroke:#FFFFFF; stroke-width:1.000000; stroke-opacity:1; 
stroke-linecap:round; stroke-linejoin:round;">
<circle cx="125670000.000000" cy="125440000.000000" r="1600000.000000" /> 
</g>
<g style="fill:#FFFFFF; fill-opacity:1.0; 
stroke:#FFFFFF; stroke-width:21200.000000; stroke-opacity:1; 
stroke-linecap:round; stroke-linejoin:round;">
</g>
<g style="fill:#000000; fill-opacity:1.0; 
stroke:#000000; stroke-width:21200.000000; stroke-opacity:1; 
stroke-linecap:round; stroke-linejoin:round;">
</g> 
</svg>
