<?xml version="1.0" standalone="no"?>
 <!DOCTYPE svg PUBLIC "-//W3C//DTD SVG 1.1//EN" 
 "http://www.w3.org/Graphics/SVG/1.1/DTD/svg11.dtd"> 
<svg
  xmlns:svg="http://www.w3.org/2000/svg"
  xmlns="http://www.w3.org/2000/svg"
  xmlns:xlink="http://www.w3.org/1999/xlink"
  version="1.1"
  width="29.700220cm" height="21.000720cm" viewBox="0 0 297002200 210007200">
<title>SVG Picture created as suqtagon-base-F_Paste.svg date 2024/04/21 19:27:06 </title>
  <desc>Picture generated by PCBNEW </desc>
<g style="fill:#000000; fill-opacity:1.000000;stroke:#000000; stroke-opacity:1.000000;
stroke-linecap:round; stroke-linejoin:round;"
 transform="translate(0 0) scale(1 1)">
</g>
<g style="fill:#000000; fill-opacity:0.0; 
stroke:#000000; stroke-width:0.000000; stroke-opacity:1; 
stroke-linecap:round; stroke-linejoin:round;">
</g>
<g style="fill:#000000; fill-opacity:0.0; 
stroke:#000000; stroke-width:100000.000000; stroke-opacity:1; 
stroke-linecap:round; stroke-linejoin:round;">
<path d="M75000000 50000000
L125000000 50000000
" />
<path d="M125000000 136600000
L150000000 93300000
" />
<path d="M75000000 136600000
L125000000 136600000
" />
<path d="M50000000 93300000
L75000000 136600000
" />
<path d="M150000000 93300000
L125000000 50000000
" />
<path d="M75000000 50000000
L50000000 93300000
" />
</g>
<g style="fill:#000000; fill-opacity:0.0; 
stroke:#000000; stroke-width:120000.000000; stroke-opacity:1; 
stroke-linecap:round; stroke-linejoin:round;">
<path d="M121450000 91500000
L118550000 91500000
" />
<path d="M118300000 88750000
L118300000 91250000
" />
<path d="M118550000 88500000
L121450000 88500000
" />
<path d="M121700000 91250000
L121700000 88750000
" />
<path d="M121700000.000000 88750000.000000 A250000.000000 250000.000000 0.0 0 0 121450000.000000 88500000.000000" />
<path d="M121450000.000000 91500000.000000 A250000.000000 250000.000000 0.0 0 0 121700000.000000 91250000.000000" />
<path d="M118300000.000002 91250000.000000 A249999.000000 249999.000000 0.0 0 0 118550000.000000 91499999.999998" />
<path d="M118550000.000000 88500000.000002 A249999.000000 249999.000000 0.0 0 0 118300000.000002 88750000.000000" />
<g >
</g>
<g style="fill:#000000; fill-opacity:0.0; 
stroke:#000000; stroke-width:1.000000; stroke-opacity:1; 
stroke-linecap:round; stroke-linejoin:round;">
</g>
<g style="fill:#000000; fill-opacity:1.0; 
stroke:#000000; stroke-width:1.000000; stroke-opacity:1; 
stroke-linecap:round; stroke-linejoin:round;">
<path style="fill:#000000; fill-opacity:1.0; 
stroke:#000000; stroke-width:1.000000; stroke-opacity:1; 
stroke-linecap:round; stroke-linejoin:round;fill-rule:evenodd;"
d="M 100496937.000000,113752106.000000
100481098.000000,113752106.000000
100468284.000000,113742796.000000
100453221.000000,113737902.000000
100443911.000000,113725089.000000
100431098.000000,113715779.000000
100426204.000000,113700716.000000
100416894.000000,113687902.000000
100416894.000000,113672063.000000
100412000.000000,113657000.000000
100412000.000000,113357000.000000
100162000.000000,113357000.000000
100146937.000000,113352106.000000
100131098.000000,113352106.000000
100118284.000000,113342796.000000
100103221.000000,113337902.000000
100093911.000000,113325089.000000
100081098.000000,113315779.000000
100076204.000000,113300716.000000
100066894.000000,113287902.000000
100066894.000000,113272063.000000
100062000.000000,113257000.000000
100062000.000000,112907000.000000
100066894.000000,112891937.000000
100066894.000000,112876098.000000
100076204.000000,112863284.000000
100081098.000000,112848221.000000
100093911.000000,112838911.000000
100103221.000000,112826098.000000
100118284.000000,112821204.000000
100131098.000000,112811894.000000
100146937.000000,112811894.000000
100162000.000000,112807000.000000
100412000.000000,112807000.000000
100412000.000000,112657000.000000
100416894.000000,112641937.000000
100416894.000000,112626098.000000
100426204.000000,112613284.000000
100431098.000000,112598221.000000
100443911.000000,112588911.000000
100453221.000000,112576098.000000
100468284.000000,112571204.000000
100481098.000000,112561894.000000
100496937.000000,112561894.000000
100512000.000000,112557000.000000
100962000.000000,112557000.000000
100977063.000000,112561894.000000
100992902.000000,112561894.000000
101005716.000000,112571204.000000
101020779.000000,112576098.000000
101030089.000000,112588911.000000
101042902.000000,112598221.000000
101047796.000000,112613284.000000
101057106.000000,112626098.000000
101057106.000000,112641937.000000
101062000.000000,112657000.000000
101062000.000000,113657000.000000
101057106.000000,113672063.000000
101057106.000000,113687902.000000
101047796.000000,113700716.000000
101042902.000000,113715779.000000
101030089.000000,113725089.000000
101020779.000000,113737902.000000
101005716.000000,113742796.000000
100992902.000000,113752106.000000
100977063.000000,113752106.000000
100962000.000000,113757000.000000
100512000.000000,113757000.000000
Z" /> 
<path style="fill:#000000; fill-opacity:1.0; 
stroke:#000000; stroke-width:1.000000; stroke-opacity:1; 
stroke-linecap:round; stroke-linejoin:round;fill-rule:evenodd;"
d="M 102262000.000000,112557000.000000
102262000.000000,113757000.000000
101562000.000000,113757000.000000
101562000.000000,112557000.000000
Z" /> 
<path style="fill:#000000; fill-opacity:1.0; 
stroke:#000000; stroke-width:1.000000; stroke-opacity:1; 
stroke-linecap:round; stroke-linejoin:round;fill-rule:evenodd;"
d="M 103162000.000000,112557000.000000
103162000.000000,113757000.000000
102712000.000000,113757000.000000
102712000.000000,112557000.000000
Z" /> 
<path style="fill:#000000; fill-opacity:1.0; 
stroke:#000000; stroke-width:1.000000; stroke-opacity:1; 
stroke-linecap:round; stroke-linejoin:round;fill-rule:evenodd;"
d="M 103746937.000000,113752106.000000
103731098.000000,113752106.000000
103718284.000000,113742796.000000
103703221.000000,113737902.000000
103693911.000000,113725089.000000
103681098.000000,113715779.000000
103676204.000000,113700716.000000
103666894.000000,113687902.000000
103666894.000000,113672063.000000
103662000.000000,113657000.000000
103662000.000000,112657000.000000
103666894.000000,112641937.000000
103666894.000000,112626098.000000
103676204.000000,112613284.000000
103681098.000000,112598221.000000
103693911.000000,112588911.000000
103703221.000000,112576098.000000
103718284.000000,112571204.000000
103731098.000000,112561894.000000
103746937.000000,112561894.000000
103762000.000000,112557000.000000
104212000.000000,112557000.000000
104227063.000000,112561894.000000
104242902.000000,112561894.000000
104255716.000000,112571204.000000
104270779.000000,112576098.000000
104280089.000000,112588911.000000
104292902.000000,112598221.000000
104297796.000000,112613284.000000
104307106.000000,112626098.000000
104307106.000000,112641937.000000
104312000.000000,112657000.000000
104312000.000000,112807000.000000
104562000.000000,112807000.000000
104577063.000000,112811894.000000
104592902.000000,112811894.000000
104605716.000000,112821204.000000
104620779.000000,112826098.000000
104630089.000000,112838911.000000
104642902.000000,112848221.000000
104647796.000000,112863284.000000
104657106.000000,112876098.000000
104657106.000000,112891937.000000
104662000.000000,112907000.000000
104662000.000000,113257000.000000
104657106.000000,113272063.000000
104657106.000000,113287902.000000
104647796.000000,113300716.000000
104642902.000000,113315779.000000
104630089.000000,113325089.000000
104620779.000000,113337902.000000
104605716.000000,113342796.000000
104592902.000000,113352106.000000
104577063.000000,113352106.000000
104562000.000000,113357000.000000
104312000.000000,113357000.000000
104312000.000000,113657000.000000
104307106.000000,113672063.000000
104307106.000000,113687902.000000
104297796.000000,113700716.000000
104292902.000000,113715779.000000
104280089.000000,113725089.000000
104270779.000000,113737902.000000
104255716.000000,113742796.000000
104242902.000000,113752106.000000
104227063.000000,113752106.000000
104212000.000000,113757000.000000
103762000.000000,113757000.000000
Z" /> 
</g>
<g >
</g>
<g style="fill:#000000; fill-opacity:1.0; 
stroke:#000000; stroke-width:1.000000; stroke-opacity:1; 
stroke-linecap:round; stroke-linejoin:round;">
<path style="fill:#000000; fill-opacity:1.0; 
stroke:#000000; stroke-width:1.000000; stroke-opacity:1; 
stroke-linecap:round; stroke-linejoin:round;fill-rule:evenodd;"
d="M 80303937.000000,98466106.000000
80288098.000000,98466106.000000
80275284.000000,98456796.000000
80260221.000000,98451902.000000
80250911.000000,98439089.000000
80238098.000000,98429779.000000
80233204.000000,98414716.000000
80223894.000000,98401902.000000
80223894.000000,98386063.000000
80219000.000000,98371000.000000
80219000.000000,98071000.000000
79969000.000000,98071000.000000
79953937.000000,98066106.000000
79938098.000000,98066106.000000
79925284.000000,98056796.000000
79910221.000000,98051902.000000
79900911.000000,98039089.000000
79888098.000000,98029779.000000
79883204.000000,98014716.000000
79873894.000000,98001902.000000
79873894.000000,97986063.000000
79869000.000000,97971000.000000
79869000.000000,97621000.000000
79873894.000000,97605937.000000
79873894.000000,97590098.000000
79883204.000000,97577284.000000
79888098.000000,97562221.000000
79900911.000000,97552911.000000
79910221.000000,97540098.000000
79925284.000000,97535204.000000
79938098.000000,97525894.000000
79953937.000000,97525894.000000
79969000.000000,97521000.000000
80219000.000000,97521000.000000
80219000.000000,97371000.000000
80223894.000000,97355937.000000
80223894.000000,97340098.000000
80233204.000000,97327284.000000
80238098.000000,97312221.000000
80250911.000000,97302911.000000
80260221.000000,97290098.000000
80275284.000000,97285204.000000
80288098.000000,97275894.000000
80303937.000000,97275894.000000
80319000.000000,97271000.000000
80769000.000000,97271000.000000
80784063.000000,97275894.000000
80799902.000000,97275894.000000
80812716.000000,97285204.000000
80827779.000000,97290098.000000
80837089.000000,97302911.000000
80849902.000000,97312221.000000
80854796.000000,97327284.000000
80864106.000000,97340098.000000
80864106.000000,97355937.000000
80869000.000000,97371000.000000
80869000.000000,98371000.000000
80864106.000000,98386063.000000
80864106.000000,98401902.000000
80854796.000000,98414716.000000
80849902.000000,98429779.000000
80837089.000000,98439089.000000
80827779.000000,98451902.000000
80812716.000000,98456796.000000
80799902.000000,98466106.000000
80784063.000000,98466106.000000
80769000.000000,98471000.000000
80319000.000000,98471000.000000
Z" /> 
<path style="fill:#000000; fill-opacity:1.0; 
stroke:#000000; stroke-width:1.000000; stroke-opacity:1; 
stroke-linecap:round; stroke-linejoin:round;fill-rule:evenodd;"
d="M 82069000.000000,97271000.000000
82069000.000000,98471000.000000
81369000.000000,98471000.000000
81369000.000000,97271000.000000
Z" /> 
<path style="fill:#000000; fill-opacity:1.0; 
stroke:#000000; stroke-width:1.000000; stroke-opacity:1; 
stroke-linecap:round; stroke-linejoin:round;fill-rule:evenodd;"
d="M 82969000.000000,97271000.000000
82969000.000000,98471000.000000
82519000.000000,98471000.000000
82519000.000000,97271000.000000
Z" /> 
<path style="fill:#000000; fill-opacity:1.0; 
stroke:#000000; stroke-width:1.000000; stroke-opacity:1; 
stroke-linecap:round; stroke-linejoin:round;fill-rule:evenodd;"
d="M 83553937.000000,98466106.000000
83538098.000000,98466106.000000
83525284.000000,98456796.000000
83510221.000000,98451902.000000
83500911.000000,98439089.000000
83488098.000000,98429779.000000
83483204.000000,98414716.000000
83473894.000000,98401902.000000
83473894.000000,98386063.000000
83469000.000000,98371000.000000
83469000.000000,97371000.000000
83473894.000000,97355937.000000
83473894.000000,97340098.000000
83483204.000000,97327284.000000
83488098.000000,97312221.000000
83500911.000000,97302911.000000
83510221.000000,97290098.000000
83525284.000000,97285204.000000
83538098.000000,97275894.000000
83553937.000000,97275894.000000
83569000.000000,97271000.000000
84019000.000000,97271000.000000
84034063.000000,97275894.000000
84049902.000000,97275894.000000
84062716.000000,97285204.000000
84077779.000000,97290098.000000
84087089.000000,97302911.000000
84099902.000000,97312221.000000
84104796.000000,97327284.000000
84114106.000000,97340098.000000
84114106.000000,97355937.000000
84119000.000000,97371000.000000
84119000.000000,97521000.000000
84369000.000000,97521000.000000
84384063.000000,97525894.000000
84399902.000000,97525894.000000
84412716.000000,97535204.000000
84427779.000000,97540098.000000
84437089.000000,97552911.000000
84449902.000000,97562221.000000
84454796.000000,97577284.000000
84464106.000000,97590098.000000
84464106.000000,97605937.000000
84469000.000000,97621000.000000
84469000.000000,97971000.000000
84464106.000000,97986063.000000
84464106.000000,98001902.000000
84454796.000000,98014716.000000
84449902.000000,98029779.000000
84437089.000000,98039089.000000
84427779.000000,98051902.000000
84412716.000000,98056796.000000
84399902.000000,98066106.000000
84384063.000000,98066106.000000
84369000.000000,98071000.000000
84119000.000000,98071000.000000
84119000.000000,98371000.000000
84114106.000000,98386063.000000
84114106.000000,98401902.000000
84104796.000000,98414716.000000
84099902.000000,98429779.000000
84087089.000000,98439089.000000
84077779.000000,98451902.000000
84062716.000000,98456796.000000
84049902.000000,98466106.000000
84034063.000000,98466106.000000
84019000.000000,98471000.000000
83569000.000000,98471000.000000
Z" /> 
</g>
<g >
</g>
<g style="fill:#000000; fill-opacity:1.0; 
stroke:#000000; stroke-width:1.000000; stroke-opacity:1; 
stroke-linecap:round; stroke-linejoin:round;">
<path style="fill:#000000; fill-opacity:1.0; 
stroke:#000000; stroke-width:1.000000; stroke-opacity:1; 
stroke-linecap:round; stroke-linejoin:round;fill-rule:evenodd;"
d="M 121900000.000000,89600000.000000
121900000.000000,88800000.000000
123700000.000000,88800000.000000
123700000.000000,89600000.000000
Z" /> 
<path style="fill:#000000; fill-opacity:1.0; 
stroke:#000000; stroke-width:1.000000; stroke-opacity:1; 
stroke-linecap:round; stroke-linejoin:round;fill-rule:evenodd;"
d="M 121900000.000000,91200000.000000
121900000.000000,90400000.000000
123700000.000000,90400000.000000
123700000.000000,91200000.000000
Z" /> 
<path style="fill:#000000; fill-opacity:1.0; 
stroke:#000000; stroke-width:1.000000; stroke-opacity:1; 
stroke-linecap:round; stroke-linejoin:round;fill-rule:evenodd;"
d="M 116300000.000000,89600000.000000
116300000.000000,88800000.000000
118100000.000000,88800000.000000
118100000.000000,89600000.000000
Z" /> 
<path style="fill:#000000; fill-opacity:1.0; 
stroke:#000000; stroke-width:1.000000; stroke-opacity:1; 
stroke-linecap:round; stroke-linejoin:round;fill-rule:evenodd;"
d="M 116300000.000000,91200000.000000
116300000.000000,90400000.000000
118100000.000000,90400000.000000
118100000.000000,91200000.000000
Z" /> 
</g>
<g >
</g>
<g style="fill:#000000; fill-opacity:1.0; 
stroke:#000000; stroke-width:1.000000; stroke-opacity:1; 
stroke-linecap:round; stroke-linejoin:round;">
<path style="fill:#000000; fill-opacity:1.0; 
stroke:#000000; stroke-width:1.000000; stroke-opacity:1; 
stroke-linecap:round; stroke-linejoin:round;fill-rule:evenodd;"
d="M 71110621.000000,113962788.000000
71202990.000000,113931433.000000
71300327.000000,113937814.000000
71387813.000000,113980957.000000
71452129.000000,114054297.000000
71952128.000000,114920319.000000
71983483.000000,115012687.000000
71977103.000000,115110024.000000
71933960.000000,115197511.000000
71860620.000000,115261826.000000
69262547.000000,116761826.000000
69170178.000000,116793181.000000
69072841.000000,116786800.000000
68985355.000000,116743657.000000
68921039.000000,116670317.000000
68421040.000000,115804295.000000
68389685.000000,115711927.000000
68396065.000000,115614590.000000
68439208.000000,115527103.000000
68512548.000000,115462788.000000
Z" /> 
<path style="fill:#000000; fill-opacity:1.0; 
stroke:#000000; stroke-width:1.000000; stroke-opacity:1; 
stroke-linecap:round; stroke-linejoin:round;fill-rule:evenodd;"
d="M 66910621.000000,106688174.000000
67002990.000000,106656819.000000
67100327.000000,106663200.000000
67187813.000000,106706343.000000
67252129.000000,106779683.000000
67752128.000000,107645705.000000
67783483.000000,107738073.000000
67777103.000000,107835410.000000
67733960.000000,107922897.000000
67660620.000000,107987212.000000
65062547.000000,109487212.000000
64970178.000000,109518567.000000
64872841.000000,109512186.000000
64785355.000000,109469043.000000
64721039.000000,109395703.000000
64221040.000000,108529681.000000
64189685.000000,108437313.000000
64196065.000000,108339976.000000
64239208.000000,108252489.000000
64312548.000000,108188174.000000
Z" /> 
<path style="fill:#000000; fill-opacity:1.0; 
stroke:#000000; stroke-width:1.000000; stroke-opacity:1; 
stroke-linecap:round; stroke-linejoin:round;fill-rule:evenodd;"
d="M 74779258.000000,105667051.000000
74857642.000000,105634584.000000
74970084.000000,105624747.000000
75079109.000000,105653960.000000
75171568.000000,105718700.000000
75223216.000000,105786010.000000
75548216.000000,106348926.000000
75580684.000000,106427310.000000
75590521.000000,106539752.000000
75561308.000000,106648777.000000
75496568.000000,106741236.000000
75429258.000000,106792885.000000
72961086.000000,108217885.000000
72882702.000000,108250352.000000
72770260.000000,108260189.000000
72661235.000000,108230976.000000
72568776.000000,108166236.000000
72517128.000000,108098926.000000
72192128.000000,107536010.000000
72159660.000000,107457626.000000
72149823.000000,107345184.000000
72179036.000000,107236159.000000
72243776.000000,107143700.000000
72311086.000000,107092051.000000
Z" /> 
<path style="fill:#000000; fill-opacity:1.0; 
stroke:#000000; stroke-width:1.000000; stroke-opacity:1; 
stroke-linecap:round; stroke-linejoin:round;fill-rule:evenodd;"
d="M 76029258.000000,107832115.000000
76107642.000000,107799648.000000
76220084.000000,107789811.000000
76329109.000000,107819024.000000
76421568.000000,107883764.000000
76473216.000000,107951074.000000
76798216.000000,108513990.000000
76830684.000000,108592374.000000
76840521.000000,108704816.000000
76811308.000000,108813841.000000
76746568.000000,108906300.000000
76679258.000000,108957949.000000
74211086.000000,110382949.000000
74132702.000000,110415416.000000
74020260.000000,110425253.000000
73911235.000000,110396040.000000
73818776.000000,110331300.000000
73767128.000000,110263990.000000
73442128.000000,109701074.000000
73409660.000000,109622690.000000
73399823.000000,109510248.000000
73429036.000000,109401223.000000
73493776.000000,109308764.000000
73561086.000000,109257115.000000
Z" /> 
</g>
<g >
</g>
<g >
</g>
<g style="fill:#000000; fill-opacity:1.0; 
stroke:#000000; stroke-width:1.000000; stroke-opacity:1; 
stroke-linecap:round; stroke-linejoin:round;">
<path style="fill:#000000; fill-opacity:1.0; 
stroke:#000000; stroke-width:1.000000; stroke-opacity:1; 
stroke-linecap:round; stroke-linejoin:round;fill-rule:evenodd;"
d="M 109450000.000000,135400000.000000
107150000.000000,135400000.000000
107150000.000000,132900000.000000
109450000.000000,132900000.000000
Z" /> 
<path style="fill:#000000; fill-opacity:1.0; 
stroke:#000000; stroke-width:1.000000; stroke-opacity:1; 
stroke-linecap:round; stroke-linejoin:round;fill-rule:evenodd;"
d="M 109450000.000000,131100000.000000
107150000.000000,131100000.000000
107150000.000000,128600000.000000
109450000.000000,128600000.000000
Z" /> 
</g>
<g >
</g>
<g style="fill:#000000; fill-opacity:1.0; 
stroke:#000000; stroke-width:1.000000; stroke-opacity:1; 
stroke-linecap:round; stroke-linejoin:round;">
<path style="fill:#000000; fill-opacity:1.0; 
stroke:#000000; stroke-width:1.000000; stroke-opacity:1; 
stroke-linecap:round; stroke-linejoin:round;fill-rule:evenodd;"
d="M 96550000.000000,57949999.000000
96530970.000000,58045670.000000
96476776.000000,58126776.000000
96395670.000000,58180970.000000
96299998.000000,58199999.000000
95300001.000000,58200000.000000
95204330.000000,58180970.000000
95123224.000000,58126776.000000
95069030.000000,58045670.000000
95050001.000000,57949998.000000
95050000.000000,54950001.000000
95069030.000000,54854330.000000
95123224.000000,54773224.000000
95204330.000000,54719030.000000
95300002.000000,54700001.000000
96299999.000000,54700000.000000
96395670.000000,54719030.000000
96476776.000000,54773224.000000
96530970.000000,54854330.000000
96549999.000000,54950002.000000
Z" /> 
<path style="fill:#000000; fill-opacity:1.0; 
stroke:#000000; stroke-width:1.000000; stroke-opacity:1; 
stroke-linecap:round; stroke-linejoin:round;fill-rule:evenodd;"
d="M 104950000.000000,57949999.000000
104930970.000000,58045670.000000
104876776.000000,58126776.000000
104795670.000000,58180970.000000
104699998.000000,58199999.000000
103700001.000000,58200000.000000
103604330.000000,58180970.000000
103523224.000000,58126776.000000
103469030.000000,58045670.000000
103450001.000000,57949998.000000
103450000.000000,54950001.000000
103469030.000000,54854330.000000
103523224.000000,54773224.000000
103604330.000000,54719030.000000
103700002.000000,54700001.000000
104699999.000000,54700000.000000
104795670.000000,54719030.000000
104876776.000000,54773224.000000
104930970.000000,54854330.000000
104949999.000000,54950002.000000
Z" /> 
<path style="fill:#000000; fill-opacity:1.0; 
stroke:#000000; stroke-width:1.000000; stroke-opacity:1; 
stroke-linecap:round; stroke-linejoin:round;fill-rule:evenodd;"
d="M 101900000.000000,65275000.000000
101888926.000000,65359116.000000
101841224.000000,65461412.000000
101761412.000000,65541224.000000
101659116.000000,65588926.000000
101575000.000000,65600000.000000
100925000.000000,65600000.000000
100840884.000000,65588926.000000
100738588.000000,65541224.000000
100658776.000000,65461412.000000
100611074.000000,65359116.000000
100600000.000000,65275000.000000
100600000.000000,62425000.000000
100611074.000000,62340884.000000
100658776.000000,62238588.000000
100738588.000000,62158776.000000
100840884.000000,62111074.000000
100925000.000000,62100000.000000
101575000.000000,62100000.000000
101659116.000000,62111074.000000
101761412.000000,62158776.000000
101841224.000000,62238588.000000
101888926.000000,62340884.000000
101900000.000000,62425000.000000
Z" /> 
<path style="fill:#000000; fill-opacity:1.0; 
stroke:#000000; stroke-width:1.000000; stroke-opacity:1; 
stroke-linecap:round; stroke-linejoin:round;fill-rule:evenodd;"
d="M 99400000.000000,65275000.000000
99388926.000000,65359116.000000
99341224.000000,65461412.000000
99261412.000000,65541224.000000
99159116.000000,65588926.000000
99075000.000000,65600000.000000
98425000.000000,65600000.000000
98340884.000000,65588926.000000
98238588.000000,65541224.000000
98158776.000000,65461412.000000
98111074.000000,65359116.000000
98100000.000000,65275000.000000
98100000.000000,62425000.000000
98111074.000000,62340884.000000
98158776.000000,62238588.000000
98238588.000000,62158776.000000
98340884.000000,62111074.000000
98425000.000000,62100000.000000
99075000.000000,62100000.000000
99159116.000000,62111074.000000
99261412.000000,62158776.000000
99341224.000000,62238588.000000
99388926.000000,62340884.000000
99400000.000000,62425000.000000
Z" /> 
</g>
<g >
</g>
<g >
</g>
<g >
</g>
<g >
</g>
<g >
</g>
<g style="fill:#000000; fill-opacity:1.0; 
stroke:#000000; stroke-width:1.000000; stroke-opacity:1; 
stroke-linecap:round; stroke-linejoin:round;">
<path style="fill:#000000; fill-opacity:1.0; 
stroke:#000000; stroke-width:1.000000; stroke-opacity:1; 
stroke-linecap:round; stroke-linejoin:round;fill-rule:evenodd;"
d="M 87925000.000000,86625000.000000
87829329.000000,86605970.000000
87748223.000000,86551777.000000
87694030.000000,86470671.000000
87675000.000000,86375000.000000
87675000.000000,85700000.000000
87694030.000000,85604329.000000
87748223.000000,85523223.000000
87829329.000000,85469030.000000
87925000.000000,85450000.000000
88875000.000000,85450000.000000
88970671.000000,85469030.000000
89051777.000000,85523223.000000
89105970.000000,85604329.000000
89125000.000000,85700000.000000
89125000.000000,86375000.000000
89105970.000000,86470671.000000
89051777.000000,86551777.000000
88970671.000000,86605970.000000
88875000.000000,86625000.000000
Z" /> 
<path style="fill:#000000; fill-opacity:1.0; 
stroke:#000000; stroke-width:1.000000; stroke-opacity:1; 
stroke-linecap:round; stroke-linejoin:round;fill-rule:evenodd;"
d="M 87925000.000000,84550000.000000
87829329.000000,84530970.000000
87748223.000000,84476777.000000
87694030.000000,84395671.000000
87675000.000000,84300000.000000
87675000.000000,83625000.000000
87694030.000000,83529329.000000
87748223.000000,83448223.000000
87829329.000000,83394030.000000
87925000.000000,83375000.000000
88875000.000000,83375000.000000
88970671.000000,83394030.000000
89051777.000000,83448223.000000
89105970.000000,83529329.000000
89125000.000000,83625000.000000
89125000.000000,84300000.000000
89105970.000000,84395671.000000
89051777.000000,84476777.000000
88970671.000000,84530970.000000
88875000.000000,84550000.000000
Z" /> 
</g>
<g >
</g>
<g >
</g>
<g style="fill:#000000; fill-opacity:1.0; 
stroke:#000000; stroke-width:1.000000; stroke-opacity:1; 
stroke-linecap:round; stroke-linejoin:round;">
<path style="fill:#000000; fill-opacity:1.0; 
stroke:#000000; stroke-width:1.000000; stroke-opacity:1; 
stroke-linecap:round; stroke-linejoin:round;fill-rule:evenodd;"
d="M 96070000.000000,126212400.000000
95974329.000000,126193370.000000
95893223.000000,126139177.000000
95839030.000000,126058071.000000
95820000.000000,125962400.000000
95820000.000000,125262400.000000
95839030.000000,125166729.000000
95893223.000000,125085623.000000
95974329.000000,125031430.000000
96070000.000000,125012400.000000
96970000.000000,125012400.000000
97065671.000000,125031430.000000
97146777.000000,125085623.000000
97200970.000000,125166729.000000
97220000.000000,125262400.000000
97220000.000000,125962400.000000
97200970.000000,126058071.000000
97146777.000000,126139177.000000
97065671.000000,126193370.000000
96970000.000000,126212400.000000
Z" /> 
<path style="fill:#000000; fill-opacity:1.0; 
stroke:#000000; stroke-width:1.000000; stroke-opacity:1; 
stroke-linecap:round; stroke-linejoin:round;fill-rule:evenodd;"
d="M 96070000.000000,124212400.000000
95974329.000000,124193370.000000
95893223.000000,124139177.000000
95839030.000000,124058071.000000
95820000.000000,123962400.000000
95820000.000000,123262400.000000
95839030.000000,123166729.000000
95893223.000000,123085623.000000
95974329.000000,123031430.000000
96070000.000000,123012400.000000
96970000.000000,123012400.000000
97065671.000000,123031430.000000
97146777.000000,123085623.000000
97200970.000000,123166729.000000
97220000.000000,123262400.000000
97220000.000000,123962400.000000
97200970.000000,124058071.000000
97146777.000000,124139177.000000
97065671.000000,124193370.000000
96970000.000000,124212400.000000
Z" /> 
</g>
<g >
</g>
<g >
</g>
<g style="fill:#000000; fill-opacity:1.0; 
stroke:#000000; stroke-width:1.000000; stroke-opacity:1; 
stroke-linecap:round; stroke-linejoin:round;">
<path style="fill:#000000; fill-opacity:1.0; 
stroke:#000000; stroke-width:1.000000; stroke-opacity:1; 
stroke-linecap:round; stroke-linejoin:round;fill-rule:evenodd;"
d="M 100489600.000000,126212400.000000
100393929.000000,126193370.000000
100312823.000000,126139177.000000
100258630.000000,126058071.000000
100239600.000000,125962400.000000
100239600.000000,125262400.000000
100258630.000000,125166729.000000
100312823.000000,125085623.000000
100393929.000000,125031430.000000
100489600.000000,125012400.000000
101389600.000000,125012400.000000
101485271.000000,125031430.000000
101566377.000000,125085623.000000
101620570.000000,125166729.000000
101639600.000000,125262400.000000
101639600.000000,125962400.000000
101620570.000000,126058071.000000
101566377.000000,126139177.000000
101485271.000000,126193370.000000
101389600.000000,126212400.000000
Z" /> 
<path style="fill:#000000; fill-opacity:1.0; 
stroke:#000000; stroke-width:1.000000; stroke-opacity:1; 
stroke-linecap:round; stroke-linejoin:round;fill-rule:evenodd;"
d="M 100489600.000000,124212400.000000
100393929.000000,124193370.000000
100312823.000000,124139177.000000
100258630.000000,124058071.000000
100239600.000000,123962400.000000
100239600.000000,123262400.000000
100258630.000000,123166729.000000
100312823.000000,123085623.000000
100393929.000000,123031430.000000
100489600.000000,123012400.000000
101389600.000000,123012400.000000
101485271.000000,123031430.000000
101566377.000000,123085623.000000
101620570.000000,123166729.000000
101639600.000000,123262400.000000
101639600.000000,123962400.000000
101620570.000000,124058071.000000
101566377.000000,124139177.000000
101485271.000000,124193370.000000
101389600.000000,124212400.000000
Z" /> 
</g>
<g >
</g>
<g style="fill:#000000; fill-opacity:1.0; 
stroke:#000000; stroke-width:1.000000; stroke-opacity:1; 
stroke-linecap:round; stroke-linejoin:round;">
<path style="fill:#000000; fill-opacity:1.0; 
stroke:#000000; stroke-width:1.000000; stroke-opacity:1; 
stroke-linecap:round; stroke-linejoin:round;fill-rule:evenodd;"
d="M 128889379.000000,72637212.000000
128797010.000000,72668567.000000
128699673.000000,72662186.000000
128612187.000000,72619043.000000
128547871.000000,72545703.000000
128047872.000000,71679681.000000
128016517.000000,71587313.000000
128022897.000000,71489976.000000
128066040.000000,71402489.000000
128139380.000000,71338174.000000
130737453.000000,69838174.000000
130829822.000000,69806819.000000
130927159.000000,69813200.000000
131014645.000000,69856343.000000
131078961.000000,69929683.000000
131578960.000000,70795705.000000
131610315.000000,70888073.000000
131603935.000000,70985410.000000
131560792.000000,71072897.000000
131487452.000000,71137212.000000
Z" /> 
<path style="fill:#000000; fill-opacity:1.0; 
stroke:#000000; stroke-width:1.000000; stroke-opacity:1; 
stroke-linecap:round; stroke-linejoin:round;fill-rule:evenodd;"
d="M 133089379.000000,79911826.000000
132997010.000000,79943181.000000
132899673.000000,79936800.000000
132812187.000000,79893657.000000
132747871.000000,79820317.000000
132247872.000000,78954295.000000
132216517.000000,78861927.000000
132222897.000000,78764590.000000
132266040.000000,78677103.000000
132339380.000000,78612788.000000
134937453.000000,77112788.000000
135029822.000000,77081433.000000
135127159.000000,77087814.000000
135214645.000000,77130957.000000
135278961.000000,77204297.000000
135778960.000000,78070319.000000
135810315.000000,78162687.000000
135803935.000000,78260024.000000
135760792.000000,78347511.000000
135687452.000000,78411826.000000
Z" /> 
<path style="fill:#000000; fill-opacity:1.0; 
stroke:#000000; stroke-width:1.000000; stroke-opacity:1; 
stroke-linecap:round; stroke-linejoin:round;fill-rule:evenodd;"
d="M 125220742.000000,80932949.000000
125142358.000000,80965416.000000
125029916.000000,80975253.000000
124920891.000000,80946040.000000
124828432.000000,80881300.000000
124776784.000000,80813990.000000
124451784.000000,80251074.000000
124419316.000000,80172690.000000
124409479.000000,80060248.000000
124438692.000000,79951223.000000
124503432.000000,79858764.000000
124570742.000000,79807115.000000
127038914.000000,78382115.000000
127117298.000000,78349648.000000
127229740.000000,78339811.000000
127338765.000000,78369024.000000
127431224.000000,78433764.000000
127482872.000000,78501074.000000
127807872.000000,79063990.000000
127840340.000000,79142374.000000
127850177.000000,79254816.000000
127820964.000000,79363841.000000
127756224.000000,79456300.000000
127688914.000000,79507949.000000
Z" /> 
<path style="fill:#000000; fill-opacity:1.0; 
stroke:#000000; stroke-width:1.000000; stroke-opacity:1; 
stroke-linecap:round; stroke-linejoin:round;fill-rule:evenodd;"
d="M 123970742.000000,78767885.000000
123892358.000000,78800352.000000
123779916.000000,78810189.000000
123670891.000000,78780976.000000
123578432.000000,78716236.000000
123526784.000000,78648926.000000
123201784.000000,78086010.000000
123169316.000000,78007626.000000
123159479.000000,77895184.000000
123188692.000000,77786159.000000
123253432.000000,77693700.000000
123320742.000000,77642051.000000
125788914.000000,76217051.000000
125867298.000000,76184584.000000
125979740.000000,76174747.000000
126088765.000000,76203960.000000
126181224.000000,76268700.000000
126232872.000000,76336010.000000
126557872.000000,76898926.000000
126590340.000000,76977310.000000
126600177.000000,77089752.000000
126570964.000000,77198777.000000
126506224.000000,77291236.000000
126438914.000000,77342885.000000
Z" /> 
</g>
<g >
</g>
<g >
</g>
<g >
</g>
<g style="fill:#000000; fill-opacity:1.0; 
stroke:#000000; stroke-width:1.000000; stroke-opacity:1; 
stroke-linecap:round; stroke-linejoin:round;">
<path style="fill:#000000; fill-opacity:1.0; 
stroke:#000000; stroke-width:1.000000; stroke-opacity:1; 
stroke-linecap:round; stroke-linejoin:round;fill-rule:evenodd;"
d="M 122650000.000000,135400000.000000
120350000.000000,135400000.000000
120350000.000000,132900000.000000
122650000.000000,132900000.000000
Z" /> 
<path style="fill:#000000; fill-opacity:1.0; 
stroke:#000000; stroke-width:1.000000; stroke-opacity:1; 
stroke-linecap:round; stroke-linejoin:round;fill-rule:evenodd;"
d="M 122650000.000000,131100000.000000
120350000.000000,131100000.000000
120350000.000000,128600000.000000
122650000.000000,128600000.000000
Z" /> 
</g>
<g >
</g>
<g >
</g>
<g style="fill:#000000; fill-opacity:1.0; 
stroke:#000000; stroke-width:1.000000; stroke-opacity:1; 
stroke-linecap:round; stroke-linejoin:round;">
<path style="fill:#000000; fill-opacity:1.0; 
stroke:#000000; stroke-width:1.000000; stroke-opacity:1; 
stroke-linecap:round; stroke-linejoin:round;fill-rule:evenodd;"
d="M 98254400.000000,126212400.000000
98158729.000000,126193370.000000
98077623.000000,126139177.000000
98023430.000000,126058071.000000
98004400.000000,125962400.000000
98004400.000000,125262400.000000
98023430.000000,125166729.000000
98077623.000000,125085623.000000
98158729.000000,125031430.000000
98254400.000000,125012400.000000
99154400.000000,125012400.000000
99250071.000000,125031430.000000
99331177.000000,125085623.000000
99385370.000000,125166729.000000
99404400.000000,125262400.000000
99404400.000000,125962400.000000
99385370.000000,126058071.000000
99331177.000000,126139177.000000
99250071.000000,126193370.000000
99154400.000000,126212400.000000
Z" /> 
<path style="fill:#000000; fill-opacity:1.0; 
stroke:#000000; stroke-width:1.000000; stroke-opacity:1; 
stroke-linecap:round; stroke-linejoin:round;fill-rule:evenodd;"
d="M 98254400.000000,124212400.000000
98158729.000000,124193370.000000
98077623.000000,124139177.000000
98023430.000000,124058071.000000
98004400.000000,123962400.000000
98004400.000000,123262400.000000
98023430.000000,123166729.000000
98077623.000000,123085623.000000
98158729.000000,123031430.000000
98254400.000000,123012400.000000
99154400.000000,123012400.000000
99250071.000000,123031430.000000
99331177.000000,123085623.000000
99385370.000000,123166729.000000
99404400.000000,123262400.000000
99404400.000000,123962400.000000
99385370.000000,124058071.000000
99331177.000000,124139177.000000
99250071.000000,124193370.000000
99154400.000000,124212400.000000
Z" /> 
</g>
<g >
</g>
<g style="fill:#000000; fill-opacity:1.0; 
stroke:#000000; stroke-width:1.000000; stroke-opacity:1; 
stroke-linecap:round; stroke-linejoin:round;">
<path style="fill:#000000; fill-opacity:1.0; 
stroke:#000000; stroke-width:1.000000; stroke-opacity:1; 
stroke-linecap:round; stroke-linejoin:round;fill-rule:evenodd;"
d="M 80370000.000000,118625000.000000
80274329.000000,118605970.000000
80193223.000000,118551777.000000
80139030.000000,118470671.000000
80120000.000000,118375000.000000
80120000.000000,117700000.000000
80139030.000000,117604329.000000
80193223.000000,117523223.000000
80274329.000000,117469030.000000
80370000.000000,117450000.000000
81320000.000000,117450000.000000
81415671.000000,117469030.000000
81496777.000000,117523223.000000
81550970.000000,117604329.000000
81570000.000000,117700000.000000
81570000.000000,118375000.000000
81550970.000000,118470671.000000
81496777.000000,118551777.000000
81415671.000000,118605970.000000
81320000.000000,118625000.000000
Z" /> 
<path style="fill:#000000; fill-opacity:1.0; 
stroke:#000000; stroke-width:1.000000; stroke-opacity:1; 
stroke-linecap:round; stroke-linejoin:round;fill-rule:evenodd;"
d="M 80370000.000000,116550000.000000
80274329.000000,116530970.000000
80193223.000000,116476777.000000
80139030.000000,116395671.000000
80120000.000000,116300000.000000
80120000.000000,115625000.000000
80139030.000000,115529329.000000
80193223.000000,115448223.000000
80274329.000000,115394030.000000
80370000.000000,115375000.000000
81320000.000000,115375000.000000
81415671.000000,115394030.000000
81496777.000000,115448223.000000
81550970.000000,115529329.000000
81570000.000000,115625000.000000
81570000.000000,116300000.000000
81550970.000000,116395671.000000
81496777.000000,116476777.000000
81415671.000000,116530970.000000
81320000.000000,116550000.000000
Z" /> 
</g>
<g >
</g>
<g style="fill:#000000; fill-opacity:1.0; 
stroke:#000000; stroke-width:1.000000; stroke-opacity:1; 
stroke-linecap:round; stroke-linejoin:round;">
<path style="fill:#000000; fill-opacity:1.0; 
stroke:#000000; stroke-width:1.000000; stroke-opacity:1; 
stroke-linecap:round; stroke-linejoin:round;fill-rule:evenodd;"
d="M 96450000.000000,129280000.000000
96450000.000000,127830000.000000
97050000.000000,127830000.000000
97050000.000000,129280000.000000
Z" /> 
<path style="fill:#000000; fill-opacity:1.0; 
stroke:#000000; stroke-width:1.000000; stroke-opacity:1; 
stroke-linecap:round; stroke-linejoin:round;fill-rule:evenodd;"
d="M 97250000.000000,129280000.000000
97250000.000000,127830000.000000
97850000.000000,127830000.000000
97850000.000000,129280000.000000
Z" /> 
<path style="fill:#000000; fill-opacity:1.0; 
stroke:#000000; stroke-width:1.000000; stroke-opacity:1; 
stroke-linecap:round; stroke-linejoin:round;fill-rule:evenodd;"
d="M 98600000.000000,129280000.000000
98600000.000000,127830000.000000
98900000.000000,127830000.000000
98900000.000000,129280000.000000
Z" /> 
<path style="fill:#000000; fill-opacity:1.0; 
stroke:#000000; stroke-width:1.000000; stroke-opacity:1; 
stroke-linecap:round; stroke-linejoin:round;fill-rule:evenodd;"
d="M 99600000.000000,129280000.000000
99600000.000000,127830000.000000
99900000.000000,127830000.000000
99900000.000000,129280000.000000
Z" /> 
<path style="fill:#000000; fill-opacity:1.0; 
stroke:#000000; stroke-width:1.000000; stroke-opacity:1; 
stroke-linecap:round; stroke-linejoin:round;fill-rule:evenodd;"
d="M 100100000.000000,129280000.000000
100100000.000000,127830000.000000
100400000.000000,127830000.000000
100400000.000000,129280000.000000
Z" /> 
<path style="fill:#000000; fill-opacity:1.0; 
stroke:#000000; stroke-width:1.000000; stroke-opacity:1; 
stroke-linecap:round; stroke-linejoin:round;fill-rule:evenodd;"
d="M 101100000.000000,129280000.000000
101100000.000000,127830000.000000
101400000.000000,127830000.000000
101400000.000000,129280000.000000
Z" /> 
<path style="fill:#000000; fill-opacity:1.0; 
stroke:#000000; stroke-width:1.000000; stroke-opacity:1; 
stroke-linecap:round; stroke-linejoin:round;fill-rule:evenodd;"
d="M 102150000.000000,129280000.000000
102150000.000000,127830000.000000
102750000.000000,127830000.000000
102750000.000000,129280000.000000
Z" /> 
<path style="fill:#000000; fill-opacity:1.0; 
stroke:#000000; stroke-width:1.000000; stroke-opacity:1; 
stroke-linecap:round; stroke-linejoin:round;fill-rule:evenodd;"
d="M 102950000.000000,129280000.000000
102950000.000000,127830000.000000
103550000.000000,127830000.000000
103550000.000000,129280000.000000
Z" /> 
<path style="fill:#000000; fill-opacity:1.0; 
stroke:#000000; stroke-width:1.000000; stroke-opacity:1; 
stroke-linecap:round; stroke-linejoin:round;fill-rule:evenodd;"
d="M 102950000.000000,129280000.000000
102950000.000000,127830000.000000
103550000.000000,127830000.000000
103550000.000000,129280000.000000
Z" /> 
<path style="fill:#000000; fill-opacity:1.0; 
stroke:#000000; stroke-width:1.000000; stroke-opacity:1; 
stroke-linecap:round; stroke-linejoin:round;fill-rule:evenodd;"
d="M 102150000.000000,129280000.000000
102150000.000000,127830000.000000
102750000.000000,127830000.000000
102750000.000000,129280000.000000
Z" /> 
<path style="fill:#000000; fill-opacity:1.0; 
stroke:#000000; stroke-width:1.000000; stroke-opacity:1; 
stroke-linecap:round; stroke-linejoin:round;fill-rule:evenodd;"
d="M 101600000.000000,129280000.000000
101600000.000000,127830000.000000
101900000.000000,127830000.000000
101900000.000000,129280000.000000
Z" /> 
<path style="fill:#000000; fill-opacity:1.0; 
stroke:#000000; stroke-width:1.000000; stroke-opacity:1; 
stroke-linecap:round; stroke-linejoin:round;fill-rule:evenodd;"
d="M 100600000.000000,129280000.000000
100600000.000000,127830000.000000
100900000.000000,127830000.000000
100900000.000000,129280000.000000
Z" /> 
<path style="fill:#000000; fill-opacity:1.0; 
stroke:#000000; stroke-width:1.000000; stroke-opacity:1; 
stroke-linecap:round; stroke-linejoin:round;fill-rule:evenodd;"
d="M 99100000.000000,129280000.000000
99100000.000000,127830000.000000
99400000.000000,127830000.000000
99400000.000000,129280000.000000
Z" /> 
<path style="fill:#000000; fill-opacity:1.0; 
stroke:#000000; stroke-width:1.000000; stroke-opacity:1; 
stroke-linecap:round; stroke-linejoin:round;fill-rule:evenodd;"
d="M 98100000.000000,129280000.000000
98100000.000000,127830000.000000
98400000.000000,127830000.000000
98400000.000000,129280000.000000
Z" /> 
<path style="fill:#000000; fill-opacity:1.0; 
stroke:#000000; stroke-width:1.000000; stroke-opacity:1; 
stroke-linecap:round; stroke-linejoin:round;fill-rule:evenodd;"
d="M 97250000.000000,129280000.000000
97250000.000000,127830000.000000
97850000.000000,127830000.000000
97850000.000000,129280000.000000
Z" /> 
<path style="fill:#000000; fill-opacity:1.0; 
stroke:#000000; stroke-width:1.000000; stroke-opacity:1; 
stroke-linecap:round; stroke-linejoin:round;fill-rule:evenodd;"
d="M 96450000.000000,129280000.000000
96450000.000000,127830000.000000
97050000.000000,127830000.000000
97050000.000000,129280000.000000
Z" /> 
</g>
<g >
</g>
<g >
</g>
<g style="fill:#000000; fill-opacity:1.0; 
stroke:#000000; stroke-width:1.000000; stroke-opacity:1; 
stroke-linecap:round; stroke-linejoin:round;">
<path style="fill:#000000; fill-opacity:1.0; 
stroke:#000000; stroke-width:1.000000; stroke-opacity:1; 
stroke-linecap:round; stroke-linejoin:round;fill-rule:evenodd;"
d="M 102674000.000000,126212400.000000
102578329.000000,126193370.000000
102497223.000000,126139177.000000
102443030.000000,126058071.000000
102424000.000000,125962400.000000
102424000.000000,125262400.000000
102443030.000000,125166729.000000
102497223.000000,125085623.000000
102578329.000000,125031430.000000
102674000.000000,125012400.000000
103574000.000000,125012400.000000
103669671.000000,125031430.000000
103750777.000000,125085623.000000
103804970.000000,125166729.000000
103824000.000000,125262400.000000
103824000.000000,125962400.000000
103804970.000000,126058071.000000
103750777.000000,126139177.000000
103669671.000000,126193370.000000
103574000.000000,126212400.000000
Z" /> 
<path style="fill:#000000; fill-opacity:1.0; 
stroke:#000000; stroke-width:1.000000; stroke-opacity:1; 
stroke-linecap:round; stroke-linejoin:round;fill-rule:evenodd;"
d="M 102674000.000000,124212400.000000
102578329.000000,124193370.000000
102497223.000000,124139177.000000
102443030.000000,124058071.000000
102424000.000000,123962400.000000
102424000.000000,123262400.000000
102443030.000000,123166729.000000
102497223.000000,123085623.000000
102578329.000000,123031430.000000
102674000.000000,123012400.000000
103574000.000000,123012400.000000
103669671.000000,123031430.000000
103750777.000000,123085623.000000
103804970.000000,123166729.000000
103824000.000000,123262400.000000
103824000.000000,123962400.000000
103804970.000000,124058071.000000
103750777.000000,124139177.000000
103669671.000000,124193370.000000
103574000.000000,124212400.000000
Z" /> 
</g>
<g >
</g>
<g style="fill:#000000; fill-opacity:1.0; 
stroke:#000000; stroke-width:1.000000; stroke-opacity:1; 
stroke-linecap:round; stroke-linejoin:round;">
<path style="fill:#000000; fill-opacity:1.0; 
stroke:#000000; stroke-width:1.000000; stroke-opacity:1; 
stroke-linecap:round; stroke-linejoin:round;fill-rule:evenodd;"
d="M 113400000.000000,114750000.000000
112100000.000000,114750000.000000
112100000.000000,113200000.000000
113400000.000000,113200000.000000
Z" /> 
<path style="fill:#000000; fill-opacity:1.0; 
stroke:#000000; stroke-width:1.000000; stroke-opacity:1; 
stroke-linecap:round; stroke-linejoin:round;fill-rule:evenodd;"
d="M 113400000.000000,106800000.000000
112100000.000000,106800000.000000
112100000.000000,105250000.000000
113400000.000000,105250000.000000
Z" /> 
<path style="fill:#000000; fill-opacity:1.0; 
stroke:#000000; stroke-width:1.000000; stroke-opacity:1; 
stroke-linecap:round; stroke-linejoin:round;fill-rule:evenodd;"
d="M 117900000.000000,114750000.000000
116600000.000000,114750000.000000
116600000.000000,113200000.000000
117900000.000000,113200000.000000
Z" /> 
<path style="fill:#000000; fill-opacity:1.0; 
stroke:#000000; stroke-width:1.000000; stroke-opacity:1; 
stroke-linecap:round; stroke-linejoin:round;fill-rule:evenodd;"
d="M 117900000.000000,106800000.000000
116600000.000000,106800000.000000
116600000.000000,105250000.000000
117900000.000000,105250000.000000
Z" /> 
</g>
<g >
</g>
<g style="fill:#000000; fill-opacity:1.0; 
stroke:#000000; stroke-width:1.000000; stroke-opacity:1; 
stroke-linecap:round; stroke-linejoin:round;">
<path style="fill:#000000; fill-opacity:1.0; 
stroke:#000000; stroke-width:1.000000; stroke-opacity:1; 
stroke-linecap:round; stroke-linejoin:round;fill-rule:evenodd;"
d="M 116600000.000000,117385000.000000
116580970.000000,117480671.000000
116526777.000000,117561777.000000
116445671.000000,117615970.000000
116350000.000000,117635000.000000
115650000.000000,117635000.000000
115554329.000000,117615970.000000
115473223.000000,117561777.000000
115419030.000000,117480671.000000
115400000.000000,117385000.000000
115400000.000000,116485000.000000
115419030.000000,116389329.000000
115473223.000000,116308223.000000
115554329.000000,116254030.000000
115650000.000000,116235000.000000
116350000.000000,116235000.000000
116445671.000000,116254030.000000
116526777.000000,116308223.000000
116580970.000000,116389329.000000
116600000.000000,116485000.000000
Z" /> 
<path style="fill:#000000; fill-opacity:1.0; 
stroke:#000000; stroke-width:1.000000; stroke-opacity:1; 
stroke-linecap:round; stroke-linejoin:round;fill-rule:evenodd;"
d="M 114600000.000000,117385000.000000
114580970.000000,117480671.000000
114526777.000000,117561777.000000
114445671.000000,117615970.000000
114350000.000000,117635000.000000
113650000.000000,117635000.000000
113554329.000000,117615970.000000
113473223.000000,117561777.000000
113419030.000000,117480671.000000
113400000.000000,117385000.000000
113400000.000000,116485000.000000
113419030.000000,116389329.000000
113473223.000000,116308223.000000
113554329.000000,116254030.000000
113650000.000000,116235000.000000
114350000.000000,116235000.000000
114445671.000000,116254030.000000
114526777.000000,116308223.000000
114580970.000000,116389329.000000
114600000.000000,116485000.000000
Z" /> 
</g>
<g >
</g>
<g style="fill:#000000; fill-opacity:1.0; 
stroke:#000000; stroke-width:1.000000; stroke-opacity:1; 
stroke-linecap:round; stroke-linejoin:round;">
<path style="fill:#000000; fill-opacity:1.0; 
stroke:#000000; stroke-width:1.000000; stroke-opacity:1; 
stroke-linecap:round; stroke-linejoin:round;fill-rule:evenodd;"
d="M 109050000.000000,74575000.000000
109050000.000000,75175000.000000
108350000.000000,75175000.000000
108350000.000000,74575000.000000
Z" /> 
<path style="fill:#000000; fill-opacity:1.0; 
stroke:#000000; stroke-width:1.000000; stroke-opacity:1; 
stroke-linecap:round; stroke-linejoin:round;fill-rule:evenodd;"
d="M 109850000.000000,74925000.000000
109850000.000000,75425000.000000
109400000.000000,75425000.000000
109400000.000000,74925000.000000
Z" /> 
<path style="fill:#000000; fill-opacity:1.0; 
stroke:#000000; stroke-width:1.000000; stroke-opacity:1; 
stroke-linecap:round; stroke-linejoin:round;fill-rule:evenodd;"
d="M 110600000.000000,74925000.000000
110600000.000000,75425000.000000
110150000.000000,75425000.000000
110150000.000000,74925000.000000
Z" /> 
<path style="fill:#000000; fill-opacity:1.0; 
stroke:#000000; stroke-width:1.000000; stroke-opacity:1; 
stroke-linecap:round; stroke-linejoin:round;fill-rule:evenodd;"
d="M 111650000.000000,74575000.000000
111650000.000000,75175000.000000
110950000.000000,75175000.000000
110950000.000000,74575000.000000
Z" /> 
</g>
<g >
</g>
<g style="fill:#000000; fill-opacity:1.0; 
stroke:#000000; stroke-width:1.000000; stroke-opacity:1; 
stroke-linecap:round; stroke-linejoin:round;">
<path style="fill:#000000; fill-opacity:1.0; 
stroke:#000000; stroke-width:1.000000; stroke-opacity:1; 
stroke-linecap:round; stroke-linejoin:round;fill-rule:evenodd;"
d="M 90500000.000000,85490000.000000
90500000.000000,84590000.000000
92000000.000000,84590000.000000
92000000.000000,85490000.000000
Z" /> 
<path style="fill:#000000; fill-opacity:1.0; 
stroke:#000000; stroke-width:1.000000; stroke-opacity:1; 
stroke-linecap:round; stroke-linejoin:round;fill-rule:evenodd;"
d="M 90500000.000000,86760000.000000
90500000.000000,85860000.000000
92000000.000000,85860000.000000
92000000.000000,86760000.000000
Z" /> 
<path style="fill:#000000; fill-opacity:1.0; 
stroke:#000000; stroke-width:1.000000; stroke-opacity:1; 
stroke-linecap:round; stroke-linejoin:round;fill-rule:evenodd;"
d="M 90500000.000000,88030000.000000
90500000.000000,87130000.000000
92000000.000000,87130000.000000
92000000.000000,88030000.000000
Z" /> 
<path style="fill:#000000; fill-opacity:1.0; 
stroke:#000000; stroke-width:1.000000; stroke-opacity:1; 
stroke-linecap:round; stroke-linejoin:round;fill-rule:evenodd;"
d="M 90500000.000000,89300000.000000
90500000.000000,88400000.000000
92000000.000000,88400000.000000
92000000.000000,89300000.000000
Z" /> 
<path style="fill:#000000; fill-opacity:1.0; 
stroke:#000000; stroke-width:1.000000; stroke-opacity:1; 
stroke-linecap:round; stroke-linejoin:round;fill-rule:evenodd;"
d="M 90500000.000000,90570000.000000
90500000.000000,89670000.000000
92000000.000000,89670000.000000
92000000.000000,90570000.000000
Z" /> 
<path style="fill:#000000; fill-opacity:1.0; 
stroke:#000000; stroke-width:1.000000; stroke-opacity:1; 
stroke-linecap:round; stroke-linejoin:round;fill-rule:evenodd;"
d="M 90500000.000000,91840000.000000
90500000.000000,90940000.000000
92000000.000000,90940000.000000
92000000.000000,91840000.000000
Z" /> 
<path style="fill:#000000; fill-opacity:1.0; 
stroke:#000000; stroke-width:1.000000; stroke-opacity:1; 
stroke-linecap:round; stroke-linejoin:round;fill-rule:evenodd;"
d="M 90500000.000000,93110000.000000
90500000.000000,92210000.000000
92000000.000000,92210000.000000
92000000.000000,93110000.000000
Z" /> 
<path style="fill:#000000; fill-opacity:1.0; 
stroke:#000000; stroke-width:1.000000; stroke-opacity:1; 
stroke-linecap:round; stroke-linejoin:round;fill-rule:evenodd;"
d="M 90500000.000000,94380000.000000
90500000.000000,93480000.000000
92000000.000000,93480000.000000
92000000.000000,94380000.000000
Z" /> 
<path style="fill:#000000; fill-opacity:1.0; 
stroke:#000000; stroke-width:1.000000; stroke-opacity:1; 
stroke-linecap:round; stroke-linejoin:round;fill-rule:evenodd;"
d="M 90500000.000000,95650000.000000
90500000.000000,94750000.000000
92000000.000000,94750000.000000
92000000.000000,95650000.000000
Z" /> 
<path style="fill:#000000; fill-opacity:1.0; 
stroke:#000000; stroke-width:1.000000; stroke-opacity:1; 
stroke-linecap:round; stroke-linejoin:round;fill-rule:evenodd;"
d="M 90500000.000000,96920000.000000
90500000.000000,96020000.000000
92000000.000000,96020000.000000
92000000.000000,96920000.000000
Z" /> 
<path style="fill:#000000; fill-opacity:1.0; 
stroke:#000000; stroke-width:1.000000; stroke-opacity:1; 
stroke-linecap:round; stroke-linejoin:round;fill-rule:evenodd;"
d="M 90500000.000000,98190000.000000
90500000.000000,97290000.000000
92000000.000000,97290000.000000
92000000.000000,98190000.000000
Z" /> 
<path style="fill:#000000; fill-opacity:1.0; 
stroke:#000000; stroke-width:1.000000; stroke-opacity:1; 
stroke-linecap:round; stroke-linejoin:round;fill-rule:evenodd;"
d="M 90500000.000000,99460000.000000
90500000.000000,98560000.000000
92000000.000000,98560000.000000
92000000.000000,99460000.000000
Z" /> 
<path style="fill:#000000; fill-opacity:1.0; 
stroke:#000000; stroke-width:1.000000; stroke-opacity:1; 
stroke-linecap:round; stroke-linejoin:round;fill-rule:evenodd;"
d="M 90500000.000000,100730000.000000
90500000.000000,99830000.000000
92000000.000000,99830000.000000
92000000.000000,100730000.000000
Z" /> 
<path style="fill:#000000; fill-opacity:1.0; 
stroke:#000000; stroke-width:1.000000; stroke-opacity:1; 
stroke-linecap:round; stroke-linejoin:round;fill-rule:evenodd;"
d="M 90500000.000000,102000000.000000
90500000.000000,101100000.000000
92000000.000000,101100000.000000
92000000.000000,102000000.000000
Z" /> 
<path style="fill:#000000; fill-opacity:1.0; 
stroke:#000000; stroke-width:1.000000; stroke-opacity:1; 
stroke-linecap:round; stroke-linejoin:round;fill-rule:evenodd;"
d="M 93465000.000000,103550000.000000
92565000.000000,103550000.000000
92565000.000000,102050000.000000
93465000.000000,102050000.000000
Z" /> 
<path style="fill:#000000; fill-opacity:1.0; 
stroke:#000000; stroke-width:1.000000; stroke-opacity:1; 
stroke-linecap:round; stroke-linejoin:round;fill-rule:evenodd;"
d="M 94735000.000000,103550000.000000
93835000.000000,103550000.000000
93835000.000000,102050000.000000
94735000.000000,102050000.000000
Z" /> 
<path style="fill:#000000; fill-opacity:1.0; 
stroke:#000000; stroke-width:1.000000; stroke-opacity:1; 
stroke-linecap:round; stroke-linejoin:round;fill-rule:evenodd;"
d="M 96005000.000000,103550000.000000
95105000.000000,103550000.000000
95105000.000000,102050000.000000
96005000.000000,102050000.000000
Z" /> 
<path style="fill:#000000; fill-opacity:1.0; 
stroke:#000000; stroke-width:1.000000; stroke-opacity:1; 
stroke-linecap:round; stroke-linejoin:round;fill-rule:evenodd;"
d="M 97275000.000000,103550000.000000
96375000.000000,103550000.000000
96375000.000000,102050000.000000
97275000.000000,102050000.000000
Z" /> 
<path style="fill:#000000; fill-opacity:1.0; 
stroke:#000000; stroke-width:1.000000; stroke-opacity:1; 
stroke-linecap:round; stroke-linejoin:round;fill-rule:evenodd;"
d="M 98545000.000000,103550000.000000
97645000.000000,103550000.000000
97645000.000000,102050000.000000
98545000.000000,102050000.000000
Z" /> 
<path style="fill:#000000; fill-opacity:1.0; 
stroke:#000000; stroke-width:1.000000; stroke-opacity:1; 
stroke-linecap:round; stroke-linejoin:round;fill-rule:evenodd;"
d="M 99815000.000000,103550000.000000
98915000.000000,103550000.000000
98915000.000000,102050000.000000
99815000.000000,102050000.000000
Z" /> 
<path style="fill:#000000; fill-opacity:1.0; 
stroke:#000000; stroke-width:1.000000; stroke-opacity:1; 
stroke-linecap:round; stroke-linejoin:round;fill-rule:evenodd;"
d="M 101085000.000000,103550000.000000
100185000.000000,103550000.000000
100185000.000000,102050000.000000
101085000.000000,102050000.000000
Z" /> 
<path style="fill:#000000; fill-opacity:1.0; 
stroke:#000000; stroke-width:1.000000; stroke-opacity:1; 
stroke-linecap:round; stroke-linejoin:round;fill-rule:evenodd;"
d="M 102355000.000000,103550000.000000
101455000.000000,103550000.000000
101455000.000000,102050000.000000
102355000.000000,102050000.000000
Z" /> 
<path style="fill:#000000; fill-opacity:1.0; 
stroke:#000000; stroke-width:1.000000; stroke-opacity:1; 
stroke-linecap:round; stroke-linejoin:round;fill-rule:evenodd;"
d="M 103625000.000000,103550000.000000
102725000.000000,103550000.000000
102725000.000000,102050000.000000
103625000.000000,102050000.000000
Z" /> 
<path style="fill:#000000; fill-opacity:1.0; 
stroke:#000000; stroke-width:1.000000; stroke-opacity:1; 
stroke-linecap:round; stroke-linejoin:round;fill-rule:evenodd;"
d="M 104895000.000000,103550000.000000
103995000.000000,103550000.000000
103995000.000000,102050000.000000
104895000.000000,102050000.000000
Z" /> 
<path style="fill:#000000; fill-opacity:1.0; 
stroke:#000000; stroke-width:1.000000; stroke-opacity:1; 
stroke-linecap:round; stroke-linejoin:round;fill-rule:evenodd;"
d="M 106165000.000000,103550000.000000
105265000.000000,103550000.000000
105265000.000000,102050000.000000
106165000.000000,102050000.000000
Z" /> 
<path style="fill:#000000; fill-opacity:1.0; 
stroke:#000000; stroke-width:1.000000; stroke-opacity:1; 
stroke-linecap:round; stroke-linejoin:round;fill-rule:evenodd;"
d="M 107435000.000000,103550000.000000
106535000.000000,103550000.000000
106535000.000000,102050000.000000
107435000.000000,102050000.000000
Z" /> 
<path style="fill:#000000; fill-opacity:1.0; 
stroke:#000000; stroke-width:1.000000; stroke-opacity:1; 
stroke-linecap:round; stroke-linejoin:round;fill-rule:evenodd;"
d="M 109500000.000000,101100000.000000
109500000.000000,102000000.000000
108000000.000000,102000000.000000
108000000.000000,101100000.000000
Z" /> 
<path style="fill:#000000; fill-opacity:1.0; 
stroke:#000000; stroke-width:1.000000; stroke-opacity:1; 
stroke-linecap:round; stroke-linejoin:round;fill-rule:evenodd;"
d="M 109500000.000000,99830000.000000
109500000.000000,100730000.000000
108000000.000000,100730000.000000
108000000.000000,99830000.000000
Z" /> 
<path style="fill:#000000; fill-opacity:1.0; 
stroke:#000000; stroke-width:1.000000; stroke-opacity:1; 
stroke-linecap:round; stroke-linejoin:round;fill-rule:evenodd;"
d="M 109500000.000000,98560000.000000
109500000.000000,99460000.000000
108000000.000000,99460000.000000
108000000.000000,98560000.000000
Z" /> 
<path style="fill:#000000; fill-opacity:1.0; 
stroke:#000000; stroke-width:1.000000; stroke-opacity:1; 
stroke-linecap:round; stroke-linejoin:round;fill-rule:evenodd;"
d="M 109500000.000000,97290000.000000
109500000.000000,98190000.000000
108000000.000000,98190000.000000
108000000.000000,97290000.000000
Z" /> 
<path style="fill:#000000; fill-opacity:1.0; 
stroke:#000000; stroke-width:1.000000; stroke-opacity:1; 
stroke-linecap:round; stroke-linejoin:round;fill-rule:evenodd;"
d="M 109500000.000000,96020000.000000
109500000.000000,96920000.000000
108000000.000000,96920000.000000
108000000.000000,96020000.000000
Z" /> 
<path style="fill:#000000; fill-opacity:1.0; 
stroke:#000000; stroke-width:1.000000; stroke-opacity:1; 
stroke-linecap:round; stroke-linejoin:round;fill-rule:evenodd;"
d="M 109500000.000000,94750000.000000
109500000.000000,95650000.000000
108000000.000000,95650000.000000
108000000.000000,94750000.000000
Z" /> 
<path style="fill:#000000; fill-opacity:1.0; 
stroke:#000000; stroke-width:1.000000; stroke-opacity:1; 
stroke-linecap:round; stroke-linejoin:round;fill-rule:evenodd;"
d="M 109500000.000000,93480000.000000
109500000.000000,94380000.000000
108000000.000000,94380000.000000
108000000.000000,93480000.000000
Z" /> 
<path style="fill:#000000; fill-opacity:1.0; 
stroke:#000000; stroke-width:1.000000; stroke-opacity:1; 
stroke-linecap:round; stroke-linejoin:round;fill-rule:evenodd;"
d="M 109500000.000000,92210000.000000
109500000.000000,93110000.000000
108000000.000000,93110000.000000
108000000.000000,92210000.000000
Z" /> 
<path style="fill:#000000; fill-opacity:1.0; 
stroke:#000000; stroke-width:1.000000; stroke-opacity:1; 
stroke-linecap:round; stroke-linejoin:round;fill-rule:evenodd;"
d="M 109500000.000000,90940000.000000
109500000.000000,91840000.000000
108000000.000000,91840000.000000
108000000.000000,90940000.000000
Z" /> 
<path style="fill:#000000; fill-opacity:1.0; 
stroke:#000000; stroke-width:1.000000; stroke-opacity:1; 
stroke-linecap:round; stroke-linejoin:round;fill-rule:evenodd;"
d="M 109500000.000000,89670000.000000
109500000.000000,90570000.000000
108000000.000000,90570000.000000
108000000.000000,89670000.000000
Z" /> 
<path style="fill:#000000; fill-opacity:1.0; 
stroke:#000000; stroke-width:1.000000; stroke-opacity:1; 
stroke-linecap:round; stroke-linejoin:round;fill-rule:evenodd;"
d="M 109500000.000000,88400000.000000
109500000.000000,89300000.000000
108000000.000000,89300000.000000
108000000.000000,88400000.000000
Z" /> 
<path style="fill:#000000; fill-opacity:1.0; 
stroke:#000000; stroke-width:1.000000; stroke-opacity:1; 
stroke-linecap:round; stroke-linejoin:round;fill-rule:evenodd;"
d="M 109500000.000000,87130000.000000
109500000.000000,88030000.000000
108000000.000000,88030000.000000
108000000.000000,87130000.000000
Z" /> 
<path style="fill:#000000; fill-opacity:1.0; 
stroke:#000000; stroke-width:1.000000; stroke-opacity:1; 
stroke-linecap:round; stroke-linejoin:round;fill-rule:evenodd;"
d="M 109500000.000000,85860000.000000
109500000.000000,86760000.000000
108000000.000000,86760000.000000
108000000.000000,85860000.000000
Z" /> 
<path style="fill:#000000; fill-opacity:1.0; 
stroke:#000000; stroke-width:1.000000; stroke-opacity:1; 
stroke-linecap:round; stroke-linejoin:round;fill-rule:evenodd;"
d="M 109500000.000000,84590000.000000
109500000.000000,85490000.000000
108000000.000000,85490000.000000
108000000.000000,84590000.000000
Z" /> 
<path style="fill:#000000; fill-opacity:1.0; 
stroke:#000000; stroke-width:1.000000; stroke-opacity:1; 
stroke-linecap:round; stroke-linejoin:round;fill-rule:evenodd;"
d="M 100350000.000000,93710000.000000
100350000.000000,94610000.000000
99450000.000000,94610000.000000
99450000.000000,93710000.000000
Z" /> 
<path style="fill:#000000; fill-opacity:1.0; 
stroke:#000000; stroke-width:1.000000; stroke-opacity:1; 
stroke-linecap:round; stroke-linejoin:round;fill-rule:evenodd;"
d="M 100350000.000000,92310000.000000
100350000.000000,93210000.000000
99450000.000000,93210000.000000
99450000.000000,92310000.000000
Z" /> 
<path style="fill:#000000; fill-opacity:1.0; 
stroke:#000000; stroke-width:1.000000; stroke-opacity:1; 
stroke-linecap:round; stroke-linejoin:round;fill-rule:evenodd;"
d="M 100350000.000000,90910000.000000
100350000.000000,91810000.000000
99450000.000000,91810000.000000
99450000.000000,90910000.000000
Z" /> 
<path style="fill:#000000; fill-opacity:1.0; 
stroke:#000000; stroke-width:1.000000; stroke-opacity:1; 
stroke-linecap:round; stroke-linejoin:round;fill-rule:evenodd;"
d="M 98950000.000000,90910000.000000
98950000.000000,91810000.000000
98050000.000000,91810000.000000
98050000.000000,90910000.000000
Z" /> 
<path style="fill:#000000; fill-opacity:1.0; 
stroke:#000000; stroke-width:1.000000; stroke-opacity:1; 
stroke-linecap:round; stroke-linejoin:round;fill-rule:evenodd;"
d="M 98950000.000000,93710000.000000
98950000.000000,94610000.000000
98050000.000000,94610000.000000
98050000.000000,93710000.000000
Z" /> 
<path style="fill:#000000; fill-opacity:1.0; 
stroke:#000000; stroke-width:1.000000; stroke-opacity:1; 
stroke-linecap:round; stroke-linejoin:round;fill-rule:evenodd;"
d="M 97550000.000000,93710000.000000
97550000.000000,94610000.000000
96650000.000000,94610000.000000
96650000.000000,93710000.000000
Z" /> 
<path style="fill:#000000; fill-opacity:1.0; 
stroke:#000000; stroke-width:1.000000; stroke-opacity:1; 
stroke-linecap:round; stroke-linejoin:round;fill-rule:evenodd;"
d="M 97550000.000000,90910000.000000
97550000.000000,91810000.000000
96650000.000000,91810000.000000
96650000.000000,90910000.000000
Z" /> 
<path style="fill:#000000; fill-opacity:1.0; 
stroke:#000000; stroke-width:1.000000; stroke-opacity:1; 
stroke-linecap:round; stroke-linejoin:round;fill-rule:evenodd;"
d="M 97550000.000000,92310000.000000
97550000.000000,93210000.000000
96650000.000000,93210000.000000
96650000.000000,92310000.000000
Z" /> 
<path style="fill:#000000; fill-opacity:1.0; 
stroke:#000000; stroke-width:1.000000; stroke-opacity:1; 
stroke-linecap:round; stroke-linejoin:round;fill-rule:evenodd;"
d="M 98950000.000000,92310000.000000
98950000.000000,93210000.000000
98050000.000000,93210000.000000
98050000.000000,92310000.000000
Z" /> 
</g>
<g >
</g>
<g style="fill:#000000; fill-opacity:1.0; 
stroke:#000000; stroke-width:1.000000; stroke-opacity:1; 
stroke-linecap:round; stroke-linejoin:round;">
<path style="fill:#000000; fill-opacity:1.0; 
stroke:#000000; stroke-width:1.000000; stroke-opacity:1; 
stroke-linecap:round; stroke-linejoin:round;fill-rule:evenodd;"
d="M 77350000.000000,128600000.000000
79650000.000000,128600000.000000
79650000.000000,131100000.000000
77350000.000000,131100000.000000
Z" /> 
<path style="fill:#000000; fill-opacity:1.0; 
stroke:#000000; stroke-width:1.000000; stroke-opacity:1; 
stroke-linecap:round; stroke-linejoin:round;fill-rule:evenodd;"
d="M 77350000.000000,132900000.000000
79650000.000000,132900000.000000
79650000.000000,135400000.000000
77350000.000000,135400000.000000
Z" /> 
</g>
<g >
</g>
<g style="fill:#000000; fill-opacity:1.0; 
stroke:#000000; stroke-width:1.000000; stroke-opacity:1; 
stroke-linecap:round; stroke-linejoin:round;">
<path style="fill:#000000; fill-opacity:1.0; 
stroke:#000000; stroke-width:1.000000; stroke-opacity:1; 
stroke-linecap:round; stroke-linejoin:round;fill-rule:evenodd;"
d="M 80370000.000000,114625000.000000
80274329.000000,114605970.000000
80193223.000000,114551777.000000
80139030.000000,114470671.000000
80120000.000000,114375000.000000
80120000.000000,113700000.000000
80139030.000000,113604329.000000
80193223.000000,113523223.000000
80274329.000000,113469030.000000
80370000.000000,113450000.000000
81320000.000000,113450000.000000
81415671.000000,113469030.000000
81496777.000000,113523223.000000
81550970.000000,113604329.000000
81570000.000000,113700000.000000
81570000.000000,114375000.000000
81550970.000000,114470671.000000
81496777.000000,114551777.000000
81415671.000000,114605970.000000
81320000.000000,114625000.000000
Z" /> 
<path style="fill:#000000; fill-opacity:1.0; 
stroke:#000000; stroke-width:1.000000; stroke-opacity:1; 
stroke-linecap:round; stroke-linejoin:round;fill-rule:evenodd;"
d="M 80370000.000000,112550000.000000
80274329.000000,112530970.000000
80193223.000000,112476777.000000
80139030.000000,112395671.000000
80120000.000000,112300000.000000
80120000.000000,111625000.000000
80139030.000000,111529329.000000
80193223.000000,111448223.000000
80274329.000000,111394030.000000
80370000.000000,111375000.000000
81320000.000000,111375000.000000
81415671.000000,111394030.000000
81496777.000000,111448223.000000
81550970.000000,111529329.000000
81570000.000000,111625000.000000
81570000.000000,112300000.000000
81550970.000000,112395671.000000
81496777.000000,112476777.000000
81415671.000000,112530970.000000
81320000.000000,112550000.000000
Z" /> 
</g>
<g >
</g>
<g style="fill:#000000; fill-opacity:1.0; 
stroke:#000000; stroke-width:1.000000; stroke-opacity:1; 
stroke-linecap:round; stroke-linejoin:round;">
<path style="fill:#000000; fill-opacity:1.0; 
stroke:#000000; stroke-width:1.000000; stroke-opacity:1; 
stroke-linecap:round; stroke-linejoin:round;fill-rule:evenodd;"
d="M 81400000.000000,84800000.000000
81419030.000000,84704329.000000
81473223.000000,84623223.000000
81554329.000000,84569030.000000
81650000.000000,84550000.000000
82350000.000000,84550000.000000
82445671.000000,84569030.000000
82526777.000000,84623223.000000
82580970.000000,84704329.000000
82600000.000000,84800000.000000
82600000.000000,85700000.000000
82580970.000000,85795671.000000
82526777.000000,85876777.000000
82445671.000000,85930970.000000
82350000.000000,85950000.000000
81650000.000000,85950000.000000
81554329.000000,85930970.000000
81473223.000000,85876777.000000
81419030.000000,85795671.000000
81400000.000000,85700000.000000
Z" /> 
<path style="fill:#000000; fill-opacity:1.0; 
stroke:#000000; stroke-width:1.000000; stroke-opacity:1; 
stroke-linecap:round; stroke-linejoin:round;fill-rule:evenodd;"
d="M 83400000.000000,84800000.000000
83419030.000000,84704329.000000
83473223.000000,84623223.000000
83554329.000000,84569030.000000
83650000.000000,84550000.000000
84350000.000000,84550000.000000
84445671.000000,84569030.000000
84526777.000000,84623223.000000
84580970.000000,84704329.000000
84600000.000000,84800000.000000
84600000.000000,85700000.000000
84580970.000000,85795671.000000
84526777.000000,85876777.000000
84445671.000000,85930970.000000
84350000.000000,85950000.000000
83650000.000000,85950000.000000
83554329.000000,85930970.000000
83473223.000000,85876777.000000
83419030.000000,85795671.000000
83400000.000000,85700000.000000
Z" /> 
</g>
<g >
</g>
<g >
</g>
<g style="fill:#000000; fill-opacity:1.0; 
stroke:#000000; stroke-width:1.000000; stroke-opacity:1; 
stroke-linecap:round; stroke-linejoin:round;">
<path style="fill:#000000; fill-opacity:1.0; 
stroke:#000000; stroke-width:1.000000; stroke-opacity:1; 
stroke-linecap:round; stroke-linejoin:round;fill-rule:evenodd;"
d="M 83350000.000000,113400000.000000
83350000.000000,111900000.000000
85350000.000000,111900000.000000
85350000.000000,113400000.000000
Z" /> 
<path style="fill:#000000; fill-opacity:1.0; 
stroke:#000000; stroke-width:1.000000; stroke-opacity:1; 
stroke-linecap:round; stroke-linejoin:round;fill-rule:evenodd;"
d="M 83350000.000000,115700000.000000
83350000.000000,114200000.000000
85350000.000000,114200000.000000
85350000.000000,115700000.000000
Z" /> 
<path style="fill:#000000; fill-opacity:1.0; 
stroke:#000000; stroke-width:1.000000; stroke-opacity:1; 
stroke-linecap:round; stroke-linejoin:round;fill-rule:evenodd;"
d="M 89650000.000000,116850000.000000
89650000.000000,113050000.000000
91650000.000000,113050000.000000
91650000.000000,116850000.000000
Z" /> 
<path style="fill:#000000; fill-opacity:1.0; 
stroke:#000000; stroke-width:1.000000; stroke-opacity:1; 
stroke-linecap:round; stroke-linejoin:round;fill-rule:evenodd;"
d="M 83350000.000000,118000000.000000
83350000.000000,116500000.000000
85350000.000000,116500000.000000
85350000.000000,118000000.000000
Z" /> 
</g>
<g >
</g>
<g style="fill:#000000; fill-opacity:1.0; 
stroke:#000000; stroke-width:1.000000; stroke-opacity:1; 
stroke-linecap:round; stroke-linejoin:round;">
<path style="fill:#000000; fill-opacity:1.0; 
stroke:#000000; stroke-width:1.000000; stroke-opacity:1; 
stroke-linecap:round; stroke-linejoin:round;fill-rule:evenodd;"
d="M 90250000.000000,128600000.000000
92550000.000000,128600000.000000
92550000.000000,131100000.000000
90250000.000000,131100000.000000
Z" /> 
<path style="fill:#000000; fill-opacity:1.0; 
stroke:#000000; stroke-width:1.000000; stroke-opacity:1; 
stroke-linecap:round; stroke-linejoin:round;fill-rule:evenodd;"
d="M 90250000.000000,132900000.000000
92550000.000000,132900000.000000
92550000.000000,135400000.000000
90250000.000000,135400000.000000
Z" /> 
</g>
<g >
</g>
<g style="fill:#000000; fill-opacity:1.0; 
stroke:#000000; stroke-width:1.000000; stroke-opacity:1; 
stroke-linecap:round; stroke-linejoin:round;">
<path style="fill:#000000; fill-opacity:1.0; 
stroke:#000000; stroke-width:1.000000; stroke-opacity:1; 
stroke-linecap:round; stroke-linejoin:round;fill-rule:evenodd;"
d="M 71860621.000000,71338173.000000
71933960.000000,71402489.000000
71977103.000000,71489976.000000
71983483.000000,71587313.000000
71952127.000000,71679682.000000
71452129.000000,72545705.000000
71387813.000000,72619043.000000
71300327.000000,72662186.000000
71202990.000000,72668567.000000
71110621.000000,72637210.000000
68512547.000000,71137213.000000
68439208.000000,71072897.000000
68396065.000000,70985410.000000
68389685.000000,70888073.000000
68421041.000000,70795704.000000
68921039.000000,69929681.000000
68985355.000000,69856343.000000
69072841.000000,69813200.000000
69170178.000000,69806819.000000
69262547.000000,69838176.000000
Z" /> 
<path style="fill:#000000; fill-opacity:1.0; 
stroke:#000000; stroke-width:1.000000; stroke-opacity:1; 
stroke-linecap:round; stroke-linejoin:round;fill-rule:evenodd;"
d="M 67660621.000000,78612787.000000
67733960.000000,78677103.000000
67777103.000000,78764590.000000
67783483.000000,78861927.000000
67752127.000000,78954296.000000
67252129.000000,79820319.000000
67187813.000000,79893657.000000
67100327.000000,79936800.000000
67002990.000000,79943181.000000
66910621.000000,79911824.000000
64312547.000000,78411827.000000
64239208.000000,78347511.000000
64196065.000000,78260024.000000
64189685.000000,78162687.000000
64221041.000000,78070318.000000
64721039.000000,77204295.000000
64785355.000000,77130957.000000
64872841.000000,77087814.000000
64970178.000000,77081433.000000
65062547.000000,77112790.000000
Z" /> 
<path style="fill:#000000; fill-opacity:1.0; 
stroke:#000000; stroke-width:1.000000; stroke-opacity:1; 
stroke-linecap:round; stroke-linejoin:round;fill-rule:evenodd;"
d="M 76679258.000000,77642051.000000
76746568.000000,77693700.000000
76811308.000000,77786159.000000
76840521.000000,77895184.000000
76830684.000000,78007626.000000
76798216.000000,78086010.000000
76473216.000000,78648926.000000
76421568.000000,78716236.000000
76329109.000000,78780976.000000
76220084.000000,78810189.000000
76107642.000000,78800352.000000
76029258.000000,78767885.000000
73561086.000000,77342885.000000
73493776.000000,77291236.000000
73429036.000000,77198777.000000
73399823.000000,77089752.000000
73409660.000000,76977310.000000
73442128.000000,76898926.000000
73767128.000000,76336010.000000
73818776.000000,76268700.000000
73911235.000000,76203960.000000
74020260.000000,76174747.000000
74132702.000000,76184584.000000
74211086.000000,76217051.000000
Z" /> 
<path style="fill:#000000; fill-opacity:1.0; 
stroke:#000000; stroke-width:1.000000; stroke-opacity:1; 
stroke-linecap:round; stroke-linejoin:round;fill-rule:evenodd;"
d="M 75429258.000000,79807115.000000
75496568.000000,79858764.000000
75561308.000000,79951223.000000
75590521.000000,80060248.000000
75580684.000000,80172690.000000
75548216.000000,80251074.000000
75223216.000000,80813990.000000
75171568.000000,80881300.000000
75079109.000000,80946040.000000
74970084.000000,80975253.000000
74857642.000000,80965416.000000
74779258.000000,80932949.000000
72311086.000000,79507949.000000
72243776.000000,79456300.000000
72179036.000000,79363841.000000
72149823.000000,79254816.000000
72159660.000000,79142374.000000
72192128.000000,79063990.000000
72517128.000000,78501074.000000
72568776.000000,78433764.000000
72661235.000000,78369024.000000
72770260.000000,78339811.000000
72882702.000000,78349648.000000
72961086.000000,78382115.000000
Z" /> 
</g>
<g >
</g>
<g style="fill:#000000; fill-opacity:1.0; 
stroke:#000000; stroke-width:1.000000; stroke-opacity:1; 
stroke-linecap:round; stroke-linejoin:round;">
<path style="fill:#000000; fill-opacity:1.0; 
stroke:#000000; stroke-width:1.000000; stroke-opacity:1; 
stroke-linecap:round; stroke-linejoin:round;fill-rule:evenodd;"
d="M 128139379.000000,115261827.000000
128066040.000000,115197511.000000
128022897.000000,115110024.000000
128016517.000000,115012687.000000
128047873.000000,114920318.000000
128547871.000000,114054295.000000
128612187.000000,113980957.000000
128699673.000000,113937814.000000
128797010.000000,113931433.000000
128889379.000000,113962790.000000
131487453.000000,115462787.000000
131560792.000000,115527103.000000
131603935.000000,115614590.000000
131610315.000000,115711927.000000
131578959.000000,115804296.000000
131078961.000000,116670319.000000
131014645.000000,116743657.000000
130927159.000000,116786800.000000
130829822.000000,116793181.000000
130737453.000000,116761824.000000
Z" /> 
<path style="fill:#000000; fill-opacity:1.0; 
stroke:#000000; stroke-width:1.000000; stroke-opacity:1; 
stroke-linecap:round; stroke-linejoin:round;fill-rule:evenodd;"
d="M 132339379.000000,107987213.000000
132266040.000000,107922897.000000
132222897.000000,107835410.000000
132216517.000000,107738073.000000
132247873.000000,107645704.000000
132747871.000000,106779681.000000
132812187.000000,106706343.000000
132899673.000000,106663200.000000
132997010.000000,106656819.000000
133089379.000000,106688176.000000
135687453.000000,108188173.000000
135760792.000000,108252489.000000
135803935.000000,108339976.000000
135810315.000000,108437313.000000
135778959.000000,108529682.000000
135278961.000000,109395705.000000
135214645.000000,109469043.000000
135127159.000000,109512186.000000
135029822.000000,109518567.000000
134937453.000000,109487210.000000
Z" /> 
<path style="fill:#000000; fill-opacity:1.0; 
stroke:#000000; stroke-width:1.000000; stroke-opacity:1; 
stroke-linecap:round; stroke-linejoin:round;fill-rule:evenodd;"
d="M 123320742.000000,108957949.000000
123253432.000000,108906300.000000
123188692.000000,108813841.000000
123159479.000000,108704816.000000
123169316.000000,108592374.000000
123201784.000000,108513990.000000
123526784.000000,107951074.000000
123578432.000000,107883764.000000
123670891.000000,107819024.000000
123779916.000000,107789811.000000
123892358.000000,107799648.000000
123970742.000000,107832115.000000
126438914.000000,109257115.000000
126506224.000000,109308764.000000
126570964.000000,109401223.000000
126600177.000000,109510248.000000
126590340.000000,109622690.000000
126557872.000000,109701074.000000
126232872.000000,110263990.000000
126181224.000000,110331300.000000
126088765.000000,110396040.000000
125979740.000000,110425253.000000
125867298.000000,110415416.000000
125788914.000000,110382949.000000
Z" /> 
<path style="fill:#000000; fill-opacity:1.0; 
stroke:#000000; stroke-width:1.000000; stroke-opacity:1; 
stroke-linecap:round; stroke-linejoin:round;fill-rule:evenodd;"
d="M 124570742.000000,106792885.000000
124503432.000000,106741236.000000
124438692.000000,106648777.000000
124409479.000000,106539752.000000
124419316.000000,106427310.000000
124451784.000000,106348926.000000
124776784.000000,105786010.000000
124828432.000000,105718700.000000
124920891.000000,105653960.000000
125029916.000000,105624747.000000
125142358.000000,105634584.000000
125220742.000000,105667051.000000
127688914.000000,107092051.000000
127756224.000000,107143700.000000
127820964.000000,107236159.000000
127850177.000000,107345184.000000
127840340.000000,107457626.000000
127807872.000000,107536010.000000
127482872.000000,108098926.000000
127431224.000000,108166236.000000
127338765.000000,108230976.000000
127229740.000000,108260189.000000
127117298.000000,108250352.000000
127038914.000000,108217885.000000
Z" /> 
</g>
<g >
</g>
<g style="fill:#000000; fill-opacity:1.0; 
stroke:#000000; stroke-width:1.000000; stroke-opacity:1; 
stroke-linecap:round; stroke-linejoin:round;">
<path style="fill:#000000; fill-opacity:1.0; 
stroke:#000000; stroke-width:1.000000; stroke-opacity:1; 
stroke-linecap:round; stroke-linejoin:round;fill-rule:evenodd;"
d="M 81901428.000000,81750000.000000
80601428.000000,81750000.000000
80601428.000000,80200000.000000
81901428.000000,80200000.000000
Z" /> 
<path style="fill:#000000; fill-opacity:1.0; 
stroke:#000000; stroke-width:1.000000; stroke-opacity:1; 
stroke-linecap:round; stroke-linejoin:round;fill-rule:evenodd;"
d="M 81901428.000000,73800000.000000
80601428.000000,73800000.000000
80601428.000000,72250000.000000
81901428.000000,72250000.000000
Z" /> 
<path style="fill:#000000; fill-opacity:1.0; 
stroke:#000000; stroke-width:1.000000; stroke-opacity:1; 
stroke-linecap:round; stroke-linejoin:round;fill-rule:evenodd;"
d="M 86401428.000000,81750000.000000
85101428.000000,81750000.000000
85101428.000000,80200000.000000
86401428.000000,80200000.000000
Z" /> 
<path style="fill:#000000; fill-opacity:1.0; 
stroke:#000000; stroke-width:1.000000; stroke-opacity:1; 
stroke-linecap:round; stroke-linejoin:round;fill-rule:evenodd;"
d="M 86401428.000000,73800000.000000
85101428.000000,73800000.000000
85101428.000000,72250000.000000
86401428.000000,72250000.000000
Z" /> 
</g>
<g >
</g>
<g >
</g>
<g >
</g>
</g> 
</svg>
