<?xml version="1.0" standalone="no"?>
 <!DOCTYPE svg PUBLIC "-//W3C//DTD SVG 1.1//EN" 
 "http://www.w3.org/Graphics/SVG/1.1/DTD/svg11.dtd"> 
<svg
  xmlns:svg="http://www.w3.org/2000/svg"
  xmlns="http://www.w3.org/2000/svg"
  xmlns:xlink="http://www.w3.org/1999/xlink"
  version="1.1"
  width="29.700220cm" height="21.000720cm" viewBox="0 0 297002200 210007200">
<title>SVG Picture created as suqtagon-base-F_Silkscreen.svg date 2024/03/14 21:59:38 </title>
  <desc>Picture generated by PCBNEW </desc>
<g style="fill:#000000; fill-opacity:1.000000;stroke:#000000; stroke-opacity:1.000000;
stroke-linecap:round; stroke-linejoin:round;"
 transform="translate(0 0) scale(1 1)">
</g>
<g style="fill:#000000; fill-opacity:0.0; 
stroke:#000000; stroke-width:0.000000; stroke-opacity:1; 
stroke-linecap:round; stroke-linejoin:round;">
</g>
<g style="fill:#000000; fill-opacity:0.0; 
stroke:#000000; stroke-width:150000.000000; stroke-opacity:1; 
stroke-linecap:round; stroke-linejoin:round;">
<path d="M57598000 107772200
L57598000 112903000
" />
<path d="M44069000 100460000
L48387000 100460000
" />
<path d="M48996600 126440000
L53314600 126440000
" />
<path d="M72598000 110210600
L72598000 115341400
" />
<path d="M115000000 139573000
L115000000 144703800
" />
<path d="M62992000 133600000
L67310000 133600000
" />
<path d="M85000000 140258800
L85000000 145389600
" />
<path d="M127304000 120610000
L122304000 129270000
" />
<path d="M132500000 123610000
L127304000 120610000
" />
<path d="M100000000 83300000
L100000000 103300000
" />
<path d="M52500000 88970000
L57696000 91970000
" />
<path d="M122304000 57330000
L127500000 54330000
" />
<path d="M90000000 56000000
L90000000 50000000
" />
<path d="M127304000 65990000
L122304000 57330000
" />
<path d="M50000000 93300000
L150000000 93300000
" />
<path d="M67500000 62990000
L72696000 65990000
" />
<path d="M142304000 91970000
L147500000 88970000
" />
<path d="M127500000 132270000
L122304000 129270000
" />
<path d="M127304000 65990000
L132500000 62990000
" />
<path d="M110000000 56000000
L120000000 56000000
" />
<path d="M137304000 103290000
L142500000 106290000
" />
<path d="M80000000 56000000
L90000000 56000000
" />
<path d="M142304000 91970000
L137304000 83310000
" />
<path d="M137304000 103290000
L142304000 94630000
" />
<path d="M77696000 57330000
L72696000 65990000
" />
<path d="M142304000 94630000
L147500000 97630000
" />
<path d="M57696000 91970000
L62696000 83310000
" />
<path d="M110000000 56000000
L110000000 50000000
" />
<path d="M75000000 136600000
L100000000 93300000
" />
<path d="M120000000 56000000
L120000000 50000000
" />
<path d="M72500000 54330000
L77696000 57330000
" />
<path d="M80000000 56000000
L80000000 50000000
" />
<path d="M137304000 83310000
L142500000 80310000
" />
<path d="M57500000 80310000
L62696000 83310000
" />
</g>
<g style="fill:#000000; fill-opacity:0.0; 
stroke:#000000; stroke-width:100000.000000; stroke-opacity:1; 
stroke-linecap:round; stroke-linejoin:round;">
<path d="M75000000 50000000
L125000000 50000000
" />
<path d="M125000000 136600000
L150000000 93300000
" />
<path d="M75000000 136600000
L125000000 136600000
" />
<path d="M50000000 93300000
L75000000 136600000
" />
<path d="M150000000 93300000
L125000000 50000000
" />
<path d="M75000000 50000000
L50000000 93300000
" />
</g>
<g style="fill:#000000; fill-opacity:0.0; 
stroke:#000000; stroke-width:150000.000000; stroke-opacity:1; 
stroke-linecap:round; stroke-linejoin:round;">
<g transform="rotate(-120.000000 54263802.000000 102385000.000000)">
<text x="54263802.000000" y="102885000.000000"
textLength="4435714.000000" font-size="1333333.000000" lengthAdjust="spacingAndGlyphs"
text-anchor="middle" opacity="0">REF**</text>
</g>
<g class="stroked-text"><desc>REF**</desc>
<path d="M55322242 103313510
L55076515 103840280
" />
<path d="M55607956 103808381
L54741930 104308381
L54551454 103978467
L54545075 103872179
L54562504 103807130
L54621173 103718271
L54744891 103646843
L54851179 103640463
L54916228 103657893
L55005087 103716562
L55195563 104046476
" />
<path d="M54654323 103204261
L54487657 102915585
" />
<path d="M54869861 102529963
L55107956 102942356
L54241930 103442356
L54003835 103029963
" />
<path d="M54035276 102132039
L54201943 102420714
" />
<path d="M54655575 102158809
L53789549 102658809
L53551454 102246416
" />
<path d="M53289549 101792784
L53495746 101673736
" />
<path d="M53532315 101927552
L53495746 101673736
L53294220 101515159
" />
<path d="M53732132 101702216
L53495746 101673736
L53589275 101454780
" />
<path d="M52908597 101132955
L53114794 101013907
" />
<path d="M53151363 101267723
L53114794 101013907
L52913267 100855330
" />
<path d="M53351179 101042387
L53114794 101013907
L53208322 100794951
" />
</g><g transform="rotate(-120.000000 69263802.000000 128365000.000000)">
<text x="69263802.000000" y="128865000.000000"
textLength="4480714.000000" font-size="1333333.000000" lengthAdjust="spacingAndGlyphs"
text-anchor="middle" opacity="0">REF**</text>
</g>
<g class="stroked-text"><desc>REF**</desc>
<path d="M70322242 129293510
L70076515 129820280
" />
<path d="M70607956 129788381
L69741930 130288381
L69551454 129958467
L69545075 129852179
L69562504 129787130
L69621173 129698271
L69744891 129626843
L69851179 129620463
L69916228 129637893
L70005087 129696562
L70195563 130026476
" />
<path d="M69654323 129184261
L69487657 128895585
" />
<path d="M69869861 128509963
L70107956 128922356
L69241930 129422356
L69003835 129009963
" />
<path d="M69035276 128112039
L69201943 128400714
" />
<path d="M69655575 128138809
L68789549 128638809
L68551454 128226416
" />
<path d="M68289549 127772784
L68495746 127653736
" />
<path d="M68532315 127907552
L68495746 127653736
L68294220 127495159
" />
<path d="M68732132 127682216
L68495746 127653736
L68589275 127434780
" />
<path d="M67908597 127112955
L68114794 126993907
" />
<path d="M68151363 127247723
L68114794 126993907
L67913267 126835330
" />
<path d="M68351179 127022387
L68114794 126993907
L68208322 126774951
" />
</g><text x="115000000.000000" y="130250000.000000"
textLength="4480714.000000" font-size="1333333.000000" lengthAdjust="spacingAndGlyphs"
text-anchor="middle" opacity="0">REF**</text>
<g class="stroked-text"><desc>REF**</desc>
<path d="M113666666 130202380
L113333333 129726190
" />
<path d="M113095238 130202380
L113095238 129202380
L113476190 129202380
L113571428 129250000
L113619047 129297619
L113666666 129392857
L113666666 129535714
L113619047 129630952
L113571428 129678571
L113476190 129726190
L113095238 129726190
" />
<path d="M114095238 129678571
L114428571 129678571
" />
<path d="M114571428 130202380
L114095238 130202380
L114095238 129202380
L114571428 129202380
" />
<path d="M115333333 129678571
L115000000 129678571
" />
<path d="M115000000 130202380
L115000000 129202380
L115476190 129202380
" />
<path d="M116000000 129202380
L116000000 129440476
" />
<path d="M115761904 129345238
L116000000 129440476
L116238095 129345238
" />
<path d="M115857142 129630952
L116000000 129440476
L116142857 129630952
" />
<path d="M116761904 129202380
L116761904 129440476
" />
<path d="M116523809 129345238
L116761904 129440476
L117000000 129345238
" />
<path d="M116619047 129630952
L116761904 129440476
L116904761 129630952
" />
</g><text x="85000000.000000" y="130250000.000000"
textLength="4480714.000000" font-size="1333333.000000" lengthAdjust="spacingAndGlyphs"
text-anchor="middle" opacity="0">REF**</text>
<g class="stroked-text"><desc>REF**</desc>
<path d="M83666666 130202380
L83333333 129726190
" />
<path d="M83095238 130202380
L83095238 129202380
L83476190 129202380
L83571428 129250000
L83619047 129297619
L83666666 129392857
L83666666 129535714
L83619047 129630952
L83571428 129678571
L83476190 129726190
L83095238 129726190
" />
<path d="M84095238 129678571
L84428571 129678571
" />
<path d="M84571428 130202380
L84095238 130202380
L84095238 129202380
L84571428 129202380
" />
<path d="M85333333 129678571
L85000000 129678571
" />
<path d="M85000000 130202380
L85000000 129202380
L85476190 129202380
" />
<path d="M86000000 129202380
L86000000 129440476
" />
<path d="M85761904 129345238
L86000000 129440476
L86238095 129345238
" />
<path d="M85857142 129630952
L86000000 129440476
L86142857 129630952
" />
<path d="M86761904 129202380
L86761904 129440476
" />
<path d="M86523809 129345238
L86761904 129440476
L87000000 129345238
" />
<path d="M86619047 129630952
L86761904 129440476
L86904761 129630952
" />
</g><text x="115000000.000000" y="49300000.000000"
textLength="4480714.000000" font-size="1333333.000000" lengthAdjust="spacingAndGlyphs"
text-anchor="middle" opacity="0">REF**</text>
<g class="stroked-text"><desc>REF**</desc>
<path d="M113666666 49252380
L113333333 48776190
" />
<path d="M113095238 49252380
L113095238 48252380
L113476190 48252380
L113571428 48300000
L113619047 48347619
L113666666 48442857
L113666666 48585714
L113619047 48680952
L113571428 48728571
L113476190 48776190
L113095238 48776190
" />
<path d="M114095238 48728571
L114428571 48728571
" />
<path d="M114571428 49252380
L114095238 49252380
L114095238 48252380
L114571428 48252380
" />
<path d="M115333333 48728571
L115000000 48728571
" />
<path d="M115000000 49252380
L115000000 48252380
L115476190 48252380
" />
<path d="M116000000 48252380
L116000000 48490476
" />
<path d="M115761904 48395238
L116000000 48490476
L116238095 48395238
" />
<path d="M115857142 48680952
L116000000 48490476
L116142857 48680952
" />
<path d="M116761904 48252380
L116761904 48490476
" />
<path d="M116523809 48395238
L116761904 48490476
L117000000 48395238
" />
<path d="M116619047 48680952
L116761904 48490476
L116904761 48680952
" />
</g><text x="57598000.000000" y="82440000.000000"
textLength="4480714.000000" font-size="1333333.000000" lengthAdjust="spacingAndGlyphs"
text-anchor="middle" opacity="0">REF**</text>
<g class="stroked-text"><desc>REF**</desc>
<path d="M56264666 82392380
L55931333 81916190
" />
<path d="M55693238 82392380
L55693238 81392380
L56074190 81392380
L56169428 81440000
L56217047 81487619
L56264666 81582857
L56264666 81725714
L56217047 81820952
L56169428 81868571
L56074190 81916190
L55693238 81916190
" />
<path d="M56693238 81868571
L57026571 81868571
" />
<path d="M57169428 82392380
L56693238 82392380
L56693238 81392380
L57169428 81392380
" />
<path d="M57931333 81868571
L57598000 81868571
" />
<path d="M57598000 82392380
L57598000 81392380
L58074190 81392380
" />
<path d="M58598000 81392380
L58598000 81630476
" />
<path d="M58359904 81535238
L58598000 81630476
L58836095 81535238
" />
<path d="M58455142 81820952
L58598000 81630476
L58740857 81820952
" />
<path d="M59359904 81392380
L59359904 81630476
" />
<path d="M59121809 81535238
L59359904 81630476
L59598000 81535238
" />
<path d="M59217047 81820952
L59359904 81630476
L59502761 81820952
" />
</g><text x="127402000.000000" y="56460000.000000"
textLength="4480714.000000" font-size="1333333.000000" lengthAdjust="spacingAndGlyphs"
text-anchor="middle" opacity="0">REF**</text>
<g class="stroked-text"><desc>REF**</desc>
<path d="M126068666 56412380
L125735333 55936190
" />
<path d="M125497238 56412380
L125497238 55412380
L125878190 55412380
L125973428 55460000
L126021047 55507619
L126068666 55602857
L126068666 55745714
L126021047 55840952
L125973428 55888571
L125878190 55936190
L125497238 55936190
" />
<path d="M126497238 55888571
L126830571 55888571
" />
<path d="M126973428 56412380
L126497238 56412380
L126497238 55412380
L126973428 55412380
" />
<path d="M127735333 55888571
L127402000 55888571
" />
<path d="M127402000 56412380
L127402000 55412380
L127878190 55412380
" />
<path d="M128402000 55412380
L128402000 55650476
" />
<path d="M128163904 55555238
L128402000 55650476
L128640095 55555238
" />
<path d="M128259142 55840952
L128402000 55650476
L128544857 55840952
" />
<path d="M129163904 55412380
L129163904 55650476
" />
<path d="M128925809 55555238
L129163904 55650476
L129402000 55555238
" />
<path d="M129021047 55840952
L129163904 55650476
L129306761 55840952
" />
</g><text x="72598000.000000" y="56460000.000000"
textLength="4480714.000000" font-size="1333333.000000" lengthAdjust="spacingAndGlyphs"
text-anchor="middle" opacity="0">REF**</text>
<g class="stroked-text"><desc>REF**</desc>
<path d="M71264666 56412380
L70931333 55936190
" />
<path d="M70693238 56412380
L70693238 55412380
L71074190 55412380
L71169428 55460000
L71217047 55507619
L71264666 55602857
L71264666 55745714
L71217047 55840952
L71169428 55888571
L71074190 55936190
L70693238 55936190
" />
<path d="M71693238 55888571
L72026571 55888571
" />
<path d="M72169428 56412380
L71693238 56412380
L71693238 55412380
L72169428 55412380
" />
<path d="M72931333 55888571
L72598000 55888571
" />
<path d="M72598000 56412380
L72598000 55412380
L73074190 55412380
" />
<path d="M73598000 55412380
L73598000 55650476
" />
<path d="M73359904 55555238
L73598000 55650476
L73836095 55555238
" />
<path d="M73455142 55840952
L73598000 55650476
L73740857 55840952
" />
<path d="M74359904 55412380
L74359904 55650476
" />
<path d="M74121809 55555238
L74359904 55650476
L74598000 55555238
" />
<path d="M74217047 55840952
L74359904 55650476
L74502761 55840952
" />
</g><text x="142402000.000000" y="82440000.000000"
textLength="4480714.000000" font-size="1333333.000000" lengthAdjust="spacingAndGlyphs"
text-anchor="middle" opacity="0">REF**</text>
<g class="stroked-text"><desc>REF**</desc>
<path d="M141068666 82392380
L140735333 81916190
" />
<path d="M140497238 82392380
L140497238 81392380
L140878190 81392380
L140973428 81440000
L141021047 81487619
L141068666 81582857
L141068666 81725714
L141021047 81820952
L140973428 81868571
L140878190 81916190
L140497238 81916190
" />
<path d="M141497238 81868571
L141830571 81868571
" />
<path d="M141973428 82392380
L141497238 82392380
L141497238 81392380
L141973428 81392380
" />
<path d="M142735333 81868571
L142402000 81868571
" />
<path d="M142402000 82392380
L142402000 81392380
L142878190 81392380
" />
<path d="M143402000 81392380
L143402000 81630476
" />
<path d="M143163904 81535238
L143402000 81630476
L143640095 81535238
" />
<path d="M143259142 81820952
L143402000 81630476
L143544857 81820952
" />
<path d="M144163904 81392380
L144163904 81630476
" />
<path d="M143925809 81535238
L144163904 81630476
L144402000 81535238
" />
<path d="M144021047 81820952
L144163904 81630476
L144306761 81820952
" />
</g><text x="102158800.000000" y="129365600.000000"
textLength="2147381.000000" font-size="1333333.000000" lengthAdjust="spacingAndGlyphs"
text-anchor="middle" opacity="0">D1</text>
<g class="stroked-text"><desc>D1</desc>
<path d="M101420704 129317980
L101420704 128317980
L101658800 128317980
L101801657 128365600
L101896895 128460838
L101944514 128556076
L101992133 128746552
L101992133 128889409
L101944514 129079885
L101896895 129175123
L101801657 129270361
L101658800 129317980
L101420704 129317980
" />
<path d="M102944514 129317980
L102373085 129317980
" />
<path d="M102658800 129317980
L102658800 128317980
L102563561 128460838
L102468323 128556076
L102373085 128603695
" />
</g><text x="85000000.000000" y="49300000.000000"
textLength="4480714.000000" font-size="1333333.000000" lengthAdjust="spacingAndGlyphs"
text-anchor="middle" opacity="0">REF**</text>
<g class="stroked-text"><desc>REF**</desc>
<path d="M83666666 49252380
L83333333 48776190
" />
<path d="M83095238 49252380
L83095238 48252380
L83476190 48252380
L83571428 48300000
L83619047 48347619
L83666666 48442857
L83666666 48585714
L83619047 48680952
L83571428 48728571
L83476190 48776190
L83095238 48776190
" />
<path d="M84095238 48728571
L84428571 48728571
" />
<path d="M84571428 49252380
L84095238 49252380
L84095238 48252380
L84571428 48252380
" />
<path d="M85333333 48728571
L85000000 48728571
" />
<path d="M85000000 49252380
L85000000 48252380
L85476190 48252380
" />
<path d="M86000000 48252380
L86000000 48490476
" />
<path d="M85761904 48395238
L86000000 48490476
L86238095 48395238
" />
<path d="M85857142 48680952
L86000000 48490476
L86142857 48680952
" />
<path d="M86761904 48252380
L86761904 48490476
" />
<path d="M86523809 48395238
L86761904 48490476
L87000000 48395238
" />
<path d="M86619047 48680952
L86761904 48490476
L86904761 48680952
" />
</g><text x="142402000.000000" y="96760000.000000"
textLength="4480714.000000" font-size="1333333.000000" lengthAdjust="spacingAndGlyphs"
text-anchor="middle" opacity="0">REF**</text>
<g class="stroked-text"><desc>REF**</desc>
<path d="M141068666 96712380
L140735333 96236190
" />
<path d="M140497238 96712380
L140497238 95712380
L140878190 95712380
L140973428 95760000
L141021047 95807619
L141068666 95902857
L141068666 96045714
L141021047 96140952
L140973428 96188571
L140878190 96236190
L140497238 96236190
" />
<path d="M141497238 96188571
L141830571 96188571
" />
<path d="M141973428 96712380
L141497238 96712380
L141497238 95712380
L141973428 95712380
" />
<path d="M142735333 96188571
L142402000 96188571
" />
<path d="M142402000 96712380
L142402000 95712380
L142878190 95712380
" />
<path d="M143402000 95712380
L143402000 95950476
" />
<path d="M143163904 95855238
L143402000 95950476
L143640095 95855238
" />
<path d="M143259142 96140952
L143402000 95950476
L143544857 96140952
" />
<path d="M144163904 95712380
L144163904 95950476
" />
<path d="M143925809 95855238
L144163904 95950476
L144402000 95855238
" />
<path d="M144021047 96140952
L144163904 95950476
L144306761 96140952
" />
</g><text x="127402000.000000" y="122740000.000000"
textLength="4480714.000000" font-size="1333333.000000" lengthAdjust="spacingAndGlyphs"
text-anchor="middle" opacity="0">REF**</text>
<g class="stroked-text"><desc>REF**</desc>
<path d="M126068666 122692380
L125735333 122216190
" />
<path d="M125497238 122692380
L125497238 121692380
L125878190 121692380
L125973428 121740000
L126021047 121787619
L126068666 121882857
L126068666 122025714
L126021047 122120952
L125973428 122168571
L125878190 122216190
L125497238 122216190
" />
<path d="M126497238 122168571
L126830571 122168571
" />
<path d="M126973428 122692380
L126497238 122692380
L126497238 121692380
L126973428 121692380
" />
<path d="M127735333 122168571
L127402000 122168571
" />
<path d="M127402000 122692380
L127402000 121692380
L127878190 121692380
" />
<path d="M128402000 121692380
L128402000 121930476
" />
<path d="M128163904 121835238
L128402000 121930476
L128640095 121835238
" />
<path d="M128259142 122120952
L128402000 121930476
L128544857 122120952
" />
<path d="M129163904 121692380
L129163904 121930476
" />
<path d="M128925809 121835238
L129163904 121930476
L129402000 121835238
" />
<path d="M129021047 122120952
L129163904 121930476
L129306761 122120952
" />
</g><path d="M104108800 129615600
L100208800 129615600
" />
<path d="M100208800 130665600
L100208800 129615600
" />
<path d="M104108800 131890600
L100208800 131890600
" />
<g >
</g>
<g >
</g>
<g >
</g>
<g >
</g>
<g >
</g>
<g >
</g>
<g >
</g>
<g >
</g>
<g >
</g>
<g >
</g>
<g >
</g>
<g >
</g>
<g >
</g>
<g >
</g>
<g >
</g>
<g >
</g>
</g>
<g style="fill:#FFFFFF; fill-opacity:0.0; 
stroke:#FFFFFF; stroke-width:150000.000000; stroke-opacity:1; 
stroke-linecap:round; stroke-linejoin:round;">
</g>
<g style="fill:#FFFFFF; fill-opacity:1.0; 
stroke:#FFFFFF; stroke-width:1.000000; stroke-opacity:1; 
stroke-linecap:round; stroke-linejoin:round;">
<circle cx="57598000.000000" cy="100460000.000000" r="1600000.000000" /> 
</g>
<g style="fill:#FFFFFF; fill-opacity:1.0; 
stroke:#FFFFFF; stroke-width:21200.000000; stroke-opacity:1; 
stroke-linecap:round; stroke-linejoin:round;">
</g>
<g style="fill:#FFFFFF; fill-opacity:1.0; 
stroke:#FFFFFF; stroke-width:1.000000; stroke-opacity:1; 
stroke-linecap:round; stroke-linejoin:round;">
<circle cx="72598000.000000" cy="126440000.000000" r="1600000.000000" /> 
</g>
<g style="fill:#FFFFFF; fill-opacity:1.0; 
stroke:#FFFFFF; stroke-width:21200.000000; stroke-opacity:1; 
stroke-linecap:round; stroke-linejoin:round;">
</g>
<g style="fill:#FFFFFF; fill-opacity:1.0; 
stroke:#FFFFFF; stroke-width:1.000000; stroke-opacity:1; 
stroke-linecap:round; stroke-linejoin:round;">
<circle cx="115000000.000000" cy="133600000.000000" r="1600000.000000" /> 
</g>
<g style="fill:#FFFFFF; fill-opacity:1.0; 
stroke:#FFFFFF; stroke-width:21200.000000; stroke-opacity:1; 
stroke-linecap:round; stroke-linejoin:round;">
</g>
<g style="fill:#FFFFFF; fill-opacity:1.0; 
stroke:#FFFFFF; stroke-width:1.000000; stroke-opacity:1; 
stroke-linecap:round; stroke-linejoin:round;">
<circle cx="85000000.000000" cy="133600000.000000" r="1600000.000000" /> 
</g>
<g style="fill:#FFFFFF; fill-opacity:1.0; 
stroke:#FFFFFF; stroke-width:21200.000000; stroke-opacity:1; 
stroke-linecap:round; stroke-linejoin:round;">
</g>
<g style="fill:#FFFFFF; fill-opacity:1.0; 
stroke:#FFFFFF; stroke-width:1.000000; stroke-opacity:1; 
stroke-linecap:round; stroke-linejoin:round;">
<circle cx="115000000.000000" cy="53000000.000000" r="1599999.500000" /> 
</g>
<g style="fill:#FFFFFF; fill-opacity:1.0; 
stroke:#FFFFFF; stroke-width:21200.000000; stroke-opacity:1; 
stroke-linecap:round; stroke-linejoin:round;">
</g>
<g style="fill:#FFFFFF; fill-opacity:1.0; 
stroke:#FFFFFF; stroke-width:1.000000; stroke-opacity:1; 
stroke-linecap:round; stroke-linejoin:round;">
<circle cx="57598000.000000" cy="86140000.000000" r="1599999.500000" /> 
</g>
<g style="fill:#FFFFFF; fill-opacity:1.0; 
stroke:#FFFFFF; stroke-width:21200.000000; stroke-opacity:1; 
stroke-linecap:round; stroke-linejoin:round;">
</g>
<g style="fill:#FFFFFF; fill-opacity:1.0; 
stroke:#FFFFFF; stroke-width:1.000000; stroke-opacity:1; 
stroke-linecap:round; stroke-linejoin:round;">
<circle cx="127402000.000000" cy="60160000.000000" r="1599999.500000" /> 
</g>
<g style="fill:#FFFFFF; fill-opacity:1.0; 
stroke:#FFFFFF; stroke-width:21200.000000; stroke-opacity:1; 
stroke-linecap:round; stroke-linejoin:round;">
</g>
<g style="fill:#FFFFFF; fill-opacity:1.0; 
stroke:#FFFFFF; stroke-width:1.000000; stroke-opacity:1; 
stroke-linecap:round; stroke-linejoin:round;">
<circle cx="72598000.000000" cy="60160000.000000" r="1599999.500000" /> 
</g>
<g style="fill:#FFFFFF; fill-opacity:1.0; 
stroke:#FFFFFF; stroke-width:21200.000000; stroke-opacity:1; 
stroke-linecap:round; stroke-linejoin:round;">
</g>
<g style="fill:#FFFFFF; fill-opacity:1.0; 
stroke:#FFFFFF; stroke-width:1.000000; stroke-opacity:1; 
stroke-linecap:round; stroke-linejoin:round;">
<circle cx="142402000.000000" cy="86140000.000000" r="1599999.500000" /> 
</g>
<g style="fill:#FFFFFF; fill-opacity:1.0; 
stroke:#FFFFFF; stroke-width:21200.000000; stroke-opacity:1; 
stroke-linecap:round; stroke-linejoin:round;">
</g>
<g style="fill:#FFFFFF; fill-opacity:1.0; 
stroke:#FFFFFF; stroke-width:1.000000; stroke-opacity:1; 
stroke-linecap:round; stroke-linejoin:round;">
<circle cx="85000000.000000" cy="53000000.000000" r="1599999.500000" /> 
</g>
<g style="fill:#FFFFFF; fill-opacity:1.0; 
stroke:#FFFFFF; stroke-width:21200.000000; stroke-opacity:1; 
stroke-linecap:round; stroke-linejoin:round;">
</g>
<g style="fill:#FFFFFF; fill-opacity:1.0; 
stroke:#FFFFFF; stroke-width:1.000000; stroke-opacity:1; 
stroke-linecap:round; stroke-linejoin:round;">
<circle cx="142402000.000000" cy="100460000.000000" r="1599999.500000" /> 
</g>
<g style="fill:#FFFFFF; fill-opacity:1.0; 
stroke:#FFFFFF; stroke-width:21200.000000; stroke-opacity:1; 
stroke-linecap:round; stroke-linejoin:round;">
</g>
<g style="fill:#FFFFFF; fill-opacity:1.0; 
stroke:#FFFFFF; stroke-width:1.000000; stroke-opacity:1; 
stroke-linecap:round; stroke-linejoin:round;">
<circle cx="127402000.000000" cy="126440000.000000" r="1599999.500000" /> 
</g>
<g style="fill:#FFFFFF; fill-opacity:1.0; 
stroke:#FFFFFF; stroke-width:21200.000000; stroke-opacity:1; 
stroke-linecap:round; stroke-linejoin:round;">
</g>
<g style="fill:#000000; fill-opacity:1.0; 
stroke:#000000; stroke-width:21200.000000; stroke-opacity:1; 
stroke-linecap:round; stroke-linejoin:round;">
</g> 
</svg>
