<?xml version="1.0" standalone="no"?>
 <!DOCTYPE svg PUBLIC "-//W3C//DTD SVG 1.1//EN" 
 "http://www.w3.org/Graphics/SVG/1.1/DTD/svg11.dtd"> 
<svg
  xmlns:svg="http://www.w3.org/2000/svg"
  xmlns="http://www.w3.org/2000/svg"
  xmlns:xlink="http://www.w3.org/1999/xlink"
  version="1.1"
  width="29.700220cm" height="21.000720cm" viewBox="0 0 297002200 210007200">
<title>SVG Picture created as suqtagon-base-F_Silkscreen.svg date 2024/03/23 22:23:38 </title>
  <desc>Picture generated by PCBNEW </desc>
<g style="fill:#000000; fill-opacity:1.000000;stroke:#000000; stroke-opacity:1.000000;
stroke-linecap:round; stroke-linejoin:round;"
 transform="translate(0 0) scale(1 1)">
</g>
<g style="fill:#000000; fill-opacity:0.0; 
stroke:#000000; stroke-width:0.000000; stroke-opacity:1; 
stroke-linecap:round; stroke-linejoin:round;">
</g>
<g style="fill:#000000; fill-opacity:0.0; 
stroke:#000000; stroke-width:100000.000000; stroke-opacity:1; 
stroke-linecap:round; stroke-linejoin:round;">
<path d="M75000000 50000000
L125000000 50000000
" />
<path d="M125000000 136600000
L150000000 93300000
" />
<path d="M75000000 136600000
L125000000 136600000
" />
<path d="M50000000 93300000
L75000000 136600000
" />
<path d="M150000000 93300000
L125000000 50000000
" />
<path d="M75000000 50000000
L50000000 93300000
" />
</g>
<g style="fill:#000000; fill-opacity:0.0; 
stroke:#000000; stroke-width:150000.000000; stroke-opacity:1; 
stroke-linecap:round; stroke-linejoin:round;">
<g transform="rotate(-90.000000 86720000.000000 85000000.000000)">
<text x="86720000.000000" y="85500000.000000"
textLength="2102381.000000" font-size="1333333.000000" lengthAdjust="spacingAndGlyphs"
text-anchor="middle" opacity="0">C3</text>
</g>
<g class="stroked-text"><desc>C3</desc>
<path d="M87077142 85166666
L87124761 85214285
L87172380 85357142
L87172380 85452380
L87124761 85595238
L87029523 85690476
L86934285 85738095
L86743809 85785714
L86600952 85785714
L86410476 85738095
L86315238 85690476
L86220000 85595238
L86172380 85452380
L86172380 85357142
L86220000 85214285
L86267619 85166666
" />
<path d="M86172380 84833333
L86172380 84214285
L86553333 84547619
L86553333 84404761
L86600952 84309523
L86648571 84261904
L86743809 84214285
L86981904 84214285
L87077142 84261904
L87124761 84309523
L87172380 84404761
L87172380 84690476
L87124761 84785714
L87077142 84833333
" />
</g><text x="80000000.000000" y="36900000.000000"
textLength="1909286.000000" font-size="1333333.000000" lengthAdjust="spacingAndGlyphs"
text-anchor="middle" opacity="0">J2</text>
<g class="stroked-text"><desc>J2</desc>
<path d="M79666666 35852380
L79666666 36566666
L79619047 36709523
L79523809 36804761
L79380952 36852380
L79285714 36852380
" />
<path d="M80095238 35947619
L80142857 35900000
L80238095 35852380
L80476190 35852380
L80571428 35900000
L80619047 35947619
L80666666 36042857
L80666666 36138095
L80619047 36280952
L80047619 36852380
L80666666 36852380
" />
</g><g transform="rotate(-90.000000 93421200.000000 124663200.000000)">
<text x="93421200.000000" y="125163200.000000"
textLength="2147381.000000" font-size="1333333.000000" lengthAdjust="spacingAndGlyphs"
text-anchor="middle" opacity="0">R4</text>
</g>
<g class="stroked-text"><desc>R4</desc>
<path d="M93873580 124829866
L93397390 125163200
" />
<path d="M93873580 125401295
L92873580 125401295
L92873580 125020342
L92921200 124925104
L92968819 124877485
L93064057 124829866
L93206914 124829866
L93302152 124877485
L93349771 124925104
L93397390 125020342
L93397390 125401295
" />
<path d="M93206914 123972723
L93873580 123972723
" />
<path d="M92825961 124210819
L93540247 124448914
L93540247 123829866
" />
</g><g transform="rotate(-90.000000 104851200.000000 124663200.000000)">
<text x="104851200.000000" y="125163200.000000"
textLength="2147381.000000" font-size="1333333.000000" lengthAdjust="spacingAndGlyphs"
text-anchor="middle" opacity="0">R2</text>
</g>
<g class="stroked-text"><desc>R2</desc>
<path d="M105303580 124829866
L104827390 125163200
" />
<path d="M105303580 125401295
L104303580 125401295
L104303580 125020342
L104351200 124925104
L104398819 124877485
L104494057 124829866
L104636914 124829866
L104732152 124877485
L104779771 124925104
L104827390 125020342
L104827390 125401295
" />
<path d="M104398819 124448914
L104351200 124401295
L104303580 124306057
L104303580 124067961
L104351200 123972723
L104398819 123925104
L104494057 123877485
L104589295 123877485
L104732152 123925104
L105303580 124496533
L105303580 123877485
" />
</g><g transform="rotate(-90.000000 94843600.000000 124663200.000000)">
<text x="94843600.000000" y="125163200.000000"
textLength="2147381.000000" font-size="1333333.000000" lengthAdjust="spacingAndGlyphs"
text-anchor="middle" opacity="0">R1</text>
</g>
<g class="stroked-text"><desc>R1</desc>
<path d="M95295980 124829866
L94819790 125163200
" />
<path d="M95295980 125401295
L94295980 125401295
L94295980 125020342
L94343600 124925104
L94391219 124877485
L94486457 124829866
L94629314 124829866
L94724552 124877485
L94772171 124925104
L94819790 125020342
L94819790 125401295
" />
<path d="M95295980 123877485
L95295980 124448914
" />
<path d="M95295980 124163200
L94295980 124163200
L94438838 124258438
L94534076 124353676
L94581695 124448914
" />
</g><g transform="rotate(-90.000000 79165000.000000 117000000.000000)">
<text x="79165000.000000" y="117500000.000000"
textLength="2147381.000000" font-size="1333333.000000" lengthAdjust="spacingAndGlyphs"
text-anchor="middle" opacity="0">C1</text>
</g>
<g class="stroked-text"><desc>C1</desc>
<path d="M79522142 117166666
L79569761 117214285
L79617380 117357142
L79617380 117452380
L79569761 117595238
L79474523 117690476
L79379285 117738095
L79188809 117785714
L79045952 117785714
L78855476 117738095
L78760238 117690476
L78665000 117595238
L78617380 117452380
L78617380 117357142
L78665000 117214285
L78712619 117166666
" />
<path d="M79617380 116214285
L79617380 116785714
" />
<path d="M79617380 116500000
L78617380 116500000
L78760238 116595238
L78855476 116690476
L78903095 116785714
" />
</g><text x="106172000.000000" y="133088000.000000"
textLength="1909286.000000" font-size="1333333.000000" lengthAdjust="spacingAndGlyphs"
text-anchor="middle" opacity="0">J1</text>
<g class="stroked-text"><desc>J1</desc>
<path d="M105838666 132040380
L105838666 132754666
L105791047 132897523
L105695809 132992761
L105552952 133040380
L105457714 133040380
" />
<path d="M106838666 133040380
L106267238 133040380
" />
<path d="M106552952 133040380
L106552952 132040380
L106457714 132183238
L106362476 132278476
L106267238 132326095
" />
</g><g transform="rotate(-90.000000 106222800.000000 124663200.000000)">
<text x="106222800.000000" y="125163200.000000"
textLength="2147381.000000" font-size="1333333.000000" lengthAdjust="spacingAndGlyphs"
text-anchor="middle" opacity="0">R3</text>
</g>
<g class="stroked-text"><desc>R3</desc>
<path d="M106675180 124829866
L106198990 125163200
" />
<path d="M106675180 125401295
L105675180 125401295
L105675180 125020342
L105722800 124925104
L105770419 124877485
L105865657 124829866
L106008514 124829866
L106103752 124877485
L106151371 124925104
L106198990 125020342
L106198990 125401295
" />
<path d="M105675180 124496533
L105675180 123877485
L106056133 124210819
L106056133 124067961
L106103752 123972723
L106151371 123925104
L106246609 123877485
L106484704 123877485
L106579942 123925104
L106627561 123972723
L106675180 124067961
L106675180 124353676
L106627561 124448914
L106579942 124496533
" />
</g><text x="112885200.000000" y="73950000.000000"
textLength="2147381.000000" font-size="1333333.000000" lengthAdjust="spacingAndGlyphs"
text-anchor="middle" opacity="0">D1</text>
<g class="stroked-text"><desc>D1</desc>
<path d="M112147104 73902380
L112147104 72902380
L112385200 72902380
L112528057 72950000
L112623295 73045238
L112670914 73140476
L112718533 73330952
L112718533 73473809
L112670914 73664285
L112623295 73759523
L112528057 73854761
L112385200 73902380
L112147104 73902380
" />
<path d="M113670914 73902380
L113099485 73902380
" />
<path d="M113385200 73902380
L113385200 72902380
L113289961 73045238
L113194723 73140476
L113099485 73188095
" />
</g><g transform="rotate(-90.000000 120950000.000000 110000000.000000)">
<text x="120950000.000000" y="110500000.000000"
textLength="3242619.000000" font-size="1333333.000000" lengthAdjust="spacingAndGlyphs"
text-anchor="middle" opacity="0">SW2</text>
</g>
<g class="stroked-text"><desc>SW2</desc>
<path d="M121354761 111333333
L121402380 111190476
L121402380 110952380
L121354761 110857142
L121307142 110809523
L121211904 110761904
L121116666 110761904
L121021428 110809523
L120973809 110857142
L120926190 110952380
L120878571 111142857
L120830952 111238095
L120783333 111285714
L120688095 111333333
L120592857 111333333
L120497619 111285714
L120450000 111238095
L120402380 111142857
L120402380 110904761
L120450000 110761904
" />
<path d="M120402380 110428571
L121402380 110190476
L120688095 110000000
L121402380 109809523
L120402380 109571428
" />
<path d="M120497619 109238095
L120450000 109190476
L120402380 109095238
L120402380 108857142
L120450000 108761904
L120497619 108714285
L120592857 108666666
L120688095 108666666
L120830952 108714285
L121402380 109285714
L121402380 108666666
" />
</g><text x="125000000.000000" y="118650000.000000"
textLength="2147381.000000" font-size="1333333.000000" lengthAdjust="spacingAndGlyphs"
text-anchor="middle" opacity="0">R6</text>
<g class="stroked-text"><desc>R6</desc>
<path d="M124833333 118602380
L124500000 118126190
" />
<path d="M124261904 118602380
L124261904 117602380
L124642857 117602380
L124738095 117650000
L124785714 117697619
L124833333 117792857
L124833333 117935714
L124785714 118030952
L124738095 118078571
L124642857 118126190
L124261904 118126190
" />
<path d="M125690476 117602380
L125500000 117602380
L125404761 117650000
L125357142 117697619
L125261904 117840476
L125214285 118030952
L125214285 118411904
L125261904 118507142
L125309523 118554761
L125404761 118602380
L125595238 118602380
L125690476 118554761
L125738095 118507142
L125785714 118411904
L125785714 118173809
L125738095 118078571
L125690476 118030952
L125595238 117983333
L125404761 117983333
L125309523 118030952
L125261904 118078571
L125214285 118173809
" />
</g><text x="100000000.000000" y="82850000.000000"
textLength="6861667.000000" font-size="1333333.000000" lengthAdjust="spacingAndGlyphs"
text-anchor="middle" opacity="0">1111111</text>
<g class="stroked-text"><desc>1111111</desc>
<path d="M97428571 82802380
L96857142 82802380
" />
<path d="M97142857 82802380
L97142857 81802380
L97047619 81945238
L96952380 82040476
L96857142 82088095
" />
<path d="M98380952 82802380
L97809523 82802380
" />
<path d="M98095238 82802380
L98095238 81802380
L98000000 81945238
L97904761 82040476
L97809523 82088095
" />
<path d="M99333333 82802380
L98761904 82802380
" />
<path d="M99047619 82802380
L99047619 81802380
L98952380 81945238
L98857142 82040476
L98761904 82088095
" />
<path d="M100285714 82802380
L99714285 82802380
" />
<path d="M100000000 82802380
L100000000 81802380
L99904761 81945238
L99809523 82040476
L99714285 82088095
" />
<path d="M101238095 82802380
L100666666 82802380
" />
<path d="M100952380 82802380
L100952380 81802380
L100857142 81945238
L100761904 82040476
L100666666 82088095
" />
<path d="M102190476 82802380
L101619047 82802380
" />
<path d="M101904761 82802380
L101904761 81802380
L101809523 81945238
L101714285 82040476
L101619047 82088095
" />
<path d="M103142857 82802380
L102571428 82802380
" />
<path d="M102857142 82802380
L102857142 81802380
L102761904 81945238
L102666666 82040476
L102571428 82088095
" />
</g><g transform="rotate(-90.000000 79165000.000000 113000000.000000)">
<text x="79165000.000000" y="113500000.000000"
textLength="2147381.000000" font-size="1333333.000000" lengthAdjust="spacingAndGlyphs"
text-anchor="middle" opacity="0">C2</text>
</g>
<g class="stroked-text"><desc>C2</desc>
<path d="M79522142 113166666
L79569761 113214285
L79617380 113357142
L79617380 113452380
L79569761 113595238
L79474523 113690476
L79379285 113738095
L79188809 113785714
L79045952 113785714
L78855476 113738095
L78760238 113690476
L78665000 113595238
L78617380 113452380
L78617380 113357142
L78665000 113214285
L78712619 113166666
" />
<path d="M78712619 112785714
L78665000 112738095
L78617380 112642857
L78617380 112404761
L78665000 112309523
L78712619 112261904
L78807857 112214285
L78903095 112214285
L79045952 112261904
L79617380 112833333
L79617380 112214285
" />
</g><text x="80000000.000000" y="85350000.000000"
textLength="2147381.000000" font-size="1333333.000000" lengthAdjust="spacingAndGlyphs"
text-anchor="middle" opacity="0">R5</text>
<g class="stroked-text"><desc>R5</desc>
<path d="M79833333 85302380
L79500000 84826190
" />
<path d="M79261904 85302380
L79261904 84302380
L79642857 84302380
L79738095 84350000
L79785714 84397619
L79833333 84492857
L79833333 84635714
L79785714 84730952
L79738095 84778571
L79642857 84826190
L79261904 84826190
" />
<path d="M80738095 84302380
L80261904 84302380
L80214285 84778571
L80261904 84730952
L80357142 84683333
L80595238 84683333
L80690476 84730952
L80738095 84778571
L80785714 84873809
L80785714 85111904
L80738095 85207142
L80690476 85254761
L80595238 85302380
L80357142 85302380
L80261904 85254761
L80214285 85207142
" />
</g><text x="111750000.000000" y="36900000.000000"
textLength="1909286.000000" font-size="1333333.000000" lengthAdjust="spacingAndGlyphs"
text-anchor="middle" opacity="0">J3</text>
<g class="stroked-text"><desc>J3</desc>
<path d="M111416666 35852380
L111416666 36566666
L111369047 36709523
L111273809 36804761
L111130952 36852380
L111035714 36852380
" />
<path d="M111797619 35852380
L112416666 35852380
L112083333 36233333
L112226190 36233333
L112321428 36280952
L112369047 36328571
L112416666 36423809
L112416666 36661904
L112369047 36757142
L112321428 36804761
L112226190 36852380
L111940476 36852380
L111845238 36804761
L111797619 36757142
" />
</g><text x="85000000.000000" y="118850000.000000"
textLength="2147381.000000" font-size="1333333.000000" lengthAdjust="spacingAndGlyphs"
text-anchor="middle" opacity="0">D2</text>
<g class="stroked-text"><desc>D2</desc>
<path d="M84261904 118802380
L84261904 117802380
L84500000 117802380
L84642857 117850000
L84738095 117945238
L84785714 118040476
L84833333 118230952
L84833333 118373809
L84785714 118564285
L84738095 118659523
L84642857 118754761
L84500000 118802380
L84261904 118802380
" />
<path d="M85214285 117897619
L85261904 117850000
L85357142 117802380
L85595238 117802380
L85690476 117850000
L85738095 117897619
L85785714 117992857
L85785714 118088095
L85738095 118230952
L85166666 118802380
L85785714 118802380
" />
</g><text x="87500000.000000" y="110950000.000000"
textLength="2195000.000000" font-size="1333333.000000" lengthAdjust="spacingAndGlyphs"
text-anchor="middle" opacity="0">U1</text>
<g class="stroked-text"><desc>U1</desc>
<path d="M86738095 109902380
L86738095 110711904
L86785714 110807142
L86833333 110854761
L86928571 110902380
L87119047 110902380
L87214285 110854761
L87261904 110807142
L87309523 110711904
L87309523 109902380
" />
<path d="M88309523 110902380
L87738095 110902380
" />
<path d="M88023809 110902380
L88023809 109902380
L87928571 110045238
L87833333 110140476
L87738095 110188095
" />
</g><g transform="rotate(-90.000000 75950000.000000 80000000.000000)">
<text x="75950000.000000" y="80500000.000000"
textLength="3242619.000000" font-size="1333333.000000" lengthAdjust="spacingAndGlyphs"
text-anchor="middle" opacity="0">SW1</text>
</g>
<g class="stroked-text"><desc>SW1</desc>
<path d="M76354761 81333333
L76402380 81190476
L76402380 80952380
L76354761 80857142
L76307142 80809523
L76211904 80761904
L76116666 80761904
L76021428 80809523
L75973809 80857142
L75926190 80952380
L75878571 81142857
L75830952 81238095
L75783333 81285714
L75688095 81333333
L75592857 81333333
L75497619 81285714
L75450000 81238095
L75402380 81142857
L75402380 80904761
L75450000 80761904
" />
<path d="M75402380 80428571
L76402380 80190476
L75688095 80000000
L76402380 79809523
L75402380 79571428
" />
<path d="M76402380 78666666
L76402380 79238095
" />
<path d="M76402380 78952380
L75402380 78952380
L75545238 79047619
L75640476 79142857
L75688095 79238095
" />
</g></g>
<g style="fill:#000000; fill-opacity:0.0; 
stroke:#000000; stroke-width:120000.000000; stroke-opacity:1; 
stroke-linecap:round; stroke-linejoin:round;">
<path d="M87665000 85261252
L87665000 84738748
" />
<path d="M89135000 85261252
L89135000 84738748
" />
<path d="M77400000 42600000
L82600000 42600000
" />
<path d="M77400000 39490000
L77400000 40510000
" />
<path d="M82600000 37400000
L82600000 37970000
" />
<path d="M77400000 37400000
L77400000 37970000
" />
<path d="M75960000 37970000
L77400000 37970000
" />
<path d="M77400000 37400000
L82600000 37400000
" />
<path d="M82600000 42030000
L82600000 42600000
" />
<path d="M82600000 39490000
L82600000 40510000
" />
<path d="M77400000 42030000
L77400000 42600000
" />
<path d="M97255000 124839464
L97255000 124385336
" />
<path d="M95785000 124839464
L95785000 124385336
" />
<path d="M100204600 124839464
L100204600 124385336
" />
<path d="M101674600 124839464
L101674600 124385336
" />
<path d="M97969400 124839464
L97969400 124385336
" />
<path d="M99439400 124839464
L99439400 124385336
" />
<path d="M80110000 117261252
L80110000 116738748
" />
<path d="M81580000 117261252
L81580000 116738748
" />
<path d="M95300000 136500000
L104700000 136500000
" />
<path d="M95300000 130700000
L95300000 132700000
" />
<path d="M104700000 130700000
L104700000 132700000
" />
<path d="M95300000 134600000
L95300000 136500000
" />
<path d="M104700000 134600000
L104700000 136500000
" />
<path d="M102389000 124839464
L102389000 124385336
" />
<path d="M103859000 124839464
L103859000 124385336
" />
</g>
<g style="fill:#000000; fill-opacity:0.0; 
stroke:#000000; stroke-width:150000.000000; stroke-opacity:1; 
stroke-linecap:round; stroke-linejoin:round;">
<path d="M114835200 74200000
L110935200 74200000
" />
<path d="M110935200 75250000
L110935200 74200000
" />
<path d="M114835200 76475000
L110935200 76475000
" />
</g>
<g style="fill:#000000; fill-opacity:0.0; 
stroke:#000000; stroke-width:120000.000000; stroke-opacity:1; 
stroke-linecap:round; stroke-linejoin:round;">
<path d="M121770000 113230000
L121770000 106770000
" />
<path d="M128230000 113230000
L128200000 113230000
" />
<path d="M128230000 113230000
L128230000 106770000
" />
<path d="M123700000 106770000
L126300000 106770000
" />
<path d="M123700000 113230000
L126300000 113230000
" />
<path d="M121770000 106770000
L121800000 106770000
" />
<path d="M128230000 106770000
L128200000 106770000
" />
<path d="M121800000 113230000
L121770000 113230000
" />
<path d="M125227064 115765000
L124772936 115765000
" />
<path d="M125227064 117235000
L124772936 117235000
" />
<path d="M109000000 83850000
L91000000 83850000
" />
<path d="M109150000 103200000
L108150000 103200000
" />
<path d="M109000000 83850000
L109000000 84350000
" />
<path d="M91000000 83850000
L91000000 84350000
" />
<path d="M109150000 84350000
L109150000 83700000
" />
<path d="M91000000 102200000
L91000000 103050000
" />
<path d="M109000000 102300000
L109000000 103050000
" />
<path d="M90850000 103200000
L91850000 103200000
" />
<path d="M90800000 83700000
L91900000 83700000
" />
<path d="M109000000 103050000
L107650000 103050000
" />
<path d="M91000000 103050000
L92300000 103050000
" />
<path d="M109150000 102300000
L109150000 103200000
" />
<path d="M90850000 103200000
L90850000 102200000
" />
<path d="M109150000 83700000
L108150000 83700000
" />
<path d="M81580000 113261252
L81580000 112738748
" />
<path d="M80110000 113261252
L80110000 112738748
" />
<path d="M79772936 85765000
L80227064 85765000
" />
<path d="M79772936 87235000
L80227064 87235000
" />
<path d="M109150000 37400000
L114350000 37400000
" />
<path d="M109150000 39490000
L109150000 40510000
" />
<path d="M109150000 37400000
L109150000 37970000
" />
<path d="M109150000 42600000
L114350000 42600000
" />
<path d="M107710000 37970000
L109150000 37970000
" />
<path d="M114350000 37400000
L114350000 37970000
" />
<path d="M109150000 42030000
L109150000 42600000
" />
<path d="M114350000 42030000
L114350000 42600000
" />
<path d="M114350000 39490000
L114350000 40510000
" />
<path d="M83140000 119040000
L83140000 120960000
" />
<path d="M86000000 119040000
L83140000 119040000
" />
<path d="M83140000 120960000
L86000000 120960000
" />
<path d="M89410000 118360000
L89410000 117100000
" />
<path d="M83400000 111540000
L89410000 111540000
" />
<path d="M85650000 118360000
L89410000 118360000
" />
<path d="M89410000 111540000
L89410000 112800000
" />
<path d="M83230000 83230000
L83200000 83230000
" />
<path d="M78700000 76770000
L81300000 76770000
" />
<path d="M83230000 76770000
L83200000 76770000
" />
<path d="M78700000 83230000
L81300000 83230000
" />
<path d="M76800000 83230000
L76770000 83230000
" />
<path d="M83230000 83230000
L83230000 76770000
" />
<path d="M76770000 83230000
L76770000 76770000
" />
<path d="M76770000 76770000
L76800000 76770000
" />
<g >
</g>
<g >
</g>
<g >
</g>
<g >
</g>
<g >
</g>
<g >
</g>
<g >
</g>
<g >
</g>
<g >
</g>
<g >
</g>
<g >
</g>
<g >
</g>
<g >
</g>
<g >
</g>
<g >
</g>
<g >
</g>
<g >
</g>
<g >
</g>
<g >
</g>
<g >
</g>
<g >
</g>
<g >
</g>
<g >
</g>
<g >
</g>
<g >
</g>
<g >
</g>
<g >
</g>
<g >
</g>
<g >
</g>
<g >
</g>
<g >
</g>
<g >
</g>
<g >
</g>
</g>
<g style="fill:#FFFFFF; fill-opacity:0.0; 
stroke:#FFFFFF; stroke-width:120000.000000; stroke-opacity:1; 
stroke-linecap:round; stroke-linejoin:round;">
</g>
<g style="fill:#FFFFFF; fill-opacity:1.0; 
stroke:#FFFFFF; stroke-width:1.000000; stroke-opacity:1; 
stroke-linecap:round; stroke-linejoin:round;">
<circle cx="74330000.000000" cy="125440000.000000" r="1600000.000000" /> 
</g>
<g style="fill:#FFFFFF; fill-opacity:1.0; 
stroke:#FFFFFF; stroke-width:21200.000000; stroke-opacity:1; 
stroke-linecap:round; stroke-linejoin:round;">
</g>
<g style="fill:#FFFFFF; fill-opacity:1.0; 
stroke:#FFFFFF; stroke-width:1.000000; stroke-opacity:1; 
stroke-linecap:round; stroke-linejoin:round;">
<circle cx="85000000.000000" cy="55000000.000000" r="1600000.000000" /> 
</g>
<g style="fill:#FFFFFF; fill-opacity:1.0; 
stroke:#FFFFFF; stroke-width:21200.000000; stroke-opacity:1; 
stroke-linecap:round; stroke-linejoin:round;">
</g>
<g style="fill:#FFFFFF; fill-opacity:1.0; 
stroke:#FFFFFF; stroke-width:1.000000; stroke-opacity:1; 
stroke-linecap:round; stroke-linejoin:round;">
<circle cx="115000000.000000" cy="55000000.000000" r="1600000.000000" /> 
</g>
<g style="fill:#FFFFFF; fill-opacity:1.0; 
stroke:#FFFFFF; stroke-width:21200.000000; stroke-opacity:1; 
stroke-linecap:round; stroke-linejoin:round;">
</g>
<g style="fill:#FFFFFF; fill-opacity:1.0; 
stroke:#FFFFFF; stroke-width:1.000000; stroke-opacity:1; 
stroke-linecap:round; stroke-linejoin:round;">
<circle cx="140670000.000000" cy="87140000.000000" r="1600000.000000" /> 
</g>
<g style="fill:#FFFFFF; fill-opacity:1.0; 
stroke:#FFFFFF; stroke-width:21200.000000; stroke-opacity:1; 
stroke-linecap:round; stroke-linejoin:round;">
</g>
<g style="fill:#FFFFFF; fill-opacity:1.0; 
stroke:#FFFFFF; stroke-width:1.000000; stroke-opacity:1; 
stroke-linecap:round; stroke-linejoin:round;">
<circle cx="59330000.000000" cy="99460000.000000" r="1600000.000000" /> 
</g>
<g style="fill:#FFFFFF; fill-opacity:1.0; 
stroke:#FFFFFF; stroke-width:21200.000000; stroke-opacity:1; 
stroke-linecap:round; stroke-linejoin:round;">
</g>
<g style="fill:#FFFFFF; fill-opacity:1.0; 
stroke:#FFFFFF; stroke-width:1.000000; stroke-opacity:1; 
stroke-linecap:round; stroke-linejoin:round;">
<circle cx="85000000.000000" cy="131600000.000000" r="1600000.000000" /> 
</g>
<g style="fill:#FFFFFF; fill-opacity:1.0; 
stroke:#FFFFFF; stroke-width:21200.000000; stroke-opacity:1; 
stroke-linecap:round; stroke-linejoin:round;">
</g>
<g style="fill:#FFFFFF; fill-opacity:1.0; 
stroke:#FFFFFF; stroke-width:1.000000; stroke-opacity:1; 
stroke-linecap:round; stroke-linejoin:round;">
<circle cx="115000000.000000" cy="131600000.000000" r="1600000.000000" /> 
</g>
<g style="fill:#FFFFFF; fill-opacity:1.0; 
stroke:#FFFFFF; stroke-width:21200.000000; stroke-opacity:1; 
stroke-linecap:round; stroke-linejoin:round;">
</g>
<g style="fill:#FFFFFF; fill-opacity:1.0; 
stroke:#FFFFFF; stroke-width:1.000000; stroke-opacity:1; 
stroke-linecap:round; stroke-linejoin:round;">
<circle cx="125670000.000000" cy="61160000.000000" r="1600000.000000" /> 
</g>
<g style="fill:#FFFFFF; fill-opacity:1.0; 
stroke:#FFFFFF; stroke-width:21200.000000; stroke-opacity:1; 
stroke-linecap:round; stroke-linejoin:round;">
</g>
<g style="fill:#FFFFFF; fill-opacity:1.0; 
stroke:#FFFFFF; stroke-width:1.000000; stroke-opacity:1; 
stroke-linecap:round; stroke-linejoin:round;">
<circle cx="140670000.000000" cy="99460000.000000" r="1600000.000000" /> 
</g>
<g style="fill:#FFFFFF; fill-opacity:1.0; 
stroke:#FFFFFF; stroke-width:21200.000000; stroke-opacity:1; 
stroke-linecap:round; stroke-linejoin:round;">
</g>
<g style="fill:#FFFFFF; fill-opacity:1.0; 
stroke:#FFFFFF; stroke-width:1.000000; stroke-opacity:1; 
stroke-linecap:round; stroke-linejoin:round;">
<circle cx="59330000.000000" cy="87140000.000000" r="1600000.000000" /> 
</g>
<g style="fill:#FFFFFF; fill-opacity:1.0; 
stroke:#FFFFFF; stroke-width:21200.000000; stroke-opacity:1; 
stroke-linecap:round; stroke-linejoin:round;">
</g>
<g style="fill:#FFFFFF; fill-opacity:1.0; 
stroke:#FFFFFF; stroke-width:1.000000; stroke-opacity:1; 
stroke-linecap:round; stroke-linejoin:round;">
<circle cx="102890000.000000" cy="130000000.000000" r="324999.500000" /> 
</g>
<g style="fill:#FFFFFF; fill-opacity:1.0; 
stroke:#FFFFFF; stroke-width:21200.000000; stroke-opacity:1; 
stroke-linecap:round; stroke-linejoin:round;">
</g>
<g style="fill:#FFFFFF; fill-opacity:1.0; 
stroke:#FFFFFF; stroke-width:1.000000; stroke-opacity:1; 
stroke-linecap:round; stroke-linejoin:round;">
<circle cx="97110000.000000" cy="130000000.000000" r="324999.500000" /> 
</g>
<g style="fill:#FFFFFF; fill-opacity:1.0; 
stroke:#FFFFFF; stroke-width:21200.000000; stroke-opacity:1; 
stroke-linecap:round; stroke-linejoin:round;">
</g>
<g style="fill:#FFFFFF; fill-opacity:1.0; 
stroke:#FFFFFF; stroke-width:600000.000000; stroke-opacity:1; 
stroke-linecap:round; stroke-linejoin:round;">
</g>
<g style="fill:#FFFFFF; fill-opacity:0.0; 
stroke:#FFFFFF; stroke-width:600000.000000; stroke-opacity:1; 
stroke-linecap:round; stroke-linejoin:round;">
<path d="M95680000 133350000
L95680000 133950000
" />
<path d="M95680000 128920000
L95680000 130020000
" />
<path d="M104320000 133350000
L104320000 133950000
" />
<path d="M104320000 128920000
L104320000 130020000
" />
</g>
<g style="fill:#FFFFFF; fill-opacity:1.0; 
stroke:#FFFFFF; stroke-width:1.000000; stroke-opacity:1; 
stroke-linecap:round; stroke-linejoin:round;">
<circle cx="74330000.000000" cy="61160000.000000" r="1600000.000000" /> 
</g>
<g style="fill:#FFFFFF; fill-opacity:1.0; 
stroke:#FFFFFF; stroke-width:21200.000000; stroke-opacity:1; 
stroke-linecap:round; stroke-linejoin:round;">
</g>
<g style="fill:#FFFFFF; fill-opacity:1.0; 
stroke:#FFFFFF; stroke-width:1.000000; stroke-opacity:1; 
stroke-linecap:round; stroke-linejoin:round;">
<circle cx="125670000.000000" cy="125440000.000000" r="1600000.000000" /> 
</g>
<g style="fill:#FFFFFF; fill-opacity:1.0; 
stroke:#FFFFFF; stroke-width:21200.000000; stroke-opacity:1; 
stroke-linecap:round; stroke-linejoin:round;">
</g>
<g style="fill:#000000; fill-opacity:1.0; 
stroke:#000000; stroke-width:21200.000000; stroke-opacity:1; 
stroke-linecap:round; stroke-linejoin:round;">
</g> 
</svg>
