<?xml version="1.0" standalone="no"?>
 <!DOCTYPE svg PUBLIC "-//W3C//DTD SVG 1.1//EN" 
 "http://www.w3.org/Graphics/SVG/1.1/DTD/svg11.dtd"> 
<svg
  xmlns:svg="http://www.w3.org/2000/svg"
  xmlns="http://www.w3.org/2000/svg"
  xmlns:xlink="http://www.w3.org/1999/xlink"
  version="1.1"
  width="29.700220cm" height="21.000720cm" viewBox="0 0 297002200 210007200">
<title>SVG Picture created as suqtagon-base-Edge_Cuts.svg date 2024/04/21 19:27:07 </title>
  <desc>Picture generated by PCBNEW </desc>
<g style="fill:#000000; fill-opacity:1.000000;stroke:#000000; stroke-opacity:1.000000;
stroke-linecap:round; stroke-linejoin:round;"
 transform="translate(0 0) scale(1 1)">
</g>
<g style="fill:#000000; fill-opacity:0.0; 
stroke:#000000; stroke-width:0.000000; stroke-opacity:1; 
stroke-linecap:round; stroke-linejoin:round;">
</g>
<g style="fill:#000000; fill-opacity:0.0; 
stroke:#000000; stroke-width:100000.000000; stroke-opacity:1; 
stroke-linecap:round; stroke-linejoin:round;">
<path d="M75000000 50000000
L125000000 50000000
" />
<path d="M125000000 136600000
L150000000 93300000
" />
<path d="M75000000 136600000
L125000000 136600000
" />
<path d="M50000000 93300000
L75000000 136600000
" />
<path d="M150000000 93300000
L125000000 50000000
" />
<path d="M75000000 50000000
L50000000 93300000
" />
</g>
<g style="fill:#000000; fill-opacity:0.0; 
stroke:#000000; stroke-width:120000.000000; stroke-opacity:1; 
stroke-linecap:round; stroke-linejoin:round;">
<path d="M121450000 91500000
L118550000 91500000
" />
<path d="M118300000 88750000
L118300000 91250000
" />
<path d="M118550000 88500000
L121450000 88500000
" />
<path d="M121700000 91250000
L121700000 88750000
" />
<path d="M121700000.000000 88750000.000000 A250000.000000 250000.000000 0.0 0 0 121450000.000000 88500000.000000" />
<path d="M121450000.000000 91500000.000000 A250000.000000 250000.000000 0.0 0 0 121700000.000000 91250000.000000" />
<path d="M118300000.000002 91250000.000000 A249999.000000 249999.000000 0.0 0 0 118550000.000000 91499999.999998" />
<path d="M118550000.000000 88500000.000002 A249999.000000 249999.000000 0.0 0 0 118300000.000002 88750000.000000" />
<g >
</g>
<g >
</g>
<g >
</g>
<g >
</g>
<g >
</g>
<g >
</g>
<g >
</g>
<g >
</g>
<g >
</g>
<g >
</g>
<g >
</g>
<g >
</g>
<g >
</g>
<g >
</g>
<g >
</g>
<g >
</g>
<g >
</g>
<g >
</g>
<g >
</g>
<g >
</g>
<g >
</g>
<g >
</g>
<g >
</g>
<g >
</g>
<g >
</g>
<g >
</g>
<g >
</g>
<g >
</g>
<g >
</g>
<g >
</g>
<g >
</g>
<g >
</g>
<g >
</g>
<g >
</g>
<g >
</g>
<g >
</g>
<g >
</g>
<g >
</g>
<g >
</g>
<g >
</g>
<g >
</g>
<g >
</g>
</g> 
</svg>
