<?xml version="1.0" standalone="no"?>
 <!DOCTYPE svg PUBLIC "-//W3C//DTD SVG 1.1//EN" 
 "http://www.w3.org/Graphics/SVG/1.1/DTD/svg11.dtd"> 
<svg
  xmlns:svg="http://www.w3.org/2000/svg"
  xmlns="http://www.w3.org/2000/svg"
  xmlns:xlink="http://www.w3.org/1999/xlink"
  version="1.1"
  width="29.700220cm" height="21.000720cm" viewBox="0 0 297002200 210007200">
<title>SVG Picture created as suqtagon-base-F_Mask.svg date 2024/03/23 22:23:38 </title>
  <desc>Picture generated by PCBNEW </desc>
<g style="fill:#000000; fill-opacity:1.000000;stroke:#000000; stroke-opacity:1.000000;
stroke-linecap:round; stroke-linejoin:round;"
 transform="translate(0 0) scale(1 1)">
</g>
<g style="fill:#000000; fill-opacity:0.0; 
stroke:#000000; stroke-width:0.000000; stroke-opacity:1; 
stroke-linecap:round; stroke-linejoin:round;">
</g>
<g style="fill:#000000; fill-opacity:0.0; 
stroke:#000000; stroke-width:150000.000000; stroke-opacity:1; 
stroke-linecap:round; stroke-linejoin:round;">
</g>
<g style="fill:#000000; fill-opacity:1.0; 
stroke:#000000; stroke-width:150000.000000; stroke-opacity:1; 
stroke-linecap:round; stroke-linejoin:round;">
<path style="fill:#000000; fill-opacity:1.0; 
stroke:#000000; stroke-width:150000.000000; stroke-opacity:1; 
stroke-linecap:round; stroke-linejoin:round;fill-rule:evenodd;"
d="M 115000000.000000,75000000.000000
110885200.000000,75000000.000000
106080988.000000,63359876.000000
121270188.000000,63258276.000000
Z" /> 
</g>
<g style="fill:#000000; fill-opacity:1.0; 
stroke:#000000; stroke-width:100000.000000; stroke-opacity:1; 
stroke-linecap:round; stroke-linejoin:round;">
</g>
<g style="fill:#000000; fill-opacity:0.0; 
stroke:#000000; stroke-width:100000.000000; stroke-opacity:1; 
stroke-linecap:round; stroke-linejoin:round;">
<path d="M75000000 50000000
L125000000 50000000
" />
<path d="M125000000 136600000
L150000000 93300000
" />
<path d="M75000000 136600000
L125000000 136600000
" />
<path d="M50000000 93300000
L75000000 136600000
" />
<path d="M150000000 93300000
L125000000 50000000
" />
<path d="M75000000 50000000
L50000000 93300000
" />
<g >
</g>
<g style="fill:#000000; fill-opacity:0.0; 
stroke:#000000; stroke-width:1.000000; stroke-opacity:1; 
stroke-linecap:round; stroke-linejoin:round;">
</g>
<g style="fill:#000000; fill-opacity:1.0; 
stroke:#000000; stroke-width:1.000000; stroke-opacity:1; 
stroke-linecap:round; stroke-linejoin:round;">
<path style="fill:#000000; fill-opacity:1.0; 
stroke:#000000; stroke-width:1.000000; stroke-opacity:1; 
stroke-linecap:round; stroke-linejoin:round;fill-rule:evenodd;"
d="M 79131121.000000,124255785.000000
79198406.000000,124388410.000000
79273910.000000,124608315.000000
79311284.000000,124837796.000000
79309457.000000,125070294.000000
79268484.000000,125299161.000000
79189534.000000,125517852.000000
79074867.000000,125720115.000000
78927759.000000,125900165.000000
78752419.000000,126052856.000000
78627836.000000,126134070.000000
72782164.000000,129509070.000000
72649539.000000,129576355.000000
72429635.000000,129651859.000000
72200153.000000,129689233.000000
71967655.000000,129687406.000000
71738788.000000,129646433.000000
71520097.000000,129567483.000000
71317834.000000,129452816.000000
71137784.000000,129305709.000000
70985093.000000,129130368.000000
70903879.000000,129005785.000000
69528879.000000,126624215.000000
69461594.000000,126491590.000000
69386090.000000,126271685.000000
69348716.000000,126042204.000000
69350543.000000,125809706.000000
69391516.000000,125580839.000000
69470466.000000,125362148.000000
69585133.000000,125159885.000000
69732241.000000,124979835.000000
69907581.000000,124827144.000000
70032164.000000,124745930.000000
75877836.000000,121370930.000000
76010461.000000,121303645.000000
76230365.000000,121228141.000000
76459847.000000,121190767.000000
76692345.000000,121192594.000000
76921212.000000,121233567.000000
77139903.000000,121312517.000000
77342166.000000,121427184.000000
77522216.000000,121574291.000000
77674907.000000,121749632.000000
77756121.000000,121874215.000000
Z" /> 
</g>
<g >
</g>
<g style="fill:#000000; fill-opacity:1.0; 
stroke:#000000; stroke-width:1.000000; stroke-opacity:1; 
stroke-linecap:round; stroke-linejoin:round;">
<path style="fill:#000000; fill-opacity:1.0; 
stroke:#000000; stroke-width:1.000000; stroke-opacity:1; 
stroke-linecap:round; stroke-linejoin:round;fill-rule:evenodd;"
d="M 83625000.000000,59750000.000000
83476501.000000,59741958.000000
83248306.000000,59697394.000000
83030882.000000,59615020.000000
82830446.000000,59497189.000000
82652728.000000,59347272.000000
82502811.000000,59169554.000000
82384980.000000,58969118.000000
82302606.000000,58751694.000000
82258042.000000,58523499.000000
82250000.000000,58375000.000000
82250000.000000,51625000.000000
82258042.000000,51476501.000000
82302606.000000,51248306.000000
82384980.000000,51030882.000000
82502811.000000,50830446.000000
82652728.000000,50652728.000000
82830446.000000,50502811.000000
83030882.000000,50384980.000000
83248306.000000,50302606.000000
83476501.000000,50258042.000000
83625000.000000,50250000.000000
86375000.000000,50250000.000000
86523499.000000,50258042.000000
86751694.000000,50302606.000000
86969118.000000,50384980.000000
87169554.000000,50502811.000000
87347272.000000,50652728.000000
87497189.000000,50830446.000000
87615020.000000,51030882.000000
87697394.000000,51248306.000000
87741958.000000,51476501.000000
87750000.000000,51625000.000000
87750000.000000,58375000.000000
87741958.000000,58523499.000000
87697394.000000,58751694.000000
87615020.000000,58969118.000000
87497189.000000,59169554.000000
87347272.000000,59347272.000000
87169554.000000,59497189.000000
86969118.000000,59615020.000000
86751694.000000,59697394.000000
86523499.000000,59741958.000000
86375000.000000,59750000.000000
Z" /> 
</g>
<g >
</g>
<g style="fill:#000000; fill-opacity:1.0; 
stroke:#000000; stroke-width:1.000000; stroke-opacity:1; 
stroke-linecap:round; stroke-linejoin:round;">
<path style="fill:#000000; fill-opacity:1.0; 
stroke:#000000; stroke-width:1.000000; stroke-opacity:1; 
stroke-linecap:round; stroke-linejoin:round;fill-rule:evenodd;"
d="M 116375000.000000,50250000.000000
116523499.000000,50258042.000000
116751694.000000,50302606.000000
116969118.000000,50384980.000000
117169554.000000,50502811.000000
117347272.000000,50652728.000000
117497189.000000,50830446.000000
117615020.000000,51030882.000000
117697394.000000,51248306.000000
117741958.000000,51476501.000000
117750000.000000,51625000.000000
117750000.000000,58375000.000000
117741958.000000,58523499.000000
117697394.000000,58751694.000000
117615020.000000,58969118.000000
117497189.000000,59169554.000000
117347272.000000,59347272.000000
117169554.000000,59497189.000000
116969118.000000,59615020.000000
116751694.000000,59697394.000000
116523499.000000,59741958.000000
116375000.000000,59750000.000000
113625000.000000,59750000.000000
113476501.000000,59741958.000000
113248306.000000,59697394.000000
113030882.000000,59615020.000000
112830446.000000,59497189.000000
112652728.000000,59347272.000000
112502811.000000,59169554.000000
112384980.000000,58969118.000000
112302606.000000,58751694.000000
112258042.000000,58523499.000000
112250000.000000,58375000.000000
112250000.000000,51625000.000000
112258042.000000,51476501.000000
112302606.000000,51248306.000000
112384980.000000,51030882.000000
112502811.000000,50830446.000000
112652728.000000,50652728.000000
112830446.000000,50502811.000000
113030882.000000,50384980.000000
113248306.000000,50302606.000000
113476501.000000,50258042.000000
113625000.000000,50250000.000000
Z" /> 
</g>
<g >
</g>
<g style="fill:#000000; fill-opacity:1.0; 
stroke:#000000; stroke-width:1.000000; stroke-opacity:1; 
stroke-linecap:round; stroke-linejoin:round;">
<path style="fill:#000000; fill-opacity:1.0; 
stroke:#000000; stroke-width:1.000000; stroke-opacity:1; 
stroke-linecap:round; stroke-linejoin:round;fill-rule:evenodd;"
d="M 145471121.000000,85955785.000000
145538406.000000,86088410.000000
145613910.000000,86308315.000000
145651284.000000,86537796.000000
145649457.000000,86770294.000000
145608484.000000,86999161.000000
145529534.000000,87217852.000000
145414867.000000,87420115.000000
145267759.000000,87600165.000000
145092419.000000,87752856.000000
144967836.000000,87834070.000000
139122164.000000,91209070.000000
138989539.000000,91276355.000000
138769635.000000,91351859.000000
138540153.000000,91389233.000000
138307655.000000,91387406.000000
138078788.000000,91346433.000000
137860097.000000,91267483.000000
137657834.000000,91152816.000000
137477784.000000,91005709.000000
137325093.000000,90830368.000000
137243879.000000,90705785.000000
135868879.000000,88324215.000000
135801594.000000,88191590.000000
135726090.000000,87971685.000000
135688716.000000,87742204.000000
135690543.000000,87509706.000000
135731516.000000,87280839.000000
135810466.000000,87062148.000000
135925133.000000,86859885.000000
136072241.000000,86679835.000000
136247581.000000,86527144.000000
136372164.000000,86445930.000000
142217836.000000,83070930.000000
142350461.000000,83003645.000000
142570365.000000,82928141.000000
142799847.000000,82890767.000000
143032345.000000,82892594.000000
143261212.000000,82933567.000000
143479903.000000,83012517.000000
143682166.000000,83127184.000000
143862216.000000,83274291.000000
144014907.000000,83449632.000000
144096121.000000,83574215.000000
Z" /> 
</g>
<g >
</g>
<g style="fill:#000000; fill-opacity:1.0; 
stroke:#000000; stroke-width:1.000000; stroke-opacity:1; 
stroke-linecap:round; stroke-linejoin:round;">
<path style="fill:#000000; fill-opacity:1.0; 
stroke:#000000; stroke-width:1.000000; stroke-opacity:1; 
stroke-linecap:round; stroke-linejoin:round;fill-rule:evenodd;"
d="M 64131121.000000,98275785.000000
64198406.000000,98408410.000000
64273910.000000,98628315.000000
64311284.000000,98857796.000000
64309457.000000,99090294.000000
64268484.000000,99319161.000000
64189534.000000,99537852.000000
64074867.000000,99740115.000000
63927759.000000,99920165.000000
63752419.000000,100072856.000000
63627836.000000,100154070.000000
57782164.000000,103529070.000000
57649539.000000,103596355.000000
57429635.000000,103671859.000000
57200153.000000,103709233.000000
56967655.000000,103707406.000000
56738788.000000,103666433.000000
56520097.000000,103587483.000000
56317834.000000,103472816.000000
56137784.000000,103325709.000000
55985093.000000,103150368.000000
55903879.000000,103025785.000000
54528879.000000,100644215.000000
54461594.000000,100511590.000000
54386090.000000,100291685.000000
54348716.000000,100062204.000000
54350543.000000,99829706.000000
54391516.000000,99600839.000000
54470466.000000,99382148.000000
54585133.000000,99179885.000000
54732241.000000,98999835.000000
54907581.000000,98847144.000000
55032164.000000,98765930.000000
60877836.000000,95390930.000000
61010461.000000,95323645.000000
61230365.000000,95248141.000000
61459847.000000,95210767.000000
61692345.000000,95212594.000000
61921212.000000,95253567.000000
62139903.000000,95332517.000000
62342166.000000,95447184.000000
62522216.000000,95594291.000000
62674907.000000,95769632.000000
62756121.000000,95894215.000000
Z" /> 
</g>
<g >
</g>
<g style="fill:#000000; fill-opacity:1.0; 
stroke:#000000; stroke-width:1.000000; stroke-opacity:1; 
stroke-linecap:round; stroke-linejoin:round;">
<path style="fill:#000000; fill-opacity:1.0; 
stroke:#000000; stroke-width:1.000000; stroke-opacity:1; 
stroke-linecap:round; stroke-linejoin:round;fill-rule:evenodd;"
d="M 87925000.000000,86625000.000000
87829329.000000,86605970.000000
87748223.000000,86551777.000000
87694030.000000,86470671.000000
87675000.000000,86375000.000000
87675000.000000,85700000.000000
87694030.000000,85604329.000000
87748223.000000,85523223.000000
87829329.000000,85469030.000000
87925000.000000,85450000.000000
88875000.000000,85450000.000000
88970671.000000,85469030.000000
89051777.000000,85523223.000000
89105970.000000,85604329.000000
89125000.000000,85700000.000000
89125000.000000,86375000.000000
89105970.000000,86470671.000000
89051777.000000,86551777.000000
88970671.000000,86605970.000000
88875000.000000,86625000.000000
Z" /> 
<path style="fill:#000000; fill-opacity:1.0; 
stroke:#000000; stroke-width:1.000000; stroke-opacity:1; 
stroke-linecap:round; stroke-linejoin:round;fill-rule:evenodd;"
d="M 87925000.000000,84550000.000000
87829329.000000,84530970.000000
87748223.000000,84476777.000000
87694030.000000,84395671.000000
87675000.000000,84300000.000000
87675000.000000,83625000.000000
87694030.000000,83529329.000000
87748223.000000,83448223.000000
87829329.000000,83394030.000000
87925000.000000,83375000.000000
88875000.000000,83375000.000000
88970671.000000,83394030.000000
89051777.000000,83448223.000000
89105970.000000,83529329.000000
89125000.000000,83625000.000000
89125000.000000,84300000.000000
89105970.000000,84395671.000000
89051777.000000,84476777.000000
88970671.000000,84530970.000000
88875000.000000,84550000.000000
Z" /> 
</g>
<g >
</g>
<g style="fill:#000000; fill-opacity:1.0; 
stroke:#000000; stroke-width:1.000000; stroke-opacity:1; 
stroke-linecap:round; stroke-linejoin:round;">
<path style="fill:#000000; fill-opacity:1.0; 
stroke:#000000; stroke-width:1.000000; stroke-opacity:1; 
stroke-linecap:round; stroke-linejoin:round;fill-rule:evenodd;"
d="M 86375000.000000,126850000.000000
86523499.000000,126858042.000000
86751694.000000,126902606.000000
86969118.000000,126984980.000000
87169554.000000,127102811.000000
87347272.000000,127252728.000000
87497189.000000,127430446.000000
87615020.000000,127630882.000000
87697394.000000,127848306.000000
87741958.000000,128076501.000000
87750000.000000,128225000.000000
87750000.000000,134975000.000000
87741958.000000,135123499.000000
87697394.000000,135351694.000000
87615020.000000,135569118.000000
87497189.000000,135769554.000000
87347272.000000,135947272.000000
87169554.000000,136097189.000000
86969118.000000,136215020.000000
86751694.000000,136297394.000000
86523499.000000,136341958.000000
86375000.000000,136350000.000000
83625000.000000,136350000.000000
83476501.000000,136341958.000000
83248306.000000,136297394.000000
83030882.000000,136215020.000000
82830446.000000,136097189.000000
82652728.000000,135947272.000000
82502811.000000,135769554.000000
82384980.000000,135569118.000000
82302606.000000,135351694.000000
82258042.000000,135123499.000000
82250000.000000,134975000.000000
82250000.000000,128225000.000000
82258042.000000,128076501.000000
82302606.000000,127848306.000000
82384980.000000,127630882.000000
82502811.000000,127430446.000000
82652728.000000,127252728.000000
82830446.000000,127102811.000000
83030882.000000,126984980.000000
83248306.000000,126902606.000000
83476501.000000,126858042.000000
83625000.000000,126850000.000000
Z" /> 
</g>
<g >
</g>
<g style="fill:#000000; fill-opacity:1.0; 
stroke:#000000; stroke-width:1.000000; stroke-opacity:1; 
stroke-linecap:round; stroke-linejoin:round;">
<path style="fill:#000000; fill-opacity:1.0; 
stroke:#000000; stroke-width:1.000000; stroke-opacity:1; 
stroke-linecap:round; stroke-linejoin:round;fill-rule:evenodd;"
d="M 75900000.000000,39230000.000000
75900000.000000,38230000.000000
79050000.000000,38230000.000000
79050000.000000,39230000.000000
Z" /> 
<path style="fill:#000000; fill-opacity:1.0; 
stroke:#000000; stroke-width:1.000000; stroke-opacity:1; 
stroke-linecap:round; stroke-linejoin:round;fill-rule:evenodd;"
d="M 80950000.000000,39230000.000000
80950000.000000,38230000.000000
84100000.000000,38230000.000000
84100000.000000,39230000.000000
Z" /> 
<path style="fill:#000000; fill-opacity:1.0; 
stroke:#000000; stroke-width:1.000000; stroke-opacity:1; 
stroke-linecap:round; stroke-linejoin:round;fill-rule:evenodd;"
d="M 75900000.000000,41770000.000000
75900000.000000,40770000.000000
79050000.000000,40770000.000000
79050000.000000,41770000.000000
Z" /> 
<path style="fill:#000000; fill-opacity:1.0; 
stroke:#000000; stroke-width:1.000000; stroke-opacity:1; 
stroke-linecap:round; stroke-linejoin:round;fill-rule:evenodd;"
d="M 80950000.000000,41770000.000000
80950000.000000,40770000.000000
84100000.000000,40770000.000000
84100000.000000,41770000.000000
Z" /> 
</g>
<g >
</g>
<g style="fill:#000000; fill-opacity:1.0; 
stroke:#000000; stroke-width:1.000000; stroke-opacity:1; 
stroke-linecap:round; stroke-linejoin:round;">
<path style="fill:#000000; fill-opacity:1.0; 
stroke:#000000; stroke-width:1.000000; stroke-opacity:1; 
stroke-linecap:round; stroke-linejoin:round;fill-rule:evenodd;"
d="M 96070000.000000,126212400.000000
95974329.000000,126193370.000000
95893223.000000,126139177.000000
95839030.000000,126058071.000000
95820000.000000,125962400.000000
95820000.000000,125262400.000000
95839030.000000,125166729.000000
95893223.000000,125085623.000000
95974329.000000,125031430.000000
96070000.000000,125012400.000000
96970000.000000,125012400.000000
97065671.000000,125031430.000000
97146777.000000,125085623.000000
97200970.000000,125166729.000000
97220000.000000,125262400.000000
97220000.000000,125962400.000000
97200970.000000,126058071.000000
97146777.000000,126139177.000000
97065671.000000,126193370.000000
96970000.000000,126212400.000000
Z" /> 
<path style="fill:#000000; fill-opacity:1.0; 
stroke:#000000; stroke-width:1.000000; stroke-opacity:1; 
stroke-linecap:round; stroke-linejoin:round;fill-rule:evenodd;"
d="M 96070000.000000,124212400.000000
95974329.000000,124193370.000000
95893223.000000,124139177.000000
95839030.000000,124058071.000000
95820000.000000,123962400.000000
95820000.000000,123262400.000000
95839030.000000,123166729.000000
95893223.000000,123085623.000000
95974329.000000,123031430.000000
96070000.000000,123012400.000000
96970000.000000,123012400.000000
97065671.000000,123031430.000000
97146777.000000,123085623.000000
97200970.000000,123166729.000000
97220000.000000,123262400.000000
97220000.000000,123962400.000000
97200970.000000,124058071.000000
97146777.000000,124139177.000000
97065671.000000,124193370.000000
96970000.000000,124212400.000000
Z" /> 
</g>
<g >
</g>
<g style="fill:#000000; fill-opacity:1.0; 
stroke:#000000; stroke-width:1.000000; stroke-opacity:1; 
stroke-linecap:round; stroke-linejoin:round;">
<path style="fill:#000000; fill-opacity:1.0; 
stroke:#000000; stroke-width:1.000000; stroke-opacity:1; 
stroke-linecap:round; stroke-linejoin:round;fill-rule:evenodd;"
d="M 116375000.000000,126850000.000000
116523499.000000,126858042.000000
116751694.000000,126902606.000000
116969118.000000,126984980.000000
117169554.000000,127102811.000000
117347272.000000,127252728.000000
117497189.000000,127430446.000000
117615020.000000,127630882.000000
117697394.000000,127848306.000000
117741958.000000,128076501.000000
117750000.000000,128225000.000000
117750000.000000,134975000.000000
117741958.000000,135123499.000000
117697394.000000,135351694.000000
117615020.000000,135569118.000000
117497189.000000,135769554.000000
117347272.000000,135947272.000000
117169554.000000,136097189.000000
116969118.000000,136215020.000000
116751694.000000,136297394.000000
116523499.000000,136341958.000000
116375000.000000,136350000.000000
113625000.000000,136350000.000000
113476501.000000,136341958.000000
113248306.000000,136297394.000000
113030882.000000,136215020.000000
112830446.000000,136097189.000000
112652728.000000,135947272.000000
112502811.000000,135769554.000000
112384980.000000,135569118.000000
112302606.000000,135351694.000000
112258042.000000,135123499.000000
112250000.000000,134975000.000000
112250000.000000,128225000.000000
112258042.000000,128076501.000000
112302606.000000,127848306.000000
112384980.000000,127630882.000000
112502811.000000,127430446.000000
112652728.000000,127252728.000000
112830446.000000,127102811.000000
113030882.000000,126984980.000000
113248306.000000,126902606.000000
113476501.000000,126858042.000000
113625000.000000,126850000.000000
Z" /> 
</g>
<g >
</g>
<g style="fill:#000000; fill-opacity:1.0; 
stroke:#000000; stroke-width:1.000000; stroke-opacity:1; 
stroke-linecap:round; stroke-linejoin:round;">
<path style="fill:#000000; fill-opacity:1.0; 
stroke:#000000; stroke-width:1.000000; stroke-opacity:1; 
stroke-linecap:round; stroke-linejoin:round;fill-rule:evenodd;"
d="M 100489600.000000,126212400.000000
100393929.000000,126193370.000000
100312823.000000,126139177.000000
100258630.000000,126058071.000000
100239600.000000,125962400.000000
100239600.000000,125262400.000000
100258630.000000,125166729.000000
100312823.000000,125085623.000000
100393929.000000,125031430.000000
100489600.000000,125012400.000000
101389600.000000,125012400.000000
101485271.000000,125031430.000000
101566377.000000,125085623.000000
101620570.000000,125166729.000000
101639600.000000,125262400.000000
101639600.000000,125962400.000000
101620570.000000,126058071.000000
101566377.000000,126139177.000000
101485271.000000,126193370.000000
101389600.000000,126212400.000000
Z" /> 
<path style="fill:#000000; fill-opacity:1.0; 
stroke:#000000; stroke-width:1.000000; stroke-opacity:1; 
stroke-linecap:round; stroke-linejoin:round;fill-rule:evenodd;"
d="M 100489600.000000,124212400.000000
100393929.000000,124193370.000000
100312823.000000,124139177.000000
100258630.000000,124058071.000000
100239600.000000,123962400.000000
100239600.000000,123262400.000000
100258630.000000,123166729.000000
100312823.000000,123085623.000000
100393929.000000,123031430.000000
100489600.000000,123012400.000000
101389600.000000,123012400.000000
101485271.000000,123031430.000000
101566377.000000,123085623.000000
101620570.000000,123166729.000000
101639600.000000,123262400.000000
101639600.000000,123962400.000000
101620570.000000,124058071.000000
101566377.000000,124139177.000000
101485271.000000,124193370.000000
101389600.000000,124212400.000000
Z" /> 
</g>
<g >
</g>
<g style="fill:#000000; fill-opacity:1.0; 
stroke:#000000; stroke-width:1.000000; stroke-opacity:1; 
stroke-linecap:round; stroke-linejoin:round;">
<path style="fill:#000000; fill-opacity:1.0; 
stroke:#000000; stroke-width:1.000000; stroke-opacity:1; 
stroke-linecap:round; stroke-linejoin:round;fill-rule:evenodd;"
d="M 130471121.000000,59975785.000000
130538406.000000,60108410.000000
130613910.000000,60328315.000000
130651284.000000,60557796.000000
130649457.000000,60790294.000000
130608484.000000,61019161.000000
130529534.000000,61237852.000000
130414867.000000,61440115.000000
130267759.000000,61620165.000000
130092419.000000,61772856.000000
129967836.000000,61854070.000000
124122164.000000,65229070.000000
123989539.000000,65296355.000000
123769635.000000,65371859.000000
123540153.000000,65409233.000000
123307655.000000,65407406.000000
123078788.000000,65366433.000000
122860097.000000,65287483.000000
122657834.000000,65172816.000000
122477784.000000,65025709.000000
122325093.000000,64850368.000000
122243879.000000,64725785.000000
120868879.000000,62344215.000000
120801594.000000,62211590.000000
120726090.000000,61991685.000000
120688716.000000,61762204.000000
120690543.000000,61529706.000000
120731516.000000,61300839.000000
120810466.000000,61082148.000000
120925133.000000,60879885.000000
121072241.000000,60699835.000000
121247581.000000,60547144.000000
121372164.000000,60465930.000000
127217836.000000,57090930.000000
127350461.000000,57023645.000000
127570365.000000,56948141.000000
127799847.000000,56910767.000000
128032345.000000,56912594.000000
128261212.000000,56953567.000000
128479903.000000,57032517.000000
128682166.000000,57147184.000000
128862216.000000,57294291.000000
129014907.000000,57469632.000000
129096121.000000,57594215.000000
Z" /> 
</g>
<g >
</g>
<g style="fill:#000000; fill-opacity:1.0; 
stroke:#000000; stroke-width:1.000000; stroke-opacity:1; 
stroke-linecap:round; stroke-linejoin:round;">
<path style="fill:#000000; fill-opacity:1.0; 
stroke:#000000; stroke-width:1.000000; stroke-opacity:1; 
stroke-linecap:round; stroke-linejoin:round;fill-rule:evenodd;"
d="M 144096121.000000,103025785.000000
144014907.000000,103150368.000000
143862216.000000,103325709.000000
143682166.000000,103472816.000000
143479903.000000,103587483.000000
143261212.000000,103666433.000000
143032345.000000,103707406.000000
142799847.000000,103709233.000000
142570365.000000,103671859.000000
142350461.000000,103596355.000000
142217836.000000,103529070.000000
136372164.000000,100154070.000000
136247581.000000,100072856.000000
136072241.000000,99920165.000000
135925133.000000,99740115.000000
135810466.000000,99537852.000000
135731516.000000,99319161.000000
135690543.000000,99090294.000000
135688716.000000,98857796.000000
135726090.000000,98628315.000000
135801594.000000,98408410.000000
135868879.000000,98275785.000000
137243879.000000,95894215.000000
137325093.000000,95769632.000000
137477784.000000,95594291.000000
137657834.000000,95447184.000000
137860097.000000,95332517.000000
138078788.000000,95253567.000000
138307655.000000,95212594.000000
138540153.000000,95210767.000000
138769635.000000,95248141.000000
138989539.000000,95323645.000000
139122164.000000,95390930.000000
144967836.000000,98765930.000000
145092419.000000,98847144.000000
145267759.000000,98999835.000000
145414867.000000,99179885.000000
145529534.000000,99382148.000000
145608484.000000,99600839.000000
145649457.000000,99829706.000000
145651284.000000,100062204.000000
145613910.000000,100291685.000000
145538406.000000,100511590.000000
145471121.000000,100644215.000000
Z" /> 
</g>
<g >
</g>
<g style="fill:#000000; fill-opacity:1.0; 
stroke:#000000; stroke-width:1.000000; stroke-opacity:1; 
stroke-linecap:round; stroke-linejoin:round;">
<path style="fill:#000000; fill-opacity:1.0; 
stroke:#000000; stroke-width:1.000000; stroke-opacity:1; 
stroke-linecap:round; stroke-linejoin:round;fill-rule:evenodd;"
d="M 62756121.000000,90705785.000000
62674907.000000,90830368.000000
62522216.000000,91005709.000000
62342166.000000,91152816.000000
62139903.000000,91267483.000000
61921212.000000,91346433.000000
61692345.000000,91387406.000000
61459847.000000,91389233.000000
61230365.000000,91351859.000000
61010461.000000,91276355.000000
60877836.000000,91209070.000000
55032164.000000,87834070.000000
54907581.000000,87752856.000000
54732241.000000,87600165.000000
54585133.000000,87420115.000000
54470466.000000,87217852.000000
54391516.000000,86999161.000000
54350543.000000,86770294.000000
54348716.000000,86537796.000000
54386090.000000,86308315.000000
54461594.000000,86088410.000000
54528879.000000,85955785.000000
55903879.000000,83574215.000000
55985093.000000,83449632.000000
56137784.000000,83274291.000000
56317834.000000,83127184.000000
56520097.000000,83012517.000000
56738788.000000,82933567.000000
56967655.000000,82892594.000000
57200153.000000,82890767.000000
57429635.000000,82928141.000000
57649539.000000,83003645.000000
57782164.000000,83070930.000000
63627836.000000,86445930.000000
63752419.000000,86527144.000000
63927759.000000,86679835.000000
64074867.000000,86859885.000000
64189534.000000,87062148.000000
64268484.000000,87280839.000000
64309457.000000,87509706.000000
64311284.000000,87742204.000000
64273910.000000,87971685.000000
64198406.000000,88191590.000000
64131121.000000,88324215.000000
Z" /> 
</g>
<g >
</g>
<g style="fill:#000000; fill-opacity:1.0; 
stroke:#000000; stroke-width:1.000000; stroke-opacity:1; 
stroke-linecap:round; stroke-linejoin:round;">
<path style="fill:#000000; fill-opacity:1.0; 
stroke:#000000; stroke-width:1.000000; stroke-opacity:1; 
stroke-linecap:round; stroke-linejoin:round;fill-rule:evenodd;"
d="M 98254400.000000,126212400.000000
98158729.000000,126193370.000000
98077623.000000,126139177.000000
98023430.000000,126058071.000000
98004400.000000,125962400.000000
98004400.000000,125262400.000000
98023430.000000,125166729.000000
98077623.000000,125085623.000000
98158729.000000,125031430.000000
98254400.000000,125012400.000000
99154400.000000,125012400.000000
99250071.000000,125031430.000000
99331177.000000,125085623.000000
99385370.000000,125166729.000000
99404400.000000,125262400.000000
99404400.000000,125962400.000000
99385370.000000,126058071.000000
99331177.000000,126139177.000000
99250071.000000,126193370.000000
99154400.000000,126212400.000000
Z" /> 
<path style="fill:#000000; fill-opacity:1.0; 
stroke:#000000; stroke-width:1.000000; stroke-opacity:1; 
stroke-linecap:round; stroke-linejoin:round;fill-rule:evenodd;"
d="M 98254400.000000,124212400.000000
98158729.000000,124193370.000000
98077623.000000,124139177.000000
98023430.000000,124058071.000000
98004400.000000,123962400.000000
98004400.000000,123262400.000000
98023430.000000,123166729.000000
98077623.000000,123085623.000000
98158729.000000,123031430.000000
98254400.000000,123012400.000000
99154400.000000,123012400.000000
99250071.000000,123031430.000000
99331177.000000,123085623.000000
99385370.000000,123166729.000000
99404400.000000,123262400.000000
99404400.000000,123962400.000000
99385370.000000,124058071.000000
99331177.000000,124139177.000000
99250071.000000,124193370.000000
99154400.000000,124212400.000000
Z" /> 
</g>
<g >
</g>
<g style="fill:#000000; fill-opacity:1.0; 
stroke:#000000; stroke-width:1.000000; stroke-opacity:1; 
stroke-linecap:round; stroke-linejoin:round;">
<path style="fill:#000000; fill-opacity:1.0; 
stroke:#000000; stroke-width:1.000000; stroke-opacity:1; 
stroke-linecap:round; stroke-linejoin:round;fill-rule:evenodd;"
d="M 80370000.000000,118625000.000000
80274329.000000,118605970.000000
80193223.000000,118551777.000000
80139030.000000,118470671.000000
80120000.000000,118375000.000000
80120000.000000,117700000.000000
80139030.000000,117604329.000000
80193223.000000,117523223.000000
80274329.000000,117469030.000000
80370000.000000,117450000.000000
81320000.000000,117450000.000000
81415671.000000,117469030.000000
81496777.000000,117523223.000000
81550970.000000,117604329.000000
81570000.000000,117700000.000000
81570000.000000,118375000.000000
81550970.000000,118470671.000000
81496777.000000,118551777.000000
81415671.000000,118605970.000000
81320000.000000,118625000.000000
Z" /> 
<path style="fill:#000000; fill-opacity:1.0; 
stroke:#000000; stroke-width:1.000000; stroke-opacity:1; 
stroke-linecap:round; stroke-linejoin:round;fill-rule:evenodd;"
d="M 80370000.000000,116550000.000000
80274329.000000,116530970.000000
80193223.000000,116476777.000000
80139030.000000,116395671.000000
80120000.000000,116300000.000000
80120000.000000,115625000.000000
80139030.000000,115529329.000000
80193223.000000,115448223.000000
80274329.000000,115394030.000000
80370000.000000,115375000.000000
81320000.000000,115375000.000000
81415671.000000,115394030.000000
81496777.000000,115448223.000000
81550970.000000,115529329.000000
81570000.000000,115625000.000000
81570000.000000,116300000.000000
81550970.000000,116395671.000000
81496777.000000,116476777.000000
81415671.000000,116530970.000000
81320000.000000,116550000.000000
Z" /> 
</g>
<g >
</g>
<g style="fill:#000000; fill-opacity:1.0; 
stroke:#000000; stroke-width:1.000000; stroke-opacity:1; 
stroke-linecap:round; stroke-linejoin:round;">
<circle cx="102890000.000000" cy="130000000.000000" r="325000.000000" /> 
</g>
<g style="fill:#000000; fill-opacity:1.0; 
stroke:#000000; stroke-width:21200.000000; stroke-opacity:1; 
stroke-linecap:round; stroke-linejoin:round;">
</g>
<g style="fill:#000000; fill-opacity:1.0; 
stroke:#000000; stroke-width:1.000000; stroke-opacity:1; 
stroke-linecap:round; stroke-linejoin:round;">
<circle cx="97110000.000000" cy="130000000.000000" r="325000.000000" /> 
</g>
<g style="fill:#000000; fill-opacity:1.0; 
stroke:#000000; stroke-width:21200.000000; stroke-opacity:1; 
stroke-linecap:round; stroke-linejoin:round;">
</g>
<g style="fill:#000000; fill-opacity:1.0; 
stroke:#000000; stroke-width:1.000000; stroke-opacity:1; 
stroke-linecap:round; stroke-linejoin:round;">
<path style="fill:#000000; fill-opacity:1.0; 
stroke:#000000; stroke-width:1.000000; stroke-opacity:1; 
stroke-linecap:round; stroke-linejoin:round;fill-rule:evenodd;"
d="M 96450000.000000,129280000.000000
96450000.000000,127830000.000000
97050000.000000,127830000.000000
97050000.000000,129280000.000000
Z" /> 
<path style="fill:#000000; fill-opacity:1.0; 
stroke:#000000; stroke-width:1.000000; stroke-opacity:1; 
stroke-linecap:round; stroke-linejoin:round;fill-rule:evenodd;"
d="M 97250000.000000,129280000.000000
97250000.000000,127830000.000000
97850000.000000,127830000.000000
97850000.000000,129280000.000000
Z" /> 
<path style="fill:#000000; fill-opacity:1.0; 
stroke:#000000; stroke-width:1.000000; stroke-opacity:1; 
stroke-linecap:round; stroke-linejoin:round;fill-rule:evenodd;"
d="M 98600000.000000,129280000.000000
98600000.000000,127830000.000000
98900000.000000,127830000.000000
98900000.000000,129280000.000000
Z" /> 
<path style="fill:#000000; fill-opacity:1.0; 
stroke:#000000; stroke-width:1.000000; stroke-opacity:1; 
stroke-linecap:round; stroke-linejoin:round;fill-rule:evenodd;"
d="M 99600000.000000,129280000.000000
99600000.000000,127830000.000000
99900000.000000,127830000.000000
99900000.000000,129280000.000000
Z" /> 
<path style="fill:#000000; fill-opacity:1.0; 
stroke:#000000; stroke-width:1.000000; stroke-opacity:1; 
stroke-linecap:round; stroke-linejoin:round;fill-rule:evenodd;"
d="M 100100000.000000,129280000.000000
100100000.000000,127830000.000000
100400000.000000,127830000.000000
100400000.000000,129280000.000000
Z" /> 
<path style="fill:#000000; fill-opacity:1.0; 
stroke:#000000; stroke-width:1.000000; stroke-opacity:1; 
stroke-linecap:round; stroke-linejoin:round;fill-rule:evenodd;"
d="M 101100000.000000,129280000.000000
101100000.000000,127830000.000000
101400000.000000,127830000.000000
101400000.000000,129280000.000000
Z" /> 
<path style="fill:#000000; fill-opacity:1.0; 
stroke:#000000; stroke-width:1.000000; stroke-opacity:1; 
stroke-linecap:round; stroke-linejoin:round;fill-rule:evenodd;"
d="M 102150000.000000,129280000.000000
102150000.000000,127830000.000000
102750000.000000,127830000.000000
102750000.000000,129280000.000000
Z" /> 
<path style="fill:#000000; fill-opacity:1.0; 
stroke:#000000; stroke-width:1.000000; stroke-opacity:1; 
stroke-linecap:round; stroke-linejoin:round;fill-rule:evenodd;"
d="M 102950000.000000,129280000.000000
102950000.000000,127830000.000000
103550000.000000,127830000.000000
103550000.000000,129280000.000000
Z" /> 
<path style="fill:#000000; fill-opacity:1.0; 
stroke:#000000; stroke-width:1.000000; stroke-opacity:1; 
stroke-linecap:round; stroke-linejoin:round;fill-rule:evenodd;"
d="M 102950000.000000,129280000.000000
102950000.000000,127830000.000000
103550000.000000,127830000.000000
103550000.000000,129280000.000000
Z" /> 
<path style="fill:#000000; fill-opacity:1.0; 
stroke:#000000; stroke-width:1.000000; stroke-opacity:1; 
stroke-linecap:round; stroke-linejoin:round;fill-rule:evenodd;"
d="M 102150000.000000,129280000.000000
102150000.000000,127830000.000000
102750000.000000,127830000.000000
102750000.000000,129280000.000000
Z" /> 
<path style="fill:#000000; fill-opacity:1.0; 
stroke:#000000; stroke-width:1.000000; stroke-opacity:1; 
stroke-linecap:round; stroke-linejoin:round;fill-rule:evenodd;"
d="M 101600000.000000,129280000.000000
101600000.000000,127830000.000000
101900000.000000,127830000.000000
101900000.000000,129280000.000000
Z" /> 
<path style="fill:#000000; fill-opacity:1.0; 
stroke:#000000; stroke-width:1.000000; stroke-opacity:1; 
stroke-linecap:round; stroke-linejoin:round;fill-rule:evenodd;"
d="M 100600000.000000,129280000.000000
100600000.000000,127830000.000000
100900000.000000,127830000.000000
100900000.000000,129280000.000000
Z" /> 
<path style="fill:#000000; fill-opacity:1.0; 
stroke:#000000; stroke-width:1.000000; stroke-opacity:1; 
stroke-linecap:round; stroke-linejoin:round;fill-rule:evenodd;"
d="M 99100000.000000,129280000.000000
99100000.000000,127830000.000000
99400000.000000,127830000.000000
99400000.000000,129280000.000000
Z" /> 
<path style="fill:#000000; fill-opacity:1.0; 
stroke:#000000; stroke-width:1.000000; stroke-opacity:1; 
stroke-linecap:round; stroke-linejoin:round;fill-rule:evenodd;"
d="M 98100000.000000,129280000.000000
98100000.000000,127830000.000000
98400000.000000,127830000.000000
98400000.000000,129280000.000000
Z" /> 
<path style="fill:#000000; fill-opacity:1.0; 
stroke:#000000; stroke-width:1.000000; stroke-opacity:1; 
stroke-linecap:round; stroke-linejoin:round;fill-rule:evenodd;"
d="M 97250000.000000,129280000.000000
97250000.000000,127830000.000000
97850000.000000,127830000.000000
97850000.000000,129280000.000000
Z" /> 
<path style="fill:#000000; fill-opacity:1.0; 
stroke:#000000; stroke-width:1.000000; stroke-opacity:1; 
stroke-linecap:round; stroke-linejoin:round;fill-rule:evenodd;"
d="M 96450000.000000,129280000.000000
96450000.000000,127830000.000000
97050000.000000,127830000.000000
97050000.000000,129280000.000000
Z" /> 
</g>
<g style="fill:#000000; fill-opacity:1.0; 
stroke:#000000; stroke-width:1000000.000000; stroke-opacity:1; 
stroke-linecap:round; stroke-linejoin:round;">
</g>
<g style="fill:#000000; fill-opacity:0.0; 
stroke:#000000; stroke-width:1000000.000000; stroke-opacity:1; 
stroke-linecap:round; stroke-linejoin:round;">
<path d="M95680000 133350000
L95680000 133950000
" />
<path d="M95680000 128920000
L95680000 130020000
" />
<path d="M104320000 133350000
L104320000 133950000
" />
<path d="M104320000 128920000
L104320000 130020000
" />
</g>
<g >
</g>
<g style="fill:#000000; fill-opacity:0.0; 
stroke:#000000; stroke-width:1000000.000000; stroke-opacity:1; 
stroke-linecap:round; stroke-linejoin:round;">
</g>
<g style="fill:#000000; fill-opacity:0.0; 
stroke:#000000; stroke-width:1.000000; stroke-opacity:1; 
stroke-linecap:round; stroke-linejoin:round;">
</g>
<g style="fill:#000000; fill-opacity:1.0; 
stroke:#000000; stroke-width:1.000000; stroke-opacity:1; 
stroke-linecap:round; stroke-linejoin:round;">
<path style="fill:#000000; fill-opacity:1.0; 
stroke:#000000; stroke-width:1.000000; stroke-opacity:1; 
stroke-linecap:round; stroke-linejoin:round;fill-rule:evenodd;"
d="M 77756121.000000,64725785.000000
77674907.000000,64850368.000000
77522216.000000,65025709.000000
77342166.000000,65172816.000000
77139903.000000,65287483.000000
76921212.000000,65366433.000000
76692345.000000,65407406.000000
76459847.000000,65409233.000000
76230365.000000,65371859.000000
76010461.000000,65296355.000000
75877836.000000,65229070.000000
70032164.000000,61854070.000000
69907581.000000,61772856.000000
69732241.000000,61620165.000000
69585133.000000,61440115.000000
69470466.000000,61237852.000000
69391516.000000,61019161.000000
69350543.000000,60790294.000000
69348716.000000,60557796.000000
69386090.000000,60328315.000000
69461594.000000,60108410.000000
69528879.000000,59975785.000000
70903879.000000,57594215.000000
70985093.000000,57469632.000000
71137784.000000,57294291.000000
71317834.000000,57147184.000000
71520097.000000,57032517.000000
71738788.000000,56953567.000000
71967655.000000,56912594.000000
72200153.000000,56910767.000000
72429635.000000,56948141.000000
72649539.000000,57023645.000000
72782164.000000,57090930.000000
78627836.000000,60465930.000000
78752419.000000,60547144.000000
78927759.000000,60699835.000000
79074867.000000,60879885.000000
79189534.000000,61082148.000000
79268484.000000,61300839.000000
79309457.000000,61529706.000000
79311284.000000,61762204.000000
79273910.000000,61991685.000000
79198406.000000,62211590.000000
79131121.000000,62344215.000000
Z" /> 
</g>
<g >
</g>
<g style="fill:#000000; fill-opacity:1.0; 
stroke:#000000; stroke-width:1.000000; stroke-opacity:1; 
stroke-linecap:round; stroke-linejoin:round;">
<path style="fill:#000000; fill-opacity:1.0; 
stroke:#000000; stroke-width:1.000000; stroke-opacity:1; 
stroke-linecap:round; stroke-linejoin:round;fill-rule:evenodd;"
d="M 102674000.000000,126212400.000000
102578329.000000,126193370.000000
102497223.000000,126139177.000000
102443030.000000,126058071.000000
102424000.000000,125962400.000000
102424000.000000,125262400.000000
102443030.000000,125166729.000000
102497223.000000,125085623.000000
102578329.000000,125031430.000000
102674000.000000,125012400.000000
103574000.000000,125012400.000000
103669671.000000,125031430.000000
103750777.000000,125085623.000000
103804970.000000,125166729.000000
103824000.000000,125262400.000000
103824000.000000,125962400.000000
103804970.000000,126058071.000000
103750777.000000,126139177.000000
103669671.000000,126193370.000000
103574000.000000,126212400.000000
Z" /> 
<path style="fill:#000000; fill-opacity:1.0; 
stroke:#000000; stroke-width:1.000000; stroke-opacity:1; 
stroke-linecap:round; stroke-linejoin:round;fill-rule:evenodd;"
d="M 102674000.000000,124212400.000000
102578329.000000,124193370.000000
102497223.000000,124139177.000000
102443030.000000,124058071.000000
102424000.000000,123962400.000000
102424000.000000,123262400.000000
102443030.000000,123166729.000000
102497223.000000,123085623.000000
102578329.000000,123031430.000000
102674000.000000,123012400.000000
103574000.000000,123012400.000000
103669671.000000,123031430.000000
103750777.000000,123085623.000000
103804970.000000,123166729.000000
103824000.000000,123262400.000000
103824000.000000,123962400.000000
103804970.000000,124058071.000000
103750777.000000,124139177.000000
103669671.000000,124193370.000000
103574000.000000,124212400.000000
Z" /> 
</g>
<g >
</g>
<g style="fill:#000000; fill-opacity:1.0; 
stroke:#000000; stroke-width:1.000000; stroke-opacity:1; 
stroke-linecap:round; stroke-linejoin:round;">
<path style="fill:#000000; fill-opacity:1.0; 
stroke:#000000; stroke-width:1.000000; stroke-opacity:1; 
stroke-linecap:round; stroke-linejoin:round;fill-rule:evenodd;"
d="M 111935200.000000,75325000.000000
111935200.000000,75925000.000000
111235200.000000,75925000.000000
111235200.000000,75325000.000000
Z" /> 
<path style="fill:#000000; fill-opacity:1.0; 
stroke:#000000; stroke-width:1.000000; stroke-opacity:1; 
stroke-linecap:round; stroke-linejoin:round;fill-rule:evenodd;"
d="M 112735200.000000,75675000.000000
112735200.000000,76175000.000000
112285200.000000,76175000.000000
112285200.000000,75675000.000000
Z" /> 
<path style="fill:#000000; fill-opacity:1.0; 
stroke:#000000; stroke-width:1.000000; stroke-opacity:1; 
stroke-linecap:round; stroke-linejoin:round;fill-rule:evenodd;"
d="M 113485200.000000,75675000.000000
113485200.000000,76175000.000000
113035200.000000,76175000.000000
113035200.000000,75675000.000000
Z" /> 
<path style="fill:#000000; fill-opacity:1.0; 
stroke:#000000; stroke-width:1.000000; stroke-opacity:1; 
stroke-linecap:round; stroke-linejoin:round;fill-rule:evenodd;"
d="M 114535200.000000,75325000.000000
114535200.000000,75925000.000000
113835200.000000,75925000.000000
113835200.000000,75325000.000000
Z" /> 
</g>
<g >
</g>
<g style="fill:#000000; fill-opacity:1.0; 
stroke:#000000; stroke-width:1.000000; stroke-opacity:1; 
stroke-linecap:round; stroke-linejoin:round;">
<path style="fill:#000000; fill-opacity:1.0; 
stroke:#000000; stroke-width:1.000000; stroke-opacity:1; 
stroke-linecap:round; stroke-linejoin:round;fill-rule:evenodd;"
d="M 123400000.000000,114750000.000000
122100000.000000,114750000.000000
122100000.000000,113200000.000000
123400000.000000,113200000.000000
Z" /> 
<path style="fill:#000000; fill-opacity:1.0; 
stroke:#000000; stroke-width:1.000000; stroke-opacity:1; 
stroke-linecap:round; stroke-linejoin:round;fill-rule:evenodd;"
d="M 123400000.000000,106800000.000000
122100000.000000,106800000.000000
122100000.000000,105250000.000000
123400000.000000,105250000.000000
Z" /> 
<path style="fill:#000000; fill-opacity:1.0; 
stroke:#000000; stroke-width:1.000000; stroke-opacity:1; 
stroke-linecap:round; stroke-linejoin:round;fill-rule:evenodd;"
d="M 127900000.000000,114750000.000000
126600000.000000,114750000.000000
126600000.000000,113200000.000000
127900000.000000,113200000.000000
Z" /> 
<path style="fill:#000000; fill-opacity:1.0; 
stroke:#000000; stroke-width:1.000000; stroke-opacity:1; 
stroke-linecap:round; stroke-linejoin:round;fill-rule:evenodd;"
d="M 127900000.000000,106800000.000000
126600000.000000,106800000.000000
126600000.000000,105250000.000000
127900000.000000,105250000.000000
Z" /> 
</g>
<g >
</g>
<g style="fill:#000000; fill-opacity:1.0; 
stroke:#000000; stroke-width:1.000000; stroke-opacity:1; 
stroke-linecap:round; stroke-linejoin:round;">
<path style="fill:#000000; fill-opacity:1.0; 
stroke:#000000; stroke-width:1.000000; stroke-opacity:1; 
stroke-linecap:round; stroke-linejoin:round;fill-rule:evenodd;"
d="M 126600000.000000,116950000.000000
126580970.000000,117045671.000000
126526777.000000,117126777.000000
126445671.000000,117180970.000000
126350000.000000,117200000.000000
125650000.000000,117200000.000000
125554329.000000,117180970.000000
125473223.000000,117126777.000000
125419030.000000,117045671.000000
125400000.000000,116950000.000000
125400000.000000,116050000.000000
125419030.000000,115954329.000000
125473223.000000,115873223.000000
125554329.000000,115819030.000000
125650000.000000,115800000.000000
126350000.000000,115800000.000000
126445671.000000,115819030.000000
126526777.000000,115873223.000000
126580970.000000,115954329.000000
126600000.000000,116050000.000000
Z" /> 
<path style="fill:#000000; fill-opacity:1.0; 
stroke:#000000; stroke-width:1.000000; stroke-opacity:1; 
stroke-linecap:round; stroke-linejoin:round;fill-rule:evenodd;"
d="M 124600000.000000,116950000.000000
124580970.000000,117045671.000000
124526777.000000,117126777.000000
124445671.000000,117180970.000000
124350000.000000,117200000.000000
123650000.000000,117200000.000000
123554329.000000,117180970.000000
123473223.000000,117126777.000000
123419030.000000,117045671.000000
123400000.000000,116950000.000000
123400000.000000,116050000.000000
123419030.000000,115954329.000000
123473223.000000,115873223.000000
123554329.000000,115819030.000000
123650000.000000,115800000.000000
124350000.000000,115800000.000000
124445671.000000,115819030.000000
124526777.000000,115873223.000000
124580970.000000,115954329.000000
124600000.000000,116050000.000000
Z" /> 
</g>
<g >
</g>
<g style="fill:#000000; fill-opacity:1.0; 
stroke:#000000; stroke-width:1.000000; stroke-opacity:1; 
stroke-linecap:round; stroke-linejoin:round;">
<path style="fill:#000000; fill-opacity:1.0; 
stroke:#000000; stroke-width:1.000000; stroke-opacity:1; 
stroke-linecap:round; stroke-linejoin:round;fill-rule:evenodd;"
d="M 90500000.000000,85490000.000000
90500000.000000,84590000.000000
92000000.000000,84590000.000000
92000000.000000,85490000.000000
Z" /> 
<path style="fill:#000000; fill-opacity:1.0; 
stroke:#000000; stroke-width:1.000000; stroke-opacity:1; 
stroke-linecap:round; stroke-linejoin:round;fill-rule:evenodd;"
d="M 90500000.000000,86760000.000000
90500000.000000,85860000.000000
92000000.000000,85860000.000000
92000000.000000,86760000.000000
Z" /> 
<path style="fill:#000000; fill-opacity:1.0; 
stroke:#000000; stroke-width:1.000000; stroke-opacity:1; 
stroke-linecap:round; stroke-linejoin:round;fill-rule:evenodd;"
d="M 90500000.000000,88030000.000000
90500000.000000,87130000.000000
92000000.000000,87130000.000000
92000000.000000,88030000.000000
Z" /> 
<path style="fill:#000000; fill-opacity:1.0; 
stroke:#000000; stroke-width:1.000000; stroke-opacity:1; 
stroke-linecap:round; stroke-linejoin:round;fill-rule:evenodd;"
d="M 90500000.000000,89300000.000000
90500000.000000,88400000.000000
92000000.000000,88400000.000000
92000000.000000,89300000.000000
Z" /> 
<path style="fill:#000000; fill-opacity:1.0; 
stroke:#000000; stroke-width:1.000000; stroke-opacity:1; 
stroke-linecap:round; stroke-linejoin:round;fill-rule:evenodd;"
d="M 90500000.000000,90570000.000000
90500000.000000,89670000.000000
92000000.000000,89670000.000000
92000000.000000,90570000.000000
Z" /> 
<path style="fill:#000000; fill-opacity:1.0; 
stroke:#000000; stroke-width:1.000000; stroke-opacity:1; 
stroke-linecap:round; stroke-linejoin:round;fill-rule:evenodd;"
d="M 90500000.000000,91840000.000000
90500000.000000,90940000.000000
92000000.000000,90940000.000000
92000000.000000,91840000.000000
Z" /> 
<path style="fill:#000000; fill-opacity:1.0; 
stroke:#000000; stroke-width:1.000000; stroke-opacity:1; 
stroke-linecap:round; stroke-linejoin:round;fill-rule:evenodd;"
d="M 90500000.000000,93110000.000000
90500000.000000,92210000.000000
92000000.000000,92210000.000000
92000000.000000,93110000.000000
Z" /> 
<path style="fill:#000000; fill-opacity:1.0; 
stroke:#000000; stroke-width:1.000000; stroke-opacity:1; 
stroke-linecap:round; stroke-linejoin:round;fill-rule:evenodd;"
d="M 90500000.000000,94380000.000000
90500000.000000,93480000.000000
92000000.000000,93480000.000000
92000000.000000,94380000.000000
Z" /> 
<path style="fill:#000000; fill-opacity:1.0; 
stroke:#000000; stroke-width:1.000000; stroke-opacity:1; 
stroke-linecap:round; stroke-linejoin:round;fill-rule:evenodd;"
d="M 90500000.000000,95650000.000000
90500000.000000,94750000.000000
92000000.000000,94750000.000000
92000000.000000,95650000.000000
Z" /> 
<path style="fill:#000000; fill-opacity:1.0; 
stroke:#000000; stroke-width:1.000000; stroke-opacity:1; 
stroke-linecap:round; stroke-linejoin:round;fill-rule:evenodd;"
d="M 90500000.000000,96920000.000000
90500000.000000,96020000.000000
92000000.000000,96020000.000000
92000000.000000,96920000.000000
Z" /> 
<path style="fill:#000000; fill-opacity:1.0; 
stroke:#000000; stroke-width:1.000000; stroke-opacity:1; 
stroke-linecap:round; stroke-linejoin:round;fill-rule:evenodd;"
d="M 90500000.000000,98190000.000000
90500000.000000,97290000.000000
92000000.000000,97290000.000000
92000000.000000,98190000.000000
Z" /> 
<path style="fill:#000000; fill-opacity:1.0; 
stroke:#000000; stroke-width:1.000000; stroke-opacity:1; 
stroke-linecap:round; stroke-linejoin:round;fill-rule:evenodd;"
d="M 90500000.000000,99460000.000000
90500000.000000,98560000.000000
92000000.000000,98560000.000000
92000000.000000,99460000.000000
Z" /> 
<path style="fill:#000000; fill-opacity:1.0; 
stroke:#000000; stroke-width:1.000000; stroke-opacity:1; 
stroke-linecap:round; stroke-linejoin:round;fill-rule:evenodd;"
d="M 90500000.000000,100730000.000000
90500000.000000,99830000.000000
92000000.000000,99830000.000000
92000000.000000,100730000.000000
Z" /> 
<path style="fill:#000000; fill-opacity:1.0; 
stroke:#000000; stroke-width:1.000000; stroke-opacity:1; 
stroke-linecap:round; stroke-linejoin:round;fill-rule:evenodd;"
d="M 90500000.000000,102000000.000000
90500000.000000,101100000.000000
92000000.000000,101100000.000000
92000000.000000,102000000.000000
Z" /> 
<path style="fill:#000000; fill-opacity:1.0; 
stroke:#000000; stroke-width:1.000000; stroke-opacity:1; 
stroke-linecap:round; stroke-linejoin:round;fill-rule:evenodd;"
d="M 93465000.000000,103550000.000000
92565000.000000,103550000.000000
92565000.000000,102050000.000000
93465000.000000,102050000.000000
Z" /> 
<path style="fill:#000000; fill-opacity:1.0; 
stroke:#000000; stroke-width:1.000000; stroke-opacity:1; 
stroke-linecap:round; stroke-linejoin:round;fill-rule:evenodd;"
d="M 94735000.000000,103550000.000000
93835000.000000,103550000.000000
93835000.000000,102050000.000000
94735000.000000,102050000.000000
Z" /> 
<path style="fill:#000000; fill-opacity:1.0; 
stroke:#000000; stroke-width:1.000000; stroke-opacity:1; 
stroke-linecap:round; stroke-linejoin:round;fill-rule:evenodd;"
d="M 96005000.000000,103550000.000000
95105000.000000,103550000.000000
95105000.000000,102050000.000000
96005000.000000,102050000.000000
Z" /> 
<path style="fill:#000000; fill-opacity:1.0; 
stroke:#000000; stroke-width:1.000000; stroke-opacity:1; 
stroke-linecap:round; stroke-linejoin:round;fill-rule:evenodd;"
d="M 97275000.000000,103550000.000000
96375000.000000,103550000.000000
96375000.000000,102050000.000000
97275000.000000,102050000.000000
Z" /> 
<path style="fill:#000000; fill-opacity:1.0; 
stroke:#000000; stroke-width:1.000000; stroke-opacity:1; 
stroke-linecap:round; stroke-linejoin:round;fill-rule:evenodd;"
d="M 98545000.000000,103550000.000000
97645000.000000,103550000.000000
97645000.000000,102050000.000000
98545000.000000,102050000.000000
Z" /> 
<path style="fill:#000000; fill-opacity:1.0; 
stroke:#000000; stroke-width:1.000000; stroke-opacity:1; 
stroke-linecap:round; stroke-linejoin:round;fill-rule:evenodd;"
d="M 99815000.000000,103550000.000000
98915000.000000,103550000.000000
98915000.000000,102050000.000000
99815000.000000,102050000.000000
Z" /> 
<path style="fill:#000000; fill-opacity:1.0; 
stroke:#000000; stroke-width:1.000000; stroke-opacity:1; 
stroke-linecap:round; stroke-linejoin:round;fill-rule:evenodd;"
d="M 101085000.000000,103550000.000000
100185000.000000,103550000.000000
100185000.000000,102050000.000000
101085000.000000,102050000.000000
Z" /> 
<path style="fill:#000000; fill-opacity:1.0; 
stroke:#000000; stroke-width:1.000000; stroke-opacity:1; 
stroke-linecap:round; stroke-linejoin:round;fill-rule:evenodd;"
d="M 102355000.000000,103550000.000000
101455000.000000,103550000.000000
101455000.000000,102050000.000000
102355000.000000,102050000.000000
Z" /> 
<path style="fill:#000000; fill-opacity:1.0; 
stroke:#000000; stroke-width:1.000000; stroke-opacity:1; 
stroke-linecap:round; stroke-linejoin:round;fill-rule:evenodd;"
d="M 103625000.000000,103550000.000000
102725000.000000,103550000.000000
102725000.000000,102050000.000000
103625000.000000,102050000.000000
Z" /> 
<path style="fill:#000000; fill-opacity:1.0; 
stroke:#000000; stroke-width:1.000000; stroke-opacity:1; 
stroke-linecap:round; stroke-linejoin:round;fill-rule:evenodd;"
d="M 104895000.000000,103550000.000000
103995000.000000,103550000.000000
103995000.000000,102050000.000000
104895000.000000,102050000.000000
Z" /> 
<path style="fill:#000000; fill-opacity:1.0; 
stroke:#000000; stroke-width:1.000000; stroke-opacity:1; 
stroke-linecap:round; stroke-linejoin:round;fill-rule:evenodd;"
d="M 106165000.000000,103550000.000000
105265000.000000,103550000.000000
105265000.000000,102050000.000000
106165000.000000,102050000.000000
Z" /> 
<path style="fill:#000000; fill-opacity:1.0; 
stroke:#000000; stroke-width:1.000000; stroke-opacity:1; 
stroke-linecap:round; stroke-linejoin:round;fill-rule:evenodd;"
d="M 107435000.000000,103550000.000000
106535000.000000,103550000.000000
106535000.000000,102050000.000000
107435000.000000,102050000.000000
Z" /> 
<path style="fill:#000000; fill-opacity:1.0; 
stroke:#000000; stroke-width:1.000000; stroke-opacity:1; 
stroke-linecap:round; stroke-linejoin:round;fill-rule:evenodd;"
d="M 109500000.000000,101100000.000000
109500000.000000,102000000.000000
108000000.000000,102000000.000000
108000000.000000,101100000.000000
Z" /> 
<path style="fill:#000000; fill-opacity:1.0; 
stroke:#000000; stroke-width:1.000000; stroke-opacity:1; 
stroke-linecap:round; stroke-linejoin:round;fill-rule:evenodd;"
d="M 109500000.000000,99830000.000000
109500000.000000,100730000.000000
108000000.000000,100730000.000000
108000000.000000,99830000.000000
Z" /> 
<path style="fill:#000000; fill-opacity:1.0; 
stroke:#000000; stroke-width:1.000000; stroke-opacity:1; 
stroke-linecap:round; stroke-linejoin:round;fill-rule:evenodd;"
d="M 109500000.000000,98560000.000000
109500000.000000,99460000.000000
108000000.000000,99460000.000000
108000000.000000,98560000.000000
Z" /> 
<path style="fill:#000000; fill-opacity:1.0; 
stroke:#000000; stroke-width:1.000000; stroke-opacity:1; 
stroke-linecap:round; stroke-linejoin:round;fill-rule:evenodd;"
d="M 109500000.000000,97290000.000000
109500000.000000,98190000.000000
108000000.000000,98190000.000000
108000000.000000,97290000.000000
Z" /> 
<path style="fill:#000000; fill-opacity:1.0; 
stroke:#000000; stroke-width:1.000000; stroke-opacity:1; 
stroke-linecap:round; stroke-linejoin:round;fill-rule:evenodd;"
d="M 109500000.000000,96020000.000000
109500000.000000,96920000.000000
108000000.000000,96920000.000000
108000000.000000,96020000.000000
Z" /> 
<path style="fill:#000000; fill-opacity:1.0; 
stroke:#000000; stroke-width:1.000000; stroke-opacity:1; 
stroke-linecap:round; stroke-linejoin:round;fill-rule:evenodd;"
d="M 109500000.000000,94750000.000000
109500000.000000,95650000.000000
108000000.000000,95650000.000000
108000000.000000,94750000.000000
Z" /> 
<path style="fill:#000000; fill-opacity:1.0; 
stroke:#000000; stroke-width:1.000000; stroke-opacity:1; 
stroke-linecap:round; stroke-linejoin:round;fill-rule:evenodd;"
d="M 109500000.000000,93480000.000000
109500000.000000,94380000.000000
108000000.000000,94380000.000000
108000000.000000,93480000.000000
Z" /> 
<path style="fill:#000000; fill-opacity:1.0; 
stroke:#000000; stroke-width:1.000000; stroke-opacity:1; 
stroke-linecap:round; stroke-linejoin:round;fill-rule:evenodd;"
d="M 109500000.000000,92210000.000000
109500000.000000,93110000.000000
108000000.000000,93110000.000000
108000000.000000,92210000.000000
Z" /> 
<path style="fill:#000000; fill-opacity:1.0; 
stroke:#000000; stroke-width:1.000000; stroke-opacity:1; 
stroke-linecap:round; stroke-linejoin:round;fill-rule:evenodd;"
d="M 109500000.000000,90940000.000000
109500000.000000,91840000.000000
108000000.000000,91840000.000000
108000000.000000,90940000.000000
Z" /> 
<path style="fill:#000000; fill-opacity:1.0; 
stroke:#000000; stroke-width:1.000000; stroke-opacity:1; 
stroke-linecap:round; stroke-linejoin:round;fill-rule:evenodd;"
d="M 109500000.000000,89670000.000000
109500000.000000,90570000.000000
108000000.000000,90570000.000000
108000000.000000,89670000.000000
Z" /> 
<path style="fill:#000000; fill-opacity:1.0; 
stroke:#000000; stroke-width:1.000000; stroke-opacity:1; 
stroke-linecap:round; stroke-linejoin:round;fill-rule:evenodd;"
d="M 109500000.000000,88400000.000000
109500000.000000,89300000.000000
108000000.000000,89300000.000000
108000000.000000,88400000.000000
Z" /> 
<path style="fill:#000000; fill-opacity:1.0; 
stroke:#000000; stroke-width:1.000000; stroke-opacity:1; 
stroke-linecap:round; stroke-linejoin:round;fill-rule:evenodd;"
d="M 109500000.000000,87130000.000000
109500000.000000,88030000.000000
108000000.000000,88030000.000000
108000000.000000,87130000.000000
Z" /> 
<path style="fill:#000000; fill-opacity:1.0; 
stroke:#000000; stroke-width:1.000000; stroke-opacity:1; 
stroke-linecap:round; stroke-linejoin:round;fill-rule:evenodd;"
d="M 109500000.000000,85860000.000000
109500000.000000,86760000.000000
108000000.000000,86760000.000000
108000000.000000,85860000.000000
Z" /> 
<path style="fill:#000000; fill-opacity:1.0; 
stroke:#000000; stroke-width:1.000000; stroke-opacity:1; 
stroke-linecap:round; stroke-linejoin:round;fill-rule:evenodd;"
d="M 109500000.000000,84590000.000000
109500000.000000,85490000.000000
108000000.000000,85490000.000000
108000000.000000,84590000.000000
Z" /> 
<path style="fill:#000000; fill-opacity:1.0; 
stroke:#000000; stroke-width:1.000000; stroke-opacity:1; 
stroke-linecap:round; stroke-linejoin:round;fill-rule:evenodd;"
d="M 100350000.000000,93710000.000000
100350000.000000,94610000.000000
99450000.000000,94610000.000000
99450000.000000,93710000.000000
Z" /> 
<path style="fill:#000000; fill-opacity:1.0; 
stroke:#000000; stroke-width:1.000000; stroke-opacity:1; 
stroke-linecap:round; stroke-linejoin:round;fill-rule:evenodd;"
d="M 100350000.000000,92310000.000000
100350000.000000,93210000.000000
99450000.000000,93210000.000000
99450000.000000,92310000.000000
Z" /> 
<path style="fill:#000000; fill-opacity:1.0; 
stroke:#000000; stroke-width:1.000000; stroke-opacity:1; 
stroke-linecap:round; stroke-linejoin:round;fill-rule:evenodd;"
d="M 100350000.000000,90910000.000000
100350000.000000,91810000.000000
99450000.000000,91810000.000000
99450000.000000,90910000.000000
Z" /> 
<path style="fill:#000000; fill-opacity:1.0; 
stroke:#000000; stroke-width:1.000000; stroke-opacity:1; 
stroke-linecap:round; stroke-linejoin:round;fill-rule:evenodd;"
d="M 98950000.000000,90910000.000000
98950000.000000,91810000.000000
98050000.000000,91810000.000000
98050000.000000,90910000.000000
Z" /> 
<path style="fill:#000000; fill-opacity:1.0; 
stroke:#000000; stroke-width:1.000000; stroke-opacity:1; 
stroke-linecap:round; stroke-linejoin:round;fill-rule:evenodd;"
d="M 98950000.000000,93710000.000000
98950000.000000,94610000.000000
98050000.000000,94610000.000000
98050000.000000,93710000.000000
Z" /> 
<path style="fill:#000000; fill-opacity:1.0; 
stroke:#000000; stroke-width:1.000000; stroke-opacity:1; 
stroke-linecap:round; stroke-linejoin:round;fill-rule:evenodd;"
d="M 97550000.000000,93710000.000000
97550000.000000,94610000.000000
96650000.000000,94610000.000000
96650000.000000,93710000.000000
Z" /> 
<path style="fill:#000000; fill-opacity:1.0; 
stroke:#000000; stroke-width:1.000000; stroke-opacity:1; 
stroke-linecap:round; stroke-linejoin:round;fill-rule:evenodd;"
d="M 97550000.000000,90910000.000000
97550000.000000,91810000.000000
96650000.000000,91810000.000000
96650000.000000,90910000.000000
Z" /> 
<path style="fill:#000000; fill-opacity:1.0; 
stroke:#000000; stroke-width:1.000000; stroke-opacity:1; 
stroke-linecap:round; stroke-linejoin:round;fill-rule:evenodd;"
d="M 97550000.000000,92310000.000000
97550000.000000,93210000.000000
96650000.000000,93210000.000000
96650000.000000,92310000.000000
Z" /> 
<path style="fill:#000000; fill-opacity:1.0; 
stroke:#000000; stroke-width:1.000000; stroke-opacity:1; 
stroke-linecap:round; stroke-linejoin:round;fill-rule:evenodd;"
d="M 98950000.000000,92310000.000000
98950000.000000,93210000.000000
98050000.000000,93210000.000000
98050000.000000,92310000.000000
Z" /> 
</g>
<g >
</g>
<g style="fill:#000000; fill-opacity:1.0; 
stroke:#000000; stroke-width:1.000000; stroke-opacity:1; 
stroke-linecap:round; stroke-linejoin:round;">
<path style="fill:#000000; fill-opacity:1.0; 
stroke:#000000; stroke-width:1.000000; stroke-opacity:1; 
stroke-linecap:round; stroke-linejoin:round;fill-rule:evenodd;"
d="M 80370000.000000,114625000.000000
80274329.000000,114605970.000000
80193223.000000,114551777.000000
80139030.000000,114470671.000000
80120000.000000,114375000.000000
80120000.000000,113700000.000000
80139030.000000,113604329.000000
80193223.000000,113523223.000000
80274329.000000,113469030.000000
80370000.000000,113450000.000000
81320000.000000,113450000.000000
81415671.000000,113469030.000000
81496777.000000,113523223.000000
81550970.000000,113604329.000000
81570000.000000,113700000.000000
81570000.000000,114375000.000000
81550970.000000,114470671.000000
81496777.000000,114551777.000000
81415671.000000,114605970.000000
81320000.000000,114625000.000000
Z" /> 
<path style="fill:#000000; fill-opacity:1.0; 
stroke:#000000; stroke-width:1.000000; stroke-opacity:1; 
stroke-linecap:round; stroke-linejoin:round;fill-rule:evenodd;"
d="M 80370000.000000,112550000.000000
80274329.000000,112530970.000000
80193223.000000,112476777.000000
80139030.000000,112395671.000000
80120000.000000,112300000.000000
80120000.000000,111625000.000000
80139030.000000,111529329.000000
80193223.000000,111448223.000000
80274329.000000,111394030.000000
80370000.000000,111375000.000000
81320000.000000,111375000.000000
81415671.000000,111394030.000000
81496777.000000,111448223.000000
81550970.000000,111529329.000000
81570000.000000,111625000.000000
81570000.000000,112300000.000000
81550970.000000,112395671.000000
81496777.000000,112476777.000000
81415671.000000,112530970.000000
81320000.000000,112550000.000000
Z" /> 
</g>
<g >
</g>
<g style="fill:#000000; fill-opacity:1.0; 
stroke:#000000; stroke-width:1.000000; stroke-opacity:1; 
stroke-linecap:round; stroke-linejoin:round;">
<path style="fill:#000000; fill-opacity:1.0; 
stroke:#000000; stroke-width:1.000000; stroke-opacity:1; 
stroke-linecap:round; stroke-linejoin:round;fill-rule:evenodd;"
d="M 78400000.000000,86050000.000000
78419030.000000,85954329.000000
78473223.000000,85873223.000000
78554329.000000,85819030.000000
78650000.000000,85800000.000000
79350000.000000,85800000.000000
79445671.000000,85819030.000000
79526777.000000,85873223.000000
79580970.000000,85954329.000000
79600000.000000,86050000.000000
79600000.000000,86950000.000000
79580970.000000,87045671.000000
79526777.000000,87126777.000000
79445671.000000,87180970.000000
79350000.000000,87200000.000000
78650000.000000,87200000.000000
78554329.000000,87180970.000000
78473223.000000,87126777.000000
78419030.000000,87045671.000000
78400000.000000,86950000.000000
Z" /> 
<path style="fill:#000000; fill-opacity:1.0; 
stroke:#000000; stroke-width:1.000000; stroke-opacity:1; 
stroke-linecap:round; stroke-linejoin:round;fill-rule:evenodd;"
d="M 80400000.000000,86050000.000000
80419030.000000,85954329.000000
80473223.000000,85873223.000000
80554329.000000,85819030.000000
80650000.000000,85800000.000000
81350000.000000,85800000.000000
81445671.000000,85819030.000000
81526777.000000,85873223.000000
81580970.000000,85954329.000000
81600000.000000,86050000.000000
81600000.000000,86950000.000000
81580970.000000,87045671.000000
81526777.000000,87126777.000000
81445671.000000,87180970.000000
81350000.000000,87200000.000000
80650000.000000,87200000.000000
80554329.000000,87180970.000000
80473223.000000,87126777.000000
80419030.000000,87045671.000000
80400000.000000,86950000.000000
Z" /> 
</g>
<g >
</g>
<g style="fill:#000000; fill-opacity:1.0; 
stroke:#000000; stroke-width:1.000000; stroke-opacity:1; 
stroke-linecap:round; stroke-linejoin:round;">
<path style="fill:#000000; fill-opacity:1.0; 
stroke:#000000; stroke-width:1.000000; stroke-opacity:1; 
stroke-linecap:round; stroke-linejoin:round;fill-rule:evenodd;"
d="M 129096121.000000,129005785.000000
129014907.000000,129130368.000000
128862216.000000,129305709.000000
128682166.000000,129452816.000000
128479903.000000,129567483.000000
128261212.000000,129646433.000000
128032345.000000,129687406.000000
127799847.000000,129689233.000000
127570365.000000,129651859.000000
127350461.000000,129576355.000000
127217836.000000,129509070.000000
121372164.000000,126134070.000000
121247581.000000,126052856.000000
121072241.000000,125900165.000000
120925133.000000,125720115.000000
120810466.000000,125517852.000000
120731516.000000,125299161.000000
120690543.000000,125070294.000000
120688716.000000,124837796.000000
120726090.000000,124608315.000000
120801594.000000,124388410.000000
120868879.000000,124255785.000000
122243879.000000,121874215.000000
122325093.000000,121749632.000000
122477784.000000,121574291.000000
122657834.000000,121427184.000000
122860097.000000,121312517.000000
123078788.000000,121233567.000000
123307655.000000,121192594.000000
123540153.000000,121190767.000000
123769635.000000,121228141.000000
123989539.000000,121303645.000000
124122164.000000,121370930.000000
129967836.000000,124745930.000000
130092419.000000,124827144.000000
130267759.000000,124979835.000000
130414867.000000,125159885.000000
130529534.000000,125362148.000000
130608484.000000,125580839.000000
130649457.000000,125809706.000000
130651284.000000,126042204.000000
130613910.000000,126271685.000000
130538406.000000,126491590.000000
130471121.000000,126624215.000000
Z" /> 
</g>
<g >
</g>
<g style="fill:#000000; fill-opacity:1.0; 
stroke:#000000; stroke-width:1.000000; stroke-opacity:1; 
stroke-linecap:round; stroke-linejoin:round;">
<path style="fill:#000000; fill-opacity:1.0; 
stroke:#000000; stroke-width:1.000000; stroke-opacity:1; 
stroke-linecap:round; stroke-linejoin:round;fill-rule:evenodd;"
d="M 107650000.000000,39230000.000000
107650000.000000,38230000.000000
110800000.000000,38230000.000000
110800000.000000,39230000.000000
Z" /> 
<path style="fill:#000000; fill-opacity:1.0; 
stroke:#000000; stroke-width:1.000000; stroke-opacity:1; 
stroke-linecap:round; stroke-linejoin:round;fill-rule:evenodd;"
d="M 112700000.000000,39230000.000000
112700000.000000,38230000.000000
115850000.000000,38230000.000000
115850000.000000,39230000.000000
Z" /> 
<path style="fill:#000000; fill-opacity:1.0; 
stroke:#000000; stroke-width:1.000000; stroke-opacity:1; 
stroke-linecap:round; stroke-linejoin:round;fill-rule:evenodd;"
d="M 107650000.000000,41770000.000000
107650000.000000,40770000.000000
110800000.000000,40770000.000000
110800000.000000,41770000.000000
Z" /> 
<path style="fill:#000000; fill-opacity:1.0; 
stroke:#000000; stroke-width:1.000000; stroke-opacity:1; 
stroke-linecap:round; stroke-linejoin:round;fill-rule:evenodd;"
d="M 112700000.000000,41770000.000000
112700000.000000,40770000.000000
115850000.000000,40770000.000000
115850000.000000,41770000.000000
Z" /> 
</g>
<g >
</g>
<g style="fill:#000000; fill-opacity:1.0; 
stroke:#000000; stroke-width:1.000000; stroke-opacity:1; 
stroke-linecap:round; stroke-linejoin:round;">
<path style="fill:#000000; fill-opacity:1.0; 
stroke:#000000; stroke-width:1.000000; stroke-opacity:1; 
stroke-linecap:round; stroke-linejoin:round;fill-rule:evenodd;"
d="M 83400000.000000,119550000.000000
83419030.000000,119454329.000000
83473223.000000,119373223.000000
83554329.000000,119319030.000000
83650000.000000,119300000.000000
84300000.000000,119300000.000000
84395671.000000,119319030.000000
84476777.000000,119373223.000000
84530970.000000,119454329.000000
84550000.000000,119550000.000000
84550000.000000,120450000.000000
84530970.000000,120545671.000000
84476777.000000,120626777.000000
84395671.000000,120680970.000000
84300000.000000,120700000.000000
83650000.000000,120700000.000000
83554329.000000,120680970.000000
83473223.000000,120626777.000000
83419030.000000,120545671.000000
83400000.000000,120450000.000000
Z" /> 
<path style="fill:#000000; fill-opacity:1.0; 
stroke:#000000; stroke-width:1.000000; stroke-opacity:1; 
stroke-linecap:round; stroke-linejoin:round;fill-rule:evenodd;"
d="M 85450000.000000,119550000.000000
85469030.000000,119454329.000000
85523223.000000,119373223.000000
85604329.000000,119319030.000000
85700000.000000,119300000.000000
86350000.000000,119300000.000000
86445671.000000,119319030.000000
86526777.000000,119373223.000000
86580970.000000,119454329.000000
86600000.000000,119550000.000000
86600000.000000,120450000.000000
86580970.000000,120545671.000000
86526777.000000,120626777.000000
86445671.000000,120680970.000000
86350000.000000,120700000.000000
85700000.000000,120700000.000000
85604329.000000,120680970.000000
85523223.000000,120626777.000000
85469030.000000,120545671.000000
85450000.000000,120450000.000000
Z" /> 
</g>
<g >
</g>
<g style="fill:#000000; fill-opacity:1.0; 
stroke:#000000; stroke-width:1.000000; stroke-opacity:1; 
stroke-linecap:round; stroke-linejoin:round;">
<path style="fill:#000000; fill-opacity:1.0; 
stroke:#000000; stroke-width:1.000000; stroke-opacity:1; 
stroke-linecap:round; stroke-linejoin:round;fill-rule:evenodd;"
d="M 83350000.000000,113400000.000000
83350000.000000,111900000.000000
85350000.000000,111900000.000000
85350000.000000,113400000.000000
Z" /> 
<path style="fill:#000000; fill-opacity:1.0; 
stroke:#000000; stroke-width:1.000000; stroke-opacity:1; 
stroke-linecap:round; stroke-linejoin:round;fill-rule:evenodd;"
d="M 83350000.000000,115700000.000000
83350000.000000,114200000.000000
85350000.000000,114200000.000000
85350000.000000,115700000.000000
Z" /> 
<path style="fill:#000000; fill-opacity:1.0; 
stroke:#000000; stroke-width:1.000000; stroke-opacity:1; 
stroke-linecap:round; stroke-linejoin:round;fill-rule:evenodd;"
d="M 89650000.000000,116850000.000000
89650000.000000,113050000.000000
91650000.000000,113050000.000000
91650000.000000,116850000.000000
Z" /> 
<path style="fill:#000000; fill-opacity:1.0; 
stroke:#000000; stroke-width:1.000000; stroke-opacity:1; 
stroke-linecap:round; stroke-linejoin:round;fill-rule:evenodd;"
d="M 83350000.000000,118000000.000000
83350000.000000,116500000.000000
85350000.000000,116500000.000000
85350000.000000,118000000.000000
Z" /> 
</g>
<g >
</g>
<g style="fill:#000000; fill-opacity:1.0; 
stroke:#000000; stroke-width:1.000000; stroke-opacity:1; 
stroke-linecap:round; stroke-linejoin:round;">
<path style="fill:#000000; fill-opacity:1.0; 
stroke:#000000; stroke-width:1.000000; stroke-opacity:1; 
stroke-linecap:round; stroke-linejoin:round;fill-rule:evenodd;"
d="M 78400000.000000,84750000.000000
77100000.000000,84750000.000000
77100000.000000,83200000.000000
78400000.000000,83200000.000000
Z" /> 
<path style="fill:#000000; fill-opacity:1.0; 
stroke:#000000; stroke-width:1.000000; stroke-opacity:1; 
stroke-linecap:round; stroke-linejoin:round;fill-rule:evenodd;"
d="M 78400000.000000,76800000.000000
77100000.000000,76800000.000000
77100000.000000,75250000.000000
78400000.000000,75250000.000000
Z" /> 
<path style="fill:#000000; fill-opacity:1.0; 
stroke:#000000; stroke-width:1.000000; stroke-opacity:1; 
stroke-linecap:round; stroke-linejoin:round;fill-rule:evenodd;"
d="M 82900000.000000,84750000.000000
81600000.000000,84750000.000000
81600000.000000,83200000.000000
82900000.000000,83200000.000000
Z" /> 
<path style="fill:#000000; fill-opacity:1.0; 
stroke:#000000; stroke-width:1.000000; stroke-opacity:1; 
stroke-linecap:round; stroke-linejoin:round;fill-rule:evenodd;"
d="M 82900000.000000,76800000.000000
81600000.000000,76800000.000000
81600000.000000,75250000.000000
82900000.000000,75250000.000000
Z" /> 
</g>
<g >
</g>
<g >
</g>
<g >
</g>
</g> 
</svg>
