<?xml version="1.0" standalone="no"?>
 <!DOCTYPE svg PUBLIC "-//W3C//DTD SVG 1.1//EN" 
 "http://www.w3.org/Graphics/SVG/1.1/DTD/svg11.dtd"> 
<svg
  xmlns:svg="http://www.w3.org/2000/svg"
  xmlns="http://www.w3.org/2000/svg"
  xmlns:xlink="http://www.w3.org/1999/xlink"
  version="1.1"
  width="29.700220cm" height="21.000720cm" viewBox="0 0 297002200 210007200">
<title>SVG Picture created as suqtagon-base-F_Paste.svg date 2024/03/23 22:23:38 </title>
  <desc>Picture generated by PCBNEW </desc>
<g style="fill:#000000; fill-opacity:1.000000;stroke:#000000; stroke-opacity:1.000000;
stroke-linecap:round; stroke-linejoin:round;"
 transform="translate(0 0) scale(1 1)">
</g>
<g style="fill:#000000; fill-opacity:0.0; 
stroke:#000000; stroke-width:0.000000; stroke-opacity:1; 
stroke-linecap:round; stroke-linejoin:round;">
</g>
<g style="fill:#000000; fill-opacity:0.0; 
stroke:#000000; stroke-width:100000.000000; stroke-opacity:1; 
stroke-linecap:round; stroke-linejoin:round;">
<path d="M75000000 50000000
L125000000 50000000
" />
<path d="M125000000 136600000
L150000000 93300000
" />
<path d="M75000000 136600000
L125000000 136600000
" />
<path d="M50000000 93300000
L75000000 136600000
" />
<path d="M150000000 93300000
L125000000 50000000
" />
<path d="M75000000 50000000
L50000000 93300000
" />
<g >
</g>
<g >
</g>
<g >
</g>
<g >
</g>
<g >
</g>
<g >
</g>
<g style="fill:#000000; fill-opacity:0.0; 
stroke:#000000; stroke-width:100000.000000; stroke-opacity:1; 
stroke-linecap:round; stroke-linejoin:round;">
</g>
<g style="fill:#000000; fill-opacity:0.0; 
stroke:#000000; stroke-width:1.000000; stroke-opacity:1; 
stroke-linecap:round; stroke-linejoin:round;">
</g>
<g style="fill:#000000; fill-opacity:1.0; 
stroke:#000000; stroke-width:1.000000; stroke-opacity:1; 
stroke-linecap:round; stroke-linejoin:round;">
<path style="fill:#000000; fill-opacity:1.0; 
stroke:#000000; stroke-width:1.000000; stroke-opacity:1; 
stroke-linecap:round; stroke-linejoin:round;fill-rule:evenodd;"
d="M 87925000.000000,86625000.000000
87829329.000000,86605970.000000
87748223.000000,86551777.000000
87694030.000000,86470671.000000
87675000.000000,86375000.000000
87675000.000000,85700000.000000
87694030.000000,85604329.000000
87748223.000000,85523223.000000
87829329.000000,85469030.000000
87925000.000000,85450000.000000
88875000.000000,85450000.000000
88970671.000000,85469030.000000
89051777.000000,85523223.000000
89105970.000000,85604329.000000
89125000.000000,85700000.000000
89125000.000000,86375000.000000
89105970.000000,86470671.000000
89051777.000000,86551777.000000
88970671.000000,86605970.000000
88875000.000000,86625000.000000
Z" /> 
<path style="fill:#000000; fill-opacity:1.0; 
stroke:#000000; stroke-width:1.000000; stroke-opacity:1; 
stroke-linecap:round; stroke-linejoin:round;fill-rule:evenodd;"
d="M 87925000.000000,84550000.000000
87829329.000000,84530970.000000
87748223.000000,84476777.000000
87694030.000000,84395671.000000
87675000.000000,84300000.000000
87675000.000000,83625000.000000
87694030.000000,83529329.000000
87748223.000000,83448223.000000
87829329.000000,83394030.000000
87925000.000000,83375000.000000
88875000.000000,83375000.000000
88970671.000000,83394030.000000
89051777.000000,83448223.000000
89105970.000000,83529329.000000
89125000.000000,83625000.000000
89125000.000000,84300000.000000
89105970.000000,84395671.000000
89051777.000000,84476777.000000
88970671.000000,84530970.000000
88875000.000000,84550000.000000
Z" /> 
</g>
<g >
</g>
<g >
</g>
<g style="fill:#000000; fill-opacity:1.0; 
stroke:#000000; stroke-width:1.000000; stroke-opacity:1; 
stroke-linecap:round; stroke-linejoin:round;">
<path style="fill:#000000; fill-opacity:1.0; 
stroke:#000000; stroke-width:1.000000; stroke-opacity:1; 
stroke-linecap:round; stroke-linejoin:round;fill-rule:evenodd;"
d="M 75900000.000000,39230000.000000
75900000.000000,38230000.000000
79050000.000000,38230000.000000
79050000.000000,39230000.000000
Z" /> 
<path style="fill:#000000; fill-opacity:1.0; 
stroke:#000000; stroke-width:1.000000; stroke-opacity:1; 
stroke-linecap:round; stroke-linejoin:round;fill-rule:evenodd;"
d="M 80950000.000000,39230000.000000
80950000.000000,38230000.000000
84100000.000000,38230000.000000
84100000.000000,39230000.000000
Z" /> 
<path style="fill:#000000; fill-opacity:1.0; 
stroke:#000000; stroke-width:1.000000; stroke-opacity:1; 
stroke-linecap:round; stroke-linejoin:round;fill-rule:evenodd;"
d="M 75900000.000000,41770000.000000
75900000.000000,40770000.000000
79050000.000000,40770000.000000
79050000.000000,41770000.000000
Z" /> 
<path style="fill:#000000; fill-opacity:1.0; 
stroke:#000000; stroke-width:1.000000; stroke-opacity:1; 
stroke-linecap:round; stroke-linejoin:round;fill-rule:evenodd;"
d="M 80950000.000000,41770000.000000
80950000.000000,40770000.000000
84100000.000000,40770000.000000
84100000.000000,41770000.000000
Z" /> 
</g>
<g >
</g>
<g style="fill:#000000; fill-opacity:1.0; 
stroke:#000000; stroke-width:1.000000; stroke-opacity:1; 
stroke-linecap:round; stroke-linejoin:round;">
<path style="fill:#000000; fill-opacity:1.0; 
stroke:#000000; stroke-width:1.000000; stroke-opacity:1; 
stroke-linecap:round; stroke-linejoin:round;fill-rule:evenodd;"
d="M 96070000.000000,126212400.000000
95974329.000000,126193370.000000
95893223.000000,126139177.000000
95839030.000000,126058071.000000
95820000.000000,125962400.000000
95820000.000000,125262400.000000
95839030.000000,125166729.000000
95893223.000000,125085623.000000
95974329.000000,125031430.000000
96070000.000000,125012400.000000
96970000.000000,125012400.000000
97065671.000000,125031430.000000
97146777.000000,125085623.000000
97200970.000000,125166729.000000
97220000.000000,125262400.000000
97220000.000000,125962400.000000
97200970.000000,126058071.000000
97146777.000000,126139177.000000
97065671.000000,126193370.000000
96970000.000000,126212400.000000
Z" /> 
<path style="fill:#000000; fill-opacity:1.0; 
stroke:#000000; stroke-width:1.000000; stroke-opacity:1; 
stroke-linecap:round; stroke-linejoin:round;fill-rule:evenodd;"
d="M 96070000.000000,124212400.000000
95974329.000000,124193370.000000
95893223.000000,124139177.000000
95839030.000000,124058071.000000
95820000.000000,123962400.000000
95820000.000000,123262400.000000
95839030.000000,123166729.000000
95893223.000000,123085623.000000
95974329.000000,123031430.000000
96070000.000000,123012400.000000
96970000.000000,123012400.000000
97065671.000000,123031430.000000
97146777.000000,123085623.000000
97200970.000000,123166729.000000
97220000.000000,123262400.000000
97220000.000000,123962400.000000
97200970.000000,124058071.000000
97146777.000000,124139177.000000
97065671.000000,124193370.000000
96970000.000000,124212400.000000
Z" /> 
</g>
<g >
</g>
<g >
</g>
<g style="fill:#000000; fill-opacity:1.0; 
stroke:#000000; stroke-width:1.000000; stroke-opacity:1; 
stroke-linecap:round; stroke-linejoin:round;">
<path style="fill:#000000; fill-opacity:1.0; 
stroke:#000000; stroke-width:1.000000; stroke-opacity:1; 
stroke-linecap:round; stroke-linejoin:round;fill-rule:evenodd;"
d="M 100489600.000000,126212400.000000
100393929.000000,126193370.000000
100312823.000000,126139177.000000
100258630.000000,126058071.000000
100239600.000000,125962400.000000
100239600.000000,125262400.000000
100258630.000000,125166729.000000
100312823.000000,125085623.000000
100393929.000000,125031430.000000
100489600.000000,125012400.000000
101389600.000000,125012400.000000
101485271.000000,125031430.000000
101566377.000000,125085623.000000
101620570.000000,125166729.000000
101639600.000000,125262400.000000
101639600.000000,125962400.000000
101620570.000000,126058071.000000
101566377.000000,126139177.000000
101485271.000000,126193370.000000
101389600.000000,126212400.000000
Z" /> 
<path style="fill:#000000; fill-opacity:1.0; 
stroke:#000000; stroke-width:1.000000; stroke-opacity:1; 
stroke-linecap:round; stroke-linejoin:round;fill-rule:evenodd;"
d="M 100489600.000000,124212400.000000
100393929.000000,124193370.000000
100312823.000000,124139177.000000
100258630.000000,124058071.000000
100239600.000000,123962400.000000
100239600.000000,123262400.000000
100258630.000000,123166729.000000
100312823.000000,123085623.000000
100393929.000000,123031430.000000
100489600.000000,123012400.000000
101389600.000000,123012400.000000
101485271.000000,123031430.000000
101566377.000000,123085623.000000
101620570.000000,123166729.000000
101639600.000000,123262400.000000
101639600.000000,123962400.000000
101620570.000000,124058071.000000
101566377.000000,124139177.000000
101485271.000000,124193370.000000
101389600.000000,124212400.000000
Z" /> 
</g>
<g >
</g>
<g >
</g>
<g >
</g>
<g >
</g>
<g style="fill:#000000; fill-opacity:1.0; 
stroke:#000000; stroke-width:1.000000; stroke-opacity:1; 
stroke-linecap:round; stroke-linejoin:round;">
<path style="fill:#000000; fill-opacity:1.0; 
stroke:#000000; stroke-width:1.000000; stroke-opacity:1; 
stroke-linecap:round; stroke-linejoin:round;fill-rule:evenodd;"
d="M 98254400.000000,126212400.000000
98158729.000000,126193370.000000
98077623.000000,126139177.000000
98023430.000000,126058071.000000
98004400.000000,125962400.000000
98004400.000000,125262400.000000
98023430.000000,125166729.000000
98077623.000000,125085623.000000
98158729.000000,125031430.000000
98254400.000000,125012400.000000
99154400.000000,125012400.000000
99250071.000000,125031430.000000
99331177.000000,125085623.000000
99385370.000000,125166729.000000
99404400.000000,125262400.000000
99404400.000000,125962400.000000
99385370.000000,126058071.000000
99331177.000000,126139177.000000
99250071.000000,126193370.000000
99154400.000000,126212400.000000
Z" /> 
<path style="fill:#000000; fill-opacity:1.0; 
stroke:#000000; stroke-width:1.000000; stroke-opacity:1; 
stroke-linecap:round; stroke-linejoin:round;fill-rule:evenodd;"
d="M 98254400.000000,124212400.000000
98158729.000000,124193370.000000
98077623.000000,124139177.000000
98023430.000000,124058071.000000
98004400.000000,123962400.000000
98004400.000000,123262400.000000
98023430.000000,123166729.000000
98077623.000000,123085623.000000
98158729.000000,123031430.000000
98254400.000000,123012400.000000
99154400.000000,123012400.000000
99250071.000000,123031430.000000
99331177.000000,123085623.000000
99385370.000000,123166729.000000
99404400.000000,123262400.000000
99404400.000000,123962400.000000
99385370.000000,124058071.000000
99331177.000000,124139177.000000
99250071.000000,124193370.000000
99154400.000000,124212400.000000
Z" /> 
</g>
<g >
</g>
<g style="fill:#000000; fill-opacity:1.0; 
stroke:#000000; stroke-width:1.000000; stroke-opacity:1; 
stroke-linecap:round; stroke-linejoin:round;">
<path style="fill:#000000; fill-opacity:1.0; 
stroke:#000000; stroke-width:1.000000; stroke-opacity:1; 
stroke-linecap:round; stroke-linejoin:round;fill-rule:evenodd;"
d="M 80370000.000000,118625000.000000
80274329.000000,118605970.000000
80193223.000000,118551777.000000
80139030.000000,118470671.000000
80120000.000000,118375000.000000
80120000.000000,117700000.000000
80139030.000000,117604329.000000
80193223.000000,117523223.000000
80274329.000000,117469030.000000
80370000.000000,117450000.000000
81320000.000000,117450000.000000
81415671.000000,117469030.000000
81496777.000000,117523223.000000
81550970.000000,117604329.000000
81570000.000000,117700000.000000
81570000.000000,118375000.000000
81550970.000000,118470671.000000
81496777.000000,118551777.000000
81415671.000000,118605970.000000
81320000.000000,118625000.000000
Z" /> 
<path style="fill:#000000; fill-opacity:1.0; 
stroke:#000000; stroke-width:1.000000; stroke-opacity:1; 
stroke-linecap:round; stroke-linejoin:round;fill-rule:evenodd;"
d="M 80370000.000000,116550000.000000
80274329.000000,116530970.000000
80193223.000000,116476777.000000
80139030.000000,116395671.000000
80120000.000000,116300000.000000
80120000.000000,115625000.000000
80139030.000000,115529329.000000
80193223.000000,115448223.000000
80274329.000000,115394030.000000
80370000.000000,115375000.000000
81320000.000000,115375000.000000
81415671.000000,115394030.000000
81496777.000000,115448223.000000
81550970.000000,115529329.000000
81570000.000000,115625000.000000
81570000.000000,116300000.000000
81550970.000000,116395671.000000
81496777.000000,116476777.000000
81415671.000000,116530970.000000
81320000.000000,116550000.000000
Z" /> 
</g>
<g >
</g>
<g style="fill:#000000; fill-opacity:1.0; 
stroke:#000000; stroke-width:1.000000; stroke-opacity:1; 
stroke-linecap:round; stroke-linejoin:round;">
<path style="fill:#000000; fill-opacity:1.0; 
stroke:#000000; stroke-width:1.000000; stroke-opacity:1; 
stroke-linecap:round; stroke-linejoin:round;fill-rule:evenodd;"
d="M 96450000.000000,129280000.000000
96450000.000000,127830000.000000
97050000.000000,127830000.000000
97050000.000000,129280000.000000
Z" /> 
<path style="fill:#000000; fill-opacity:1.0; 
stroke:#000000; stroke-width:1.000000; stroke-opacity:1; 
stroke-linecap:round; stroke-linejoin:round;fill-rule:evenodd;"
d="M 97250000.000000,129280000.000000
97250000.000000,127830000.000000
97850000.000000,127830000.000000
97850000.000000,129280000.000000
Z" /> 
<path style="fill:#000000; fill-opacity:1.0; 
stroke:#000000; stroke-width:1.000000; stroke-opacity:1; 
stroke-linecap:round; stroke-linejoin:round;fill-rule:evenodd;"
d="M 98600000.000000,129280000.000000
98600000.000000,127830000.000000
98900000.000000,127830000.000000
98900000.000000,129280000.000000
Z" /> 
<path style="fill:#000000; fill-opacity:1.0; 
stroke:#000000; stroke-width:1.000000; stroke-opacity:1; 
stroke-linecap:round; stroke-linejoin:round;fill-rule:evenodd;"
d="M 99600000.000000,129280000.000000
99600000.000000,127830000.000000
99900000.000000,127830000.000000
99900000.000000,129280000.000000
Z" /> 
<path style="fill:#000000; fill-opacity:1.0; 
stroke:#000000; stroke-width:1.000000; stroke-opacity:1; 
stroke-linecap:round; stroke-linejoin:round;fill-rule:evenodd;"
d="M 100100000.000000,129280000.000000
100100000.000000,127830000.000000
100400000.000000,127830000.000000
100400000.000000,129280000.000000
Z" /> 
<path style="fill:#000000; fill-opacity:1.0; 
stroke:#000000; stroke-width:1.000000; stroke-opacity:1; 
stroke-linecap:round; stroke-linejoin:round;fill-rule:evenodd;"
d="M 101100000.000000,129280000.000000
101100000.000000,127830000.000000
101400000.000000,127830000.000000
101400000.000000,129280000.000000
Z" /> 
<path style="fill:#000000; fill-opacity:1.0; 
stroke:#000000; stroke-width:1.000000; stroke-opacity:1; 
stroke-linecap:round; stroke-linejoin:round;fill-rule:evenodd;"
d="M 102150000.000000,129280000.000000
102150000.000000,127830000.000000
102750000.000000,127830000.000000
102750000.000000,129280000.000000
Z" /> 
<path style="fill:#000000; fill-opacity:1.0; 
stroke:#000000; stroke-width:1.000000; stroke-opacity:1; 
stroke-linecap:round; stroke-linejoin:round;fill-rule:evenodd;"
d="M 102950000.000000,129280000.000000
102950000.000000,127830000.000000
103550000.000000,127830000.000000
103550000.000000,129280000.000000
Z" /> 
<path style="fill:#000000; fill-opacity:1.0; 
stroke:#000000; stroke-width:1.000000; stroke-opacity:1; 
stroke-linecap:round; stroke-linejoin:round;fill-rule:evenodd;"
d="M 102950000.000000,129280000.000000
102950000.000000,127830000.000000
103550000.000000,127830000.000000
103550000.000000,129280000.000000
Z" /> 
<path style="fill:#000000; fill-opacity:1.0; 
stroke:#000000; stroke-width:1.000000; stroke-opacity:1; 
stroke-linecap:round; stroke-linejoin:round;fill-rule:evenodd;"
d="M 102150000.000000,129280000.000000
102150000.000000,127830000.000000
102750000.000000,127830000.000000
102750000.000000,129280000.000000
Z" /> 
<path style="fill:#000000; fill-opacity:1.0; 
stroke:#000000; stroke-width:1.000000; stroke-opacity:1; 
stroke-linecap:round; stroke-linejoin:round;fill-rule:evenodd;"
d="M 101600000.000000,129280000.000000
101600000.000000,127830000.000000
101900000.000000,127830000.000000
101900000.000000,129280000.000000
Z" /> 
<path style="fill:#000000; fill-opacity:1.0; 
stroke:#000000; stroke-width:1.000000; stroke-opacity:1; 
stroke-linecap:round; stroke-linejoin:round;fill-rule:evenodd;"
d="M 100600000.000000,129280000.000000
100600000.000000,127830000.000000
100900000.000000,127830000.000000
100900000.000000,129280000.000000
Z" /> 
<path style="fill:#000000; fill-opacity:1.0; 
stroke:#000000; stroke-width:1.000000; stroke-opacity:1; 
stroke-linecap:round; stroke-linejoin:round;fill-rule:evenodd;"
d="M 99100000.000000,129280000.000000
99100000.000000,127830000.000000
99400000.000000,127830000.000000
99400000.000000,129280000.000000
Z" /> 
<path style="fill:#000000; fill-opacity:1.0; 
stroke:#000000; stroke-width:1.000000; stroke-opacity:1; 
stroke-linecap:round; stroke-linejoin:round;fill-rule:evenodd;"
d="M 98100000.000000,129280000.000000
98100000.000000,127830000.000000
98400000.000000,127830000.000000
98400000.000000,129280000.000000
Z" /> 
<path style="fill:#000000; fill-opacity:1.0; 
stroke:#000000; stroke-width:1.000000; stroke-opacity:1; 
stroke-linecap:round; stroke-linejoin:round;fill-rule:evenodd;"
d="M 97250000.000000,129280000.000000
97250000.000000,127830000.000000
97850000.000000,127830000.000000
97850000.000000,129280000.000000
Z" /> 
<path style="fill:#000000; fill-opacity:1.0; 
stroke:#000000; stroke-width:1.000000; stroke-opacity:1; 
stroke-linecap:round; stroke-linejoin:round;fill-rule:evenodd;"
d="M 96450000.000000,129280000.000000
96450000.000000,127830000.000000
97050000.000000,127830000.000000
97050000.000000,129280000.000000
Z" /> 
</g>
<g >
</g>
<g >
</g>
<g style="fill:#000000; fill-opacity:1.0; 
stroke:#000000; stroke-width:1.000000; stroke-opacity:1; 
stroke-linecap:round; stroke-linejoin:round;">
<path style="fill:#000000; fill-opacity:1.0; 
stroke:#000000; stroke-width:1.000000; stroke-opacity:1; 
stroke-linecap:round; stroke-linejoin:round;fill-rule:evenodd;"
d="M 102674000.000000,126212400.000000
102578329.000000,126193370.000000
102497223.000000,126139177.000000
102443030.000000,126058071.000000
102424000.000000,125962400.000000
102424000.000000,125262400.000000
102443030.000000,125166729.000000
102497223.000000,125085623.000000
102578329.000000,125031430.000000
102674000.000000,125012400.000000
103574000.000000,125012400.000000
103669671.000000,125031430.000000
103750777.000000,125085623.000000
103804970.000000,125166729.000000
103824000.000000,125262400.000000
103824000.000000,125962400.000000
103804970.000000,126058071.000000
103750777.000000,126139177.000000
103669671.000000,126193370.000000
103574000.000000,126212400.000000
Z" /> 
<path style="fill:#000000; fill-opacity:1.0; 
stroke:#000000; stroke-width:1.000000; stroke-opacity:1; 
stroke-linecap:round; stroke-linejoin:round;fill-rule:evenodd;"
d="M 102674000.000000,124212400.000000
102578329.000000,124193370.000000
102497223.000000,124139177.000000
102443030.000000,124058071.000000
102424000.000000,123962400.000000
102424000.000000,123262400.000000
102443030.000000,123166729.000000
102497223.000000,123085623.000000
102578329.000000,123031430.000000
102674000.000000,123012400.000000
103574000.000000,123012400.000000
103669671.000000,123031430.000000
103750777.000000,123085623.000000
103804970.000000,123166729.000000
103824000.000000,123262400.000000
103824000.000000,123962400.000000
103804970.000000,124058071.000000
103750777.000000,124139177.000000
103669671.000000,124193370.000000
103574000.000000,124212400.000000
Z" /> 
</g>
<g >
</g>
<g style="fill:#000000; fill-opacity:1.0; 
stroke:#000000; stroke-width:1.000000; stroke-opacity:1; 
stroke-linecap:round; stroke-linejoin:round;">
<path style="fill:#000000; fill-opacity:1.0; 
stroke:#000000; stroke-width:1.000000; stroke-opacity:1; 
stroke-linecap:round; stroke-linejoin:round;fill-rule:evenodd;"
d="M 111935200.000000,75325000.000000
111935200.000000,75925000.000000
111235200.000000,75925000.000000
111235200.000000,75325000.000000
Z" /> 
<path style="fill:#000000; fill-opacity:1.0; 
stroke:#000000; stroke-width:1.000000; stroke-opacity:1; 
stroke-linecap:round; stroke-linejoin:round;fill-rule:evenodd;"
d="M 112735200.000000,75675000.000000
112735200.000000,76175000.000000
112285200.000000,76175000.000000
112285200.000000,75675000.000000
Z" /> 
<path style="fill:#000000; fill-opacity:1.0; 
stroke:#000000; stroke-width:1.000000; stroke-opacity:1; 
stroke-linecap:round; stroke-linejoin:round;fill-rule:evenodd;"
d="M 113485200.000000,75675000.000000
113485200.000000,76175000.000000
113035200.000000,76175000.000000
113035200.000000,75675000.000000
Z" /> 
<path style="fill:#000000; fill-opacity:1.0; 
stroke:#000000; stroke-width:1.000000; stroke-opacity:1; 
stroke-linecap:round; stroke-linejoin:round;fill-rule:evenodd;"
d="M 114535200.000000,75325000.000000
114535200.000000,75925000.000000
113835200.000000,75925000.000000
113835200.000000,75325000.000000
Z" /> 
</g>
<g >
</g>
<g style="fill:#000000; fill-opacity:1.0; 
stroke:#000000; stroke-width:1.000000; stroke-opacity:1; 
stroke-linecap:round; stroke-linejoin:round;">
<path style="fill:#000000; fill-opacity:1.0; 
stroke:#000000; stroke-width:1.000000; stroke-opacity:1; 
stroke-linecap:round; stroke-linejoin:round;fill-rule:evenodd;"
d="M 123400000.000000,114750000.000000
122100000.000000,114750000.000000
122100000.000000,113200000.000000
123400000.000000,113200000.000000
Z" /> 
<path style="fill:#000000; fill-opacity:1.0; 
stroke:#000000; stroke-width:1.000000; stroke-opacity:1; 
stroke-linecap:round; stroke-linejoin:round;fill-rule:evenodd;"
d="M 123400000.000000,106800000.000000
122100000.000000,106800000.000000
122100000.000000,105250000.000000
123400000.000000,105250000.000000
Z" /> 
<path style="fill:#000000; fill-opacity:1.0; 
stroke:#000000; stroke-width:1.000000; stroke-opacity:1; 
stroke-linecap:round; stroke-linejoin:round;fill-rule:evenodd;"
d="M 127900000.000000,114750000.000000
126600000.000000,114750000.000000
126600000.000000,113200000.000000
127900000.000000,113200000.000000
Z" /> 
<path style="fill:#000000; fill-opacity:1.0; 
stroke:#000000; stroke-width:1.000000; stroke-opacity:1; 
stroke-linecap:round; stroke-linejoin:round;fill-rule:evenodd;"
d="M 127900000.000000,106800000.000000
126600000.000000,106800000.000000
126600000.000000,105250000.000000
127900000.000000,105250000.000000
Z" /> 
</g>
<g >
</g>
<g style="fill:#000000; fill-opacity:1.0; 
stroke:#000000; stroke-width:1.000000; stroke-opacity:1; 
stroke-linecap:round; stroke-linejoin:round;">
<path style="fill:#000000; fill-opacity:1.0; 
stroke:#000000; stroke-width:1.000000; stroke-opacity:1; 
stroke-linecap:round; stroke-linejoin:round;fill-rule:evenodd;"
d="M 126600000.000000,116950000.000000
126580970.000000,117045671.000000
126526777.000000,117126777.000000
126445671.000000,117180970.000000
126350000.000000,117200000.000000
125650000.000000,117200000.000000
125554329.000000,117180970.000000
125473223.000000,117126777.000000
125419030.000000,117045671.000000
125400000.000000,116950000.000000
125400000.000000,116050000.000000
125419030.000000,115954329.000000
125473223.000000,115873223.000000
125554329.000000,115819030.000000
125650000.000000,115800000.000000
126350000.000000,115800000.000000
126445671.000000,115819030.000000
126526777.000000,115873223.000000
126580970.000000,115954329.000000
126600000.000000,116050000.000000
Z" /> 
<path style="fill:#000000; fill-opacity:1.0; 
stroke:#000000; stroke-width:1.000000; stroke-opacity:1; 
stroke-linecap:round; stroke-linejoin:round;fill-rule:evenodd;"
d="M 124600000.000000,116950000.000000
124580970.000000,117045671.000000
124526777.000000,117126777.000000
124445671.000000,117180970.000000
124350000.000000,117200000.000000
123650000.000000,117200000.000000
123554329.000000,117180970.000000
123473223.000000,117126777.000000
123419030.000000,117045671.000000
123400000.000000,116950000.000000
123400000.000000,116050000.000000
123419030.000000,115954329.000000
123473223.000000,115873223.000000
123554329.000000,115819030.000000
123650000.000000,115800000.000000
124350000.000000,115800000.000000
124445671.000000,115819030.000000
124526777.000000,115873223.000000
124580970.000000,115954329.000000
124600000.000000,116050000.000000
Z" /> 
</g>
<g >
</g>
<g style="fill:#000000; fill-opacity:1.0; 
stroke:#000000; stroke-width:1.000000; stroke-opacity:1; 
stroke-linecap:round; stroke-linejoin:round;">
<path style="fill:#000000; fill-opacity:1.0; 
stroke:#000000; stroke-width:1.000000; stroke-opacity:1; 
stroke-linecap:round; stroke-linejoin:round;fill-rule:evenodd;"
d="M 90500000.000000,85490000.000000
90500000.000000,84590000.000000
92000000.000000,84590000.000000
92000000.000000,85490000.000000
Z" /> 
<path style="fill:#000000; fill-opacity:1.0; 
stroke:#000000; stroke-width:1.000000; stroke-opacity:1; 
stroke-linecap:round; stroke-linejoin:round;fill-rule:evenodd;"
d="M 90500000.000000,86760000.000000
90500000.000000,85860000.000000
92000000.000000,85860000.000000
92000000.000000,86760000.000000
Z" /> 
<path style="fill:#000000; fill-opacity:1.0; 
stroke:#000000; stroke-width:1.000000; stroke-opacity:1; 
stroke-linecap:round; stroke-linejoin:round;fill-rule:evenodd;"
d="M 90500000.000000,88030000.000000
90500000.000000,87130000.000000
92000000.000000,87130000.000000
92000000.000000,88030000.000000
Z" /> 
<path style="fill:#000000; fill-opacity:1.0; 
stroke:#000000; stroke-width:1.000000; stroke-opacity:1; 
stroke-linecap:round; stroke-linejoin:round;fill-rule:evenodd;"
d="M 90500000.000000,89300000.000000
90500000.000000,88400000.000000
92000000.000000,88400000.000000
92000000.000000,89300000.000000
Z" /> 
<path style="fill:#000000; fill-opacity:1.0; 
stroke:#000000; stroke-width:1.000000; stroke-opacity:1; 
stroke-linecap:round; stroke-linejoin:round;fill-rule:evenodd;"
d="M 90500000.000000,90570000.000000
90500000.000000,89670000.000000
92000000.000000,89670000.000000
92000000.000000,90570000.000000
Z" /> 
<path style="fill:#000000; fill-opacity:1.0; 
stroke:#000000; stroke-width:1.000000; stroke-opacity:1; 
stroke-linecap:round; stroke-linejoin:round;fill-rule:evenodd;"
d="M 90500000.000000,91840000.000000
90500000.000000,90940000.000000
92000000.000000,90940000.000000
92000000.000000,91840000.000000
Z" /> 
<path style="fill:#000000; fill-opacity:1.0; 
stroke:#000000; stroke-width:1.000000; stroke-opacity:1; 
stroke-linecap:round; stroke-linejoin:round;fill-rule:evenodd;"
d="M 90500000.000000,93110000.000000
90500000.000000,92210000.000000
92000000.000000,92210000.000000
92000000.000000,93110000.000000
Z" /> 
<path style="fill:#000000; fill-opacity:1.0; 
stroke:#000000; stroke-width:1.000000; stroke-opacity:1; 
stroke-linecap:round; stroke-linejoin:round;fill-rule:evenodd;"
d="M 90500000.000000,94380000.000000
90500000.000000,93480000.000000
92000000.000000,93480000.000000
92000000.000000,94380000.000000
Z" /> 
<path style="fill:#000000; fill-opacity:1.0; 
stroke:#000000; stroke-width:1.000000; stroke-opacity:1; 
stroke-linecap:round; stroke-linejoin:round;fill-rule:evenodd;"
d="M 90500000.000000,95650000.000000
90500000.000000,94750000.000000
92000000.000000,94750000.000000
92000000.000000,95650000.000000
Z" /> 
<path style="fill:#000000; fill-opacity:1.0; 
stroke:#000000; stroke-width:1.000000; stroke-opacity:1; 
stroke-linecap:round; stroke-linejoin:round;fill-rule:evenodd;"
d="M 90500000.000000,96920000.000000
90500000.000000,96020000.000000
92000000.000000,96020000.000000
92000000.000000,96920000.000000
Z" /> 
<path style="fill:#000000; fill-opacity:1.0; 
stroke:#000000; stroke-width:1.000000; stroke-opacity:1; 
stroke-linecap:round; stroke-linejoin:round;fill-rule:evenodd;"
d="M 90500000.000000,98190000.000000
90500000.000000,97290000.000000
92000000.000000,97290000.000000
92000000.000000,98190000.000000
Z" /> 
<path style="fill:#000000; fill-opacity:1.0; 
stroke:#000000; stroke-width:1.000000; stroke-opacity:1; 
stroke-linecap:round; stroke-linejoin:round;fill-rule:evenodd;"
d="M 90500000.000000,99460000.000000
90500000.000000,98560000.000000
92000000.000000,98560000.000000
92000000.000000,99460000.000000
Z" /> 
<path style="fill:#000000; fill-opacity:1.0; 
stroke:#000000; stroke-width:1.000000; stroke-opacity:1; 
stroke-linecap:round; stroke-linejoin:round;fill-rule:evenodd;"
d="M 90500000.000000,100730000.000000
90500000.000000,99830000.000000
92000000.000000,99830000.000000
92000000.000000,100730000.000000
Z" /> 
<path style="fill:#000000; fill-opacity:1.0; 
stroke:#000000; stroke-width:1.000000; stroke-opacity:1; 
stroke-linecap:round; stroke-linejoin:round;fill-rule:evenodd;"
d="M 90500000.000000,102000000.000000
90500000.000000,101100000.000000
92000000.000000,101100000.000000
92000000.000000,102000000.000000
Z" /> 
<path style="fill:#000000; fill-opacity:1.0; 
stroke:#000000; stroke-width:1.000000; stroke-opacity:1; 
stroke-linecap:round; stroke-linejoin:round;fill-rule:evenodd;"
d="M 93465000.000000,103550000.000000
92565000.000000,103550000.000000
92565000.000000,102050000.000000
93465000.000000,102050000.000000
Z" /> 
<path style="fill:#000000; fill-opacity:1.0; 
stroke:#000000; stroke-width:1.000000; stroke-opacity:1; 
stroke-linecap:round; stroke-linejoin:round;fill-rule:evenodd;"
d="M 94735000.000000,103550000.000000
93835000.000000,103550000.000000
93835000.000000,102050000.000000
94735000.000000,102050000.000000
Z" /> 
<path style="fill:#000000; fill-opacity:1.0; 
stroke:#000000; stroke-width:1.000000; stroke-opacity:1; 
stroke-linecap:round; stroke-linejoin:round;fill-rule:evenodd;"
d="M 96005000.000000,103550000.000000
95105000.000000,103550000.000000
95105000.000000,102050000.000000
96005000.000000,102050000.000000
Z" /> 
<path style="fill:#000000; fill-opacity:1.0; 
stroke:#000000; stroke-width:1.000000; stroke-opacity:1; 
stroke-linecap:round; stroke-linejoin:round;fill-rule:evenodd;"
d="M 97275000.000000,103550000.000000
96375000.000000,103550000.000000
96375000.000000,102050000.000000
97275000.000000,102050000.000000
Z" /> 
<path style="fill:#000000; fill-opacity:1.0; 
stroke:#000000; stroke-width:1.000000; stroke-opacity:1; 
stroke-linecap:round; stroke-linejoin:round;fill-rule:evenodd;"
d="M 98545000.000000,103550000.000000
97645000.000000,103550000.000000
97645000.000000,102050000.000000
98545000.000000,102050000.000000
Z" /> 
<path style="fill:#000000; fill-opacity:1.0; 
stroke:#000000; stroke-width:1.000000; stroke-opacity:1; 
stroke-linecap:round; stroke-linejoin:round;fill-rule:evenodd;"
d="M 99815000.000000,103550000.000000
98915000.000000,103550000.000000
98915000.000000,102050000.000000
99815000.000000,102050000.000000
Z" /> 
<path style="fill:#000000; fill-opacity:1.0; 
stroke:#000000; stroke-width:1.000000; stroke-opacity:1; 
stroke-linecap:round; stroke-linejoin:round;fill-rule:evenodd;"
d="M 101085000.000000,103550000.000000
100185000.000000,103550000.000000
100185000.000000,102050000.000000
101085000.000000,102050000.000000
Z" /> 
<path style="fill:#000000; fill-opacity:1.0; 
stroke:#000000; stroke-width:1.000000; stroke-opacity:1; 
stroke-linecap:round; stroke-linejoin:round;fill-rule:evenodd;"
d="M 102355000.000000,103550000.000000
101455000.000000,103550000.000000
101455000.000000,102050000.000000
102355000.000000,102050000.000000
Z" /> 
<path style="fill:#000000; fill-opacity:1.0; 
stroke:#000000; stroke-width:1.000000; stroke-opacity:1; 
stroke-linecap:round; stroke-linejoin:round;fill-rule:evenodd;"
d="M 103625000.000000,103550000.000000
102725000.000000,103550000.000000
102725000.000000,102050000.000000
103625000.000000,102050000.000000
Z" /> 
<path style="fill:#000000; fill-opacity:1.0; 
stroke:#000000; stroke-width:1.000000; stroke-opacity:1; 
stroke-linecap:round; stroke-linejoin:round;fill-rule:evenodd;"
d="M 104895000.000000,103550000.000000
103995000.000000,103550000.000000
103995000.000000,102050000.000000
104895000.000000,102050000.000000
Z" /> 
<path style="fill:#000000; fill-opacity:1.0; 
stroke:#000000; stroke-width:1.000000; stroke-opacity:1; 
stroke-linecap:round; stroke-linejoin:round;fill-rule:evenodd;"
d="M 106165000.000000,103550000.000000
105265000.000000,103550000.000000
105265000.000000,102050000.000000
106165000.000000,102050000.000000
Z" /> 
<path style="fill:#000000; fill-opacity:1.0; 
stroke:#000000; stroke-width:1.000000; stroke-opacity:1; 
stroke-linecap:round; stroke-linejoin:round;fill-rule:evenodd;"
d="M 107435000.000000,103550000.000000
106535000.000000,103550000.000000
106535000.000000,102050000.000000
107435000.000000,102050000.000000
Z" /> 
<path style="fill:#000000; fill-opacity:1.0; 
stroke:#000000; stroke-width:1.000000; stroke-opacity:1; 
stroke-linecap:round; stroke-linejoin:round;fill-rule:evenodd;"
d="M 109500000.000000,101100000.000000
109500000.000000,102000000.000000
108000000.000000,102000000.000000
108000000.000000,101100000.000000
Z" /> 
<path style="fill:#000000; fill-opacity:1.0; 
stroke:#000000; stroke-width:1.000000; stroke-opacity:1; 
stroke-linecap:round; stroke-linejoin:round;fill-rule:evenodd;"
d="M 109500000.000000,99830000.000000
109500000.000000,100730000.000000
108000000.000000,100730000.000000
108000000.000000,99830000.000000
Z" /> 
<path style="fill:#000000; fill-opacity:1.0; 
stroke:#000000; stroke-width:1.000000; stroke-opacity:1; 
stroke-linecap:round; stroke-linejoin:round;fill-rule:evenodd;"
d="M 109500000.000000,98560000.000000
109500000.000000,99460000.000000
108000000.000000,99460000.000000
108000000.000000,98560000.000000
Z" /> 
<path style="fill:#000000; fill-opacity:1.0; 
stroke:#000000; stroke-width:1.000000; stroke-opacity:1; 
stroke-linecap:round; stroke-linejoin:round;fill-rule:evenodd;"
d="M 109500000.000000,97290000.000000
109500000.000000,98190000.000000
108000000.000000,98190000.000000
108000000.000000,97290000.000000
Z" /> 
<path style="fill:#000000; fill-opacity:1.0; 
stroke:#000000; stroke-width:1.000000; stroke-opacity:1; 
stroke-linecap:round; stroke-linejoin:round;fill-rule:evenodd;"
d="M 109500000.000000,96020000.000000
109500000.000000,96920000.000000
108000000.000000,96920000.000000
108000000.000000,96020000.000000
Z" /> 
<path style="fill:#000000; fill-opacity:1.0; 
stroke:#000000; stroke-width:1.000000; stroke-opacity:1; 
stroke-linecap:round; stroke-linejoin:round;fill-rule:evenodd;"
d="M 109500000.000000,94750000.000000
109500000.000000,95650000.000000
108000000.000000,95650000.000000
108000000.000000,94750000.000000
Z" /> 
<path style="fill:#000000; fill-opacity:1.0; 
stroke:#000000; stroke-width:1.000000; stroke-opacity:1; 
stroke-linecap:round; stroke-linejoin:round;fill-rule:evenodd;"
d="M 109500000.000000,93480000.000000
109500000.000000,94380000.000000
108000000.000000,94380000.000000
108000000.000000,93480000.000000
Z" /> 
<path style="fill:#000000; fill-opacity:1.0; 
stroke:#000000; stroke-width:1.000000; stroke-opacity:1; 
stroke-linecap:round; stroke-linejoin:round;fill-rule:evenodd;"
d="M 109500000.000000,92210000.000000
109500000.000000,93110000.000000
108000000.000000,93110000.000000
108000000.000000,92210000.000000
Z" /> 
<path style="fill:#000000; fill-opacity:1.0; 
stroke:#000000; stroke-width:1.000000; stroke-opacity:1; 
stroke-linecap:round; stroke-linejoin:round;fill-rule:evenodd;"
d="M 109500000.000000,90940000.000000
109500000.000000,91840000.000000
108000000.000000,91840000.000000
108000000.000000,90940000.000000
Z" /> 
<path style="fill:#000000; fill-opacity:1.0; 
stroke:#000000; stroke-width:1.000000; stroke-opacity:1; 
stroke-linecap:round; stroke-linejoin:round;fill-rule:evenodd;"
d="M 109500000.000000,89670000.000000
109500000.000000,90570000.000000
108000000.000000,90570000.000000
108000000.000000,89670000.000000
Z" /> 
<path style="fill:#000000; fill-opacity:1.0; 
stroke:#000000; stroke-width:1.000000; stroke-opacity:1; 
stroke-linecap:round; stroke-linejoin:round;fill-rule:evenodd;"
d="M 109500000.000000,88400000.000000
109500000.000000,89300000.000000
108000000.000000,89300000.000000
108000000.000000,88400000.000000
Z" /> 
<path style="fill:#000000; fill-opacity:1.0; 
stroke:#000000; stroke-width:1.000000; stroke-opacity:1; 
stroke-linecap:round; stroke-linejoin:round;fill-rule:evenodd;"
d="M 109500000.000000,87130000.000000
109500000.000000,88030000.000000
108000000.000000,88030000.000000
108000000.000000,87130000.000000
Z" /> 
<path style="fill:#000000; fill-opacity:1.0; 
stroke:#000000; stroke-width:1.000000; stroke-opacity:1; 
stroke-linecap:round; stroke-linejoin:round;fill-rule:evenodd;"
d="M 109500000.000000,85860000.000000
109500000.000000,86760000.000000
108000000.000000,86760000.000000
108000000.000000,85860000.000000
Z" /> 
<path style="fill:#000000; fill-opacity:1.0; 
stroke:#000000; stroke-width:1.000000; stroke-opacity:1; 
stroke-linecap:round; stroke-linejoin:round;fill-rule:evenodd;"
d="M 109500000.000000,84590000.000000
109500000.000000,85490000.000000
108000000.000000,85490000.000000
108000000.000000,84590000.000000
Z" /> 
<path style="fill:#000000; fill-opacity:1.0; 
stroke:#000000; stroke-width:1.000000; stroke-opacity:1; 
stroke-linecap:round; stroke-linejoin:round;fill-rule:evenodd;"
d="M 100350000.000000,93710000.000000
100350000.000000,94610000.000000
99450000.000000,94610000.000000
99450000.000000,93710000.000000
Z" /> 
<path style="fill:#000000; fill-opacity:1.0; 
stroke:#000000; stroke-width:1.000000; stroke-opacity:1; 
stroke-linecap:round; stroke-linejoin:round;fill-rule:evenodd;"
d="M 100350000.000000,92310000.000000
100350000.000000,93210000.000000
99450000.000000,93210000.000000
99450000.000000,92310000.000000
Z" /> 
<path style="fill:#000000; fill-opacity:1.0; 
stroke:#000000; stroke-width:1.000000; stroke-opacity:1; 
stroke-linecap:round; stroke-linejoin:round;fill-rule:evenodd;"
d="M 100350000.000000,90910000.000000
100350000.000000,91810000.000000
99450000.000000,91810000.000000
99450000.000000,90910000.000000
Z" /> 
<path style="fill:#000000; fill-opacity:1.0; 
stroke:#000000; stroke-width:1.000000; stroke-opacity:1; 
stroke-linecap:round; stroke-linejoin:round;fill-rule:evenodd;"
d="M 98950000.000000,90910000.000000
98950000.000000,91810000.000000
98050000.000000,91810000.000000
98050000.000000,90910000.000000
Z" /> 
<path style="fill:#000000; fill-opacity:1.0; 
stroke:#000000; stroke-width:1.000000; stroke-opacity:1; 
stroke-linecap:round; stroke-linejoin:round;fill-rule:evenodd;"
d="M 98950000.000000,93710000.000000
98950000.000000,94610000.000000
98050000.000000,94610000.000000
98050000.000000,93710000.000000
Z" /> 
<path style="fill:#000000; fill-opacity:1.0; 
stroke:#000000; stroke-width:1.000000; stroke-opacity:1; 
stroke-linecap:round; stroke-linejoin:round;fill-rule:evenodd;"
d="M 97550000.000000,93710000.000000
97550000.000000,94610000.000000
96650000.000000,94610000.000000
96650000.000000,93710000.000000
Z" /> 
<path style="fill:#000000; fill-opacity:1.0; 
stroke:#000000; stroke-width:1.000000; stroke-opacity:1; 
stroke-linecap:round; stroke-linejoin:round;fill-rule:evenodd;"
d="M 97550000.000000,90910000.000000
97550000.000000,91810000.000000
96650000.000000,91810000.000000
96650000.000000,90910000.000000
Z" /> 
<path style="fill:#000000; fill-opacity:1.0; 
stroke:#000000; stroke-width:1.000000; stroke-opacity:1; 
stroke-linecap:round; stroke-linejoin:round;fill-rule:evenodd;"
d="M 97550000.000000,92310000.000000
97550000.000000,93210000.000000
96650000.000000,93210000.000000
96650000.000000,92310000.000000
Z" /> 
<path style="fill:#000000; fill-opacity:1.0; 
stroke:#000000; stroke-width:1.000000; stroke-opacity:1; 
stroke-linecap:round; stroke-linejoin:round;fill-rule:evenodd;"
d="M 98950000.000000,92310000.000000
98950000.000000,93210000.000000
98050000.000000,93210000.000000
98050000.000000,92310000.000000
Z" /> 
</g>
<g >
</g>
<g style="fill:#000000; fill-opacity:1.0; 
stroke:#000000; stroke-width:1.000000; stroke-opacity:1; 
stroke-linecap:round; stroke-linejoin:round;">
<path style="fill:#000000; fill-opacity:1.0; 
stroke:#000000; stroke-width:1.000000; stroke-opacity:1; 
stroke-linecap:round; stroke-linejoin:round;fill-rule:evenodd;"
d="M 80370000.000000,114625000.000000
80274329.000000,114605970.000000
80193223.000000,114551777.000000
80139030.000000,114470671.000000
80120000.000000,114375000.000000
80120000.000000,113700000.000000
80139030.000000,113604329.000000
80193223.000000,113523223.000000
80274329.000000,113469030.000000
80370000.000000,113450000.000000
81320000.000000,113450000.000000
81415671.000000,113469030.000000
81496777.000000,113523223.000000
81550970.000000,113604329.000000
81570000.000000,113700000.000000
81570000.000000,114375000.000000
81550970.000000,114470671.000000
81496777.000000,114551777.000000
81415671.000000,114605970.000000
81320000.000000,114625000.000000
Z" /> 
<path style="fill:#000000; fill-opacity:1.0; 
stroke:#000000; stroke-width:1.000000; stroke-opacity:1; 
stroke-linecap:round; stroke-linejoin:round;fill-rule:evenodd;"
d="M 80370000.000000,112550000.000000
80274329.000000,112530970.000000
80193223.000000,112476777.000000
80139030.000000,112395671.000000
80120000.000000,112300000.000000
80120000.000000,111625000.000000
80139030.000000,111529329.000000
80193223.000000,111448223.000000
80274329.000000,111394030.000000
80370000.000000,111375000.000000
81320000.000000,111375000.000000
81415671.000000,111394030.000000
81496777.000000,111448223.000000
81550970.000000,111529329.000000
81570000.000000,111625000.000000
81570000.000000,112300000.000000
81550970.000000,112395671.000000
81496777.000000,112476777.000000
81415671.000000,112530970.000000
81320000.000000,112550000.000000
Z" /> 
</g>
<g >
</g>
<g style="fill:#000000; fill-opacity:1.0; 
stroke:#000000; stroke-width:1.000000; stroke-opacity:1; 
stroke-linecap:round; stroke-linejoin:round;">
<path style="fill:#000000; fill-opacity:1.0; 
stroke:#000000; stroke-width:1.000000; stroke-opacity:1; 
stroke-linecap:round; stroke-linejoin:round;fill-rule:evenodd;"
d="M 78400000.000000,86050000.000000
78419030.000000,85954329.000000
78473223.000000,85873223.000000
78554329.000000,85819030.000000
78650000.000000,85800000.000000
79350000.000000,85800000.000000
79445671.000000,85819030.000000
79526777.000000,85873223.000000
79580970.000000,85954329.000000
79600000.000000,86050000.000000
79600000.000000,86950000.000000
79580970.000000,87045671.000000
79526777.000000,87126777.000000
79445671.000000,87180970.000000
79350000.000000,87200000.000000
78650000.000000,87200000.000000
78554329.000000,87180970.000000
78473223.000000,87126777.000000
78419030.000000,87045671.000000
78400000.000000,86950000.000000
Z" /> 
<path style="fill:#000000; fill-opacity:1.0; 
stroke:#000000; stroke-width:1.000000; stroke-opacity:1; 
stroke-linecap:round; stroke-linejoin:round;fill-rule:evenodd;"
d="M 80400000.000000,86050000.000000
80419030.000000,85954329.000000
80473223.000000,85873223.000000
80554329.000000,85819030.000000
80650000.000000,85800000.000000
81350000.000000,85800000.000000
81445671.000000,85819030.000000
81526777.000000,85873223.000000
81580970.000000,85954329.000000
81600000.000000,86050000.000000
81600000.000000,86950000.000000
81580970.000000,87045671.000000
81526777.000000,87126777.000000
81445671.000000,87180970.000000
81350000.000000,87200000.000000
80650000.000000,87200000.000000
80554329.000000,87180970.000000
80473223.000000,87126777.000000
80419030.000000,87045671.000000
80400000.000000,86950000.000000
Z" /> 
</g>
<g >
</g>
<g >
</g>
<g style="fill:#000000; fill-opacity:1.0; 
stroke:#000000; stroke-width:1.000000; stroke-opacity:1; 
stroke-linecap:round; stroke-linejoin:round;">
<path style="fill:#000000; fill-opacity:1.0; 
stroke:#000000; stroke-width:1.000000; stroke-opacity:1; 
stroke-linecap:round; stroke-linejoin:round;fill-rule:evenodd;"
d="M 107650000.000000,39230000.000000
107650000.000000,38230000.000000
110800000.000000,38230000.000000
110800000.000000,39230000.000000
Z" /> 
<path style="fill:#000000; fill-opacity:1.0; 
stroke:#000000; stroke-width:1.000000; stroke-opacity:1; 
stroke-linecap:round; stroke-linejoin:round;fill-rule:evenodd;"
d="M 112700000.000000,39230000.000000
112700000.000000,38230000.000000
115850000.000000,38230000.000000
115850000.000000,39230000.000000
Z" /> 
<path style="fill:#000000; fill-opacity:1.0; 
stroke:#000000; stroke-width:1.000000; stroke-opacity:1; 
stroke-linecap:round; stroke-linejoin:round;fill-rule:evenodd;"
d="M 107650000.000000,41770000.000000
107650000.000000,40770000.000000
110800000.000000,40770000.000000
110800000.000000,41770000.000000
Z" /> 
<path style="fill:#000000; fill-opacity:1.0; 
stroke:#000000; stroke-width:1.000000; stroke-opacity:1; 
stroke-linecap:round; stroke-linejoin:round;fill-rule:evenodd;"
d="M 112700000.000000,41770000.000000
112700000.000000,40770000.000000
115850000.000000,40770000.000000
115850000.000000,41770000.000000
Z" /> 
</g>
<g >
</g>
<g style="fill:#000000; fill-opacity:1.0; 
stroke:#000000; stroke-width:1.000000; stroke-opacity:1; 
stroke-linecap:round; stroke-linejoin:round;">
<path style="fill:#000000; fill-opacity:1.0; 
stroke:#000000; stroke-width:1.000000; stroke-opacity:1; 
stroke-linecap:round; stroke-linejoin:round;fill-rule:evenodd;"
d="M 83400000.000000,119550000.000000
83419030.000000,119454329.000000
83473223.000000,119373223.000000
83554329.000000,119319030.000000
83650000.000000,119300000.000000
84300000.000000,119300000.000000
84395671.000000,119319030.000000
84476777.000000,119373223.000000
84530970.000000,119454329.000000
84550000.000000,119550000.000000
84550000.000000,120450000.000000
84530970.000000,120545671.000000
84476777.000000,120626777.000000
84395671.000000,120680970.000000
84300000.000000,120700000.000000
83650000.000000,120700000.000000
83554329.000000,120680970.000000
83473223.000000,120626777.000000
83419030.000000,120545671.000000
83400000.000000,120450000.000000
Z" /> 
<path style="fill:#000000; fill-opacity:1.0; 
stroke:#000000; stroke-width:1.000000; stroke-opacity:1; 
stroke-linecap:round; stroke-linejoin:round;fill-rule:evenodd;"
d="M 85450000.000000,119550000.000000
85469030.000000,119454329.000000
85523223.000000,119373223.000000
85604329.000000,119319030.000000
85700000.000000,119300000.000000
86350000.000000,119300000.000000
86445671.000000,119319030.000000
86526777.000000,119373223.000000
86580970.000000,119454329.000000
86600000.000000,119550000.000000
86600000.000000,120450000.000000
86580970.000000,120545671.000000
86526777.000000,120626777.000000
86445671.000000,120680970.000000
86350000.000000,120700000.000000
85700000.000000,120700000.000000
85604329.000000,120680970.000000
85523223.000000,120626777.000000
85469030.000000,120545671.000000
85450000.000000,120450000.000000
Z" /> 
</g>
<g >
</g>
<g style="fill:#000000; fill-opacity:1.0; 
stroke:#000000; stroke-width:1.000000; stroke-opacity:1; 
stroke-linecap:round; stroke-linejoin:round;">
<path style="fill:#000000; fill-opacity:1.0; 
stroke:#000000; stroke-width:1.000000; stroke-opacity:1; 
stroke-linecap:round; stroke-linejoin:round;fill-rule:evenodd;"
d="M 83350000.000000,113400000.000000
83350000.000000,111900000.000000
85350000.000000,111900000.000000
85350000.000000,113400000.000000
Z" /> 
<path style="fill:#000000; fill-opacity:1.0; 
stroke:#000000; stroke-width:1.000000; stroke-opacity:1; 
stroke-linecap:round; stroke-linejoin:round;fill-rule:evenodd;"
d="M 83350000.000000,115700000.000000
83350000.000000,114200000.000000
85350000.000000,114200000.000000
85350000.000000,115700000.000000
Z" /> 
<path style="fill:#000000; fill-opacity:1.0; 
stroke:#000000; stroke-width:1.000000; stroke-opacity:1; 
stroke-linecap:round; stroke-linejoin:round;fill-rule:evenodd;"
d="M 89650000.000000,116850000.000000
89650000.000000,113050000.000000
91650000.000000,113050000.000000
91650000.000000,116850000.000000
Z" /> 
<path style="fill:#000000; fill-opacity:1.0; 
stroke:#000000; stroke-width:1.000000; stroke-opacity:1; 
stroke-linecap:round; stroke-linejoin:round;fill-rule:evenodd;"
d="M 83350000.000000,118000000.000000
83350000.000000,116500000.000000
85350000.000000,116500000.000000
85350000.000000,118000000.000000
Z" /> 
</g>
<g >
</g>
<g style="fill:#000000; fill-opacity:1.0; 
stroke:#000000; stroke-width:1.000000; stroke-opacity:1; 
stroke-linecap:round; stroke-linejoin:round;">
<path style="fill:#000000; fill-opacity:1.0; 
stroke:#000000; stroke-width:1.000000; stroke-opacity:1; 
stroke-linecap:round; stroke-linejoin:round;fill-rule:evenodd;"
d="M 78400000.000000,84750000.000000
77100000.000000,84750000.000000
77100000.000000,83200000.000000
78400000.000000,83200000.000000
Z" /> 
<path style="fill:#000000; fill-opacity:1.0; 
stroke:#000000; stroke-width:1.000000; stroke-opacity:1; 
stroke-linecap:round; stroke-linejoin:round;fill-rule:evenodd;"
d="M 78400000.000000,76800000.000000
77100000.000000,76800000.000000
77100000.000000,75250000.000000
78400000.000000,75250000.000000
Z" /> 
<path style="fill:#000000; fill-opacity:1.0; 
stroke:#000000; stroke-width:1.000000; stroke-opacity:1; 
stroke-linecap:round; stroke-linejoin:round;fill-rule:evenodd;"
d="M 82900000.000000,84750000.000000
81600000.000000,84750000.000000
81600000.000000,83200000.000000
82900000.000000,83200000.000000
Z" /> 
<path style="fill:#000000; fill-opacity:1.0; 
stroke:#000000; stroke-width:1.000000; stroke-opacity:1; 
stroke-linecap:round; stroke-linejoin:round;fill-rule:evenodd;"
d="M 82900000.000000,76800000.000000
81600000.000000,76800000.000000
81600000.000000,75250000.000000
82900000.000000,75250000.000000
Z" /> 
</g>
<g >
</g>
<g >
</g>
<g >
</g>
</g> 
</svg>
