%TF.GenerationSoftware,KiCad,Pcbnew,6.0.11-2627ca5db0~126~ubuntu20.04.1*%
%TF.CreationDate,2024-03-14T22:39:25-05:00*%
%TF.ProjectId,suqtagon-side,73757174-6167-46f6-9e2d-736964652e6b,rev?*%
%TF.SameCoordinates,Original*%
%TF.FileFunction,Copper,L2,Bot*%
%TF.FilePolarity,Positive*%
%FSLAX46Y46*%
G04 Gerber Fmt 4.6, Leading zero omitted, Abs format (unit mm)*
G04 Created by KiCad (PCBNEW 6.0.11-2627ca5db0~126~ubuntu20.04.1) date 2024-03-14 22:39:25*
%MOMM*%
%LPD*%
G01*
G04 APERTURE LIST*
%TA.AperFunction,Profile*%
%ADD10C,0.100000*%
%TD*%
%TA.AperFunction,ComponentPad*%
%ADD11C,1.500000*%
%TD*%
G04 APERTURE END LIST*
D10*
X120750000Y-100000000D02*
G75*
G03*
X128750000Y-100000000I4000000J0D01*
G01*
X128750000Y-100000000D02*
X149500000Y-100000000D01*
X100000000Y-100000000D02*
X120750000Y-100000000D01*
X100000000Y-112640000D02*
X120750000Y-112640000D01*
X128750000Y-112640000D02*
X149500000Y-112640000D01*
X149500000Y-100000000D02*
X149500000Y-112640000D01*
X128750000Y-112640000D02*
G75*
G03*
X120750000Y-112640000I-4000000J0D01*
G01*
X100000000Y-100000000D02*
X100000000Y-112640000D01*
D11*
%TO.P,REF\u002A\u002A,1*%
%TO.N,N/C*%
X102975000Y-106320000D03*
%TD*%
%TO.P,REF\u002A\u002A,1*%
%TO.N,N/C*%
X102975000Y-103780000D03*
%TD*%
%TO.P,REF\u002A\u002A,1*%
%TO.N,N/C*%
X146525000Y-103780000D03*
%TD*%
%TO.P,REF\u002A\u002A,1*%
%TO.N,N/C*%
X102975000Y-108860000D03*
%TD*%
%TO.P,REF\u002A\u002A,1*%
%TO.N,N/C*%
X146525000Y-108860000D03*
%TD*%
%TO.P,REF\u002A\u002A,1*%
%TO.N,N/C*%
X146525000Y-106320000D03*
%TD*%
%TA.AperFunction,NonConductor*%
G36*
X120227256Y-100528502D02*
G01*
X120273749Y-100582158D01*
X120283927Y-100617092D01*
X120313532Y-100829320D01*
X120408977Y-101235128D01*
X120541458Y-101630398D01*
X120709845Y-102011758D01*
X120912701Y-102375955D01*
X121148296Y-102719881D01*
X121150144Y-102722107D01*
X121150152Y-102722117D01*
X121351064Y-102964065D01*
X121414619Y-103040601D01*
X121709399Y-103335381D01*
X121711632Y-103337235D01*
X121711635Y-103337238D01*
X122027883Y-103599848D01*
X122027893Y-103599856D01*
X122030119Y-103601704D01*
X122374045Y-103837299D01*
X122376598Y-103838721D01*
X122674554Y-104004681D01*
X122738242Y-104040155D01*
X123119602Y-104208542D01*
X123514872Y-104341023D01*
X123517705Y-104341689D01*
X123517711Y-104341691D01*
X123676179Y-104378962D01*
X123920680Y-104436468D01*
X123923565Y-104436870D01*
X123923568Y-104436871D01*
X124195648Y-104474825D01*
X124333564Y-104494063D01*
X124336448Y-104494196D01*
X124336455Y-104494197D01*
X124747102Y-104513182D01*
X124750000Y-104513316D01*
X124752898Y-104513182D01*
X125163545Y-104494197D01*
X125163552Y-104494196D01*
X125166436Y-104494063D01*
X125304352Y-104474825D01*
X125576432Y-104436871D01*
X125576435Y-104436870D01*
X125579320Y-104436468D01*
X125823821Y-104378962D01*
X125982289Y-104341691D01*
X125982295Y-104341689D01*
X125985128Y-104341023D01*
X126380398Y-104208542D01*
X126761758Y-104040155D01*
X126825447Y-104004681D01*
X127123402Y-103838721D01*
X127125955Y-103837299D01*
X127469881Y-103601704D01*
X127472107Y-103599856D01*
X127472117Y-103599848D01*
X127788365Y-103337238D01*
X127788368Y-103337235D01*
X127790601Y-103335381D01*
X128085381Y-103040601D01*
X128148936Y-102964065D01*
X128349848Y-102722117D01*
X128349856Y-102722107D01*
X128351704Y-102719881D01*
X128587299Y-102375955D01*
X128790155Y-102011758D01*
X128958542Y-101630398D01*
X129091023Y-101235128D01*
X129186468Y-100829320D01*
X129216073Y-100617092D01*
X129245295Y-100552388D01*
X129304860Y-100513754D01*
X129340865Y-100508500D01*
X148865500Y-100508500D01*
X148933621Y-100528502D01*
X148980114Y-100582158D01*
X148991500Y-100634500D01*
X148991500Y-112005500D01*
X148971498Y-112073621D01*
X148917842Y-112120114D01*
X148865500Y-112131500D01*
X129340865Y-112131500D01*
X129272744Y-112111498D01*
X129226251Y-112057842D01*
X129216073Y-112022908D01*
X129186871Y-111813568D01*
X129186870Y-111813565D01*
X129186468Y-111810680D01*
X129091023Y-111404872D01*
X128958542Y-111009602D01*
X128790155Y-110628242D01*
X128587299Y-110264045D01*
X128351704Y-109920119D01*
X128349856Y-109917893D01*
X128349848Y-109917883D01*
X128087238Y-109601635D01*
X128087235Y-109601632D01*
X128085381Y-109599399D01*
X127790601Y-109304619D01*
X127788365Y-109302762D01*
X127472117Y-109040152D01*
X127472107Y-109040144D01*
X127469881Y-109038296D01*
X127209601Y-108860000D01*
X145261693Y-108860000D01*
X145280885Y-109079371D01*
X145337880Y-109292076D01*
X145340205Y-109297061D01*
X145428618Y-109486666D01*
X145428621Y-109486671D01*
X145430944Y-109491653D01*
X145434100Y-109496160D01*
X145434101Y-109496162D01*
X145506389Y-109599399D01*
X145557251Y-109672038D01*
X145712962Y-109827749D01*
X145893346Y-109954056D01*
X146092924Y-110047120D01*
X146305629Y-110104115D01*
X146525000Y-110123307D01*
X146744371Y-110104115D01*
X146957076Y-110047120D01*
X147156654Y-109954056D01*
X147337038Y-109827749D01*
X147492749Y-109672038D01*
X147543612Y-109599399D01*
X147615899Y-109496162D01*
X147615900Y-109496160D01*
X147619056Y-109491653D01*
X147621379Y-109486671D01*
X147621382Y-109486666D01*
X147709795Y-109297061D01*
X147712120Y-109292076D01*
X147769115Y-109079371D01*
X147788307Y-108860000D01*
X147769115Y-108640629D01*
X147712120Y-108427924D01*
X147668585Y-108334562D01*
X147621382Y-108233334D01*
X147621379Y-108233329D01*
X147619056Y-108228347D01*
X147602149Y-108204201D01*
X147495908Y-108052473D01*
X147495906Y-108052470D01*
X147492749Y-108047962D01*
X147337038Y-107892251D01*
X147156654Y-107765944D01*
X147151672Y-107763621D01*
X147151667Y-107763618D01*
X147024232Y-107704195D01*
X146970947Y-107657278D01*
X146951486Y-107589001D01*
X146972028Y-107521041D01*
X147024232Y-107475805D01*
X147151667Y-107416382D01*
X147151672Y-107416379D01*
X147156654Y-107414056D01*
X147315545Y-107302799D01*
X147332527Y-107290908D01*
X147332529Y-107290906D01*
X147337038Y-107287749D01*
X147492749Y-107132038D01*
X147562958Y-107031770D01*
X147615899Y-106956162D01*
X147615900Y-106956160D01*
X147619056Y-106951653D01*
X147621379Y-106946671D01*
X147621382Y-106946666D01*
X147709795Y-106757061D01*
X147712120Y-106752076D01*
X147769115Y-106539371D01*
X147788307Y-106320000D01*
X147769115Y-106100629D01*
X147712120Y-105887924D01*
X147668585Y-105794562D01*
X147621382Y-105693334D01*
X147621379Y-105693329D01*
X147619056Y-105688347D01*
X147574675Y-105624964D01*
X147495908Y-105512473D01*
X147495906Y-105512470D01*
X147492749Y-105507962D01*
X147337038Y-105352251D01*
X147320768Y-105340858D01*
X147257759Y-105296739D01*
X147156654Y-105225944D01*
X147151672Y-105223621D01*
X147151667Y-105223618D01*
X147024232Y-105164195D01*
X146970947Y-105117278D01*
X146951486Y-105049001D01*
X146972028Y-104981041D01*
X147024232Y-104935805D01*
X147151667Y-104876382D01*
X147151672Y-104876379D01*
X147156654Y-104874056D01*
X147337038Y-104747749D01*
X147492749Y-104592038D01*
X147541928Y-104521804D01*
X147615899Y-104416162D01*
X147615900Y-104416160D01*
X147619056Y-104411653D01*
X147621379Y-104406671D01*
X147621382Y-104406666D01*
X147674868Y-104291964D01*
X147712120Y-104212076D01*
X147769115Y-103999371D01*
X147788307Y-103780000D01*
X147769115Y-103560629D01*
X147712120Y-103347924D01*
X147638313Y-103189644D01*
X147621382Y-103153334D01*
X147621379Y-103153329D01*
X147619056Y-103148347D01*
X147545055Y-103042662D01*
X147495908Y-102972473D01*
X147495906Y-102972470D01*
X147492749Y-102967962D01*
X147337038Y-102812251D01*
X147156654Y-102685944D01*
X146957076Y-102592880D01*
X146744371Y-102535885D01*
X146525000Y-102516693D01*
X146305629Y-102535885D01*
X146092924Y-102592880D01*
X145999562Y-102636415D01*
X145898334Y-102683618D01*
X145898329Y-102683621D01*
X145893347Y-102685944D01*
X145888840Y-102689100D01*
X145888838Y-102689101D01*
X145717473Y-102809092D01*
X145717470Y-102809094D01*
X145712962Y-102812251D01*
X145557251Y-102967962D01*
X145554094Y-102972470D01*
X145554092Y-102972473D01*
X145504945Y-103042662D01*
X145430944Y-103148347D01*
X145428621Y-103153329D01*
X145428618Y-103153334D01*
X145411687Y-103189644D01*
X145337880Y-103347924D01*
X145280885Y-103560629D01*
X145261693Y-103780000D01*
X145280885Y-103999371D01*
X145337880Y-104212076D01*
X145375132Y-104291964D01*
X145428618Y-104406666D01*
X145428621Y-104406671D01*
X145430944Y-104411653D01*
X145434100Y-104416160D01*
X145434101Y-104416162D01*
X145508073Y-104521804D01*
X145557251Y-104592038D01*
X145712962Y-104747749D01*
X145893346Y-104874056D01*
X145898328Y-104876379D01*
X145898333Y-104876382D01*
X146025768Y-104935805D01*
X146079053Y-104982722D01*
X146098514Y-105050999D01*
X146077972Y-105118959D01*
X146025768Y-105164195D01*
X145898334Y-105223618D01*
X145898329Y-105223621D01*
X145893347Y-105225944D01*
X145888840Y-105229100D01*
X145888838Y-105229101D01*
X145717473Y-105349092D01*
X145717470Y-105349094D01*
X145712962Y-105352251D01*
X145557251Y-105507962D01*
X145554094Y-105512470D01*
X145554092Y-105512473D01*
X145475325Y-105624964D01*
X145430944Y-105688347D01*
X145428621Y-105693329D01*
X145428618Y-105693334D01*
X145381415Y-105794562D01*
X145337880Y-105887924D01*
X145280885Y-106100629D01*
X145261693Y-106320000D01*
X145280885Y-106539371D01*
X145337880Y-106752076D01*
X145340205Y-106757061D01*
X145428618Y-106946666D01*
X145428621Y-106946671D01*
X145430944Y-106951653D01*
X145434100Y-106956160D01*
X145434101Y-106956162D01*
X145487043Y-107031770D01*
X145557251Y-107132038D01*
X145712962Y-107287749D01*
X145717471Y-107290906D01*
X145717473Y-107290908D01*
X145734455Y-107302799D01*
X145893346Y-107414056D01*
X145898328Y-107416379D01*
X145898333Y-107416382D01*
X146025768Y-107475805D01*
X146079053Y-107522722D01*
X146098514Y-107590999D01*
X146077972Y-107658959D01*
X146025768Y-107704195D01*
X145898334Y-107763618D01*
X145898329Y-107763621D01*
X145893347Y-107765944D01*
X145888840Y-107769100D01*
X145888838Y-107769101D01*
X145717473Y-107889092D01*
X145717470Y-107889094D01*
X145712962Y-107892251D01*
X145557251Y-108047962D01*
X145554094Y-108052470D01*
X145554092Y-108052473D01*
X145447851Y-108204201D01*
X145430944Y-108228347D01*
X145428621Y-108233329D01*
X145428618Y-108233334D01*
X145381415Y-108334562D01*
X145337880Y-108427924D01*
X145280885Y-108640629D01*
X145261693Y-108860000D01*
X127209601Y-108860000D01*
X127125955Y-108802701D01*
X126844813Y-108646106D01*
X126764315Y-108601269D01*
X126764311Y-108601267D01*
X126761758Y-108599845D01*
X126380398Y-108431458D01*
X125985128Y-108298977D01*
X125982295Y-108298311D01*
X125982289Y-108298309D01*
X125771367Y-108248701D01*
X125579320Y-108203532D01*
X125576435Y-108203130D01*
X125576432Y-108203129D01*
X125169303Y-108146337D01*
X125169304Y-108146337D01*
X125166436Y-108145937D01*
X125163552Y-108145804D01*
X125163545Y-108145803D01*
X124752898Y-108126818D01*
X124750000Y-108126684D01*
X124747102Y-108126818D01*
X124336455Y-108145803D01*
X124336448Y-108145804D01*
X124333564Y-108145937D01*
X124330696Y-108146337D01*
X124330697Y-108146337D01*
X123923568Y-108203129D01*
X123923565Y-108203130D01*
X123920680Y-108203532D01*
X123728633Y-108248701D01*
X123517711Y-108298309D01*
X123517705Y-108298311D01*
X123514872Y-108298977D01*
X123119602Y-108431458D01*
X122738242Y-108599845D01*
X122735689Y-108601267D01*
X122735685Y-108601269D01*
X122655187Y-108646106D01*
X122374045Y-108802701D01*
X122030119Y-109038296D01*
X122027893Y-109040144D01*
X122027883Y-109040152D01*
X121711635Y-109302762D01*
X121709399Y-109304619D01*
X121414619Y-109599399D01*
X121412765Y-109601632D01*
X121412762Y-109601635D01*
X121150152Y-109917883D01*
X121150144Y-109917893D01*
X121148296Y-109920119D01*
X120912701Y-110264045D01*
X120709845Y-110628242D01*
X120541458Y-111009602D01*
X120408977Y-111404872D01*
X120313532Y-111810680D01*
X120313130Y-111813565D01*
X120313129Y-111813568D01*
X120283927Y-112022908D01*
X120254705Y-112087612D01*
X120195140Y-112126246D01*
X120159135Y-112131500D01*
X100634500Y-112131500D01*
X100566379Y-112111498D01*
X100519886Y-112057842D01*
X100508500Y-112005500D01*
X100508500Y-108860000D01*
X101711693Y-108860000D01*
X101730885Y-109079371D01*
X101787880Y-109292076D01*
X101790205Y-109297061D01*
X101878618Y-109486666D01*
X101878621Y-109486671D01*
X101880944Y-109491653D01*
X101884100Y-109496160D01*
X101884101Y-109496162D01*
X101956389Y-109599399D01*
X102007251Y-109672038D01*
X102162962Y-109827749D01*
X102343346Y-109954056D01*
X102542924Y-110047120D01*
X102755629Y-110104115D01*
X102975000Y-110123307D01*
X103194371Y-110104115D01*
X103407076Y-110047120D01*
X103606654Y-109954056D01*
X103787038Y-109827749D01*
X103942749Y-109672038D01*
X103993612Y-109599399D01*
X104065899Y-109496162D01*
X104065900Y-109496160D01*
X104069056Y-109491653D01*
X104071379Y-109486671D01*
X104071382Y-109486666D01*
X104159795Y-109297061D01*
X104162120Y-109292076D01*
X104219115Y-109079371D01*
X104238307Y-108860000D01*
X104219115Y-108640629D01*
X104162120Y-108427924D01*
X104118585Y-108334562D01*
X104071382Y-108233334D01*
X104071379Y-108233329D01*
X104069056Y-108228347D01*
X104052149Y-108204201D01*
X103945908Y-108052473D01*
X103945906Y-108052470D01*
X103942749Y-108047962D01*
X103787038Y-107892251D01*
X103606654Y-107765944D01*
X103601672Y-107763621D01*
X103601667Y-107763618D01*
X103474232Y-107704195D01*
X103420947Y-107657278D01*
X103401486Y-107589001D01*
X103422028Y-107521041D01*
X103474232Y-107475805D01*
X103601667Y-107416382D01*
X103601672Y-107416379D01*
X103606654Y-107414056D01*
X103765545Y-107302799D01*
X103782527Y-107290908D01*
X103782529Y-107290906D01*
X103787038Y-107287749D01*
X103942749Y-107132038D01*
X104012958Y-107031770D01*
X104065899Y-106956162D01*
X104065900Y-106956160D01*
X104069056Y-106951653D01*
X104071379Y-106946671D01*
X104071382Y-106946666D01*
X104159795Y-106757061D01*
X104162120Y-106752076D01*
X104219115Y-106539371D01*
X104226697Y-106452703D01*
X107640743Y-106452703D01*
X107678268Y-106737734D01*
X107679401Y-106741874D01*
X107679401Y-106741876D01*
X107683035Y-106755159D01*
X107754129Y-107015036D01*
X107866923Y-107279476D01*
X107878693Y-107299142D01*
X108011497Y-107521041D01*
X108014561Y-107526161D01*
X108194313Y-107750528D01*
X108211397Y-107766740D01*
X108347765Y-107896148D01*
X108402851Y-107948423D01*
X108636317Y-108116186D01*
X108640112Y-108118195D01*
X108640113Y-108118196D01*
X108661869Y-108129715D01*
X108890392Y-108250712D01*
X109160373Y-108349511D01*
X109441264Y-108410755D01*
X109469841Y-108413004D01*
X109664282Y-108428307D01*
X109664291Y-108428307D01*
X109666739Y-108428500D01*
X109822271Y-108428500D01*
X109824407Y-108428354D01*
X109824418Y-108428354D01*
X110032548Y-108414165D01*
X110032554Y-108414164D01*
X110036825Y-108413873D01*
X110041020Y-108413004D01*
X110041022Y-108413004D01*
X110177584Y-108384723D01*
X110318342Y-108355574D01*
X110589343Y-108259607D01*
X110844812Y-108127750D01*
X110848313Y-108125289D01*
X110848317Y-108125287D01*
X110963884Y-108044065D01*
X111080023Y-107962441D01*
X111290622Y-107766740D01*
X111472713Y-107544268D01*
X111622927Y-107299142D01*
X111626542Y-107290908D01*
X111736757Y-107039830D01*
X111738483Y-107035898D01*
X111763902Y-106946666D01*
X111816068Y-106763534D01*
X111817244Y-106759406D01*
X111857751Y-106474784D01*
X111857845Y-106456951D01*
X111857867Y-106452703D01*
X116640743Y-106452703D01*
X116678268Y-106737734D01*
X116679401Y-106741874D01*
X116679401Y-106741876D01*
X116683035Y-106755159D01*
X116754129Y-107015036D01*
X116866923Y-107279476D01*
X116878693Y-107299142D01*
X117011497Y-107521041D01*
X117014561Y-107526161D01*
X117194313Y-107750528D01*
X117211397Y-107766740D01*
X117347765Y-107896148D01*
X117402851Y-107948423D01*
X117636317Y-108116186D01*
X117640112Y-108118195D01*
X117640113Y-108118196D01*
X117661869Y-108129715D01*
X117890392Y-108250712D01*
X118160373Y-108349511D01*
X118441264Y-108410755D01*
X118469841Y-108413004D01*
X118664282Y-108428307D01*
X118664291Y-108428307D01*
X118666739Y-108428500D01*
X118822271Y-108428500D01*
X118824407Y-108428354D01*
X118824418Y-108428354D01*
X119032548Y-108414165D01*
X119032554Y-108414164D01*
X119036825Y-108413873D01*
X119041020Y-108413004D01*
X119041022Y-108413004D01*
X119177584Y-108384723D01*
X119318342Y-108355574D01*
X119589343Y-108259607D01*
X119844812Y-108127750D01*
X119848313Y-108125289D01*
X119848317Y-108125287D01*
X119963884Y-108044065D01*
X120080023Y-107962441D01*
X120290622Y-107766740D01*
X120472713Y-107544268D01*
X120622927Y-107299142D01*
X120626542Y-107290908D01*
X120736757Y-107039830D01*
X120738483Y-107035898D01*
X120763902Y-106946666D01*
X120816068Y-106763534D01*
X120817244Y-106759406D01*
X120857751Y-106474784D01*
X120857845Y-106456951D01*
X120857867Y-106452703D01*
X128640743Y-106452703D01*
X128678268Y-106737734D01*
X128679401Y-106741874D01*
X128679401Y-106741876D01*
X128683035Y-106755159D01*
X128754129Y-107015036D01*
X128866923Y-107279476D01*
X128878693Y-107299142D01*
X129011497Y-107521041D01*
X129014561Y-107526161D01*
X129194313Y-107750528D01*
X129211397Y-107766740D01*
X129347765Y-107896148D01*
X129402851Y-107948423D01*
X129636317Y-108116186D01*
X129640112Y-108118195D01*
X129640113Y-108118196D01*
X129661869Y-108129715D01*
X129890392Y-108250712D01*
X130160373Y-108349511D01*
X130441264Y-108410755D01*
X130469841Y-108413004D01*
X130664282Y-108428307D01*
X130664291Y-108428307D01*
X130666739Y-108428500D01*
X130822271Y-108428500D01*
X130824407Y-108428354D01*
X130824418Y-108428354D01*
X131032548Y-108414165D01*
X131032554Y-108414164D01*
X131036825Y-108413873D01*
X131041020Y-108413004D01*
X131041022Y-108413004D01*
X131177584Y-108384723D01*
X131318342Y-108355574D01*
X131589343Y-108259607D01*
X131844812Y-108127750D01*
X131848313Y-108125289D01*
X131848317Y-108125287D01*
X131963884Y-108044065D01*
X132080023Y-107962441D01*
X132290622Y-107766740D01*
X132472713Y-107544268D01*
X132622927Y-107299142D01*
X132626542Y-107290908D01*
X132736757Y-107039830D01*
X132738483Y-107035898D01*
X132763902Y-106946666D01*
X132816068Y-106763534D01*
X132817244Y-106759406D01*
X132857751Y-106474784D01*
X132857845Y-106456951D01*
X132857867Y-106452703D01*
X137640743Y-106452703D01*
X137678268Y-106737734D01*
X137679401Y-106741874D01*
X137679401Y-106741876D01*
X137683035Y-106755159D01*
X137754129Y-107015036D01*
X137866923Y-107279476D01*
X137878693Y-107299142D01*
X138011497Y-107521041D01*
X138014561Y-107526161D01*
X138194313Y-107750528D01*
X138211397Y-107766740D01*
X138347765Y-107896148D01*
X138402851Y-107948423D01*
X138636317Y-108116186D01*
X138640112Y-108118195D01*
X138640113Y-108118196D01*
X138661869Y-108129715D01*
X138890392Y-108250712D01*
X139160373Y-108349511D01*
X139441264Y-108410755D01*
X139469841Y-108413004D01*
X139664282Y-108428307D01*
X139664291Y-108428307D01*
X139666739Y-108428500D01*
X139822271Y-108428500D01*
X139824407Y-108428354D01*
X139824418Y-108428354D01*
X140032548Y-108414165D01*
X140032554Y-108414164D01*
X140036825Y-108413873D01*
X140041020Y-108413004D01*
X140041022Y-108413004D01*
X140177584Y-108384723D01*
X140318342Y-108355574D01*
X140589343Y-108259607D01*
X140844812Y-108127750D01*
X140848313Y-108125289D01*
X140848317Y-108125287D01*
X140963884Y-108044065D01*
X141080023Y-107962441D01*
X141290622Y-107766740D01*
X141472713Y-107544268D01*
X141622927Y-107299142D01*
X141626542Y-107290908D01*
X141736757Y-107039830D01*
X141738483Y-107035898D01*
X141763902Y-106946666D01*
X141816068Y-106763534D01*
X141817244Y-106759406D01*
X141857751Y-106474784D01*
X141857845Y-106456951D01*
X141859235Y-106191583D01*
X141859235Y-106191576D01*
X141859257Y-106187297D01*
X141821732Y-105902266D01*
X141819262Y-105893235D01*
X141764575Y-105693334D01*
X141745871Y-105624964D01*
X141633077Y-105360524D01*
X141554422Y-105229101D01*
X141487643Y-105117521D01*
X141487640Y-105117517D01*
X141485439Y-105113839D01*
X141305687Y-104889472D01*
X141156342Y-104747749D01*
X141100258Y-104694527D01*
X141100255Y-104694525D01*
X141097149Y-104691577D01*
X140863683Y-104523814D01*
X140841843Y-104512250D01*
X140806738Y-104493663D01*
X140609608Y-104389288D01*
X140339627Y-104290489D01*
X140058736Y-104229245D01*
X140027685Y-104226801D01*
X139835718Y-104211693D01*
X139835709Y-104211693D01*
X139833261Y-104211500D01*
X139677729Y-104211500D01*
X139675593Y-104211646D01*
X139675582Y-104211646D01*
X139467452Y-104225835D01*
X139467446Y-104225836D01*
X139463175Y-104226127D01*
X139458980Y-104226996D01*
X139458978Y-104226996D01*
X139322416Y-104255277D01*
X139181658Y-104284426D01*
X138910657Y-104380393D01*
X138655188Y-104512250D01*
X138651687Y-104514711D01*
X138651683Y-104514713D01*
X138641594Y-104521804D01*
X138419977Y-104677559D01*
X138209378Y-104873260D01*
X138027287Y-105095732D01*
X137877073Y-105340858D01*
X137875347Y-105344791D01*
X137875346Y-105344792D01*
X137872072Y-105352251D01*
X137761517Y-105604102D01*
X137760342Y-105608229D01*
X137760341Y-105608230D01*
X137722136Y-105742348D01*
X137682756Y-105880594D01*
X137642249Y-106165216D01*
X137642227Y-106169505D01*
X137642226Y-106169512D01*
X137641438Y-106320000D01*
X137640743Y-106452703D01*
X132857867Y-106452703D01*
X132859235Y-106191583D01*
X132859235Y-106191576D01*
X132859257Y-106187297D01*
X132821732Y-105902266D01*
X132819262Y-105893235D01*
X132764575Y-105693334D01*
X132745871Y-105624964D01*
X132633077Y-105360524D01*
X132554422Y-105229101D01*
X132487643Y-105117521D01*
X132487640Y-105117517D01*
X132485439Y-105113839D01*
X132305687Y-104889472D01*
X132156342Y-104747749D01*
X132100258Y-104694527D01*
X132100255Y-104694525D01*
X132097149Y-104691577D01*
X131863683Y-104523814D01*
X131841843Y-104512250D01*
X131806738Y-104493663D01*
X131609608Y-104389288D01*
X131339627Y-104290489D01*
X131058736Y-104229245D01*
X131027685Y-104226801D01*
X130835718Y-104211693D01*
X130835709Y-104211693D01*
X130833261Y-104211500D01*
X130677729Y-104211500D01*
X130675593Y-104211646D01*
X130675582Y-104211646D01*
X130467452Y-104225835D01*
X130467446Y-104225836D01*
X130463175Y-104226127D01*
X130458980Y-104226996D01*
X130458978Y-104226996D01*
X130322416Y-104255277D01*
X130181658Y-104284426D01*
X129910657Y-104380393D01*
X129655188Y-104512250D01*
X129651687Y-104514711D01*
X129651683Y-104514713D01*
X129641594Y-104521804D01*
X129419977Y-104677559D01*
X129209378Y-104873260D01*
X129027287Y-105095732D01*
X128877073Y-105340858D01*
X128875347Y-105344791D01*
X128875346Y-105344792D01*
X128872072Y-105352251D01*
X128761517Y-105604102D01*
X128760342Y-105608229D01*
X128760341Y-105608230D01*
X128722136Y-105742348D01*
X128682756Y-105880594D01*
X128642249Y-106165216D01*
X128642227Y-106169505D01*
X128642226Y-106169512D01*
X128641438Y-106320000D01*
X128640743Y-106452703D01*
X120857867Y-106452703D01*
X120859235Y-106191583D01*
X120859235Y-106191576D01*
X120859257Y-106187297D01*
X120821732Y-105902266D01*
X120819262Y-105893235D01*
X120764575Y-105693334D01*
X120745871Y-105624964D01*
X120633077Y-105360524D01*
X120554422Y-105229101D01*
X120487643Y-105117521D01*
X120487640Y-105117517D01*
X120485439Y-105113839D01*
X120305687Y-104889472D01*
X120156342Y-104747749D01*
X120100258Y-104694527D01*
X120100255Y-104694525D01*
X120097149Y-104691577D01*
X119863683Y-104523814D01*
X119841843Y-104512250D01*
X119806738Y-104493663D01*
X119609608Y-104389288D01*
X119339627Y-104290489D01*
X119058736Y-104229245D01*
X119027685Y-104226801D01*
X118835718Y-104211693D01*
X118835709Y-104211693D01*
X118833261Y-104211500D01*
X118677729Y-104211500D01*
X118675593Y-104211646D01*
X118675582Y-104211646D01*
X118467452Y-104225835D01*
X118467446Y-104225836D01*
X118463175Y-104226127D01*
X118458980Y-104226996D01*
X118458978Y-104226996D01*
X118322416Y-104255277D01*
X118181658Y-104284426D01*
X117910657Y-104380393D01*
X117655188Y-104512250D01*
X117651687Y-104514711D01*
X117651683Y-104514713D01*
X117641594Y-104521804D01*
X117419977Y-104677559D01*
X117209378Y-104873260D01*
X117027287Y-105095732D01*
X116877073Y-105340858D01*
X116875347Y-105344791D01*
X116875346Y-105344792D01*
X116872072Y-105352251D01*
X116761517Y-105604102D01*
X116760342Y-105608229D01*
X116760341Y-105608230D01*
X116722136Y-105742348D01*
X116682756Y-105880594D01*
X116642249Y-106165216D01*
X116642227Y-106169505D01*
X116642226Y-106169512D01*
X116641438Y-106320000D01*
X116640743Y-106452703D01*
X111857867Y-106452703D01*
X111859235Y-106191583D01*
X111859235Y-106191576D01*
X111859257Y-106187297D01*
X111821732Y-105902266D01*
X111819262Y-105893235D01*
X111764575Y-105693334D01*
X111745871Y-105624964D01*
X111633077Y-105360524D01*
X111554422Y-105229101D01*
X111487643Y-105117521D01*
X111487640Y-105117517D01*
X111485439Y-105113839D01*
X111305687Y-104889472D01*
X111156342Y-104747749D01*
X111100258Y-104694527D01*
X111100255Y-104694525D01*
X111097149Y-104691577D01*
X110863683Y-104523814D01*
X110841843Y-104512250D01*
X110806738Y-104493663D01*
X110609608Y-104389288D01*
X110339627Y-104290489D01*
X110058736Y-104229245D01*
X110027685Y-104226801D01*
X109835718Y-104211693D01*
X109835709Y-104211693D01*
X109833261Y-104211500D01*
X109677729Y-104211500D01*
X109675593Y-104211646D01*
X109675582Y-104211646D01*
X109467452Y-104225835D01*
X109467446Y-104225836D01*
X109463175Y-104226127D01*
X109458980Y-104226996D01*
X109458978Y-104226996D01*
X109322416Y-104255277D01*
X109181658Y-104284426D01*
X108910657Y-104380393D01*
X108655188Y-104512250D01*
X108651687Y-104514711D01*
X108651683Y-104514713D01*
X108641594Y-104521804D01*
X108419977Y-104677559D01*
X108209378Y-104873260D01*
X108027287Y-105095732D01*
X107877073Y-105340858D01*
X107875347Y-105344791D01*
X107875346Y-105344792D01*
X107872072Y-105352251D01*
X107761517Y-105604102D01*
X107760342Y-105608229D01*
X107760341Y-105608230D01*
X107722136Y-105742348D01*
X107682756Y-105880594D01*
X107642249Y-106165216D01*
X107642227Y-106169505D01*
X107642226Y-106169512D01*
X107641438Y-106320000D01*
X107640743Y-106452703D01*
X104226697Y-106452703D01*
X104238307Y-106320000D01*
X104219115Y-106100629D01*
X104162120Y-105887924D01*
X104118585Y-105794562D01*
X104071382Y-105693334D01*
X104071379Y-105693329D01*
X104069056Y-105688347D01*
X104024675Y-105624964D01*
X103945908Y-105512473D01*
X103945906Y-105512470D01*
X103942749Y-105507962D01*
X103787038Y-105352251D01*
X103770768Y-105340858D01*
X103707759Y-105296739D01*
X103606654Y-105225944D01*
X103601672Y-105223621D01*
X103601667Y-105223618D01*
X103474232Y-105164195D01*
X103420947Y-105117278D01*
X103401486Y-105049001D01*
X103422028Y-104981041D01*
X103474232Y-104935805D01*
X103601667Y-104876382D01*
X103601672Y-104876379D01*
X103606654Y-104874056D01*
X103787038Y-104747749D01*
X103942749Y-104592038D01*
X103991928Y-104521804D01*
X104065899Y-104416162D01*
X104065900Y-104416160D01*
X104069056Y-104411653D01*
X104071379Y-104406671D01*
X104071382Y-104406666D01*
X104124868Y-104291964D01*
X104162120Y-104212076D01*
X104219115Y-103999371D01*
X104238307Y-103780000D01*
X104219115Y-103560629D01*
X104162120Y-103347924D01*
X104088313Y-103189644D01*
X104071382Y-103153334D01*
X104071379Y-103153329D01*
X104069056Y-103148347D01*
X103995055Y-103042662D01*
X103945908Y-102972473D01*
X103945906Y-102972470D01*
X103942749Y-102967962D01*
X103787038Y-102812251D01*
X103606654Y-102685944D01*
X103407076Y-102592880D01*
X103194371Y-102535885D01*
X102975000Y-102516693D01*
X102755629Y-102535885D01*
X102542924Y-102592880D01*
X102449562Y-102636415D01*
X102348334Y-102683618D01*
X102348329Y-102683621D01*
X102343347Y-102685944D01*
X102338840Y-102689100D01*
X102338838Y-102689101D01*
X102167473Y-102809092D01*
X102167470Y-102809094D01*
X102162962Y-102812251D01*
X102007251Y-102967962D01*
X102004094Y-102972470D01*
X102004092Y-102972473D01*
X101954945Y-103042662D01*
X101880944Y-103148347D01*
X101878621Y-103153329D01*
X101878618Y-103153334D01*
X101861687Y-103189644D01*
X101787880Y-103347924D01*
X101730885Y-103560629D01*
X101711693Y-103780000D01*
X101730885Y-103999371D01*
X101787880Y-104212076D01*
X101825132Y-104291964D01*
X101878618Y-104406666D01*
X101878621Y-104406671D01*
X101880944Y-104411653D01*
X101884100Y-104416160D01*
X101884101Y-104416162D01*
X101958073Y-104521804D01*
X102007251Y-104592038D01*
X102162962Y-104747749D01*
X102343346Y-104874056D01*
X102348328Y-104876379D01*
X102348333Y-104876382D01*
X102475768Y-104935805D01*
X102529053Y-104982722D01*
X102548514Y-105050999D01*
X102527972Y-105118959D01*
X102475768Y-105164195D01*
X102348334Y-105223618D01*
X102348329Y-105223621D01*
X102343347Y-105225944D01*
X102338840Y-105229100D01*
X102338838Y-105229101D01*
X102167473Y-105349092D01*
X102167470Y-105349094D01*
X102162962Y-105352251D01*
X102007251Y-105507962D01*
X102004094Y-105512470D01*
X102004092Y-105512473D01*
X101925325Y-105624964D01*
X101880944Y-105688347D01*
X101878621Y-105693329D01*
X101878618Y-105693334D01*
X101831415Y-105794562D01*
X101787880Y-105887924D01*
X101730885Y-106100629D01*
X101711693Y-106320000D01*
X101730885Y-106539371D01*
X101787880Y-106752076D01*
X101790205Y-106757061D01*
X101878618Y-106946666D01*
X101878621Y-106946671D01*
X101880944Y-106951653D01*
X101884100Y-106956160D01*
X101884101Y-106956162D01*
X101937043Y-107031770D01*
X102007251Y-107132038D01*
X102162962Y-107287749D01*
X102167471Y-107290906D01*
X102167473Y-107290908D01*
X102184455Y-107302799D01*
X102343346Y-107414056D01*
X102348328Y-107416379D01*
X102348333Y-107416382D01*
X102475768Y-107475805D01*
X102529053Y-107522722D01*
X102548514Y-107590999D01*
X102527972Y-107658959D01*
X102475768Y-107704195D01*
X102348334Y-107763618D01*
X102348329Y-107763621D01*
X102343347Y-107765944D01*
X102338840Y-107769100D01*
X102338838Y-107769101D01*
X102167473Y-107889092D01*
X102167470Y-107889094D01*
X102162962Y-107892251D01*
X102007251Y-108047962D01*
X102004094Y-108052470D01*
X102004092Y-108052473D01*
X101897851Y-108204201D01*
X101880944Y-108228347D01*
X101878621Y-108233329D01*
X101878618Y-108233334D01*
X101831415Y-108334562D01*
X101787880Y-108427924D01*
X101730885Y-108640629D01*
X101711693Y-108860000D01*
X100508500Y-108860000D01*
X100508500Y-100634500D01*
X100528502Y-100566379D01*
X100582158Y-100519886D01*
X100634500Y-100508500D01*
X120159135Y-100508500D01*
X120227256Y-100528502D01*
G37*
%TD.AperFunction*%
M02*
